<svg id="d5" xmlns="http://www.w3.org/2000/svg" viewBox="0 0 308.89 187.1"><defs><style>.cls-1{fill:#fdfdfe;stroke:#fdfdfe;}.cls-1,.cls-10,.cls-12,.cls-3,.cls-4,.cls-7,.cls-8,.cls-9{stroke-miterlimit:10;stroke-width:0.52px;}.cls-12,.cls-2{fill:#f5f6fb;}.cls-3{fill:#d27793;stroke:#d27793;}.cls-4{fill:#7388a0;stroke:#7388a0;}.cls-5{fill:#b56755;}.cls-6{fill:#c78b7a;}.cls-7{fill:none;}.cls-10,.cls-7{stroke:#000;}.cls-8{fill:#c8c3c2;stroke:#c8c3c2;}.cls-9{fill:#69504a;stroke:#69504a;}.cls-11{fill:#fff;}.cls-12{stroke:#f5f6fb;}</style></defs><title>dove-svg-5</title><path class="cls-1" d="M210.29,134.94c-.3.49-.15,1-.66,1.37a4.64,4.64,0,0,1-2.31.38,27.25,27.25,0,0,1-5.57-.85c-1.11-.27-1.56-.44-2.37.56-.37.39-.52,1-.94,1.39a12.63,12.63,0,0,1-1.84.75,4.47,4.47,0,0,1-2.69.85c-1.21-.07-2.47-.18-3.69-.28-3.44-.32-6.88-.66-10.29-.94a27.78,27.78,0,0,1-4.42-.73l-1-.33-.17-.06A210.19,210.19,0,0,0,203,134.67c1.9-.32,3.78-.72,5.64-1.15C209.31,134,209.43,134.68,210.29,134.94Z" transform="translate(-0.01 0.03)"/><path class="cls-2" d="M216.55,135.65c-1.24.71-4.68-.34-6.24-.72-.86-.26-1-.89-1.74-1.41l5.55-1.34C215.31,133.41,215,134.61,216.55,135.65Z" transform="translate(-0.01 0.03)"/><path class="cls-3" d="M99.88,144.81a13.11,13.11,0,0,0-2.75.3c-1.13.11-2.28.35-3.39.56-2.84.52-5.51,2.52-8.11,3.74a7.71,7.71,0,0,1-2.18.47c.57-1.06.89-2.86-.28-3.18a1.73,1.73,0,0,0-1.6.49,4.79,4.79,0,0,1,.68-2.84c1.68-2,4.2-2.95,6.68-3.59a7.63,7.63,0,0,0,2.5-.66,14.54,14.54,0,0,0,2.82,1.54c1.28.66,2.42,1.56,3.72,2.22A9.35,9.35,0,0,1,99.88,144.81Z" transform="translate(-0.01 0.03)"/><path class="cls-4" d="M175.6,92.4a29.51,29.51,0,0,0-5.17-5.57,21.42,21.42,0,0,0-3.37-2.43c-1.06-.55-2.14-.89-3.06-1.41,2.6-.6,2.76-3.8,2.2-5.93-.66-2.5-3.14-4-5.14-5.2,2.14-.34,2.6-3,2.14-4.76-.83-2.84-4.72-6-7-7.6-3.48-2.47-6.9-3.84-10.76-5.55-1.91-.83-3.72-1.77-5.72-2.45-1.77-.67-3.8-1-5.49-1.67,1.31-.17,4,.67,4.53-1.17.19-.68-.52-.91-.47-1.47s.83-1.22.83-2.22c0-4-4.12-4.25-6.62-6.13-1.93-.88-8.2-3.93-10.2-4.68-3.55-1.31-10.79-5.69-22.09-7.52-3.89-.63-7.8-1.11-11.74-1.48a88.33,88.33,0,0,0-12.79.06c-.78,3.27.89,6.89,1.67,10.17a34.22,34.22,0,0,1,.91,9.32,18.61,18.61,0,0,1-2.8,5.2,49.86,49.86,0,0,1-8.31,8.79c-8.62,7.49-15.86,16.73-19.38,27.73C46,91.92,45,96.93,47.25,102.31c1.93,4.7,3.84,9.38,7.84,12.7a117.88,117.88,0,0,0,11.61,9c4.76,3,9.88,5.33,14.69,8.15a115.19,115.19,0,0,0,14.73,6.9c6.19,2.49,12.5,2.6,19.08,3.28s12.88,2.2,19.45,2.56a32.3,32.3,0,0,0,14-2.28c2-.75,4.26-1.56,6.44-2.46a22.73,22.73,0,0,0,7.34-4.57c1.83-1.81,2-4.19,3-6.19.52-1.09,1.9-1.95,2.71-2.95a7.12,7.12,0,0,0,.81-1.24,11.92,11.92,0,0,0,1.07-2.6,26.11,26.11,0,0,0,1.31-7.94v-.1a24.34,24.34,0,0,0-.89-7.58c-.43-1.56-.26-1.73,1-2.73a18.19,18.19,0,0,0,3.78-4C176.57,98.1,177.09,94.61,175.6,92.4Z" transform="translate(-0.01 0.03)"/><path class="cls-1" d="M303.36,133.68c-.3,1.91-.41,3.52-1.86,4.91-.75.72-1.71,1.15-2.5,1.79a22.08,22.08,0,0,1-5.87,3.61,39.83,39.83,0,0,1-8.31,2.6,9,9,0,0,1-3.5-.36,6.86,6.86,0,0,0-2.48-.52c-1.25-.52-8-3.18-9.25-3.67-1.68-.69-3.59-.92-5.32-1.52-3.48-1.22-6.76-3-10.12-4.57a45.26,45.26,0,0,0-5.4-2.48c-2-.6-4.24-.7-6.24-1.3-.7-.22-1.41-.46-2.08-.69a35.13,35.13,0,0,1-4.2-1.86,12.13,12.13,0,0,1-1.81-1.24c.66-.15,1.32-.31,2-.43,5.4-1.07,10.65-2.84,16.11-3.78,4.36-.77,9-1.6,13-3.37a29.85,29.85,0,0,0,2.78-1.43c1.67.56,3.35,1,5,1.56,3,1,6.08,1.13,9.2,1.71,2.68.52,5.13,1.69,7.88,1.75,4.2.11,7.67-.32,11.83-.32.88.9,1.33,3,1.48,4.25A19.84,19.84,0,0,1,303.36,133.68Z" transform="translate(-0.01 0.03)"/><path class="cls-2" d="M308.24,116.44a13.51,13.51,0,0,0-1.3-1.56c-.56-.72-.94-1.62-1.56-2.32-2.16-2.56-5.06-5.32-8.28-6.32-4.3-1.32-8.88-1.92-13.3-2.82-5.55-1.15-11.26-1.74-16.73-3.15a1.78,1.78,0,0,0,.1-.44,117.22,117.22,0,0,0-12.92-3.6c-7.92-1.79-15-6.19-22.7-8.47-1.93-.57-3.9-1-5.85-1.51-1.23-.39-3.8-.49-4.62-1.39.52-.31,3.93-.71,2.25-1.92,2.46-.16,4.6.71,7,.93a89.22,89.22,0,0,1,12.85,2c3.58.86,7.1,2.25,10.77,2.67A69.46,69.46,0,0,1,265.32,91c-.37-.14-.73-.28-1.09-.44-4.27-1.88-9-2.75-13.39-4.48a117,117,0,0,0-12.93-4.74c-4.72-2.46-10.72-3.48-15.72-5.34-3.37-1.26-7.28-4-10.65-4.44a6.27,6.27,0,0,0,1.43,0,32.35,32.35,0,0,0-5.32-4.84c-4.57-3.85-10.2-6.74-15.2-10-2-1.28-4.21-1.92-6.19-3.22s-3.77-3.12-5.89-4.42c-8.31-5.23-17.35-10-26-14.76-9-4.85-19.47-7.24-28.9-11-7.3-2.93-14.53-4.24-22.13-5.41a72.56,72.56,0,0,0-21.83.49c-6.86,1-11.21.86-16.93-3.2-4.68-3.31-7.79-7.41-13.11-9.95A54.5,54.5,0,0,0,34.58.1a26.67,26.67,0,0,0-17.7,4.51c-2.13,1.49-4,3-5,5.59s-.72,5.54-1.85,8.06h.06a.85.85,0,0,1,.19.26v.07a.36.36,0,0,1,0,.07.72.72,0,0,0,0,.17.39.39,0,0,1,0,.14s0,.25,0,.37a2.41,2.41,0,0,0,0,.35c.08.86,0,2,0,2.67a8.41,8.41,0,0,1,1,.3,10.53,10.53,0,0,1,2.71,1c1,.75,2,1.46,3,2.24.73.59-.31,2-.52,2.91-.14.2.27.79.09,1.2-.26.58-1.18.88-1.65,1.23a6.13,6.13,0,0,0-1.7,2.08,21.21,21.21,0,0,1-.55,2.08c-.74,1.29-3.22,2.13-4.52,2.88-1,.52-2.08.87-3,1.44a3.88,3.88,0,0,0-.67.76,1.75,1.75,0,0,1-.84.52c-.82.34-1.48.93-2.48.62A2.08,2.08,0,0,1,.14,40.31a2.28,2.28,0,0,0,.32.8c.91,1.28,2.75.41,3.86-.11A40.35,40.35,0,0,1,8.6,39.31c1.43-.49,2.77-1.54,4.2-2s3.33-.23,4.89-.23c.68,0,2.08-.22,2.6.3.36.34.25,1.7.25,2.22,0,1.6-.49,3.29-.66,4.93a49.52,49.52,0,0,0,.3,12.56c.68,4.31,2.17,8.21,3.5,12.47,2.41,7.84,5.12,15.15,9.71,22,2.21,3.27,4.2,6.67,6.44,9.93a102.89,102.89,0,0,0,7,8.94c.88,1.06,1.78,2.06,2.65,3.06,3.72,4.06,7.8,8.14,12.64,11,2.69,1.56,5.63,2.6,8.31,4.16,3.49,2,7.18,3.67,10.7,5.59,6.41,3.46,12.54,7.27,19,10.74a65.82,65.82,0,0,0,6,2.84c-.78,3.46-.29,8.56-3,11.36-1,1.08-4.46,2.41-4.46,4.08,0,2.16,2.18,2.67,3.78,3.5,1.12.58.73,1.15.41,2.37a28.3,28.3,0,0,1-1,3.59c2.94-2.73,6.53-5.1,8.94-8.31a63.93,63.93,0,0,1,5-5.42c1.4-1.47,3-2.73,4.35-4.29.86-1,1.86-1.77,2.69-2.69a53.43,53.43,0,0,0,7.17.1,30.64,30.64,0,0,0,7.9-2.15,5.72,5.72,0,0,0,1.37-.73c1.18-1,3.55-1.07,5.23-1.24a31.34,31.34,0,0,1,7.64-.09,13.15,13.15,0,0,0,3.67.3,22.22,22.22,0,0,1,2.78-.56c2-.11,4.15.6,6.15.17.75-.18,1.54-.78.92-1.35s-1.71-.35-2.33-.87c.86-.58,3.29-.52,4.38-.58,1.77-.09,3.57.08,5.34,0,2.29-.09,4.27-1.33,6.45-1.33.08-.7-1.17-1.11-1.69-1.45-.81-.55-1.64-1.17-2.43-1.79-1.24-1-2.44-1.88-2.8-3.37H169a29.57,29.57,0,0,1-2.39,1.86c-3,2.12-7.34,1.75-11.46,1.26-2.17.9-4.44,1.71-6.44,2.46a32.3,32.3,0,0,1-14,2.28c-6.58-.36-12.94-1.88-19.45-2.56s-12.89-.79-19.08-3.28a118.83,118.83,0,0,1-14.73-6.9C76.67,129.38,71.56,127,66.8,124a117.88,117.88,0,0,1-11.61-9c-4-3.33-5.92-8.05-7.84-12.73-2.22-5.38-1.22-10.39.52-15.88,3.56-11,10.76-20.23,19.36-27.74a50.63,50.63,0,0,0,8.31-8.79,19,19,0,0,0,2.8-5.2,34.22,34.22,0,0,0-.91-9.32c-.79-3.28-2.45-6.91-1.67-10.17a88.33,88.33,0,0,1,12.79-.06c3.94.38,7.85.85,11.74,1.48,11.31,1.83,18.54,6.21,22.09,7.52,2,.75,8.27,3.79,10.2,4.68,2.5,1.88,6.62,2.13,6.62,6.13,0,1-.75,1.6-.83,2.22s.66.79.47,1.47c-.53,1.84-3.23,1-4.53,1.17,1.69.67,3.72,1,5.49,1.67,1.95.68,3.8,1.62,5.72,2.45,3.86,1.71,7.28,3.08,10.76,5.55,2.32,1.6,6.21,4.76,7,7.6.46,1.76,0,4.42-2.14,4.76,2,1.2,4.48,2.67,5.14,5.2.55,2.13.4,5.33-2.2,5.93.92.52,2.06.85,3.06,1.41a21.42,21.42,0,0,1,3.33,2.41,25.29,25.29,0,0,1,4.89.41,38.89,38.89,0,0,1,10.07,3.34,71.5,71.5,0,0,1,7.95,4.84c1.79,1.23,3.92,2.13,5.12,4.05a8,8,0,0,1,1.17,3,10,10,0,0,1,2.6,4.2c2.28-.75,4.78,0,7.28,0a68,68,0,0,1,7.28,0,3.69,3.69,0,0,1,.67.08,5.91,5.91,0,0,1,2.22-.58c2.55,0,5.22.32,8,.32s5.72,0,8.5.17c2.39.11,4.68.88,7.07,1.11a33.39,33.39,0,0,1,7,1.37,39.82,39.82,0,0,1,4.59-.81c2.6-.35,5.28-.62,7.9-.73,4.12-.16,9.22-.62,12.79,1.92,2.69,1.91,1.6,4.31-.85,5.91-2.08,1.31-4.21,2.76-6.39,4,1.67.56,3.35,1,5,1.56,3,1,6.08,1.13,9.2,1.71,2.68.52,5.13,1.69,7.88,1.75,4.2.11,7.67-.32,11.83-.32,3.19.05,4.51-2.55,6.06-4.79C309.14,118.1,309.06,117.71,308.24,116.44ZM23.33,26.35c.5.85-.32,2-1.19,2.51a4,4,0,0,1-3.16.36l-.17-.06-.2-.09a7.62,7.62,0,0,0-1-.45l-.25-.07a1,1,0,0,0-.36,0c.68-.7,1.14-2.29,1.6-3h0a1.15,1.15,0,0,1,.14-.19,2.83,2.83,0,0,1,2.88-.75,4.82,4.82,0,0,1,1.68,1.7Z" transform="translate(-0.01 0.03)"/><path class="cls-1" d="M278.28,96.4c-.88.79-2.89.58-4,.52-1.56-.07-3.12-.32-4.68-.52a26.24,26.24,0,0,1-3.22-.25c-.6-.15-1.13-.64-1.77-.56a4.76,4.76,0,0,1,2.52,4.2,117.22,117.22,0,0,0-12.92-3.6c-7.92-1.79-15-6.19-22.7-8.47-1.93-.57-3.9-1-5.85-1.51-1.23-.39-3.8-.49-4.62-1.39.52-.31,3.93-.71,2.25-1.92,2.46-.16,4.6.71,7,.93a89.22,89.22,0,0,1,12.85,1.95c3.58.86,7.1,2.25,10.77,2.67a69.46,69.46,0,0,1,11.37,2.48l.69.26h0c3.31,1.21,6.83,2,10.07,3.42C276.87,95,279.16,95.61,278.28,96.4Z" transform="translate(-0.01 0.03)"/><path class="cls-1" d="M235.63,138.61c-.32.72-1.71,1.39-2.44,1.66a13.2,13.2,0,0,1-8.56-.15,21.68,21.68,0,0,1-5.1-2.84c-.92-.6-2.25-.89-3-1.6-1.56-1-1.23-2.24-2.4-3.48l1.24-.28a6.34,6.34,0,0,0,.83.52,28.72,28.72,0,0,0,6.76,2.35,76,76,0,0,1,9.29,2.45C233.36,137.63,234.43,138.17,235.63,138.61Z" transform="translate(-0.01 0.03)"/><path class="cls-5" d="M16.69,30c-.26.58-1.18.88-1.65,1.23a6.13,6.13,0,0,0-1.7,2.08,21.21,21.21,0,0,1-.55,2.08c-.74,1.29-3.22,2.13-4.52,2.88-1,.52-2.08.87-3,1.44A24.23,24.23,0,0,1,16.6,28.78C16.43,29.1,16.87,29.61,16.69,30Z" transform="translate(-0.01 0.03)"/><path class="cls-1" d="M10.32,22.26a0,0,0,0,1,0,0h0a5.69,5.69,0,0,0-2.14-.1A8.51,8.51,0,0,0,6.45,23h0a.06.06,0,0,1,0-.08,15.2,15.2,0,0,0,1-1.79h0a15.5,15.5,0,0,0,.65-1.66A2.45,2.45,0,0,1,9,18.2H9a1.32,1.32,0,0,1,.78,0,.36.36,0,0,1,.17.07h0a.85.85,0,0,1,.19.26v.07a.36.36,0,0,1,0,.07.72.72,0,0,0,0,.17.39.39,0,0,1,0,.14s0,.25,0,.37a2.41,2.41,0,0,0,0,.35A25.2,25.2,0,0,1,10.32,22.26Z" transform="translate(-0.01 0.03)"/><path class="cls-1" d="M22.17,28.9a4,4,0,0,1-3.16.36l-.17-.06-.2-.09a7.62,7.62,0,0,0-1-.45l-.25-.07a1,1,0,0,0-.36,0c.68-.7,1.14-2.29,1.6-3h0a1.15,1.15,0,0,1,.14-.19,2.83,2.83,0,0,1,2.88-.75,4.82,4.82,0,0,1,1.68,1.7C23.83,27.2,23,28.34,22.17,28.9Z" transform="translate(-0.01 0.03)"/><path class="cls-6" d="M16.65,28.8A24.13,24.13,0,0,0,5.37,39.71a3.88,3.88,0,0,0-.67.76,1.75,1.75,0,0,1-.84.52c-.82.34-1.48.93-2.48.62A2.08,2.08,0,0,1,.17,40.3,7.55,7.55,0,0,1,0,38.74a11,11,0,0,1,.17-2.12,25,25,0,0,1,1.73-4c.74-1.68,1.48-3.37,2.24-5A21.7,21.7,0,0,0,5.55,25c.27-.62.37-1.1.6-1.62h0l.15-.25a12.31,12.31,0,0,1,1.84-.87,5.72,5.72,0,0,1,2.2.12,8.41,8.41,0,0,1,1,.3,10.53,10.53,0,0,1,2.71,1c1,.75,2,1.46,3,2.24C17.83,26.5,16.79,27.91,16.65,28.8Z" transform="translate(-0.01 0.03)"/><path class="cls-7" d="M.12,40.29" transform="translate(-0.01 0.03)"/><path class="cls-8" d="M32.78,12.24a9,9,0,0,0-3.07-1,2.28,2.28,0,0,0-1.75.47,18.37,18.37,0,0,0-2.17,1.41,11,11,0,0,0-3,3.93,6.35,6.35,0,0,0-.64,2.32c-.06.61-.16.84.25,1.26s.86,1,1.32,1.52.76,1,1.19,1.52a2.74,2.74,0,0,0,1.7.77,7.06,7.06,0,0,0,2.08.49,10,10,0,0,0,4.39-1.79,15.63,15.63,0,0,0,2-1.7,5.93,5.93,0,0,0,1.5-1.74c.7-1.44,0-2.84-.66-4.1A11.79,11.79,0,0,0,32.78,12.24Z" transform="translate(-0.01 0.03)"/><path class="cls-9" d="M29.59,14.13a3.39,3.39,0,0,0-1.74.49,6,6,0,0,0-1.52,1.76,2.58,2.58,0,0,0,1.48,3.85,3.8,3.8,0,0,0,4.16-.9,2.75,2.75,0,0,0,.75-3.4c-.29-.7-.52-1.39-1.29-1.7A5.94,5.94,0,0,0,29.59,14.13Z" transform="translate(-0.01 0.03)"/><path class="cls-8" d="M83.54,149.91a2,2,0,0,1-.46.64c-1.27,1.18-3,2-4.27,3.12a4.05,4.05,0,0,1-.32-2.08,4.72,4.72,0,0,1,2-3.39c.29-.21.68-.62,1.11-.94a1.73,1.73,0,0,1,1.6-.49C84.43,147.1,84.07,148.85,83.54,149.91Z" transform="translate(-0.01 0.03)"/><path class="cls-8" d="M66,169.78a1.82,1.82,0,0,0-.06.87,14.08,14.08,0,0,0-3-.08,23.73,23.73,0,0,1-3,.21c-.11-1.56,2.54-1.84,3.5-1.92s1.86-.25,2.86-.25h.21A3.27,3.27,0,0,0,66,169.78Z" transform="translate(-0.01 0.03)"/><path class="cls-8" d="M83.63,184.38c-.75.38-1.52.59-2.26,1s-2.33,1.56-3.22,1.41c-.7-1.78,1.24-3.91,3.08-5,1.22,0,1.52.21,1.88,1.56A1.82,1.82,0,0,0,83.63,184.38Z" transform="translate(-0.01 0.03)"/><path class="cls-8" d="M79.72,161.43a.67.67,0,0,1-.3,0c-.9-.13-1.8-.26-2.67-.45-.68-.11-2.63-.43-3.08-1-.71-.88,1.62-1.18,2.2-1.24a15.46,15.46,0,0,1,4.68,0A2.94,2.94,0,0,0,79.72,161.43Z" transform="translate(-0.01 0.03)"/><path class="cls-7" d="M91.2,172.1h0" transform="translate(-0.01 0.03)"/><path class="cls-3" d="M103.21,168.76c-.15.75-.49,2.31-.85,3.64h0c-.92.77-1.81,1.56-2.71,2.33a64.25,64.25,0,0,1-6.49,4.59c-2.11,1.43-4.16,2.93-6.38,4.16-1.12.6-2.31,1.56-3.12.9a1.82,1.82,0,0,1-.52-1c-.37-1.35-.66-1.56-1.88-1.56a2,2,0,0,0-.36,0,9.1,9.1,0,0,1,1.75-2.24,68.77,68.77,0,0,1,6.64-5.72c.62-.52,1.32-1.09,1.92-1.69a1.62,1.62,0,0,1-.32,0,3.27,3.27,0,0,1-1.39.38c-1.31.19-2.67.23-4,.38a34,34,0,0,1-5,.52c-1.92-.07-3.84-.28-5.78-.28a25.88,25.88,0,0,1-7.28-1.3c-.81-.23-1.35-.55-1.47-1.17a1.82,1.82,0,0,1,.06-.87,3.27,3.27,0,0,1,.52-1.17,2,2,0,0,1,1.39-.77,20,20,0,0,1,5.27.49,37.24,37.24,0,0,0,5.36.28c1.11,0,2.18-.23,3.27-.3s2.13.06,3.2,0c.9-.09,1.79-.32,2.69-.47s1.71,0,2.54-.15a42.78,42.78,0,0,0,4.74-.56,9.31,9.31,0,0,0-.94-.28c-2.77-.66-5.52-1.64-8.31-2.37a23.91,23.91,0,0,1-3.69-1.39,5.62,5.62,0,0,1-1.94-1,1.34,1.34,0,0,1-.34-.58,3,3,0,0,1,.81-2.78c1-1.11,2.81-1.06,4.2-.85,1.62.21,3.16,1.3,4.68,2a52.29,52.29,0,0,0,5.2,2.45,17.75,17.75,0,0,1,4,1.47c1,.66,1.45,2,2.56,2.54C102.53,167.1,103.54,166.82,103.21,168.76Z" transform="translate(-0.01 0.03)"/><path class="cls-1" d="M240.42,131.5c-3.12,1.5-5.89,3.2-9.61,2.39-2.18-.47-3.42-1.67-5.3-2.67a12.58,12.58,0,0,1-1.17-.73c.73-.09,1.46-.19,2.18-.34,2.63-.52,5.26-1.17,7.86-1.75h0a12.13,12.13,0,0,0,1.81,1.24A35.13,35.13,0,0,0,240.42,131.5Z" transform="translate(-0.01 0.03)"/><path class="cls-10" d="M31,18a1.19,1.19,0,0,1-2.22-.43.87.87,0,0,0,.83-.23,1.28,1.28,0,0,0,.34-.83C30.64,16.68,31.64,17.1,31,18Z" transform="translate(-0.01 0.03)"/><path class="cls-11" d="M30,16.49a1.28,1.28,0,0,1-.34.83.87.87,0,0,1-.83.23.65.65,0,0,1-.52-.94c.21-.52,1.22-1,1.56-.41l.06.08v.06A.27.27,0,0,1,30,16.49Z" transform="translate(-0.01 0.03)"/><path class="cls-2" d="M278.79,145.69a5.23,5.23,0,0,1-2.16,1.62c-.9.52-1.82,1.49-2.82,1.77a9.19,9.19,0,0,1-3.26-.17,27.45,27.45,0,0,1-6.47-1.94,82.78,82.78,0,0,0-10.25-3.46c-3.74-.94-7.38-2.26-11.12-3.2-2.33-.6-4.76-1.88-7.13-1.77h0c-1.14-.37-2.25-1-3.37-1.37a76,76,0,0,0-9.29-2.45,28.72,28.72,0,0,1-6.76-2.35,6.34,6.34,0,0,1-.83-.52c1-.23,2-.45,3-.64,2-.39,4-.52,6-.77a12.58,12.58,0,0,0,1.17.73c1.89,1,3.12,2.2,5.3,2.67,3.72.81,6.49-.89,9.61-2.39.68.24,1.39.48,2.08.69,2,.6,4.24.7,6.24,1.3a45.26,45.26,0,0,1,5.4,2.48c3.36,1.57,6.64,3.35,10.12,4.57,1.73.6,3.64.83,5.32,1.52C270.81,142.53,277.59,145.2,278.79,145.69Z" transform="translate(-0.01 0.03)"/><path class="cls-1" d="M274.7,115.39c-2.08,1.31-4.21,2.76-6.39,4a29.85,29.85,0,0,1-2.78,1.43c-4,1.77-8.65,2.6-13,3.37-5.45.91-10.7,2.71-16.06,3.78l-2,.43h0c-2.6.58-5.23,1.23-7.86,1.75-.72.15-1.45.26-2.18.34-2,.25-4,.39-6,.77-1,.19-2,.41-3,.64l-1.29.34-5.55,1.35c-1.86.43-3.74.83-5.64,1.15a212,212,0,0,1-28.61,2.37,5.24,5.24,0,0,0-1.81-.38,3.47,3.47,0,0,0,.08.42h-3.55c4-3.37,7.21-7.57,11.37-10.78,1-.79,2.2-1.7,3.31-2.45l.26-.17h0a32.4,32.4,0,0,0,6.87-1.39h0a6.82,6.82,0,0,0,2.35,1.17,17.82,17.82,0,0,0,7,.1,5.42,5.42,0,0,0,2.93-1.56,39.4,39.4,0,0,0,6.27,1c1.65.18,4.74,1.22,6-.34,3.12.36,6.17,0,9.29.36,4.06.47,7.61,1.52,11.66.06,1.56-.56,4.16-1.41,5.06-3.05,3.4.39,7.41-.47,10.49-1.2s8.14-2.18,5.08-5.85a13.9,13.9,0,0,0-6.76-4,39.82,39.82,0,0,1,4.59-.81c2.6-.35,5.28-.62,7.9-.73,4.12-.16,9.22-.62,12.79,1.92C278.24,111.37,277.13,113.77,274.7,115.39Z" transform="translate(-0.01 0.03)"/><path class="cls-12" d="M251.91,118.93c-2.9.7-7.09,1.55-10.48,1.17a2.43,2.43,0,0,0,.37-1.57c-.2-1.51-2.2-3.06-3.2-4a22,22,0,0,0-6.38-3.82,55,55,0,0,0-14.75-4,5.91,5.91,0,0,1,2.22-.58c2.55,0,5.22.32,8,.32s5.72,0,8.5.17c2.39.11,4.68.88,7.07,1.11a33.39,33.39,0,0,1,7,1.37,14,14,0,0,1,6.76,4C260,116.78,254.81,118.23,251.91,118.93Z" transform="translate(-0.01 0.03)"/><path class="cls-1" d="M241.42,120.13c-.9,1.64-3.5,2.49-5.06,3.05-4.06,1.46-7.6.41-11.66-.06-3.12-.36-6.17,0-9.29-.36a2,2,0,0,0,.38-.66c.64-1.81-1.6-5.23-2.6-6.6a21,21,0,0,0-5.67-5,41.4,41.4,0,0,0-5-2.73c-.09-.38-.2-.79-.32-1.17,2.28-.75,4.78,0,7.28,0a68,68,0,0,1,7.28,0,3.69,3.69,0,0,1,.67.08,55,55,0,0,1,14.75,4,22,22,0,0,1,6.38,3.82c1,1,3,2.52,3.2,4A2.43,2.43,0,0,1,241.42,120.13Z" transform="translate(-0.01 0.03)"/><path class="cls-12" d="M215.84,122.09a2,2,0,0,1-.38.66c-1.28,1.56-4.37.52-6,.34a39.4,39.4,0,0,1-6.27-1,2.79,2.79,0,0,0,.7-1.86,11.26,11.26,0,0,0-1-3.28,16,16,0,0,0-1.33-2.48,9.81,9.81,0,0,0,1.09-6.13,4.42,4.42,0,0,0-.09-.58,41.4,41.4,0,0,1,5,2.73,21,21,0,0,1,5.66,5C214.31,116.85,216.43,120.27,215.84,122.09Z" transform="translate(-0.01 0.03)"/><path class="cls-1" d="M203.9,120.17a2.79,2.79,0,0,1-.7,1.86,5.42,5.42,0,0,1-2.93,1.56,17.82,17.82,0,0,1-7-.1,6.82,6.82,0,0,1-2.35-1.17c4.23-1.48,8.63-4.06,10.63-7.88a16,16,0,0,1,1.33,2.48A12.34,12.34,0,0,1,203.9,120.17Z" transform="translate(-0.01 0.03)"/><path class="cls-12" d="M201.47,114.46c-2,3.82-6.4,6.4-10.63,7.88h0a32.4,32.4,0,0,1-6.87,1.39h0c-2.24.25-4.51.43-6.62.85s-4,1.26-6.11.94a15,15,0,0,0-2.22-.21,11.92,11.92,0,0,0,1.07-2.6,26.11,26.11,0,0,0,1.28-8v-.1a15.07,15.07,0,0,0,1.5.25,47.31,47.31,0,0,0,9.35-.3c2.22-.21,4.4-.3,6.62-.52a11.44,11.44,0,0,0,7.41-3.33,9.27,9.27,0,0,0,3.37-8.39,10,10,0,0,1,2.6,4.2,10.18,10.18,0,0,1,.32,1.17,5.53,5.53,0,0,0,.09.58A9.81,9.81,0,0,1,201.47,114.46Z" transform="translate(-0.01 0.03)"/><path class="cls-1" d="M196.21,110.71A11.44,11.44,0,0,1,188.8,114c-2.22.19-4.4.28-6.62.52a47.19,47.19,0,0,1-9.35.3,15.07,15.07,0,0,1-1.5-.25,24.34,24.34,0,0,0-.89-7.58c-.43-1.56-.26-1.73,1-2.73a18.19,18.19,0,0,0,3.78-4c1.38-2.14,1.88-5.66.38-7.88a29.51,29.51,0,0,0-5.17-5.57,25.29,25.29,0,0,1,4.89.41,38.89,38.89,0,0,1,10.11,3.29,71.5,71.5,0,0,1,7.91,4.73c1.79,1.23,3.92,2.13,5.12,4.05a8,8,0,0,1,1.17,3A9.37,9.37,0,0,1,196.21,110.71Z" transform="translate(-0.01 0.03)"/><path class="cls-1" d="M183.95,123.72l-.26.17c-1.11.75-2.31,1.66-3.31,2.45-4.16,3.2-7.37,7.41-11.37,10.78a29.57,29.57,0,0,1-2.39,1.86c-3,2.12-7.34,1.75-11.46,1.26a22.73,22.73,0,0,0,7.34-4.57c1.83-1.81,2-4.19,3-6.19.52-1.09,1.9-2,2.71-3a7.12,7.12,0,0,0,.81-1.24c.75,0,1.48.1,2.22.21,2.11.32,4-.52,6.11-.94A62.57,62.57,0,0,1,183.95,123.72Z" transform="translate(-0.01 0.03)"/><path class="cls-1" d="M175.23,100.31a18.19,18.19,0,0,1-3.78,4c-1.3,1-1.47,1.17-1,2.73a24.34,24.34,0,0,1,.89,7.58v.1a26.11,26.11,0,0,1-1.28,8,11.92,11.92,0,0,1-1.07,2.6,7.12,7.12,0,0,1-.81,1.24c-.81,1-2.19,1.86-2.71,2.95-1,2-1.21,4.38-3,6.19a22.73,22.73,0,0,1-7.34,4.57c-2.17.9-4.44,1.71-6.44,2.46a32.3,32.3,0,0,1-14,2.28c-6.58-.36-12.94-1.88-19.45-2.56s-12.89-.79-19.08-3.28a118.83,118.83,0,0,1-14.73-6.9c-4.82-2.81-9.93-5.15-14.69-8.15a117.88,117.88,0,0,1-11.61-9c-4-3.33-5.92-8-7.84-12.73C45.07,97,46.07,92,47.81,86.51c3.52-11,10.76-20.24,19.38-27.73A50.63,50.63,0,0,0,75.5,50a19,19,0,0,0,2.8-5.2,34.22,34.22,0,0,0-.91-9.32c-.79-3.28-2.45-6.91-1.67-10.17a88.33,88.33,0,0,1,12.79-.06c3.94.38,7.85.85,11.74,1.48,11.31,1.83,18.54,6.21,22.09,7.52,2,.75,8.27,3.79,10.2,4.68C135,40.8,139.16,41,139.16,45c0,1-.75,1.6-.83,2.22s.66.79.47,1.47c-.53,1.84-3.23,1-4.53,1.17,1.69.67,3.72,1,5.49,1.67,1.95.68,3.8,1.62,5.72,2.45,3.86,1.71,7.28,3.08,10.76,5.55,2.32,1.6,6.21,4.76,7,7.6.46,1.76,0,4.42-2.14,4.76,2,1.2,4.48,2.67,5.14,5.2.55,2.13.4,5.33-2.2,5.93.92.52,2.06.85,3.06,1.41a21.42,21.42,0,0,1,3.33,2.41,29.51,29.51,0,0,1,5.2,5.57C177.09,94.61,176.57,98.1,175.23,100.31Z" transform="translate(-0.01 0.03)"/></svg>