<svg id="d4" xmlns="http://www.w3.org/2000/svg" viewBox="0 0 279.33 399.66"><defs><style>.cls-1{fill:#c8c3c2;stroke:#c8c3c2;}.cls-1,.cls-10,.cls-11,.cls-2,.cls-3,.cls-5,.cls-8,.cls-9{stroke-miterlimit:10;}.cls-2,.cls-9{fill:none;}.cls-11,.cls-2{stroke:#000;}.cls-3{fill:#d27793;stroke:#d27793;}.cls-4{fill:#943a52;}.cls-5{fill:#7388a0;stroke:#7388a0;}.cls-6{fill:#f5f6fb;}.cls-7{fill:#c78b7a;}.cls-8{fill:#69504a;stroke:#69504a;}.cls-10,.cls-9{stroke:#fdfdfe;}.cls-10{fill:#fdfdfe;}</style></defs><title>dove-svg-4</title><path class="cls-1" d="M117.77,324.44c2.5-1.47,5.19-1.47,8-1.34a1.54,1.54,0,0,0-.17.39,5.8,5.8,0,0,0,.65,5,52.33,52.33,0,0,0-6.71,1.64,17.07,17.07,0,0,0-3.07,2.16c-.56-.78-1.16-1.56-1.77-2.34h0C115,327.7,115.78,325.62,117.77,324.44Z" transform="translate(0.09 0)"/><path class="cls-2" d="M207.59,364a3.51,3.51,0,0,1,.43-.39v-.09" transform="translate(0.09 0)"/><path class="cls-1" d="M155.09,379.55a4.37,4.37,0,0,0,.74.82,4.58,4.58,0,0,0,1.9,1.08,22.81,22.81,0,0,1-1.17,3.33,38,38,0,0,1-3.81,5.51C151.23,388.52,153.66,382.93,155.09,379.55Z" transform="translate(0.09 0)"/><path class="cls-1" d="M128.93,354.07c1.38-1.22,1.38-1.74,2.51-2,3.9,1.44,7.36,5.5,7.36,9.44-1.21-.26-3.37-2.59-4.8-3.33-2-1-3.55-2.73-5.28-3.9A.77.77,0,0,0,128.93,354.07Z" transform="translate(0.09 0)"/><path class="cls-2" d="M192.75,294.63a.52.52,0,0,0-.22.22" transform="translate(0.09 0)"/><path class="cls-3" d="M125.6,323.46a1.54,1.54,0,0,1,.17-.39c1.38-3.21,7.82-3.12,10.82-3.12,4.9,0,8.58,3.24,13.12,4.5,2.43.69,4.51-.57,6.67-1.26,2-.6,3.85-.73,5.71-1.9,8-5,12.82-11.47,14.72-20.78.43-2.12,0-3.2,1.9-4.63a24.82,24.82,0,0,1,4.29-2.16c3.68-1.82,5.71.95,9.52,1.08-4.71,3.81-4.93,10.69-5.19,16.32-.22,5.88,2.9,12.16,6.06,16.88,3,4.55,4.71,9.79,7.44,14.46,1.82,3.16,11.21,16.1,10.56,21.9-1-1.21-2.21-1.69-3.42-.78-.61.78-.44,2.26.17,3.9-5.62,1.17-8.83-8.87-10.73-12.68a79.08,79.08,0,0,0-5.11-9.13c-2.21-3.33-4.59-8.09-7.49-10.82-6.45-6.06-9.73,4.07-11.12,8.48-2.42,7.92-4.8,15.63-7.92,23.29-1.17,2.94-3.16,16-8,14.76a4.58,4.58,0,0,1-1.9-1.08,4.37,4.37,0,0,1-.74-.82c-1.73-2.25-1-5-.26-7.7a123,123,0,0,0,2.87-13.62c.65-4.25,1.68-8.79,2.29-13.25a79.79,79.79,0,0,1,1.56-9.65,25,25,0,0,1-15.11.48c-3.07-.85-5.41-2.72-8.31-3.85a13.34,13.34,0,0,0-6.1-.69,6.28,6.28,0,0,1-5.76-2.68A5.8,5.8,0,0,1,125.6,323.46Z" transform="translate(0.09 0)"/><path class="cls-3" d="M41.52,340.29c1.17-3.7,3.89-5.88,7.66-7.7,4.54-2.12,9-4.29,13.72-6.06,2.76-1,5.14-2.42,8-3.07a21,21,0,0,0,5.45-1.73c3.25-1.77,6.58-3.37,8.53-6.62.91-1.55,1.68-3.15,2.68-4.67l.74-1a2.75,2.75,0,0,0,.61.35c1.65-1,2.16-3.42,4.16-4.2,2.64-1,5.89.83,7.75,2.6,1.5,1.41,3.29,5.24,5.5,5.41a1.4,1.4,0,0,0,.74-.13,25.88,25.88,0,0,0,4.2,11.69c1,1.69,2.21,3.29,3.38,4.89h0c.6.78,1.21,1.56,1.77,2.34.17.26.35.48.52.74,3,4,6.54,7,9.7,10.86,2.21,2.64,4.54,5.19,6.54,7.92a10.83,10.83,0,0,0-1.77.22c-1.12.23-1.12.74-2.51,2a.77.77,0,0,1-.22.17c-1.48,1.16-2.56-.13-4.16-1.39-5.63-4.24-11-8.83-16.19-13.59-2.6-2.33-4.51-5.62-7.32-7.57-6.66,1.13-5.49,10.78-6.23,15.67a207.15,207.15,0,0,0-2.25,21c-.13,2.73.91,14-2.25,17.79l-.13.09v-.22a7.57,7.57,0,0,0-1.69-3.68,7,7,0,0,0-2-1.34,1.76,1.76,0,0,1-.39-.22,2.6,2.6,0,0,0-1.08.56,1.68,1.68,0,0,0-1,1.43,13.24,13.24,0,0,0-.09,2.64c-2-2.33-2.25-6.27-2.38-9-.22-4.59-.91-9.18-.91-13.81,0-5.32.61-10.26.91-15.45.31-4.8-.34-10.6,1-15.45a39.45,39.45,0,0,0-9.35.39c-4.37.91-7.66,4.16-11.86,5.63C58,338.91,55,340,52.17,342.07c-2.21,1.6-4.89,5-7.49,5.71a2.44,2.44,0,0,1-3-.91C44,343.84,45.36,340.86,41.52,340.29Z" transform="translate(0.09 0)"/><path class="cls-1" d="M84,382.82a1.68,1.68,0,0,1,1-1.43,2.11,2.11,0,0,1,1-.47,1.57,1.57,0,0,1,.48.12,7,7,0,0,1,2,1.34,7.57,7.57,0,0,1,1.69,3.68v.22c.35,2.64-.26,5.45.48,8.09.26,1,.61,1.82.87,2.73.08.27.51,1.79.3,2s-1.17-.22-1.47-.22c-1-.22-1.56-1.3-2-2.08-.83-1.65-1.78-3.16-2.47-4.85a42.42,42.42,0,0,1-1.64-4.46,9.48,9.48,0,0,1-.35-2h0A13.24,13.24,0,0,1,84,382.82Z" transform="translate(0.09 0)"/><path class="cls-1" d="M208,363.63c1.21-.91,2.42-.43,3.42.78,2.29,2.81,3.85,9.43,3.55,11.25-1.91.17-5.41-4.42-6.8-8.14C207.55,365.88,207.37,364.41,208,363.63Z" transform="translate(0.09 0)"/><path class="cls-1" d="M37,345.35c.82-2.17,2.12-4.5,4.54-4.85,0-.08,0-.21.13-.3,3.68.67,2.29,3.67,0,6.67s-5.06,5.8-5.28,6.8C35,352.2,36.31,347.09,37,345.35Z" transform="translate(0.09 0)"/><path class="cls-4" d="M90.17,290.41a10.47,10.47,0,0,1,4.11-2.47,36.87,36.87,0,0,0,9.57,4.85c3.16,1.15,7.92,1.67,9.22,5,1.6,4-1.43,7.75-3.25,11.43-.68,1.39-1.08,3.73-2.68,4.16a1.4,1.4,0,0,1-.74.13c-2.21-.17-4-4-5.5-5.41-1.86-1.78-5.11-3.6-7.75-2.6-2,.78-2.52,3.2-4.16,4.2a2.75,2.75,0,0,1-.61-.35C82.62,305.78,86.09,294.2,90.17,290.41Z" transform="translate(0.09 0)"/><path class="cls-5" d="M102.85,24.63Z" transform="translate(0.09 0)"/><path class="cls-5" d="M95.57,34.48a39.67,39.67,0,0,0,3.35-4.19,4.55,4.55,0,0,1-2,3.19C96.49,33.83,96,34.16,95.57,34.48Z" transform="translate(0.09 0)"/><path class="cls-5" d="M45.11,68.36c4-6.67,10.3-11.71,16.75-16.08a71.47,71.47,0,0,0-17.54,17.5A14.61,14.61,0,0,1,45.11,68.36Z" transform="translate(0.09 0)"/><path class="cls-6" d="M2.95,114C4,108.95,4.22,98.34,7.71,94.27c-3.37-5.07,2.66-12.94,6-16.79,4.41-5,8.53-10.76,14.41-14.16,3.43-2,7.89-4.14,10.65-7-2.84,1.12-11.36,5-7.18-1,3-4.25,5.84-8.48,9.7-12a97.32,97.32,0,0,1,13.3-9.76C60,30.1,65.16,28.87,71.1,26.74c5.73-2,11.07-3.66,17.17-3.93,2.52-.11,4.92-.26,7.45-.26a9.44,9.44,0,0,1,3.64.74C91,27.25,84,33.39,75.24,36.92c-9,3.66-15.55,10.52-22.71,16.47C43.9,60.58,40.33,70.58,35.72,80c-4.39,8.94-5.26,20.7-7.39,30.54-1,4.53-1.89,8.69-2.49,13.36a42.9,42.9,0,0,0,0,7.77,125.66,125.66,0,0,0-2,34.55c1.55,18.49,4.37,33.69,13.75,50.41C48,235.26,68.36,248.86,89.16,252.26c43,7,91.09,8.52,131.81-11,27.23-13.09,33.54-49.36,37.23-76.65,2.19-16.15,3.56-34.1,1.94-50.55-1.12-11.41-14.94-49.7-25.2-67.41a46.31,46.31,0,0,1,8.72,8.26c4.09,5.24,12.87,12.18,13.57,19.1-1.39,1.47-3.67,2.28-3.27,4.6,4.05,1.65,7.58,10.62,9.38,14.47,3,6.43,4.85,13.59,6.7,20.43,3.83,14.17,8.59,27.53,9.16,42.27.44,11.37-2.47,22.37-3.92,33.49-1.69,13-4.46,26.58-10.88,38.36-3.14,5.77-9.51,10.56-14.58,14.37a61.52,61.52,0,0,1-7.61,4.81c-2.09,1.11-5.2,1.26-6.62,2.81.19,9.25-6.14,18.56-13,24.73-8,7.2-16.53,14.42-26.53,18.84-1.47.65-3.42,1.9-4.94,1.9-2.59,0-2.77-1.86-5-2.27-3.67-.64-7.41,4.15-10.06,6-3.47,2.41-7.15,2.23-11,3.71-5.61,2.15-7.58,2-12.82-.67a75.1,75.1,0,0,1-7.92-4.27c-2.24-1.51-3.59-3.91-6.24-3.62-4.62.49-8.4,6.32-12,8.7-7.16-5.25-15.37-7.33-23.37-10.25-10.29-3.81-19.34-11.85-29.48-16-5-2-7.48-5.16-11-8.85.58,2.28,1.66,4.63,1.82,6.86-6.66-5-14.21-10.44-18.87-17.17-3.7-5.34-7.26-10.45-11.89-15.09-4.42-4.43-6.76-9.32-9.76-14.73C16.5,214.72,10.35,201.84,6,187.92c-4.91-15.6-6.07-31.45-6.07-48A128.45,128.45,0,0,1,2.95,114Z" transform="translate(0.09 0)"/><path class="cls-6" d="M35.13,96.7v.09C37,89.71,37.75,81.6,41.4,74.71c7.49-14.14,21.39-24.34,35.31-31.34,6.45-3.22,14.76-5.44,20.29-9.94,2.94-2.32,1.37-3.29,2.94-6a11.72,11.72,0,0,1,3-2.85l.33.08c2.14.43,3.53-1,5.64-1.57,2.48-.63,5-1.45,6.68-3.29s1.32-4.18,2.54-5.9c1.47-2.12,6.2-3,8.47-3.64,6.87-1.88,14-3.1,20.82-5.29C155.55,2.36,163.81.36,172.55.79a19.68,19.68,0,0,1,3.66.5C175.76,1,175.06.36,174.5,0a32.16,32.16,0,0,1,14.81,3.66A9.16,9.16,0,0,0,188.12.55c3.73,1.36,8.14,5.52,11.42,7.82,6,4.2,10.76,9.29,15.47,14.82,3.18,3.78,7.62,6.8,10,11.16,1.06,2,2.56,6.24,1.5,7.85l-.31.32a132.37,132.37,0,0,1,6,17.19A68.79,68.79,0,0,1,234.7,79c0,4.24-1.62,8.25-3.3,12.17a54.26,54.26,0,0,1,3.27,18.59c-.31,12.42-2.3,27.91-10.39,38.3-4.89,6.32-9.35,12.9-14.2,19.52-5.84,7.88-13,12.9-20.34,19.18-16.32,13.94-42.29,18.53-63.16,17.1-11.51-.78-21.42-7.14-31.42-12.29A176.44,176.44,0,0,1,73.57,179c-7-5-13.13-10.73-16.74-17.73C50,151.24,44.51,138.15,40.75,126.43c-2.84-8.81-6.19-19.22-6.19-28.91h0A6.5,6.5,0,0,1,35.13,96.7Z" transform="translate(0.09 0)"/><path class="cls-7" d="M167.75,125.7a12.81,12.81,0,0,1,.13-3.16c.08-.74-.05-2.3.43-2.86.71-.87,1.93,0,3,0s2.64,0,3.07-1c.22-.43-.17-.91.35-1.43s1-.13,1.73-.13A7,7,0,0,0,179,117a8.05,8.05,0,0,0,1.34,1.13,26.34,26.34,0,0,1,3.59,2.47c.6.6,1.17,1.21,1.73,1.86-.09,1.08-.09,2.16-.09,3.29a10.86,10.86,0,0,1-1,3.25,32.23,32.23,0,0,1-1.26,3.55c-.61,1.25-1.65,2.9-1.17,4.37a2.8,2.8,0,0,0,1.13,1.26c-.39.7-.7,1.48-1,2a15.82,15.82,0,0,0-1.52,3.9c-1,3.2-1.51,6.58-2.51,9.74-.35,1.08-1,5.24-2.86,4.33-2.08-1-2.3-5.4-2.08-7.4.65-6.61,1.12-12.77-2.73-18.61C169.24,130,167.81,128.28,167.75,125.7Z" transform="translate(0.09 0)"/><path class="cls-1" d="M168.83,56.2c.16,1.14,2.22,1.21,1.22,2.62-.26.34-1.05.66-1.42,1a3.87,3.87,0,0,0-1.18,1.76c-.62,1.95-.21,4.06,0,6.06.08.85.33,1.69.4,2.53a3.09,3.09,0,0,0,.15,1.11c.14.18.42.09.59.33.68.93.17,2.34.17,3.34,0,1.67,1.29,3,2.4,4.09,1.64,1.65,3.75,2.78,5.54,4.2.4.3.76.67,1.16,1a8.11,8.11,0,0,0,1,.82c.58.16.87-.52,1.22-1.18s.52-1.4.88-2.07a8.21,8.21,0,0,1,1.18-2.1c.58-.51.89-.06,1.21-.74a15.25,15.25,0,0,0,.62-2.41c.55-2,2.32-3.35,3.32-5a8.9,8.9,0,0,0,.51-7.42,13.55,13.55,0,0,0-2.48-4,7.1,7.1,0,0,0-3.46-2.69c-1.26-.47-2.57-.75-3.85-1.11a14.69,14.69,0,0,1-2.88-.72,7.52,7.52,0,0,0-3.76-1.24,8.25,8.25,0,0,0-2.07.77A.88.88,0,0,0,168.83,56.2Z" transform="translate(0.09 0)"/><path class="cls-8" d="M170.29,66.68c.07,1.48-.06,3.06.7,4.37a17,17,0,0,0,2.67,4.12,5.89,5.89,0,0,0,4.84.93,6,6,0,0,0,3.94-2.8,10.11,10.11,0,0,0,1.13-3.92,8.55,8.55,0,0,0-1.51-5.17c-1.53-2.51-4.56-5.8-7.87-4.09a7.34,7.34,0,0,0-3.9,6A5.42,5.42,0,0,0,170.29,66.68Z" transform="translate(0.09 0)"/><path class="cls-9" d="M200.65,116.36c7.27,2.22,13.92,2.44,18.92-3.32,4.8-5.6,7.26-10.69,10-17.55.57-1.43,1.2-2.87,1.81-4.32" transform="translate(0.09 0)"/><path class="cls-7" d="M183.24,132.52c.52-1.13.83-2.34,1.26-3.55a10.86,10.86,0,0,0,1-3.25c.09-1.13.09-2.21.09-3.29a13.45,13.45,0,0,0,1,1.13c.87.82,1.08,1.34,2.34,1.43a6,6,0,0,1,2.51.35,4.9,4.9,0,0,0,.56.69c.26.13.87.18,1.17.35a4.78,4.78,0,0,1,1.13.65,40.33,40.33,0,0,1-1.73,4.29,49.29,49.29,0,0,1-4.33,6.15c-.86,1.17-1.34,2-2.81,1.69a5.9,5.9,0,0,1-2.25-1A2.8,2.8,0,0,1,182,136.9C181.57,135.43,182.72,133.65,183.24,132.52Z" transform="translate(0.09 0)"/><path class="cls-10" d="M175.85,106c.48-1.82,2.77-3.77,2.77-3.77.56-.23,2.72,1.51,3.33,1.77,1.5.73,3,1.47,4.5,2.25,3.07,1.73,6.1,3.23,8.18,6.23,1,1.43,1,2.81,1.6,4.33,1-1.52,3.16-.74,4.46-.09,2.08,1,3.26,1.69,2.86,4.07s-1.1,4.68-3,6.19a12.85,12.85,0,0,1-3,2c-1.12.48-1.12.26-1.73-.52a7.16,7.16,0,0,0-1.56-1.47,4.78,4.78,0,0,0-1.13-.65c-.3-.18-.91-.22-1.17-.35a4.9,4.9,0,0,1-.56-.69,6,6,0,0,0-2.51-.35c-1.26-.09-1.47-.61-2.34-1.43l-1-1.13c-.56-.65-1.12-1.25-1.73-1.86a26.34,26.34,0,0,0-3.59-2.47,8.05,8.05,0,0,1-1.34-1.13,14.12,14.12,0,0,1-2.86-4.37C175.3,110.71,174.82,107.9,175.85,106Z" transform="translate(0.09 0)"/><path class="cls-11" d="M173.87,66.56A3.42,3.42,0,0,1,177,64.31c4.37-.31,4.85,6.49,1.6,8.35C174.78,74.91,172.57,69.55,173.87,66.56Z" transform="translate(0.09 0)"/><path class="cls-10" d="M39.81,123.91a69.47,69.47,0,0,1-1.6-41,39.3,39.3,0,0,1,3.09-8.14,55.88,55.88,0,0,1,3-5c.25-.48.51-1,.79-1.42,4-6.67,10.3-11.71,16.75-16.08a108.26,108.26,0,0,1,14.77-8.85c6-2.94,13.52-5.09,19-8.94A39.67,39.67,0,0,0,99,30.29a7.44,7.44,0,0,1,.92-2.86,11.56,11.56,0,0,1,2.92-2.8v-.07a25.91,25.91,0,0,1-3.41-1.27C91,27.25,84,33.39,75.27,36.92c-9,3.66-15.55,10.47-22.71,16.47C43.93,60.58,40.36,70.58,35.75,80c-4.39,8.94-5.26,20.7-7.39,30.54-1,4.53-1.89,8.69-2.49,13.36a26.72,26.72,0,0,0-.2,3.32l-.83,10.34a122.44,122.44,0,0,0-1,28.66c1.55,18.49,4.37,33.69,13.75,50.41C48,235.26,68.36,248.86,89.16,252.26c43,7,91.09,8.52,131.77-10.91,27.23-13.09,33.54-49.36,37.23-76.65,2.19-16.15,3.56-34.1,1.94-50.55-1.12-11.41-14.94-49.7-25.2-67.41a24.1,24.1,0,0,0-7.65-4,4.58,4.58,0,0,0-1-.22,132.37,132.37,0,0,1,6,17.19A68.79,68.79,0,0,1,234.7,79c0,4.24-1.62,8.25-3.3,12.17a54.26,54.26,0,0,1,3.27,18.59c-.31,12.42-2.3,27.91-10.39,38.3-4.89,6.32-9.35,12.9-14.2,19.52-5.84,7.88-13,12.9-20.34,19.18-16.32,13.94-42.29,18.53-63.16,17.1-11.51-.78-21.42-7.14-31.42-12.29A176.46,176.46,0,0,1,73.57,179c-7-5-13.13-10.73-16.74-17.73C50,151.25,45,138,40.75,126.44Q40.26,125.14,39.81,123.91Z" transform="translate(0.09 0)"/></svg>