<svg id="d1" xmlns="http://www.w3.org/2000/svg" viewBox="0 0 309.62 411.44"><defs><style>.cls-1{fill:#776d75;}.cls-2{fill:#f5f6fb;stroke:#f5f6fb;}.cls-10,.cls-11,.cls-12,.cls-13,.cls-2,.cls-3,.cls-4,.cls-5,.cls-6{stroke-miterlimit:10;}.cls-11,.cls-12,.cls-13,.cls-2,.cls-3,.cls-4,.cls-5,.cls-6,.cls-7{stroke-width:0.67px;}.cls-3{fill:#c78b7a;stroke:#c78b7a;}.cls-4{fill:#fdfdfe;stroke:#fdfdfe;}.cls-5{fill:#69504a;stroke:#69504a;}.cls-10,.cls-6,.cls-7{stroke:#000;}.cls-7{stroke-linejoin:bevel;}.cls-8{fill:#4abccc;}.cls-9{fill:#c8c3c2;}.cls-10,.cls-13{fill:none;}.cls-10{stroke-width:1.34px;}.cls-11{fill:#d27793;stroke:#d27793;}.cls-12{fill:#93a2b5;stroke:#93a2b5;}.cls-13{stroke:#4b516b;}</style></defs><title>dove-svg-1-1</title><path class="cls-1" d="M372.86,325.79c-18.36-2.61-36.62-7-55.2-9.48-10.22-1.35-19.95-4.78-30.32-6.12-11.91-1.54-23.22-5.68-35.18-7.08-26-3-56.28-7.24-82.55-4.45-7.73.82-14.71,4.24-21.74,5.44s-14.78,1.39-22.05,2.89c-10.43,2.16-20.71,4.86-29.36,10.59C73.72,332.66,61.58,362,81.08,383.82c14.32,16,39.85,18.78,60.93,23.19,29.41,6.16,64.83,6,93.75-1.31,17.17-4.33,33.13-13,49.37-19.75,16.59-6.92,32.23-14.07,50-24.86,9.6-5.81,20.45-10.11,28.81-17.3,3.55-3.05,10.57-7.15,11.17-11.93.33-2.6.48-4.41-2.3-6.07" transform="translate(-67.93 0.02)"/><path class="cls-2" d="M78,130.46c6.19-11.6,12.28-23.58,18.25-35.41a188.08,188.08,0,0,0,13.93-36.59,14.94,14.94,0,0,0,.54-4.44c-.24-5.63-1.26-11.8.23-17.37.61-2.34,2-5.2,2.07-7.67,0-1.84-.07-.84-1-2.51a9.82,9.82,0,0,1-1.6-3.53c-.34-2.55.81-6.24,3-7.29.3-.14.2-1.05.2-1.39.1-2.1,1.8-5.29,3-6.85,2.16-2.82,3.72-3.77,6.7-5.3,6.17-3.16,15.42-1.57,21.51.33,7.55,2.36,11.89,5.19,15.52,12.41A81.34,81.34,0,0,1,167.64,37a202,202,0,0,0,20.22,56.92c5,9.43,8,17.36,18,22.72,9,4.85,17.2,11.46,26.19,16.28,4.3,2.34,7.73,3.94,11.4,7.29a87.48,87.48,0,0,1,11.8,12.92c6.62,8.86,13.06,18.73,21.95,25.55,1.9,1.45,3.7,3.08,5.6,4.54a11.39,11.39,0,0,0,2.44,1.73c4,3.6,10.21,9,14,12.62.44,1.49,4.78,1.49,6.17,2,2.38.78,4.65,1.9,7,2.68,5.26,1.7,10.73,3.56,15.91,5.76s9.54,4.82,12.56,9.81a9.57,9.57,0,0,0,3.46,3.43,18.16,18.16,0,0,1,4.38,3.8,14.93,14.93,0,0,1,2.34,6.14c.35,2.08-.1,4.21,1,6.11,1.52,0,2.92,1.47,4.17,2.14a57,57,0,0,0,5.5,2.68,85,85,0,0,1,10.93,6.44c1.34.88,4.24,2.68,4.44,4.38-1.77.67-3.11,1.76-5.12,2.07a53.18,53.18,0,0,0-6.24,1c-5.29,1.38-12.38-.86-17.57-2-1.94-.44-7.44-1-8.63-2.27-3.53,1.34-6.7,4.07-10.18,5.83-3.79,1.9-8.92,2.37-13.13,3.43-5.94,1.49-11.74,2.61-17.78,3.77s-12.82,2.75-19.16,2.41c-2.44-.14-5-.71-7.33-.81s-3.67,1-6,1c-2.41,3.39-7.7,5.7-11.16,7.9a62.86,62.86,0,0,0-12.35,9.69c-3.83,4-1.84,9.3-1.39,14.45.55,6,2,12.7-.3,18.77s-7,13.45-13.47,14.79c-.47-2.58-4.94-3.53-7-2.58,0-2.68,1-5.43,1-8.31a55.24,55.24,0,0,0-.74-11.6c-1.45-6.65-3.63-14.82-8-20.32h0c-1.49-.71-3.53-1-5.05-1.56-1.69-.61-4.4-1.73-6-.71a14.75,14.75,0,0,0-4.51,4.75,47.18,47.18,0,0,1-4.75,6.31c-1.56,1.7-2.71,4.44-4.79,5.6-1.25.72-3.9-1.23-5.15-1.9s-5-1.92-5.3-3.35c-.15-.82.93-1.47,1.34-2,.58-.74,1.05-1.6,1.53-2.34,3.39-5,1.15-11-1.12-15.87a9,9,0,0,0-1-1.45,53.75,53.75,0,0,1-8.28-1.73,128.7,128.7,0,0,1-21.88-8.21c-4.29-2-8.53-3.83-12.74-5.91-4.91-2.44-9.32-5.66-14.08-8.31a145.1,145.1,0,0,1-13-8.45c-2.71-1.93-5.46-4.65-8.35-6.17-1-1.9-5-4-6.62-5.6a36.35,36.35,0,0,1-6.21-7.46c-3.16-5.36-6-11-8.79-16.62a90.49,90.49,0,0,1-9.53-39.84A81.06,81.06,0,0,1,78,130.46Z" transform="translate(-67.93 0.02)"/><path class="cls-3" d="M120.08,57.91c1-1.83,1.29-3.93,2.37-5.7.85-1.45,2.14-1.22,3.22-2.31A50.43,50.43,0,0,0,130,45.69a20.78,20.78,0,0,1,3.19-3.06h0a6.31,6.31,0,0,0,.78,0c-.61.88-1.12,1.91-1.63,2.58a25.19,25.19,0,0,0-2.27,3.08,7.66,7.66,0,0,0-.41.81.84.84,0,0,0-.27,0,2.39,2.39,0,0,0-1.9,1.54c-.34.58-.94,1.54-.27,2A20.89,20.89,0,0,1,123.7,55a18.43,18.43,0,0,0-2.55,2.29c-.41.41-.92.92-1.46,1.39A8.71,8.71,0,0,1,120.08,57.91Z" transform="translate(-67.93 0.02)"/><path class="cls-4" d="M127.5,50.57a2.39,2.39,0,0,1,1.9-1.49.84.84,0,0,1,.27,0,1.7,1.7,0,0,1,1.52,1v.07c-.13.75-1.18,1.09-1.76,1.53s-1.16,1.39-2,1l-.17-.1C126.6,52.13,127.15,51.18,127.5,50.57Z" transform="translate(-67.93 0.02)"/><path class="cls-5" d="M153.31,29.21c2.27-.09,3.67-4.14,3.29-6a2.38,2.38,0,0,0-2.55-2.1,5.77,5.77,0,0,0-1.46.51,4.79,4.79,0,0,1,.67-1.15,12.52,12.52,0,0,1,2.24-2.61c1.53,0,2.85,2.77,3.22,4a7.24,7.24,0,0,1-1,6.24A6.75,6.75,0,0,1,153.15,31c-1.76.19-2.24-1.46-2.21-3.16A2.57,2.57,0,0,0,153.31,29.21Z" transform="translate(-67.93 0.02)"/><path class="cls-6" d="M113.37,17.55l-.11,2c-.1,2,.61,3.82.51,5.83A7,7,0,0,1,113.37,17.55Z" transform="translate(-67.93 0.02)"/><path class="cls-7" d="M151.53,24.77c.38-1.05,1.09-3.22,1.09-3.22a5.77,5.77,0,0,1,1.46-.51,2.39,2.39,0,0,1,2.55,2.1c.38,1.9-1,5.93-3.29,6A2.57,2.57,0,0,1,151,27.8h0A11,11,0,0,1,151.53,24.77Z" transform="translate(-67.93 0.02)"/><path class="cls-8" d="M171.05,303.46a34.42,34.42,0,0,1,2.78-4.07,2.82,2.82,0,0,1,3.35-1c0,1.7,1.74,2.48,3.12,3.19,1.63.84,3.35,1.63,5.05,2.34a4,4,0,0,0,1.22.31h0a2.74,2.74,0,0,1,1.19,2.47,9.73,9.73,0,0,1-1.8,3.53c-1.13,1.7-2.51,6.11-5.15,6.21h0a3.21,3.21,0,0,1-.89-.11,9.38,9.38,0,0,1-1.73-1.12c-.74-.42-1.46-.86-2.21-1.34a44.48,44.48,0,0,1-5-3.7c-.13-.14-.31-.24-.44-.38C168.15,307.91,169.82,305.57,171.05,303.46Z" transform="translate(-67.93 0.02)"/><path class="cls-9" d="M201.15,316.77c2,.38,4.69,1.22,5,2.68a7.41,7.41,0,0,1-2.58,0,18.84,18.84,0,0,0-1.9.17C202.62,318.6,202.15,317.51,201.15,316.77Z" transform="translate(-67.93 0.02)"/><path class="cls-9" d="M141.46,316.23c1.08.27,2.07.44,3.09.61-1,1.12-.21,2.88.67,4.17-1.15-.41-2.34-.74-3.43-1.19s-4.92-1.83-4.51-3.59A11.36,11.36,0,0,1,141.46,316.23Z" transform="translate(-67.93 0.02)"/><path class="cls-10" d="M127.92,334.68a3.08,3.08,0,0,0-.78.1" transform="translate(-67.93 0.02)"/><path class="cls-9" d="M118.86,339.8c1.56-1.8,3.53-2.68,5.63-3.77a24.4,24.4,0,0,1,2.31-1.15l.38-.1c1.34-.13,1.63,1,1.63,2.07a2,2,0,0,1-1.19,2.1l-.41.2c-2.27,1.12-4.69,2-6.88,3.39a21,21,0,0,0-3.41,2.67C115.71,344.55,118.15,340.58,118.86,339.8Z" transform="translate(-67.93 0.02)"/><path class="cls-9" d="M231.59,351.38a5.24,5.24,0,0,1,2.14.54c0,.72-1.34,1.23-2.37,1.46A2.27,2.27,0,0,0,231.59,351.38Z" transform="translate(-67.93 0.02)"/><path class="cls-9" d="M217.58,393a2.68,2.68,0,0,1,2.82,1.86,5.74,5.74,0,0,1,.44,2.44c-.07,1.12-.27,2.14-1.46,1.22a7,7,0,0,1-1.93-2.55,1,1,0,0,1-.13-.27C216.94,394.69,216.53,393.46,217.58,393Z" transform="translate(-67.93 0.02)"/><path class="cls-9" d="M172.67,364.74c.74-.07,1.46-.17,2.17-.23a5.52,5.52,0,0,0-1.86,3.43c-1.46-.58-3.09-1-3.8-2.21C169.92,364.84,171.62,364.84,172.67,364.74Z" transform="translate(-67.93 0.02)"/><path class="cls-10" d="M172.23,391.34a2.83,2.83,0,0,0-.51.13" transform="translate(-67.93 0.02)"/><path class="cls-9" d="M168,397.93a9.67,9.67,0,0,1,.81-2.55c.54-1.15,1.6-3.29,2.88-3.9h.07a3.26,3.26,0,0,1,3.72,2.73v.09c.15,1.19-.42,1.42-1.34,1.86-.23.14-.47.24-.67.38a16,16,0,0,0-1.53,1.22,14,14,0,0,0-2,2c-.44.53-.67,1.78-1.39,1.34S167.86,398.66,168,397.93Z" transform="translate(-67.93 0.02)"/><path class="cls-11" d="M144.56,316.82a.6.6,0,0,1,.13-.17c1.73-1.66,4.69-1,7-1,1.93,0,3.83.34,5.76.34a28.51,28.51,0,0,0,4.79-.78,32.65,32.65,0,0,0,4.79-1.12l.74-.23c-1.34,1.34-2.86,2.58-4.24,3.77a44.18,44.18,0,0,1-4.69,3.19,20.06,20.06,0,0,1-4.51,2.68l-2.14.71c-.41-.21-.75-.34-.92-.41a15.53,15.53,0,0,0-2.17-.51,5.17,5.17,0,0,1-3-1.29,6.7,6.7,0,0,1-.81-1C144.34,319.72,143.6,318,144.56,316.82Z" transform="translate(-67.93 0.02)"/><path class="cls-11" d="M219.47,357.22c.28-1.43.61-2.85,1-4.28h0c.92-.27,1.76-.81,2.68-1.12a21.54,21.54,0,0,1,6-1.39c1.46-.07,2.25.38,2.51,1a2.27,2.27,0,0,1-.23,2h0a5.62,5.62,0,0,1-2.51,2.51,13.09,13.09,0,0,1-4.1,1c-1.7.31-3.6,1.26-5.36,1.46A6.78,6.78,0,0,0,219.47,357.22Z" transform="translate(-67.93 0.02)"/><path class="cls-9" d="M161.83,336.71a1.45,1.45,0,0,1,.67-.67c.48-.24,1.05-.31,1.46-.51,1.05.13,1.12,1.53.61,2.34h-.06a.74.74,0,0,1-.17.27c-.44.46-1.73,1.83-2.34,1.8A4.65,4.65,0,0,1,161.83,336.71Z" transform="translate(-67.93 0.02)"/><path class="cls-11" d="M127.23,334.86l-.38.1a8.65,8.65,0,0,1,3.59-3.39A21.18,21.18,0,0,1,135,329c2-.67,4.08-1.25,6-2a40.28,40.28,0,0,1,6.37-1.34,43.67,43.67,0,0,0,4.89-1.34l2.14-.71a19.14,19.14,0,0,0,4.51-2.68,44.18,44.18,0,0,0,4.69-3.19c1.39-1.19,2.9-2.43,4.24-3.77.38-.38.71-.74,1.05-1.12.58-.67,1.39-1.7,2.14-2.55a44.48,44.48,0,0,0,5,3.7l2.21,1.34a9.38,9.38,0,0,0,1.73,1.12,3.21,3.21,0,0,0,1,.13c.27,1.28,2.27,1,3.87.61,2.61-.67,5.26-1.56,8-1.56,2.23,0,4.85-.33,6.92.34a4.45,4.45,0,0,1,1.46.81c1,.78,1.46,1.86.54,2.92h0c-1.28,1.34-4.3,1.63-6,1.8a52.5,52.5,0,0,0-11.13,2.37c-3.67,1.15-6.7,3.22-9.84,5.36A26.56,26.56,0,0,0,171,333a28.58,28.58,0,0,0-2.85,2.88c-.78,1-1.53,2-2.92,2a4.19,4.19,0,0,1-.61-.07c.51-.81.44-2.21-.61-2.34-.41.2-1,.27-1.46.51-.58-2.25,1.9-5.58,2.88-7.37.17-.28.41-.78.54-1-2.55.82-5,2-7.7,2.68-3.83.82-7.67,1.8-11.5,2.68-3,.67-6,.91-9,1.86-2.55.81-4.14,3-6.62,4a3.9,3.9,0,0,1-3.56.07,2,2,0,0,0,1.19-2.1C128.84,335.67,128.47,334.61,127.23,334.86Z" transform="translate(-67.93 0.02)"/><path class="cls-11" d="M171.71,391.46h0a6,6,0,0,1,1.9-2.85c2.95-2.51,6.82-4,10-6.17a115.55,115.55,0,0,0,10.93-9.19c1.34-1.15,2.51-2.37,3.73-3.59-5,1.42-9.6.61-14.62.61-2.86,0-7,.62-9.57-.67a1.8,1.8,0,0,1-1.12-1.66,5.5,5.5,0,0,1,1.86-3.43h0a6.91,6.91,0,0,1,.58-.51c1.29-1.11,2.78-.71,4.31-.44a22.64,22.64,0,0,0,5.05.34c7.77-.4,16.58-1.53,22-7.77,2.55-3,4.41-7,6.17-10.62s3.35-7.37,5-11.06c.78-1.77,1.8-4.44,3.87-4.79a6.09,6.09,0,0,1,3.56.61c.88.46,1.25,1.22,1.86,1.8-1.34,2.44-2.47,7-2.82,7.94-1.46,4.31-2.85,8.65-3.93,13h0c-.34,1.43-.67,2.85-1,4.28-.07.38-.13.74-.2,1.09a68.27,68.27,0,0,0-.61,10.85c0,4.11.67,8,1.05,12.11.34,3.56,1,7.19,1.25,10.79a4.59,4.59,0,0,1-.61,2.75,2.68,2.68,0,0,0-2.82-1.86c-1,.48-.67,1.7-.27,2.68a1,1,0,0,0,.13.27c-3-.44-2.85-3.43-3.19-5.87-.44-3.15-.4-6.44-.81-9.63-.27-2.31.17-6.31-2.51-7.26-2.27-.78-4.69.86-6.58,2.21a120.19,120.19,0,0,0-14.79,11.87c-3,2.88-5.7,6.35-9.06,8.86-2.41,1.78-5,2.27-7.06.44.19-.14.44-.24.67-.38.93-.44,1.51-.67,1.34-1.86a3.22,3.22,0,0,0-3.51-2.91Z" transform="translate(-67.93 0.02)"/><path class="cls-11" d="M198.28,369.66c.67-.67,1.34-1.34,2.07-2a37.48,37.48,0,0,0,5-5.09c1.43-2,3.22-3.8,4.41-5.94" transform="translate(-67.93 0.02)"/><path class="cls-3" d="M114.84,48.41a45.8,45.8,0,0,0-.51-5.29c-.25-1.64-1-3.1-.92-4.69a5.89,5.89,0,0,0,1.19.74c1.66.74,2.88-.58,4.51-.34s2.78,2.06,4.5,1.8c.78-.13,1.06-.67,1.73-.67A15.12,15.12,0,0,1,128.69,41c1.53.54,3,1.56,4.58,1.66a20.78,20.78,0,0,0-3.19,3.05,50.43,50.43,0,0,1-4.34,4.21c-1.09,1.09-2.37.84-3.22,2.31-1.09,1.76-1.39,3.87-2.37,5.7a8.72,8.72,0,0,0-.38.81,12.19,12.19,0,0,1-2,3.7c-1.62,1.6-3,.2-3.35-1.56C113.56,56.71,115.07,52.46,114.84,48.41Z" transform="translate(-67.93 0.02)"/><path class="cls-4" d="M112.74,35.46c.71-1.39,2-2.33,2.85-3.67s2.21-3,4.07-3.35c1.6-.25,2.75.61,3.77,1.76a3.29,3.29,0,0,1,.54,1,16,16,0,0,1,2.37-1.6,8.51,8.51,0,0,1,3.9-.51c3,.58,5.53,3.46,7.6,5.53a23.89,23.89,0,0,1,2.55,2.68h0c1,.61-.76,2-1.34,2.41A22.7,22.7,0,0,1,136.87,41a10.4,10.4,0,0,1-2.24,1.41,4.63,4.63,0,0,1-.58.13,6.31,6.31,0,0,1-.78,0h0c-1.6-.1-3-1.12-4.58-1.66a15.12,15.12,0,0,0-3.35-1.05c-.67,0-1,.57-1.73.67-1.7.21-2.85-1.56-4.48-1.8s-2.85,1.09-4.51.34a5.89,5.89,0,0,1-1.19-.74A2.27,2.27,0,0,1,112.74,35.46Z" transform="translate(-67.93 0.02)"/><path class="cls-4" d="M305.38,199.59c2.38.78,4.65,1.9,7,2.68,5.26,1.7,10.73,3.56,15.91,5.76s9.54,4.82,12.56,9.81a10.12,10.12,0,0,0,1.13,1.55,49.84,49.84,0,0,0-6.17-1.64,144.12,144.12,0,0,1-14.08-5,78.43,78.43,0,0,1-10-4.78,39.88,39.88,0,0,1-7.55-5.62c-1-1-2.09-2.37-3.2-3.61C302.49,199.21,304.53,199.29,305.38,199.59Z" transform="translate(-67.93 0.02)"/><path class="cls-2" d="M313.47,219c.38-2.55-.23-5.15-.71-7.57a27.08,27.08,0,0,0-1-3.39,78.43,78.43,0,0,0,10,4.78,144.12,144.12,0,0,0,14.08,5,49.84,49.84,0,0,1,6.17,1.64,13.41,13.41,0,0,0,2.33,1.88,17.46,17.46,0,0,1,4.38,3.8,14.87,14.87,0,0,1,2.34,6.11,11.48,11.48,0,0,1,.09,1.16h0c0,2.73-3.63,4.14-5.54,5.68a12.41,12.41,0,0,1-3.63,2h-.07a24.76,24.76,0,0,1-6.82,1.13,59.15,59.15,0,0,1-8.08,0,34.58,34.58,0,0,1-7.46-1.34c-1.22-.35-2.82-.67-4.31-1a13.13,13.13,0,0,1-3.53-1.29c-1.94-1.19-3-3.7-4.38-5.81C310.36,228.23,312.88,223.18,313.47,219Z" transform="translate(-67.93 0.02)"/><path class="cls-4" d="M296.6,239.15a21.61,21.61,0,0,0,8.25-4.58,19.16,19.16,0,0,0,2.54-2.68c1.39,2.1,2.44,4.61,4.38,5.81A13.13,13.13,0,0,0,315.3,239c-2.14.2-4.36.13-6.37.38-4,.5-8.25.78-12.38,1A5,5,0,0,0,296.6,239.15Z" transform="translate(-67.93 0.02)"/><path class="cls-4" d="M275,261.46a130.72,130.72,0,0,0,14.52-.3c12-1.23,24.19-2.38,34.91-8.75a123,123,0,0,0,17.54-12.28c.07.07.07,0,.07,0a12.41,12.41,0,0,0,3.63-2c1.91-1.54,5.54-2.94,5.54-5.68.1,1.68,0,3.35.89,4.87a3.31,3.31,0,0,1,.57.07c1.45,4.69-2.37,7.52-6.65,10a20.28,20.28,0,0,0,2,1.21A49,49,0,0,0,361.35,253c3.64.6,9.17,2.42,13,1.27a7.84,7.84,0,0,1-2.26.73,52.2,52.2,0,0,0-6.24,1c-5.3,1.38-12.39-.86-17.58-2-1.94-.44-7.44-1-8.59-2.38-3.53,1.34-6.7,4.08-10.18,5.84-3.79,1.9-8.92,2.37-13.13,3.43-5.94,1.49-11.74,2.61-17.78,3.77s-12.82,2.75-19.16,2.41c-2.45-.14-5-.67-7.33-.81-1.29-.06-2.63-.09-4-.09A27.08,27.08,0,0,0,275,261.46Z" transform="translate(-67.93 0.02)"/><path class="cls-12" d="M268,266.12a17.88,17.88,0,0,1-4.27,1.28c.34-.42.67-.85,1-1.27C265.79,266.09,266.92,266.08,268,266.12Z" transform="translate(-67.93 0.02)"/><path class="cls-2" d="M352.65,237.36c1.3.3,2.5,1.47,3.6,2.06a60.72,60.72,0,0,0,5.5,2.68,84.55,84.55,0,0,1,11,6.44c1.34.88,4.24,2.68,4.44,4.38-1,.38-1.83.88-2.74,1.3h-.12c-3.79,1.15-9.32-.67-13-1.27A49,49,0,0,1,348,248.51a20.28,20.28,0,0,1-2-1.21C350.28,244.92,354.1,242.07,352.65,237.36Z" transform="translate(-67.93 0.02)"/><path class="cls-4" d="M177.24,191.64c2.51-4.89,7.74-8,10.86-12.55,2.27-3.29,6-9.57,6-13.64,0-2.1-1.19-1.89-2.17-3.35-1.34-2-.78-5.12-.23-7.67,1.15-5.52,4.69-10,6.52-15.2,1.6-4.51,3.35-9.25,1.9-13.94-.71-2.29-2.31-4.32-2.85-6.7a18.39,18.39,0,0,1,0-5.29,14,14,0,0,1,.15-3.35,28.93,28.93,0,0,0,8.42,6.7c9,4.85,17.2,11.46,26.19,16.28,4.31,2.34,7.74,3.94,11.4,7.29a87.14,87.14,0,0,1,11.81,12.92c6.61,8.86,13.06,18.73,21.95,25.55,1.9,1.46,3.7,3.08,5.6,4.54a11.39,11.39,0,0,0,2.44,1.73c4,3.6,10.22,9,14,12.62.17.56.87.9,1.77,1.14,1.11,1.25,2.16,2.61,3.2,3.61a39.88,39.88,0,0,0,7.55,5.62,27.08,27.08,0,0,1,1,3.39c.48,2.41,1.09,5,.71,7.57-.58,4.21-3.09,9.26-6.07,12.92a19.16,19.16,0,0,1-2.54,2.68,21.36,21.36,0,0,1-8.25,4.58,5,5,0,0,1-.07,1.22c-.42,2.68-2.89,5.7-4.44,7.47-2.85,3.18-6.7,4.37-9.84,7L282,255c-2.45,2.1-4.65,4.4-7,6.41-3.29,2.85-6.85,5.23-11.6,5.94-4.2.61-8.61,1-12.68,1.66s-9.2,1.34-13.33.51c-4.79-1-9-3.53-13.61-5-2.95-.92-6.17-1.63-9.26-2.68A49.4,49.4,0,0,1,203,256.37c-4.51-3-8.31-7.23-12.48-10.79-3.83-3.26-7.87-6.88-9.64-11.57-1.39-3.77-1.59-7.87-2.54-11.74a52.1,52.1,0,0,1-1.52-15.16,17.36,17.36,0,0,0-.54-6.48A13,13,0,0,1,177.24,191.64Z" transform="translate(-67.93 0.02)"/><path class="cls-13" d="M311.73,208h0" transform="translate(-67.93 0.02)"/><line class="cls-13" x1="284.71" y1="237.4" x2="284.71" y2="237.41"/><path class="cls-13" d="M374.66,254.15a.82.82,0,0,1-.25.08" transform="translate(-67.93 0.02)"/><path class="cls-2" d="M282,255.06c1.86-.34,3.7-.81,5.56-1.19a34.32,34.32,0,0,0,5.83-1.23c7.7-3,15.91-4.14,23.78-7.23,3.35-1.34,6.65-2.64,9.87-4.14a59.15,59.15,0,0,0,8.08,0,24.76,24.76,0,0,0,6.82-1.12,123,123,0,0,1-17.54,12.31c-10.69,6.37-22.93,7.53-34.91,8.75a130.72,130.72,0,0,1-14.52.3C277.36,259.54,279.56,257.2,282,255.06Z" transform="translate(-67.93 0.02)"/><path class="cls-4" d="M282.24,254.87c3.14-2.68,7-3.87,9.84-7,1.56-1.76,4-4.79,4.44-7.47,4.14-.23,8.36-.51,12.38-1,2-.24,4.24-.17,6.37-.38,1.49.35,3.09.67,4.31,1a34.58,34.58,0,0,0,7.46,1.34c-3.22,1.49-6.52,2.8-9.87,4.14-7.87,3.09-16.09,4.18-23.78,7.23a32.3,32.3,0,0,1-5.83,1.23c-1.94.37-3.7.84-5.56,1.19A2.47,2.47,0,0,0,282.24,254.87Z" transform="translate(-67.93 0.02)"/></svg>