<svg id="d2" xmlns="http://www.w3.org/2000/svg" viewBox="0 0 338.32 309.86"><defs><style>.cls-1{fill:#776d75;}.cls-2{fill:#d27793;stroke:#d27793;}.cls-10,.cls-11,.cls-12,.cls-13,.cls-14,.cls-2,.cls-3,.cls-4,.cls-5,.cls-6,.cls-7{stroke-miterlimit:10;stroke-width:0.6px;}.cls-3{fill:#fff;stroke:#fff;}.cls-4,.cls-9{fill:#f5f6fb;}.cls-4{stroke:#f5f6fb;}.cls-5{fill:#fdfdfe;stroke:#fdfdfe;}.cls-6{fill:#7388a0;stroke:#7388a0;}.cls-7{fill:none;}.cls-13,.cls-7{stroke:#000;}.cls-11,.cls-8{fill:#c8c3c2;}.cls-10{fill:#c78b7a;stroke:#c78b7a;}.cls-11{stroke:#c8c3c2;}.cls-12{fill:#69504a;stroke:#69504a;}.cls-14{fill:#a4361f;stroke:#a4361f;}</style></defs><title>dove-svg-2-1</title><path class="cls-1" d="M326.7,230.12C333,240,301.91,246.85,298.5,248c-17.12,5.87-34.64,14.26-50.79,22.1-25.55,12.4-70,32.06-97.9,36.69C93.64,316.12,8.43,304.8,5.7,263.7c-3.66-55,94.49-47.79,136-50.72,34.69-2.45,73.37,4.33,107.87,8.37,10.25,1.2,72.06,3.64,77.1,8.77" transform="translate(0.04 0)"/><path class="cls-2" d="M111.83,290.23c1.16-.13,5.52-1.15,3.59-2.89h0a.6.6,0,0,0-.32-.29,1.7,1.7,0,0,0-.87-.28,30.37,30.37,0,0,1,4-1.4c6.29-1.87,11.8-4,16.91-8a51.46,51.46,0,0,1-7.91.13c-1.92-.16-3.83-.6-5.76-.72a23.83,23.83,0,0,1-4.95-.47,8.37,8.37,0,0,1-2.15-1,3.42,3.42,0,0,1-1.79-2.3,1,1,0,0,1,0-.31c.28-1.69,4.61-.56,5.85-.5a49.33,49.33,0,0,0,8.84-.69,25.06,25.06,0,0,1,4.82-.44c1.52.07,2.89.5,4.36.13,2.34-.6,4.7-3,6.1-5a29.91,29.91,0,0,0,4-10.49c.6-3.17,1.49-6.29,2.18-9.46.16-.65.4-1.4.65-2.15,1.3,1.34,3.19,1.49,4.39,2.83.6.69.81,1.84,1.52,2.68a3.43,3.43,0,0,0,2.86,1.59,12.26,12.26,0,0,1-1.34,2.71c-.56,1.2-1,2.46-1.49,3.71-1.62,4.14-1.84,8.88-1.84,13.29a65.76,65.76,0,0,1-.56,6.58c-.22,2.35-.22,4.78-.34,7.17a61.23,61.23,0,0,0,.25,6.35,14.49,14.49,0,0,1,0,2.3c-.56-1.4-1.55-2.52-2.55-2.46-1,.37-.78,2.58-.41,3.36a6.71,6.71,0,0,1,.31.6,3.9,3.9,0,0,1-1.68-1.75,26.24,26.24,0,0,1-1.55-7.6c-.16-1.62.13-4.42-1.87-4.89s-4.18,1.9-5.76,2.83c-4.6,2.83-9.81,5.85-15.19,6.91a72.79,72.79,0,0,1-8.25.84c-1.24.1-3,.69-4-.47a1.69,1.69,0,0,1-.31-.56Z" transform="translate(0.04 0)"/><path class="cls-2" d="M27.72,241.05c1.4.1,4-1.34,3.3-3h0a2.36,2.36,0,0,0-.56-.28,1.3,1.3,0,0,1,.25-.19,9.83,9.83,0,0,1,1.09-.69c3.17-1.79,7.07-1.79,10.52-2.27,4-.56,8-.06,12-.06h.33a56.45,56.45,0,0,0,10.45-1.34,37.22,37.22,0,0,0,7.66-2.43h0c1.9-.78,3.74-1.68,5.57-2.61a21.94,21.94,0,0,0,3,3.8,21,21,0,0,0,4.85,4.39,57.49,57.49,0,0,0,7.17,4.11c2.77,1.12,5.85,1.72,8.53,2.83,1.12.47,1.62,1,1.65,1.55s-.75,1.28-1.9,1.62h-.1c-3.62,1-6.61-.27-10.16-1.12-7.38-1.76-14.54,0-21.66,1.79a18.49,18.49,0,0,1-2.55.5,1.43,1.43,0,0,0-1.34-1.52H65.7a3.55,3.55,0,0,0-.81.28L65,246a7.74,7.74,0,0,1,2.15-2.61,21.09,21.09,0,0,0,1.49-1.52c-.84.06-1.68.16-2.52.16-2.05,0-4,.31-6.07.22-4.7-.16-9.37,0-14,0a55.14,55.14,0,0,0-11.3,1.27c-1.58.34-3,1.06-4.67.47a4.27,4.27,0,0,1-2.39-2.52,1.2,1.2,0,0,1,0-.47Z" transform="translate(0.04 0)"/><path class="cls-3" d="M204.33,83.82a1.05,1.05,0,0,0,.31,0l-.44.5Z" transform="translate(0.04 0)"/><path class="cls-4" d="M287.23,117.48c1.65-1.59,3.73-2.34,5.38-4,1.28-1.27,2.23-2.92,3.43-4.36l.06-.07c2.68-1,5.45-2,8.18-2.83a164,164,0,0,0,23.31-8.63c2.86-1.36,8.5-4.09,9.39-7.71.49,2.06,1.23,4,.93,6.19-.53,3.89-5.11,4.73-8.62,6-3.84,1.32-7.77,2.69-11.62,4.18-7.53,2.93-14.94,6.73-22.47,9.12-3,1-6.38,1.74-8.88,3.74-.94.73-1.84,1.55-2.73,2.39A45.72,45.72,0,0,1,287.23,117.48Z" transform="translate(0.04 0)"/><path class="cls-5" d="M300,105.56a38.72,38.72,0,0,0,6-6.82h0a43.82,43.82,0,0,0,7.56-2.11,55.63,55.63,0,0,0,9.19-4.48c2.49-1.52,5.26-2.43,7.81-3.86,2-1.09,5.38-3.18,6.73-5.63a27.2,27.2,0,0,0-.71,3.59,10.86,10.86,0,0,0,.34,3.59c-.88,3.62-6.52,6.35-9.39,7.71a159.92,159.92,0,0,1-23.31,8.63c-2.74.81-5.51,1.79-8.18,2.83C297.33,107.49,298.66,106.82,300,105.56Z" transform="translate(0.04 0)"/><path class="cls-4" d="M298.53,68.3c3.21.41,6.43.93,9.74,1.09,7.72.34,25-2,28.83,7.07a8.92,8.92,0,0,1,.24,6.1h0c-1.35,2.45-4.78,4.54-6.73,5.63-2.55,1.43-5.33,2.34-7.81,3.86a55.63,55.63,0,0,1-9.19,4.48A43.82,43.82,0,0,1,306,98.62c0-.06.12-.12.12-.18,1.4-2.06,2.12-3.71,4-5.33a14.94,14.94,0,0,0,3-3.59c1.15-1.79,3.22-4.47,3.34-6.64.39-6.16-9.37-6.44-13.35-5.33-.6.19-1.2.38-1.72.56.66-3.11.66-6.61-1.06-8.4A7.65,7.65,0,0,0,298.53,68.3Z" transform="translate(0.04 0)"/><path class="cls-6" d="M306.05,98.69" transform="translate(0.04 0)"/><path class="cls-7" d="M115.66,287.78a1.48,1.48,0,0,0-.25-.5" transform="translate(0.04 0)"/><path class="cls-8" d="M108.45,288.21a9.85,9.85,0,0,1,4.85-1.46,3.81,3.81,0,0,1,.84,0h.06a1.7,1.7,0,0,1,.87.28,2.7,2.7,0,0,1,.31.25h0c2,1.74-2.39,2.77-3.59,2.89h-.16a32.4,32.4,0,0,0-3.51.19c-1,.22-1.84.87-2.8,1.06C105.54,290.11,107.5,288.89,108.45,288.21Z" transform="translate(0.04 0)"/><path class="cls-8" d="M108.85,273.78a8.3,8.3,0,0,1,3.83-1.12,1,1,0,0,0,0,.31,3.35,3.35,0,0,0,1.79,2.3c-1.2.71-3.18.6-4.3.65-1.62.1-3,.69-4.45.9C105.5,276.05,108.1,274.27,108.85,273.78Z" transform="translate(0.04 0)"/><path class="cls-8" d="M103.57,244.82c1.2.22,2.58.6,2.89,1.52a8.92,8.92,0,0,1-4.78.1C102.83,246.05,103.58,245.47,103.57,244.82Z" transform="translate(0.04 0)"/><path class="cls-8" d="M20.82,239.61c1.85-3,6.36-3.36,9.56-1.87a2.36,2.36,0,0,1,.56.28h0c.75,1.65-1.9,3.08-3.3,3h0a11.15,11.15,0,0,0-3,0,17,17,0,0,0-2.54,1.28C19.5,243.35,19.85,241.14,20.82,239.61Z" transform="translate(0.04 0)"/><path class="cls-2" d="M58.65,229.05a54.61,54.61,0,0,0,9,1.37c1.56.13,3.37.37,5.08.34a37.22,37.22,0,0,1-7.66,2.43,59.07,59.07,0,0,1-10.4,1.34h0a17.48,17.48,0,0,1-1.74-.82c-1.42-.78-4.91-1.59-5.6-3.27C45.33,225.61,57.51,228.79,58.65,229.05Z" transform="translate(0.04 0)"/><path class="cls-8" d="M150.34,290.81c1-.07,2,1.06,2.55,2.46.9,2.3.9,5.32-1.09,5.38a15.22,15.22,0,0,0-1.55-3.83,6.71,6.71,0,0,1-.31-.6C149.57,293.44,149.37,291.23,150.34,290.81Z" transform="translate(0.04 0)"/><path class="cls-8" d="M64.85,246.4a3.55,3.55,0,0,1,.81-.28h0a1.43,1.43,0,0,1,1.47,1.39h0v.12h0a.86.86,0,0,1-.31.56c-.6.56-2.31.47-3.08.41C63.27,247.59,63.95,246.81,64.85,246.4Z" transform="translate(0.04 0)"/><path class="cls-5" d="M262.4,87.55c2.7-2.72,5.8-4.95,8.7-7.5A77.84,77.84,0,0,1,288.47,68.5a8.08,8.08,0,0,1,.8-.35h0a11,11,0,0,1,9.3.19h0a7.65,7.65,0,0,1,1.79,1.4c1.74,1.83,1.74,5.31,1.05,8.41a20,20,0,0,0-6.48,4c-.6.56-1.52,1.49-2.49,2.39-4-1.34-9.77-.47-13,.06a82,82,0,0,0-18.39,5.79A36.67,36.67,0,0,1,257,91.88,33.48,33.48,0,0,0,262.4,87.55Z" transform="translate(0.04 0)"/><path class="cls-5" d="M253.9,93.75c1-.6,2.09-1.2,3.11-1.89a36.67,36.67,0,0,0,4.09-1.5,82,82,0,0,1,18.36-5.79c3.17-.53,8.9-1.4,13-.06a6.1,6.1,0,0,1,4.51,4.54c.84,3.92-2.33,7.85-5.32,10-2.15,1.59-4.14,3.24-6.16,4.92a6,6,0,0,0-.07-1.12c-.87-8.09-12.3-10-18.7-9.68-5.38.27-10.71,1.64-16,2.39C251.79,95,252.88,94.34,253.9,93.75Z" transform="translate(0.04 0)"/><path class="cls-4" d="M232.63,151.95c3.23-7.65,2.85-16,7-23.31a45.59,45.59,0,0,0,2.24-4.41c.6-1.42.56-3.74.6-5.38a115.47,115.47,0,0,0-.19-12.45,12.62,12.62,0,0,0-1.79-5.78,58.58,58.58,0,0,0,6.38-2.93c1.31-.65,2.59-1.37,3.86-2.05h0c5.26-.77,10.59-2.15,16-2.39,6.41-.31,17.84,1.58,18.7,9.68a6.45,6.45,0,0,1,.07,1.12c-.07,6.94-7.87,9.8-12,14.35-3.11,3.4-6.13,7.1-9.18,10.62a101.21,101.21,0,0,1-11.55,11c-4,3.39-8.56,6-12.67,9.09-2.65,2.06-6,3.89-8.81,6C231.67,154.12,232.1,153.05,232.63,151.95Z" transform="translate(0.04 0)"/><line class="cls-7" x1="240.46" y1="100.6" x2="240.43" y2="100.6"/><path class="cls-9" d="M1,125.05C3.2,109.2,6.72,92.51,14.31,78.17c6.26-11.76,12.48-23.06,17-35.54,1.55-4.33,3.33-8.53,4.92-12.89,1.24-3.45,3.43-5.48,4.48-8.37s1.39-6.32,2.59-9.42a19.25,19.25,0,0,1,4.45-7.17C53-.17,60.54-.88,67.95.86c9,2.13,13.43,7.6,15.23,16.06.6,2.7.64,5.68,1.44,8.3,1,3.19,3.11,6.18,4.08,9.56.47,1.56,1.52,3.71,1.58,5.23s-.87,2.86-1.06,4.33c-.44,3.27.87,6.22,1.31,9.31a49.19,49.19,0,0,0,2.3,8.69c.73,2.17,2,4.38,2.71,6.58h0a10,10,0,0,1,.27,1h.48a23.61,23.61,0,0,0,2.43,3.26c2.08,2.08,4.93,3.56,7,5.67,3.31,3.44,3.27,10,2.67,14.41-1,7.28-3.39,12.88-6.76,19.23-1.89,3.59-3.43,7.1-5.61,10.59a100.78,100.78,0,0,1-8.66,12.36c-4.18,4.91-7,10.07-12,14.42-2.09,1.79-3.64,3.92-5.54,5.89a16.14,16.14,0,0,1-1.36,1.14,3.23,3.23,0,0,0-1.06,1.27c0,8-.46,15.39,4.22,22.18A117.64,117.64,0,0,0,84,194.69c2.9,3,3.68,2.92,6.78,6.29a22.48,22.48,0,0,0,3.81,4.42,34.34,34.34,0,0,0,15.86,6.94c3.32.44,6.67.4,10,1a49.3,49.3,0,0,0,11,1.2c6.89-.27,13.42-3.3,19.52-6.31s12.34-5.89,18.59-8.7c13.67-6.16,27.15-13,39.16-22A195.89,195.89,0,0,0,224.21,165a30.62,30.62,0,0,0,7.06-9.69c2.8-2.16,6.16-4,8.78-6,4.11-3.11,8.69-5.7,12.67-9.09a101.2,101.2,0,0,0,11.55-11c3-3.51,6.07-7.22,9.18-10.62,4.18-4.54,12-7.41,12-14.35,2-1.68,4-3.33,6.16-4.92,3-2.18,6.16-6.1,5.32-10a6.1,6.1,0,0,0-4.48-4.57c1-.9,1.89-1.83,2.49-2.39a20,20,0,0,1,6.47-4c.52-.19,1.12-.37,1.72-.56,4-1.12,13.75-.84,13.35,5.33-.13,2.18-2.18,4.87-3.34,6.66a14.94,14.94,0,0,1-3,3.59c-1.9,1.62-2.62,3.27-4,5.33,0,.06-.12.12-.12.18h0a38.73,38.73,0,0,1-6,6.82c-1.4,1.3-2.74,2-4,3.49l-.07.06c-1.2,1.42-2.16,3.08-3.49,4.41-1.68,1.68-3.76,2.43-5.38,4a45.72,45.72,0,0,0-3.65,4c-2.06,1.94-4,4-6,5.86-3.53,3.27-7.53,6.58-11.3,9.77-4.23,3.59-8.4,7.53-12.83,11-4.11,3.17-8.89,5.66-13.07,8.65-2.89,2.06-5.73,2.74-8.66,4.45a15.85,15.85,0,0,0-3,2.52c-2.71,2.67-5.76,5.26-8,8.31-2.43,3.25-4.64,6.52-7.38,9.56-5.57,6.26-11.67,12-17.71,18-2.52,2.49-4.78,5.38-7.35,7.91-2.34,2.3-5.23,3.89-7.72,6.13-3.45,3.08-5.85,5.82-9.12,8,0,1.2.53,2.88,0,4.18-.66,1.75-2.24,3-2.83,4.85-.41,1.31-.47,2.65-.84,4a6,6,0,0,1-2.24,3,6.32,6.32,0,0,0-2,2.09,30.42,30.42,0,0,0-1.24,3.33,36.68,36.68,0,0,1-2.12,6.29c-.78,1.52-2,2.34-3.65,1.34a6.53,6.53,0,0,1-2-2.52,12,12,0,0,0-.75-1.43c-.34-.53-.31-.47-.87-.75-1.06-.5-2.62-.65-3.37-1.52a4.33,4.33,0,0,1-.78-2.46c-.41-4.11.06-8-2.46-11.55-.13-.16-.28-.37-.41-.56a91.53,91.53,0,0,1-10.56.68c-9.27.1-18.53,1.59-27.8.28-3.51-.5-6.91-1-10.27-1.62v.22c-2.1-.45-4.29-1.26-6.58-1.75-3.27-.7-6.58-1.16-9.85-1.79a14.35,14.35,0,0,1-1.65-.45,2.87,2.87,0,0,0,.6-.5c-1.52-.5-3-1-4.57-1.62-10-3.83-19.73-6.16-29-11.73-8.24-5-17.1-10.65-24.38-17-4.35-3.86-7.47-9.62-11.52-13.64a34,34,0,0,1-5.6-8.25C.8,165.22,0,156.16,0,147.65,0,140.19-.1,132.44,1,125.05Z" transform="translate(0.04 0)"/><path class="cls-9" d="M67.36,158.16a3.23,3.23,0,0,1,1.06-1.27,16.14,16.14,0,0,0,1.36-1.14,73.48,73.48,0,0,1,5.54-5.89c5-4.35,7.84-9.51,12-14.42A100.78,100.78,0,0,0,96,123.05c2.18-3.49,3.72-7,5.61-10.59,3.37-6.35,5.78-12,6.76-19.23.6-4.39.63-11-2.67-14.41-2-2.08-4.87-3.59-7-5.67a23.61,23.61,0,0,1-2.43-3.28H98a177.06,177.06,0,0,1,19,1.5c8.84,1.2,17.62,2.24,26.21,4.29,7.5,1.84,15.16,2,22.88,2.83,8.09.84,16.41,1.49,24.38,3.08a110.13,110.13,0,0,0,13.85,2.15l-.13.53.44-.5a1.12,1.12,0,0,1-.31,0l.07-.25q2.89-.75,6-1.65c5.89-1.68,12.14-2.68,18.12-4.11,6.29-1.46,12.61-1.46,18.93-2.71,10.46-2,20.64-3.44,31.22-4.64,3.53-.4,7.06-1.72,10.59-2.31l-.8.35A77.84,77.84,0,0,0,271.1,80.05c-2.89,2.55-6,4.78-8.69,7.5A33.48,33.48,0,0,1,257,91.88a35.3,35.3,0,0,1-3.11,1.89c-1.06.59-2.12,1.28-3.22,1.87h0c-1.27.68-2.55,1.4-3.86,2.05a58.58,58.58,0,0,1-6.38,2.93,12.62,12.62,0,0,1,1.79,5.78,115.47,115.47,0,0,1,.19,12.45c0,1.67,0,4-.6,5.38a45.59,45.59,0,0,1-2.24,4.41c-4.09,7.31-3.72,15.66-7,23.31-.48,1.14-1,2.22-1.46,3.25a30.62,30.62,0,0,1-7,9.7,192.75,192.75,0,0,1-15.54,12.55c-12,9.09-25.48,15.88-39.16,22-6.24,2.81-12.48,5.69-18.59,8.7s-12.64,6-19.52,6.31c-3.93.13-7.17-.55-11-1.2-3.33-.56-6.68-.53-10-1a34.34,34.34,0,0,1-15.86-6.94,22.48,22.48,0,0,1-3.81-4.42c-3.1-3.38-3.88-3.31-6.78-6.29A120.4,120.4,0,0,1,71.6,180.26C66.87,173.55,67.33,166.12,67.36,158.16Z" transform="translate(0.04 0)"/><path class="cls-10" d="M51.48,43a39.81,39.81,0,0,0,3.8,2.27C61,47.6,65,45.7,66.64,44.61c1.34-.88,2.52-.91,4.11-1.2h.13c-.1.6-.22,1.15-.31,1.65a15.32,15.32,0,0,1-2.34,5.88c-1,1.49-2.09,3-3.14,4.42a26.16,26.16,0,0,0-3,6.41c-.6,1.59-3.43,9-5.64,5.11-1.2-2.12-.84-5-1-7.28a24.05,24.05,0,0,0-1.58-6.07c-1.25-3.36-2.73-7.28-3-11.09Q51.16,42.73,51.48,43Z" transform="translate(0.04 0)"/><path class="cls-5" d="M48.16,37.17c1.31.53,1.28,1.15,2.21-.13a13.06,13.06,0,0,1,2.73-3.23,4.14,4.14,0,0,1,3.59-1.09c1.34.12,3.43.5,3.89,2,.87-.77,1.43-1.79,2.74-2,1.93-.25,3.51.87,4.92,2,1.09.91,2.09,2.68,3.3,3.3s1.3-.56,2.27-.81a8.27,8.27,0,0,1-.71,4.14,3.29,3.29,0,0,1-2.27,2.06H70.7c-1.58.26-2.77.29-4.11,1.2a11.53,11.53,0,0,1-10.1,1.09,10.33,10.33,0,0,1-2-.87,18.18,18.18,0,0,1-3-1.79,8.37,8.37,0,0,1-.65-.6h0C49.57,41.05,47.95,38.62,48.16,37.17Z" transform="translate(0.04 0)"/><path class="cls-11" d="M77,28.47c.38-1.43,1.31-2.62,1.75-4a18.53,18.53,0,0,0,1-4c.1-1.16-.06-2.39.13-3.55.12-.69,1.06-1.65,1.71-.87.31.35.22,1.15.19,1.59v.68a.33.33,0,0,0-.06.16,1.57,1.57,0,0,0-.16.41,14.85,14.85,0,0,1-.22,1.59c-.13.39-.25.79-.41,1.2-.28.78-.56,1.55-.84,2.3s-.6,1.72-.87,2.52a2.14,2.14,0,0,1-.13.31c-.19.6-.56,1.58-.13,2s1.55-.13,2-.31a4.63,4.63,0,0,0,1.49-1.31,2.62,2.62,0,0,1-.25,3c-.5.47-1.09.81-1.62,1.24-.74.64-.44,1-.37,1.79s-.81,2-1.68,1.75c-1.15-.32-1.15-1.68-1.37-2.71A8.37,8.37,0,0,1,77,28.47Z" transform="translate(0.04 0)"/><path class="cls-11" d="M41,25.23a2.16,2.16,0,0,0,.16.41,8.15,8.15,0,0,0,2,2.71c.6.53,1.2.84,1.11-.19a12.71,12.71,0,0,0-.65-2.39,2.9,2.9,0,0,1-.13-.5L42.86,22a2,2,0,0,1-.06-.28c-.16-.87-.47-3.2-1.12-3.8a.39.39,0,0,0-.22-.13c-.16,0-.28.13-.34.34-.07-.69-.1-1.79.47-2.24s1.34,0,1.71.6a17.31,17.31,0,0,1,1.19,3.59c.44,1.4.53,2.8.84,4.23.47,2.06,1.2,4.56.37,6.58a2.3,2.3,0,0,1-1.79,1.46c-1.12.26-1.2-1.08-1.65-1.79-.6-.93-1.31-1.43-1.52-2.58A4.51,4.51,0,0,1,41,25.23Z" transform="translate(0.04 0)"/><path class="cls-12" d="M40.81,19.32a5.91,5.91,0,0,1,.29-1.27c.06-.22.19-.34.34-.34a.39.39,0,0,1,.22.13c.65.6,1,2.92,1.12,3.8a2.83,2.83,0,0,0-.44,2.61,2.48,2.48,0,0,0,1.27,1.46,12.71,12.71,0,0,1,.65,2.39c.08,1.06-.52.75-1.12.22a8.15,8.15,0,0,1-2-2.7,2.16,2.16,0,0,1-.16-.41h0a10.84,10.84,0,0,1-.5-3.74A7.72,7.72,0,0,1,40.81,19.32Z" transform="translate(0.04 0)"/><path class="cls-13" d="M42.78,21.68a2,2,0,0,0,.06.28l.65,3.3a2.9,2.9,0,0,0,.13.5,2.48,2.48,0,0,1-1.27-1.46A2.83,2.83,0,0,1,42.78,21.68Z" transform="translate(0.04 0)"/><path class="cls-12" d="M79,26.85a2.39,2.39,0,0,0,1.79-.72,3.4,3.4,0,0,0,1.09-2.71A3.09,3.09,0,0,0,81.75,22c-.19-.28-.53-.28-.87-.28.16-.39.28-.79.41-1.2a14.85,14.85,0,0,0,.22-1.59,1.57,1.57,0,0,1,.16-.41l.06.06a10.82,10.82,0,0,1,1,.56A2.92,2.92,0,0,1,84.1,21a7.08,7.08,0,0,1-1.43,5.91,2.39,2.39,0,0,0-.25.34,4.63,4.63,0,0,1-1.49,1.31c-.41.19-1.52.72-2,.31S78.86,27.49,79,26.85Z" transform="translate(0.04 0)"/><path class="cls-13" d="M79.17,26.53c.27-.81.56-1.68.87-2.52s.56-1.52.84-2.3c.34,0,.69,0,.87.28a3.09,3.09,0,0,1,.16,1.43,3.4,3.4,0,0,1-1.09,2.71,2.39,2.39,0,0,1-1.79.72A2.14,2.14,0,0,0,79.17,26.53Z" transform="translate(0.04 0)"/><path class="cls-5" d="M67.36,158.16a3.23,3.23,0,0,1,1.06-1.27,16.14,16.14,0,0,0,1.36-1.14,73.48,73.48,0,0,1,5.54-5.89c5-4.35,7.84-9.51,12-14.42A100.78,100.78,0,0,0,96,123.05c2.18-3.49,3.72-7,5.61-10.59,3.37-6.35,5.78-12,6.76-19.23.6-4.39.63-11-2.67-14.41-2-2.08-4.87-3.59-7-5.67a23.61,23.61,0,0,1-2.44-3.26h0a11.59,11.59,0,0,0-.75-1h0c.85.34,1.67.69,2.48,1.05,2.71,1.23,5.21,2.49,7.77,3.62a39.36,39.36,0,0,0,10.9,3.26c4.43.6,8.85.5,13.33,1,3.8.4,6.58,2.23,10.53,2.65a56.06,56.06,0,0,0,12,1.55c4.14.2,8.37.33,12.37.93,13.83,2.14,27.2,6.49,41.06,8.78,8.9,1.46,17.86,2.39,26.65,4.14,3.59.72,6.19,2.24,7.77,4.73a12.62,12.62,0,0,1,1.79,5.78,115.47,115.47,0,0,1,.19,12.45c0,1.67,0,4-.6,5.38a45.59,45.59,0,0,1-2.24,4.41c-4.09,7.31-3.72,15.66-7,23.31-.48,1.14-1,2.22-1.46,3.25a30.62,30.62,0,0,1-7,9.7,192.75,192.75,0,0,1-15.54,12.55c-12,9.09-25.48,15.88-39.16,22-6.24,2.81-12.48,5.69-18.59,8.7s-12.64,6-19.52,6.31c-3.93.13-7.17-.55-11-1.2-3.33-.56-6.68-.53-10-1a34.34,34.34,0,0,1-15.86-6.94,22.48,22.48,0,0,1-3.81-4.42c-3.1-3.38-3.88-3.31-6.78-6.29a120.4,120.4,0,0,1-12.33-14.35C66.87,173.55,67.33,166.12,67.36,158.16Z" transform="translate(0.04 0)"/><path class="cls-14" d="M79.2,225.67a14.35,14.35,0,0,0,1.65.45c3.27.64,6.58,1.1,9.85,1.79,2.27.48,4.45,1.3,6.58,1.75A4.14,4.14,0,0,1,95.82,233c-1.52,1.43-3.64,2-5.2,3.33A20.62,20.62,0,0,1,88.83,238c-.68-.34-1.37-1-2.05-1.43a18.24,18.24,0,0,1-3.68-2.65c-.93-1-1.89-2-2.8-3-.75-.9-2.39-2.24-2.43-3.52C77.84,226.51,78.57,226.13,79.2,225.67Z" transform="translate(0.04 0)"/></svg>