<svg id="d3" xmlns="http://www.w3.org/2000/svg" viewBox="0 0 310.65 403.32"><defs><style>.cls-1{fill:#f5f6fb;stroke:#f5f6fb;}.cls-1,.cls-10,.cls-2,.cls-3,.cls-4,.cls-5,.cls-6,.cls-7,.cls-8,.cls-9{stroke-miterlimit:10;stroke-width:0.74px;}.cls-2{fill:#c8c3c2;stroke:#c8c3c2;}.cls-3{fill:#d27793;stroke:#d27793;}.cls-4{fill:#fdfdfe;stroke:#fdfdfe;}.cls-5{fill:#bacafc;stroke:#bacafc;}.cls-6{fill:#283a56;stroke:#283a56;}.cls-7{fill:none;}.cls-10,.cls-7{stroke:#000;}.cls-8{fill:#c78b7a;stroke:#c78b7a;}.cls-9{fill:#69504a;stroke:#69504a;}</style></defs><title>dove-svg-3</title><path class="cls-1" d="M213.5,387a28.62,28.62,0,0,0,2.27-1.79h0c3.14,1,6.28,2.19,9.26,2.93,4.82,1.26,9.41,2.19,14.34,3,15,2.67,30.61,4.67,45,9.52,4.22,1.41,8.44,2.37,8.92-3.49a16.23,16.23,0,0,0-2.23-8.48c2.42,2.8,4.72,5.69,7.15,8.66a31.57,31.57,0,0,1,3.17,4.57,4.79,4.79,0,0,1,.15,1.32c-.11,4-1.49,3.93-5,3.59-5.2-.51-10.08-2.81-15.34-3.67-10.21-1.63-20.82-1.26-31-3.23a186.63,186.63,0,0,1-23.91-6.74,89.22,89.22,0,0,1-9.34-3.49,26.32,26.32,0,0,1-3.65-2.59Z" transform="translate(0.28 -69.61)"/><path class="cls-2" d="M34.91,400.18a21.11,21.11,0,0,1,2.85-3.38,5.52,5.52,0,0,1,3-1.15,2.54,2.54,0,0,0-.74.74c-.48,1,.33,1.07.82,1.78.63.92.26.85.26,1.74a2.79,2.79,0,0,0,.48,1.67,28.41,28.41,0,0,0-3.12,1.19c-.85.4-3.11,2.45-4,1.63S34.3,401,34.91,400.18Z" transform="translate(0.28 -69.61)"/><path class="cls-3" d="M40,396.35a2.54,2.54,0,0,1,.74-.74,18.26,18.26,0,0,1,3.08-1.89c3.52-1.49,9.26-1.52,12.94-.45,4.65,1.33,8.52,4.19,12.08,7.34.44.41.92.82,1.37,1.23,3.26,3,6.45,6.89,10.82,8.08a7.2,7.2,0,0,0,1.23.26A14,14,0,0,0,90,409.1c.3-.15.56-.33.85-.52a7.43,7.43,0,0,0-.07,1.23,6.16,6.16,0,0,0,1,3.08c-1.18.33-2.3.63-3.41.85-1.63.33-3.67,0-5.11,1-1.15.74-2.11,1.78-3.34,2.52A7,7,0,0,0,78,419c-5.06-.22-10.45-.56-13.23-4.85-1.71-2.63-3.34-5.95-5.52-8.3-2.37-2.56-6.69-3.52-10-3.3-2.23.11-6.38,1.07-7.71-1a2.79,2.79,0,0,1-.48-1.67c0-.88.37-.81-.26-1.74C40.34,397.49,39.52,397.42,40,396.35Z" transform="translate(0.28 -69.61)"/><path class="cls-2" d="M63.43,390a6.28,6.28,0,0,1,2.48-3.34,2.76,2.76,0,0,1,2.78.11,14.73,14.73,0,0,0-1.74,1.55c-1,1.3-1.3,2-.56,3.6V392a5.5,5.5,0,0,0-1.93.74c-.74.48-1.67,2.11-2.07.74C62.1,392.45,63,391,63.43,390Z" transform="translate(0.28 -69.61)"/><path class="cls-3" d="M66.87,388.36a14.73,14.73,0,0,1,1.74-1.55,2.82,2.82,0,0,0,.74-1.08c2.89-.63,4.56,3.38,5.49,5.41,1.63,3.57,1.89,7.92,2.74,11.75a18.09,18.09,0,0,0,3.45,7c-4.38-1.19-7.56-5.11-10.82-8.08-.44-.41-.92-.82-1.37-1.23a10.78,10.78,0,0,0-.11-3.78,40.85,40.85,0,0,0-2.37-4.78v-.11C65.62,390.38,65.86,389.64,66.87,388.36Z" transform="translate(0.28 -69.61)"/><path class="cls-4" d="M58.62,240.5c23.79-8.28,59.81-29,66.73-33.13,5.76-3.42,23.54-13.43,26.7-23a45.2,45.2,0,0,0,4,9.92,282.5,282.5,0,0,0,16,25.21c7.08,10,15.12,19,20.46,30.43s9.48,23.09,14.68,34.43c2.76,5.95,5.41,5.49,10.19,8.68,5.06,3.41,7.93,9,10.27,14.56,1,2.33,1.64,4.82,3,6.9,5.34,8.56,11.6,17.34,17.31,26.2,1.37,2.13,2.65,4.36,4,6.53a26.09,26.09,0,0,1-.12,3.72,10.26,10.26,0,0,1-.87,2.77c-.74,1.63-1.8,3.18-2.43,4.84-2.07,5.46-2.72,10.63-7,14a15.06,15.06,0,0,1-4.46,2.36c-4.71,1.61-9.76,3-14.37,5.12-.32.15-.62.3-.92.48a38.41,38.41,0,0,0-5.95,4.65h0a28.62,28.62,0,0,1-2.27,1.79l-.27.18a30.83,30.83,0,0,1-3.78,2.23,33.94,33.94,0,0,1-18.18,3.18c-7.08-.74-14.56-5.56-20.56-9.32-8.79-5.5-17.78-8.18-27.37-10.83-7.92-2.19-14.05-5.58-22.14-6.37-8.37-.82-16.17-6.88-22.24-12.55-13.65-12.74-16.31-33.53-26.47-48.55-.49-.67-1-1.41-1.49-2.16-.91-1.34-1.89-2.85-2.91-4.46-6.85-10.71-15.71-25.67-17.94-30.13C41.57,251,46,244.95,58.62,240.5Z" transform="translate(0.28 -69.61)"/><path class="cls-4" d="M221.76,380.59a126,126,0,0,0,29,8.06c7.43,1.07,13.87,1.78,20.91,4,4.93,1.55,10.41,3.6,10.19-3.26-.19-7.28-5.45-13.27-9.35-19.28,3.6,4,7.54,7.64,11.56,11.35a90.64,90.64,0,0,1,7,7.35,16.37,16.37,0,0,1,2.23,8.48c-.51,5.86-4.74,4.89-8.92,3.49-14.39-4.85-30-6.85-45-9.52-4.93-.85-9.52-1.78-14.34-3-3-.74-6.11-1.89-9.26-2.93A39.13,39.13,0,0,1,221.76,380.59Z" transform="translate(0.28 -69.61)"/><path class="cls-1" d="M222.68,380.13c4.61-2.15,9.66-3.52,14.37-5.12a15.06,15.06,0,0,0,4.46-2.36,20.27,20.27,0,0,0,2.66,1.74,28.41,28.41,0,0,0,5.45,2.71c13.83,3.78,6.2-13.71,1.35-23.31a10.26,10.26,0,0,0,.94-2.82,26.09,26.09,0,0,0,.12-3.72,39.68,39.68,0,0,0,5.29,6.85c4.59,4.63,9.27,8.86,13.46,13.94.56.67,1.12,1.33,1.7,2h0c3.9,6,9.17,12,9.35,19.28.22,6.86-5.26,4.82-10.19,3.26-7-2.19-13.47-2.89-20.91-4a126,126,0,0,1-29-8.06A8.82,8.82,0,0,1,222.68,380.13Z" transform="translate(0.28 -69.61)"/><path class="cls-4" d="M213.26,387.2a26.32,26.32,0,0,0,3.65,2.59,89.22,89.22,0,0,0,9.34,3.49A178.55,178.55,0,0,0,250.16,400c10.21,2,20.82,1.6,31,3.23,5.26.85,10.14,3.15,15.34,3.67,3.52.33,4.89.41,5-3.59a4.79,4.79,0,0,0-.15-1.32c.64,1.12,1.2,2.23,1.8,3.55,1.44,3.11,2.74,4.22-.74,5.26-4.79,1.41-10.41-1.23-14.76-2.15-11-2.33-22.94-2.23-33.69-4.63l.3.44c-2.23-.74-4.39-1.82-6.62-2.48-3.45-1-7.08-1.14-10.68-1.89a131.08,131.08,0,0,1-18.59-5.64c-3.23-1.18-6-3.17-8.92-5.06A30.83,30.83,0,0,0,213.26,387.2Z" transform="translate(0.28 -69.61)"/><path class="cls-1" d="M1.67,213c3.86-15.27,9.26-29.28,19.05-42.29,4.07-5.45,6.48-10.51,9.56-16.46a9.75,9.75,0,0,0-4,3.3c4.46-13.42,14-25,22.94-36.51,10.53-13.6,26.17-22,40.67-30.76,5.74-3.46,13.56-12.16,20.38-12.38a6.69,6.69,0,0,1,4.63-3.34c3.48-2.65,4.26-3.89,9.08-4.14,4-.19,8.34-1,12.23.41,7.6,2.88,15.72,8.51,19.66,15.86,7.49,13.93,2.59,36.28-1.08,50.89-3.72,14.87-7,31.77-2.77,46.9-3.15,9.57-20.94,19.58-26.7,23-6.92,4.1-42.94,24.85-66.73,33.13-12.56,4.38-17,10.41-8.37,27.61,2.23,4.46,11.05,19.45,17.94,30.18,1,1.58,2,3.09,2.91,4.46.54.74,1,1.49,1.49,2.16,10.16,15,12.82,35.8,26.47,48.55,6.07,5.67,13.87,11.73,22.24,12.55,8.09.79,14.21,4.19,22.14,6.37,9.59,2.65,18.62,5.33,27.37,10.83,6,3.76,13.48,8.58,20.56,9.32a33.94,33.94,0,0,0,18.18-3.18,43.32,43.32,0,0,0,8.92,5.06,132.86,132.86,0,0,0,18.59,5.64c3.6.74,7.23.89,10.68,1.89,2.23.66,4.39,1.74,6.62,2.48a265.56,265.56,0,0,0,29.47,36c6.69,6.9,12.45,14.57,18.94,21.46,1.6,1.67,7.23,6.23,7.23,8.6.09,4-6.92,1.07-8.92.19-5-2.23-22.94-12.94-27.24-15.61-4.56-2.78-8-5.75-12.64-8.68-4.93-3.08-8.74-4.93-13.2-8.56-8.12-6.69-15.61-15-24.24-20.82-3.63-2.51-7.3-6.16-11.37-7.71-4.46-1.75-9.74-2.13-14.2-3.72-7-2.48-17.9-8.34-24.79-5.41a70.2,70.2,0,0,0-9.15,4.52c-1.71,1-6.79,6-8.6,5.75s-2.11-3.64-2.59-5.34a62.39,62.39,0,0,1-5.34,3.78c-.59-3.52-7-9.57-10.64-9.57a31.38,31.38,0,0,0,3.82-4.22,32.33,32.33,0,0,0-5.3-1.44c-.82.85-1.89,2.59-2.63,3.18-1.75,1.34-3.38.71-5.34,1.34-2.31.74-3.91,2.89-5.95,4.22-1.78,1.15-3.81,1.89-5.56,3.08-1.29.93-3.93,2.71-4.59,4.07-3.3-1.14-6.52-.07-9.9,1-1.49.42-2.85,1.08-4.37,1.49a23.48,23.48,0,0,0-4.63,1.26c-4.46-3.86.74-10.75,4.46-12.94,2.73-1.62,5.87-2.07,6.69-5.34.74-3,2.23-8.23.33-10.86-1.15-1.59-2.89-2.59-4-4.37a38.4,38.4,0,0,1-1.49-3.56h0A52.49,52.49,0,0,1,89,368.81C85.27,365,81.91,361.06,78,357.35a400.47,400.47,0,0,1-29.24-30.73c-5-5.95-8.68-12.53-13.08-18.87-3.64-5.3-7.3-10.41-10-16.19A397.81,397.81,0,0,0,6.59,255.71C3.14,250,2.55,242,1.18,235.22A47.58,47.58,0,0,1,1.67,213Z" transform="translate(0.28 -69.61)"/><path class="cls-5" d="M128.77,407.21a30.48,30.48,0,0,1,4.67-5.11c1.14-1,2.67-2.41,4.3-2.41,1.9,0,3.76,1.37,5.2,2.52a23.91,23.91,0,0,1,4.19,4.89,4.46,4.46,0,0,1,.37.74l-.07-.11c.3,1.23,1.08,3,.52,4.46a13.16,13.16,0,0,1-3.11,4.19c-1.15,1-2.48,1.93-3.6,2.93-.92.78-1.26,1.23-2.41.63s-1-1.14-1-2.3h0a6.54,6.54,0,0,0-1.93-3.72c-1.67-1.75-3.56-3.15-5.9-3.15a3.81,3.81,0,0,0-.63,0c-1.18.08-1.55-.18-1.55-1.41S128.22,408,128.77,407.21Z" transform="translate(0.28 -69.61)"/><path class="cls-3" d="M108.8,427a5.06,5.06,0,0,1,2.3-2.52c.93-.59,1.81-1.18,2.74-1.74.74-.44,1.49-.88,2.3-1.29,3-1.54,6.23-3.46,7.64-6.69a.79.79,0,0,0,.11-.26c.37-1,.41-1.63,1.49-1.89a14.94,14.94,0,0,0,3.45-1.29c.37-.19.74-.37,1.08-.52,2.33,0,4.23,1.41,5.9,3.15a6.54,6.54,0,0,1,1.93,3.72h0c-.15.45-.26.85-.37,1.26a31.59,31.59,0,0,1-1.23,3.72,8.31,8.31,0,0,1-1.49,2.67c-.74.56-2.33.19-3.15.07a12.24,12.24,0,0,0-4.19.07,16.36,16.36,0,0,0-6.82,2.85c-1.12.74-2.37,1.29-3.52,2-1,.59-1.49,1.7-2.3,2.45-1.09,1-2.35,2.3-3.72,1.55a16.83,16.83,0,0,1,1-2.89,3.31,3.31,0,0,0-1.43-4.22l-.07-.07-.11-.11a.23.23,0,0,0-.15-.07c-.55-.3-1.18.92-1.41,1.37a5.69,5.69,0,0,0-.3.74A5.61,5.61,0,0,1,108.8,427Z" transform="translate(0.28 -69.61)"/><path class="cls-3" d="M78.92,421.68a.28.28,0,0,0-.15-.07c-.74-.45-1.33,0-1.85.63A6,6,0,0,1,78,419.09a7,7,0,0,1,1.93-1.81c1.23-.78,2.19-1.78,3.34-2.52,1.44-1,3.49-.63,5.11-1,1.12-.22,2.23-.52,3.41-.85,1.67-.48,3.38-1,5-1.55,3.15-1,6.33-2,9.56-2.71,3-.63,5.11.81,7.56,2.3a19.33,19.33,0,0,0,7,2.89c1,.19,2,.67,2.93.85-1.41,3.2-4.59,5.14-7.64,6.69-.81.4-1.55.85-2.3,1.29a41.94,41.94,0,0,1-7.6-1.81,14.39,14.39,0,0,0-7.93,0c-4.37.93-9.49,2.11-13,4.89-1.55,1.23-2.85,3-5,2.93a2.85,2.85,0,0,1-2.45-1.55c.33-.33.67-.63,1-.93C79.56,425.52,80.15,422.19,78.92,421.68Z" transform="translate(0.28 -69.61)"/><path class="cls-2" d="M108.52,429h0a5.69,5.69,0,0,1,.3-.74c.22-.44.85-1.67,1.41-1.37,0,0,.11.07.15.07s0,.11.11.11a.07.07,0,0,1,.07.07h0a3.31,3.31,0,0,1,1.41,4.22,16.83,16.83,0,0,0-1,2.89c-.26.93-.45,1.85-.63,2.85-.22,1.26-.56,2.56-.74,3.78-.82-.07-1.08-2.48-1.19-3.15a36.13,36.13,0,0,1-.19-4A11.89,11.89,0,0,1,108.52,429Z" transform="translate(0.28 -69.61)"/><path class="cls-2" d="M73.47,427.86a33.26,33.26,0,0,1,3-5.08,6.8,6.8,0,0,1,.48-.59c.52-.63,1.11-1.08,1.85-.63a.28.28,0,0,1,.15.07c1.22.56.63,3.89-.07,4.59-.3.3-.63.59-1,.93a21.22,21.22,0,0,0-3.85,4.3c-.48.74-.48,1.89-1.23,2.33C71.48,431.93,72.58,429.56,73.47,427.86Z" transform="translate(0.28 -69.61)"/><path class="cls-6" d="M114.9,74.52a6.49,6.49,0,0,1,.82-.19l-1.08.37C114.71,74.63,114.83,74.6,114.9,74.52Z" transform="translate(0.28 -69.61)"/><path class="cls-6" d="M114.9,74.52a6.49,6.49,0,0,1,.82-.19l-1.08.37C114.71,74.63,114.83,74.6,114.9,74.52Z" transform="translate(0.28 -69.61)"/><path class="cls-6" d="M114.9,74.52a6.49,6.49,0,0,1,.82-.19l-1.08.37C114.71,74.63,114.83,74.6,114.9,74.52Z" transform="translate(0.28 -69.61)"/><path class="cls-6" d="M114.66,74.72l1.08-.37a6.45,6.45,0,0,0-.82.19C114.83,74.6,114.71,74.63,114.66,74.72Z" transform="translate(0.28 -69.61)"/><path class="cls-6" d="M114.9,74.52a6.49,6.49,0,0,1,.82-.19l-1.08.37C114.71,74.63,114.83,74.6,114.9,74.52Z" transform="translate(0.28 -69.61)"/><path class="cls-6" d="M114.9,74.52a6.49,6.49,0,0,1,.82-.19l-1.08.37C114.71,74.63,114.83,74.6,114.9,74.52Z" transform="translate(0.28 -69.61)"/><path class="cls-6" d="M114.9,74.52a6.49,6.49,0,0,1,.82-.19l-1.08.37C114.71,74.63,114.83,74.6,114.9,74.52Z" transform="translate(0.28 -69.61)"/><path class="cls-6" d="M114.9,74.52a6.49,6.49,0,0,1,.82-.19l-1.08.37C114.71,74.63,114.83,74.6,114.9,74.52Z" transform="translate(0.28 -69.61)"/><path class="cls-7" d="M97.27,116.56v.07h-.1A.13.13,0,0,0,97.27,116.56Z" transform="translate(0.28 -69.61)"/><path class="cls-8" d="M83.17,131a60,60,0,0,0,3.34-5.08c1.49-2.17,3.29-4.19,4.33-6.63.63-1.49,1.41-2.92,2-4.41.48-1.07.74-2.23,1.23-3.3a13.46,13.46,0,0,1,2.18-3.18c.59-.62,1.37-1.11,2-1.78a36.31,36.31,0,0,0-.22,4.89,38.2,38.2,0,0,1-.74,5.15.13.13,0,0,1-.11,0h.11v-.08c1.18-.19,1.81-3.63,2.11-4.37,2.3,1.19.51,4.46,1.37,6.23.48,1,.85.56,1.7.3,1.11-.33,1.67,0,2.41.93a11.26,11.26,0,0,0,2.23,2.71,26.32,26.32,0,0,0,3.3,1.56l1.37.67c-1,.52-1.81,1.44-2.93,1.81-2.17.74-4.46,1.37-6.63,2.07-2.85.93-5.67.78-8.23,2.56a25.2,25.2,0,0,1-6.23,3.52c-1.33.52-3.18.82-4.41,0a3,3,0,0,1-.93-1.49C82.15,132.12,82.67,131.64,83.17,131Z" transform="translate(0.28 -69.61)"/><path class="cls-2" d="M107.41,89.08a18.44,18.44,0,0,1,.56-3.49,24.12,24.12,0,0,1,1.49-4c.22-.62.33-1.26.56-1.78a12,12,0,0,0-.37,5.26c.22,1.26.85,1.78,2,1.33s1.55-1.41,2.11-2.37a26.3,26.3,0,0,0,2.45-6.48,13.08,13.08,0,0,0,.48-2.33c0-.89-.85-1-1.59-1h0c-.19.07-.37.15-.59.26a8.92,8.92,0,0,1,1.49-1.63A8.49,8.49,0,0,1,120,70.92c.48.74-.07,2.33-.37,3a13.5,13.5,0,0,1-2.11,3.3c-1.73,2.37-2.52,5.38-4,7.93a26.22,26.22,0,0,1-2.15,3.15c-.51.74-1.07,1.41-1.67,2.11-.26.3-.56,1-.89,1.19C107.49,92.54,107.39,89.87,107.41,89.08Z" transform="translate(0.28 -69.61)"/><path class="cls-9" d="M108.87,85.12c.22,1.26.85,1.78,2,1.33s1.55-1.41,2.11-2.37a26.3,26.3,0,0,0,2.45-6.48,13.08,13.08,0,0,0,.48-2.33c0-.89-.85-1-1.59-1h0c-.19.07-.37.15-.59.26a6.45,6.45,0,0,0-1.65,1,7.06,7.06,0,0,0-2.41,3.26c-.11.37-.22.74-.3,1.08v.07A12,12,0,0,0,108.87,85.12Zm2.48-2c-.33-.68.56-2.33.82-3a7.78,7.78,0,0,1,1.41-2c.74,0,.82,1.26.82,1.78a4.74,4.74,0,0,1-1.15,2.93c-.4.56-1.49,1-1.89.3Z" transform="translate(0.28 -69.61)"/><path class="cls-2" d="M132.07,119.8a5.62,5.62,0,0,1,3-1.41h.33a1.35,1.35,0,0,1,.67,0,2.79,2.79,0,0,0,1.12-.15,12,12,0,0,0,1.81-.67,11.15,11.15,0,0,1,2.19-.85l1.23-.33a8.77,8.77,0,0,1,1.37-.22c.59-.11,1.14-.26,1.74-.37a6.79,6.79,0,0,0,1.19-.26,5.32,5.32,0,0,1,2.52-.52,1.12,1.12,0,0,1,1.08,1,2.17,2.17,0,0,1-.85,1.78,12.08,12.08,0,0,1-4.15,2.59,9.41,9.41,0,0,0,.59-1,4.54,4.54,0,0,0,.59-1.37c0-.26,0-.74-.22-.93s-.89.07-1.19.07a20.82,20.82,0,0,0-3,.52,6.26,6.26,0,0,0-1.78.45h-.11a6.3,6.3,0,0,0-1.92.91,10.26,10.26,0,0,1-2,1c-.26.15-.63.26-.74.59a1.79,1.79,0,0,0,.48,1.26,5.32,5.32,0,0,0,2.59,1.7,5.69,5.69,0,0,1-.74.3c-.41.11-.85.26-1.26.33a9.91,9.91,0,0,1-1.49,0,3.72,3.72,0,0,1-2.23-.93,13.75,13.75,0,0,0-2-.89C129.52,121.74,131.44,120.35,132.07,119.8Z" transform="translate(0.28 -69.61)"/><path class="cls-4" d="M98,111.43a36.31,36.31,0,0,1,.22-4.89,13.7,13.7,0,0,1,.37-2.15,23.34,23.34,0,0,1,1.49-4.07,4.14,4.14,0,0,1,2.71-2.19,5,5,0,0,1,3.72-.19c1.44.59,3.4,1.56,4.22,2.89a8.78,8.78,0,0,1,1.34,4.71c0,1.26-.82,2.67-.63,3.86,3.52-1.18,7.35,3.38,8.68,6a8.74,8.74,0,0,1,1,2.42,4.19,4.19,0,0,1-.56,2.19c-.15.45-.74,1.74-.07,2,.51.19,1.33-.45,2-.15.92.45.22,3.11-1,3.19-.79.11-1.49-.63-2.23-.74-1-.19-2.11.74-3.08,1a5.18,5.18,0,0,1-4.37-.74c-.44-.22-.88-.45-1.37-.67a26.32,26.32,0,0,1-3.26-1.52,15.1,15.1,0,0,1-2.23-2.71c-.74-.85-1.29-1.26-2.41-.93-.85.26-1.22.71-1.7-.3-.85-1.77.93-5-1.37-6.23-.3.74-.92,4.19-2.11,4.37C97.46,114.89,98,113.25,98,111.43Z" transform="translate(0.28 -69.61)"/><path class="cls-10" d="M112.17,80.12a7.78,7.78,0,0,1,1.41-2c.74,0,.82,1.26.82,1.78a4.74,4.74,0,0,1-1.15,2.93c-.4.56-1.49,1-1.89.3S111.91,80.79,112.17,80.12Z" transform="translate(0.28 -69.61)"/><path class="cls-9" d="M136.3,120.11a10.26,10.26,0,0,0,2-1,6.3,6.3,0,0,1,1.89-.89h.1a6.26,6.26,0,0,1,1.78-.45,20.82,20.82,0,0,1,3-.52c.3-.07,1-.26,1.19-.07s.22.67.22.93a4.54,4.54,0,0,1-.59,1.37,9.41,9.41,0,0,1-.59,1,4.82,4.82,0,0,1-.37.56,4.52,4.52,0,0,1-1.29,1.23,10.7,10.7,0,0,1-1.63,1,6.75,6.75,0,0,1-1.67.37,3.1,3.1,0,0,1-1.74,0h0a5.32,5.32,0,0,1-2.59-1.7,1.79,1.79,0,0,1-.48-1.26C135.67,120.35,136,120.23,136.3,120.11Z" transform="translate(0.28 -69.61)"/><path class="cls-10" d="M139,120.19c0-.11.37-.26.48-.37a3.88,3.88,0,0,1,.41-.3,1.69,1.69,0,0,1,.74-.3c.26-.11.63-.11.93-.22a11.06,11.06,0,0,1,1.19-.26c.41-.07.89-.19,1.15.15a.94.94,0,0,1-.07,1.12,3.52,3.52,0,0,1-.63.37,2,2,0,0,1-.59.37A5.71,5.71,0,0,1,141,121a4.46,4.46,0,0,1-1.41,0C139.26,120.93,138.71,120.53,139,120.19Z" transform="translate(0.28 -69.61)"/><path class="cls-4" d="M248.55,358.61c.63-1.66,1.69-3.21,2.43-4.84,4.85,9.6,12.48,27.09-1.35,23.31a28.4,28.4,0,0,1-5.45-2.71,20.27,20.27,0,0,1-2.66-1.74C245.86,369.24,246.51,364,248.55,358.61Z" transform="translate(0.28 -69.61)"/><polyline class="cls-7" points="251.27 284.17 251.26 284.16 251.26 284.12"/></svg>