<svg id="d5" xmlns="http://www.w3.org/2000/svg" viewBox="0 0 322.62 198.55"><defs><style>.cls-1{fill:#776d75;}.cls-2{fill:#fdfdfe;stroke:#fdfdfe;}.cls-10,.cls-11,.cls-13,.cls-2,.cls-4,.cls-5,.cls-8,.cls-9{stroke-miterlimit:10;stroke-width:0.52px;}.cls-13,.cls-3{fill:#f5f6fb;}.cls-4{fill:#d27793;stroke:#d27793;}.cls-5{fill:#7388a0;stroke:#7388a0;}.cls-6{fill:#b56755;}.cls-7{fill:#c78b7a;}.cls-8{fill:none;}.cls-11,.cls-8{stroke:#000;}.cls-9{fill:#c8c3c2;stroke:#c8c3c2;}.cls-10{fill:#69504a;stroke:#69504a;}.cls-12{fill:#fff;}.cls-13{stroke:#f5f6fb;}</style></defs><title>dove-svg-5-1</title><path class="cls-1" d="M380.53,203.57c6,0,30.81,3.24,21.6,9.38-3.26,2.17-13.34,2.35-17.9,3.42-9.36,2.18-19,3.6-28.36,5.55-17.83,3.7-31.66,12.12-49.75,14.39-15.46,1.94-30.53,4.45-45.63,7.41-17.29,3.38-34.74,3.43-52.6,4.11-29,1.1-56.09-5.35-78.57-17.43-11.23-6-26.91-15.49-23.13-26.22,2.84-8.07,24.68-15.44,36.39-17.64,21.7-4.08,45.27-4.1,67.74-4.1,15.1,0,31.13-.25,45.92,1.57,14.46,1.79,28.44,5.79,42.61,8.46,9,1.69,17.27,4.75,26.21,6.36,9.4,1.69,19.63,1.62,29.28,2.49,9.15.82,17.19,2.05,26.19,2.25" transform="translate(-81.54 -49.4)"/><path class="cls-2" d="M291.83,184.37c-.3.49-.15,1-.66,1.37a4.64,4.64,0,0,1-2.31.38,27.25,27.25,0,0,1-5.57-.85c-1.11-.27-1.56-.44-2.37.56-.37.39-.52,1-.94,1.39a12.63,12.63,0,0,1-1.84.75,4.47,4.47,0,0,1-2.69.85c-1.21-.07-2.47-.18-3.69-.28-3.44-.32-6.88-.66-10.29-.94a27.78,27.78,0,0,1-4.42-.73l-1-.33-.17-.06a210.19,210.19,0,0,0,28.66-2.38c1.9-.32,3.78-.72,5.64-1.15C290.85,183.43,291,184.11,291.83,184.37Z" transform="translate(-81.54 -49.4)"/><path class="cls-3" d="M298.09,185.08c-1.24.71-4.68-.34-6.24-.72-.86-.26-1-.89-1.74-1.41l5.55-1.34C296.85,182.84,296.54,184,298.09,185.08Z" transform="translate(-81.54 -49.4)"/><path class="cls-4" d="M181.42,194.24a13.11,13.11,0,0,0-2.75.3c-1.13.11-2.28.35-3.39.56-2.84.52-5.51,2.52-8.11,3.74a7.71,7.71,0,0,1-2.18.47c.57-1.06.89-2.86-.28-3.18a1.73,1.73,0,0,0-1.6.49,4.79,4.79,0,0,1,.68-2.84c1.68-2,4.2-2.95,6.68-3.59a7.63,7.63,0,0,0,2.5-.66,14.54,14.54,0,0,0,2.82,1.54c1.28.66,2.42,1.56,3.72,2.22A9.35,9.35,0,0,1,181.42,194.24Z" transform="translate(-81.54 -49.4)"/><path class="cls-5" d="M257.14,141.83a29.51,29.51,0,0,0-5.17-5.57,21.42,21.42,0,0,0-3.37-2.43c-1.06-.55-2.14-.89-3.06-1.41,2.6-.6,2.76-3.8,2.2-5.93-.66-2.5-3.14-4-5.14-5.2,2.14-.34,2.6-3,2.14-4.76-.83-2.84-4.72-6-7-7.6-3.48-2.47-6.9-3.84-10.76-5.55-1.91-.83-3.72-1.77-5.72-2.45-1.77-.67-3.8-1-5.49-1.67,1.31-.17,4,.67,4.53-1.17.19-.68-.52-.91-.47-1.47s.83-1.22.83-2.22c0-4-4.12-4.25-6.62-6.13-1.93-.88-8.2-3.93-10.2-4.68-3.55-1.31-10.79-5.69-22.09-7.52C177.86,75.44,174,75,170,74.59a88.33,88.33,0,0,0-12.79.06c-.78,3.27.89,6.89,1.67,10.17a34.22,34.22,0,0,1,.91,9.32,18.61,18.61,0,0,1-2.8,5.2,49.86,49.86,0,0,1-8.31,8.79c-8.62,7.49-15.86,16.73-19.38,27.73-1.77,5.49-2.77,10.5-.52,15.88,1.93,4.7,3.84,9.38,7.84,12.7a117.88,117.88,0,0,0,11.61,9c4.76,3,9.88,5.33,14.69,8.15a115.19,115.19,0,0,0,14.73,6.9c6.19,2.49,12.5,2.6,19.08,3.28s12.88,2.2,19.45,2.56a32.3,32.3,0,0,0,14-2.28c2-.75,4.26-1.56,6.44-2.46A22.73,22.73,0,0,0,244,185c1.83-1.81,2-4.19,3-6.19.52-1.09,1.9-1.95,2.71-2.95a7.12,7.12,0,0,0,.81-1.24,11.92,11.92,0,0,0,1.07-2.6,26.11,26.11,0,0,0,1.31-7.94V164a24.34,24.34,0,0,0-.89-7.58c-.43-1.56-.26-1.73,1-2.73a18.19,18.19,0,0,0,3.78-4C258.11,147.53,258.63,144,257.14,141.83Z" transform="translate(-81.54 -49.4)"/><path class="cls-2" d="M384.9,183.11c-.3,1.91-.41,3.52-1.86,4.91-.75.72-1.71,1.15-2.5,1.79a22.08,22.08,0,0,1-5.87,3.61,39.83,39.83,0,0,1-8.31,2.6,9,9,0,0,1-3.5-.36,6.86,6.86,0,0,0-2.48-.52c-1.25-.52-8-3.18-9.25-3.67-1.68-.69-3.59-.92-5.32-1.52-3.48-1.22-6.76-3-10.12-4.57a45.26,45.26,0,0,0-5.4-2.48c-2-.6-4.24-.7-6.24-1.3-.7-.22-1.41-.46-2.08-.69a35.13,35.13,0,0,1-4.2-1.86,12.13,12.13,0,0,1-1.81-1.24c.66-.15,1.32-.31,2-.43,5.4-1.07,10.65-2.84,16.11-3.78,4.36-.77,9-1.6,13-3.37a29.85,29.85,0,0,0,2.78-1.43c1.67.56,3.35,1,5,1.56,3,1,6.08,1.13,9.2,1.71,2.68.52,5.13,1.69,7.88,1.75,4.2.11,7.67-.32,11.83-.32.88.9,1.33,3,1.48,4.25A19.84,19.84,0,0,1,384.9,183.11Z" transform="translate(-81.54 -49.4)"/><path class="cls-3" d="M389.78,165.87a13.51,13.51,0,0,0-1.3-1.56c-.56-.72-.94-1.62-1.56-2.32-2.16-2.56-5.06-5.32-8.28-6.32-4.3-1.32-8.88-1.92-13.3-2.82-5.55-1.15-11.26-1.74-16.73-3.15a1.78,1.78,0,0,0,.1-.44,117.22,117.22,0,0,0-12.92-3.6c-7.92-1.79-15-6.19-22.7-8.47-1.93-.57-3.9-1-5.85-1.51-1.23-.39-3.8-.49-4.62-1.39.52-.31,3.93-.71,2.25-1.92,2.46-.16,4.6.71,7,.93a89.22,89.22,0,0,1,12.85,2c3.58.86,7.1,2.25,10.77,2.67a69.46,69.46,0,0,1,11.37,2.46c-.37-.14-.73-.28-1.09-.44-4.27-1.88-9-2.75-13.39-4.48a117,117,0,0,0-12.93-4.74c-4.72-2.46-10.72-3.48-15.72-5.34-3.37-1.26-7.28-4-10.65-4.44a6.27,6.27,0,0,0,1.43,0,32.35,32.35,0,0,0-5.32-4.84c-4.57-3.85-10.2-6.74-15.2-10-2-1.28-4.21-1.92-6.19-3.22s-3.77-3.12-5.89-4.42c-8.31-5.23-17.35-10-26-14.76-9-4.85-19.47-7.24-28.9-11-7.3-2.93-14.53-4.24-22.13-5.41a72.56,72.56,0,0,0-21.83.49c-6.86,1-11.21.86-16.93-3.2-4.68-3.31-7.79-7.41-13.11-9.95a54.5,54.5,0,0,0-16.89-5.15A26.67,26.67,0,0,0,98.42,54c-2.13,1.49-4,3-5,5.59s-.72,5.54-1.85,8.06h.06a.85.85,0,0,1,.19.26V68a.36.36,0,0,1,0,.07.72.72,0,0,0,0,.17.39.39,0,0,1,0,.14v.37a2.41,2.41,0,0,0,0,.35c.08.86,0,2,0,2.67a8.41,8.41,0,0,1,1,.3,10.53,10.53,0,0,1,2.71,1c1,.75,2,1.46,3,2.24.73.59-.31,2-.52,2.91-.14.2.27.79.09,1.2-.26.58-1.18.88-1.65,1.23a6.13,6.13,0,0,0-1.7,2.08,21.21,21.21,0,0,1-.55,2.08C93.46,86.12,91,87,89.68,87.71c-1,.52-2.08.87-3,1.44a3.88,3.88,0,0,0-.67.76,1.75,1.75,0,0,1-.84.52c-.82.34-1.48.93-2.48.62a2.08,2.08,0,0,1-1-1.31,2.28,2.28,0,0,0,.32.8c.91,1.28,2.75.41,3.86-.11a40.35,40.35,0,0,1,4.28-1.69c1.43-.49,2.77-1.54,4.2-2s3.33-.23,4.89-.23c.68,0,2.08-.22,2.6.3.36.34.25,1.7.25,2.22,0,1.6-.49,3.29-.66,4.93a49.52,49.52,0,0,0,.3,12.56c.68,4.31,2.17,8.21,3.5,12.47,2.41,7.84,5.12,15.15,9.71,22,2.21,3.27,4.2,6.67,6.44,9.93a102.89,102.89,0,0,0,7,8.94c.88,1.06,1.78,2.06,2.65,3.06,3.72,4.06,7.8,8.14,12.64,11,2.69,1.56,5.63,2.6,8.31,4.16,3.49,2,7.18,3.67,10.7,5.59,6.41,3.46,12.54,7.27,19,10.74a65.82,65.82,0,0,0,6,2.84c-.78,3.46-.29,8.56-3,11.36-1,1.08-4.46,2.41-4.46,4.08,0,2.16,2.18,2.67,3.78,3.5,1.12.58.73,1.15.41,2.37a28.3,28.3,0,0,1-1,3.59c2.94-2.73,6.53-5.1,8.94-8.31a63.93,63.93,0,0,1,5-5.42c1.4-1.47,3-2.73,4.35-4.29.86-1,1.86-1.77,2.69-2.69a53.43,53.43,0,0,0,7.17.1,30.64,30.64,0,0,0,7.9-2.15,5.72,5.72,0,0,0,1.37-.73c1.18-1,3.55-1.07,5.23-1.24a31.34,31.34,0,0,1,7.64-.09,13.15,13.15,0,0,0,3.67.3,22.22,22.22,0,0,1,2.78-.56c2-.11,4.15.6,6.15.17.75-.18,1.54-.78.92-1.35s-1.71-.35-2.33-.87c.86-.58,3.29-.52,4.38-.58,1.77-.09,3.57.08,5.34,0,2.29-.09,4.27-1.33,6.45-1.33.08-.7-1.17-1.11-1.69-1.45-.81-.55-1.64-1.17-2.43-1.79-1.24-1-2.44-1.88-2.8-3.37h-3.59a29.57,29.57,0,0,1-2.39,1.86c-3,2.12-7.34,1.75-11.46,1.26-2.17.9-4.44,1.71-6.44,2.46a32.3,32.3,0,0,1-14,2.28c-6.58-.36-12.94-1.88-19.45-2.56s-12.89-.79-19.08-3.28a118.83,118.83,0,0,1-14.73-6.9c-4.78-2.81-9.89-5.19-14.65-8.19a117.88,117.88,0,0,1-11.61-9c-4-3.33-5.92-8.05-7.84-12.73-2.22-5.38-1.22-10.39.52-15.88,3.56-11,10.76-20.23,19.36-27.74a50.63,50.63,0,0,0,8.31-8.79,19,19,0,0,0,2.8-5.2,34.22,34.22,0,0,0-.91-9.32c-.79-3.28-2.45-6.91-1.67-10.17a88.33,88.33,0,0,1,12.79-.06c3.94.38,7.85.85,11.74,1.48,11.31,1.83,18.54,6.21,22.09,7.52,2,.75,8.27,3.79,10.2,4.68,2.5,1.88,6.62,2.13,6.62,6.13,0,1-.75,1.6-.83,2.22s.66.79.47,1.47c-.53,1.84-3.23,1-4.53,1.17,1.69.67,3.72,1,5.49,1.67,1.95.68,3.8,1.62,5.72,2.45,3.86,1.71,7.28,3.08,10.76,5.55,2.32,1.6,6.21,4.76,7,7.6.46,1.76,0,4.42-2.14,4.76,2,1.2,4.48,2.67,5.14,5.2.55,2.13.4,5.33-2.2,5.93.92.52,2.06.85,3.06,1.41a21.42,21.42,0,0,1,3.33,2.41,25.29,25.29,0,0,1,4.89.41A38.89,38.89,0,0,1,267,139.94a71.5,71.5,0,0,1,7.95,4.84c1.79,1.23,3.92,2.13,5.12,4.05a8,8,0,0,1,1.17,3,10,10,0,0,1,2.6,4.2c2.28-.75,4.78,0,7.28,0a68,68,0,0,1,7.28,0,3.69,3.69,0,0,1,.67.08,5.91,5.91,0,0,1,2.22-.58c2.55,0,5.22.32,8,.32s5.72,0,8.5.17c2.39.11,4.68.88,7.07,1.11a33.39,33.39,0,0,1,7,1.37,39.82,39.82,0,0,1,4.59-.81c2.6-.35,5.28-.62,7.9-.73,4.12-.16,9.22-.62,12.79,1.92,2.69,1.91,1.6,4.31-.85,5.91-2.08,1.31-4.21,2.76-6.39,4,1.67.56,3.35,1,5,1.56,3,1,6.08,1.13,9.2,1.71,2.68.52,5.13,1.69,7.88,1.75,4.2.11,7.67-.32,11.83-.32,3.19.05,4.51-2.55,6.06-4.79C390.68,167.53,390.6,167.14,389.78,165.87ZM104.87,75.78c.5.85-.32,2-1.19,2.51a4,4,0,0,1-3.16.36l-.17-.06-.2-.09a7.62,7.62,0,0,0-1-.45L98.9,78a1,1,0,0,0-.36,0c.68-.7,1.14-2.29,1.6-3h0a1.15,1.15,0,0,1,.14-.19,2.83,2.83,0,0,1,2.88-.75,4.82,4.82,0,0,1,1.68,1.7Z" transform="translate(-81.54 -49.4)"/><path class="cls-2" d="M359.82,145.83c-.88.79-2.89.58-4,.52-1.56-.07-3.12-.32-4.68-.52a26.24,26.24,0,0,1-3.22-.25c-.6-.15-1.13-.64-1.77-.56a4.76,4.76,0,0,1,2.52,4.2,117.22,117.22,0,0,0-12.92-3.6c-7.92-1.79-15-6.19-22.7-8.47-1.93-.57-3.9-1-5.85-1.51-1.23-.39-3.8-.49-4.62-1.39.52-.31,3.93-.71,2.25-1.92,2.46-.16,4.6.71,7,.93a89.22,89.22,0,0,1,12.85,1.95c3.58.86,7.1,2.25,10.77,2.67a69.46,69.46,0,0,1,11.37,2.48l.69.26h0c3.31,1.21,6.83,2,10.07,3.42C358.41,144.43,360.7,145,359.82,145.83Z" transform="translate(-81.54 -49.4)"/><path class="cls-2" d="M317.17,188c-.32.72-1.71,1.39-2.44,1.66a13.2,13.2,0,0,1-8.56-.15,21.68,21.68,0,0,1-5.1-2.84c-.92-.6-2.25-.89-3-1.6-1.56-1-1.23-2.24-2.4-3.48l1.24-.28a6.34,6.34,0,0,0,.83.52,28.72,28.72,0,0,0,6.76,2.35,76,76,0,0,1,9.29,2.45C314.9,187.06,316,187.6,317.17,188Z" transform="translate(-81.54 -49.4)"/><path class="cls-6" d="M98.23,79.43c-.26.58-1.18.88-1.65,1.23a6.13,6.13,0,0,0-1.7,2.08,21.21,21.21,0,0,1-.55,2.08c-.74,1.29-3.22,2.13-4.52,2.88-1,.52-2.08.87-3,1.44A24.23,24.23,0,0,1,98.14,78.21C98,78.53,98.41,79,98.23,79.43Z" transform="translate(-81.54 -49.4)"/><path class="cls-2" d="M91.86,71.69h0a5.69,5.69,0,0,0-2.14-.1,8.51,8.51,0,0,0-1.73.84h0a.06.06,0,0,1,0-.08,15.2,15.2,0,0,0,1-1.79h0a15.5,15.5,0,0,0,.65-1.66,2.45,2.45,0,0,1,.9-1.27h0a1.32,1.32,0,0,1,.78,0,.36.36,0,0,1,.17.07h0a.85.85,0,0,1,.19.26V68a.36.36,0,0,1,0,.07.72.72,0,0,0,0,.17.39.39,0,0,1,0,.14v.37a2.41,2.41,0,0,0,0,.35A25.2,25.2,0,0,1,91.86,71.69Z" transform="translate(-81.54 -49.4)"/><path class="cls-2" d="M103.71,78.33a4,4,0,0,1-3.16.36l-.17-.06-.2-.09a7.62,7.62,0,0,0-1-.45L98.93,78a1,1,0,0,0-.36,0c.68-.7,1.14-2.29,1.6-3h0a1.15,1.15,0,0,1,.14-.19,2.83,2.83,0,0,1,2.88-.75,4.82,4.82,0,0,1,1.68,1.7C105.37,76.63,104.54,77.77,103.71,78.33Z" transform="translate(-81.54 -49.4)"/><path class="cls-7" d="M98.19,78.23A24.13,24.13,0,0,0,86.91,89.14a3.88,3.88,0,0,0-.67.76,1.75,1.75,0,0,1-.84.52c-.82.34-1.48.93-2.48.62a2.08,2.08,0,0,1-1.21-1.31,7.55,7.55,0,0,1-.17-1.56A11,11,0,0,1,81.71,86a25,25,0,0,1,1.73-4c.74-1.68,1.48-3.37,2.24-5a21.7,21.7,0,0,0,1.41-2.62c.27-.62.37-1.1.6-1.62h0l.15-.25a12.31,12.31,0,0,1,1.84-.87,5.72,5.72,0,0,1,2.2.12,8.41,8.41,0,0,1,1,.3,10.53,10.53,0,0,1,2.71,1c1,.75,2,1.46,3,2.24C99.37,75.93,98.33,77.34,98.19,78.23Z" transform="translate(-81.54 -49.4)"/><path class="cls-8" d="M81.66,89.72" transform="translate(-81.54 -49.4)"/><path class="cls-9" d="M114.32,61.67a9,9,0,0,0-3.07-1,2.28,2.28,0,0,0-1.75.47,18.37,18.37,0,0,0-2.17,1.41,11,11,0,0,0-3,3.93,6.35,6.35,0,0,0-.64,2.32c-.06.61-.16.84.25,1.26s.86,1,1.32,1.52.76,1,1.19,1.52a2.74,2.74,0,0,0,1.7.77,7.06,7.06,0,0,0,2.08.49,10,10,0,0,0,4.39-1.79,15.63,15.63,0,0,0,2-1.7,5.93,5.93,0,0,0,1.5-1.74c.7-1.44,0-2.84-.66-4.1A11.79,11.79,0,0,0,114.32,61.67Z" transform="translate(-81.54 -49.4)"/><path class="cls-10" d="M111.13,63.56a3.39,3.39,0,0,0-1.74.49,6,6,0,0,0-1.52,1.76,2.58,2.58,0,0,0,1.48,3.85,3.8,3.8,0,0,0,4.16-.9,2.75,2.75,0,0,0,.75-3.4c-.29-.7-.52-1.39-1.29-1.7A5.94,5.94,0,0,0,111.13,63.56Z" transform="translate(-81.54 -49.4)"/><path class="cls-9" d="M165.08,199.34a2,2,0,0,1-.46.64c-1.27,1.18-3,2-4.27,3.12A4,4,0,0,1,160,201a4.72,4.72,0,0,1,2-3.39c.29-.21.68-.62,1.11-.94a1.73,1.73,0,0,1,1.6-.49C166,196.53,165.61,198.28,165.08,199.34Z" transform="translate(-81.54 -49.4)"/><path class="cls-9" d="M147.54,219.21a1.82,1.82,0,0,0-.06.87,14.08,14.08,0,0,0-3-.08,23.73,23.73,0,0,1-3,.21c-.11-1.56,2.54-1.84,3.5-1.92s1.86-.25,2.86-.25h.21A3.27,3.27,0,0,0,147.54,219.21Z" transform="translate(-81.54 -49.4)"/><path class="cls-9" d="M165.17,233.81c-.75.38-1.52.59-2.26,1s-2.33,1.56-3.22,1.41c-.7-1.78,1.24-3.91,3.08-5,1.22,0,1.52.21,1.88,1.56A1.82,1.82,0,0,0,165.17,233.81Z" transform="translate(-81.54 -49.4)"/><path class="cls-9" d="M161.26,210.86a.67.67,0,0,1-.3,0c-.9-.13-1.8-.26-2.67-.45-.68-.11-2.63-.43-3.08-1-.71-.88,1.62-1.18,2.2-1.24a15.46,15.46,0,0,1,4.68,0A2.94,2.94,0,0,0,161.26,210.86Z" transform="translate(-81.54 -49.4)"/><path class="cls-8" d="M172.74,221.53h0" transform="translate(-81.54 -49.4)"/><path class="cls-4" d="M184.75,218.19c-.15.75-.49,2.31-.85,3.64h0c-.92.77-1.81,1.56-2.71,2.33a64.25,64.25,0,0,1-6.49,4.59c-2.11,1.43-4.16,2.93-6.38,4.16-1.12.6-2.31,1.56-3.12.9a1.82,1.82,0,0,1-.52-1c-.37-1.35-.66-1.56-1.88-1.56a2,2,0,0,0-.36,0,9.1,9.1,0,0,1,1.75-2.24,68.77,68.77,0,0,1,6.64-5.72c.62-.52,1.32-1.09,1.92-1.69a1.62,1.62,0,0,1-.32,0A3.27,3.27,0,0,1,171,222c-1.31.19-2.67.23-4,.38a34,34,0,0,1-5,.52c-1.92-.07-3.84-.28-5.78-.28a25.88,25.88,0,0,1-7.28-1.3c-.81-.23-1.35-.55-1.47-1.17a1.82,1.82,0,0,1,.06-.87,3.27,3.27,0,0,1,.52-1.17,2,2,0,0,1,1.39-.77,20,20,0,0,1,5.27.49,37.24,37.24,0,0,0,5.36.28c1.11,0,2.18-.23,3.27-.3s2.13.06,3.2,0c.9-.09,1.79-.32,2.69-.47s1.71,0,2.54-.15a42.78,42.78,0,0,0,4.74-.56,9.31,9.31,0,0,0-.94-.28c-2.77-.66-5.52-1.64-8.31-2.37a23.91,23.91,0,0,1-3.69-1.39,5.62,5.62,0,0,1-1.94-1,1.34,1.34,0,0,1-.34-.58,3,3,0,0,1,.81-2.78c1-1.11,2.81-1.06,4.2-.85,1.62.21,3.16,1.3,4.68,2a52.29,52.29,0,0,0,5.2,2.45,17.75,17.75,0,0,1,4,1.47c1,.66,1.45,2,2.56,2.54C184.07,216.53,185.08,216.25,184.75,218.19Z" transform="translate(-81.54 -49.4)"/><path class="cls-2" d="M322,180.93c-3.12,1.5-5.89,3.2-9.61,2.39-2.18-.47-3.42-1.67-5.3-2.67a12.58,12.58,0,0,1-1.17-.73c.73-.09,1.46-.19,2.18-.34,2.63-.52,5.26-1.17,7.86-1.75h0a12.13,12.13,0,0,0,1.81,1.24A35.13,35.13,0,0,0,322,180.93Z" transform="translate(-81.54 -49.4)"/><path class="cls-11" d="M112.54,67.43a1.19,1.19,0,0,1-2.22-.43.87.87,0,0,0,.83-.23,1.28,1.28,0,0,0,.34-.83C112.18,66.11,113.18,66.53,112.54,67.43Z" transform="translate(-81.54 -49.4)"/><path class="cls-12" d="M111.54,65.92a1.28,1.28,0,0,1-.34.83.87.87,0,0,1-.83.23.65.65,0,0,1-.52-.94c.21-.52,1.22-1,1.56-.41l.06.08v.06A.27.27,0,0,1,111.54,65.92Z" transform="translate(-81.54 -49.4)"/><path class="cls-3" d="M360.33,195.12a5.23,5.23,0,0,1-2.16,1.62c-.9.52-1.82,1.49-2.82,1.77a9.19,9.19,0,0,1-3.26-.17,27.45,27.45,0,0,1-6.47-1.94,82.78,82.78,0,0,0-10.25-3.46c-3.74-.94-7.38-2.26-11.12-3.2-2.33-.6-4.76-1.88-7.13-1.77h0c-1.14-.37-2.25-1-3.37-1.37a76,76,0,0,0-9.29-2.45,28.72,28.72,0,0,1-6.76-2.35,6.34,6.34,0,0,1-.83-.52c1-.23,2-.45,3-.64,2-.39,4-.52,6-.77a12.58,12.58,0,0,0,1.17.73c1.89,1,3.12,2.2,5.3,2.67,3.72.81,6.49-.89,9.61-2.39.68.24,1.39.48,2.08.69,2,.6,4.24.7,6.24,1.3a45.26,45.26,0,0,1,5.4,2.48c3.36,1.57,6.64,3.35,10.12,4.57,1.73.6,3.64.83,5.32,1.52C352.35,192,359.13,194.63,360.33,195.12Z" transform="translate(-81.54 -49.4)"/><path class="cls-2" d="M356.24,164.82c-2.08,1.31-4.21,2.76-6.39,4a29.85,29.85,0,0,1-2.78,1.43c-4,1.77-8.65,2.6-13,3.37-5.45.91-10.7,2.71-16.06,3.78l-2,.43h0c-2.6.58-5.23,1.23-7.86,1.75-.72.15-1.45.26-2.18.34-2,.25-4,.39-6,.77-1,.19-2,.41-3,.64l-1.29.34L290.13,183c-1.86.43-3.74.83-5.64,1.15a212,212,0,0,1-28.61,2.37,5.24,5.24,0,0,0-1.81-.38,3.47,3.47,0,0,0,.08.42H250.6c4-3.37,7.21-7.57,11.37-10.78,1-.79,2.2-1.7,3.31-2.45l.26-.17h0a32.4,32.4,0,0,0,6.87-1.39h0a6.82,6.82,0,0,0,2.35,1.17,17.82,17.82,0,0,0,7,.1,5.42,5.42,0,0,0,2.93-1.56,39.4,39.4,0,0,0,6.27,1c1.65.18,4.74,1.22,6-.34,3.12.36,6.17,0,9.29.36,4.06.47,7.61,1.52,11.66.06,1.56-.56,4.16-1.41,5.06-3.05,3.4.39,7.41-.47,10.49-1.2s8.14-2.18,5.08-5.85a13.9,13.9,0,0,0-6.76-4,39.82,39.82,0,0,1,4.59-.81c2.6-.35,5.28-.62,7.9-.73,4.12-.16,9.22-.62,12.79,1.92C359.78,160.8,358.67,163.2,356.24,164.82Z" transform="translate(-81.54 -49.4)"/><path class="cls-13" d="M333.45,168.36c-2.9.7-7.09,1.55-10.48,1.17a2.43,2.43,0,0,0,.37-1.57c-.2-1.51-2.2-3.06-3.2-4a22,22,0,0,0-6.38-3.82,55,55,0,0,0-14.75-4,5.91,5.91,0,0,1,2.22-.58c2.55,0,5.22.32,8,.32s5.72,0,8.5.17c2.39.11,4.68.88,7.07,1.11a33.39,33.39,0,0,1,7,1.37,14,14,0,0,1,6.76,4C341.54,166.21,336.35,167.66,333.45,168.36Z" transform="translate(-81.54 -49.4)"/><path class="cls-2" d="M323,169.56c-.9,1.64-3.5,2.49-5.06,3.05-4.06,1.46-7.6.41-11.66-.06-3.12-.36-6.17,0-9.29-.36a2,2,0,0,0,.38-.66c.64-1.81-1.6-5.23-2.6-6.6a21,21,0,0,0-5.67-5,41.4,41.4,0,0,0-5-2.73c-.09-.38-.2-.79-.32-1.17,2.28-.75,4.78,0,7.28,0a68,68,0,0,1,7.28,0,3.69,3.69,0,0,1,.67.08,55,55,0,0,1,14.75,4,22,22,0,0,1,6.38,3.82c1,1,3,2.52,3.2,4A2.43,2.43,0,0,1,323,169.56Z" transform="translate(-81.54 -49.4)"/><path class="cls-13" d="M297.38,171.52a2,2,0,0,1-.38.66c-1.28,1.56-4.37.52-6,.34a39.4,39.4,0,0,1-6.27-1,2.79,2.79,0,0,0,.7-1.86,11.26,11.26,0,0,0-1-3.28,16,16,0,0,0-1.33-2.48,9.81,9.81,0,0,0,1.09-6.13,4.42,4.42,0,0,0-.09-.58,41.4,41.4,0,0,1,5,2.73,21,21,0,0,1,5.66,5C295.85,166.28,298,169.7,297.38,171.52Z" transform="translate(-81.54 -49.4)"/><path class="cls-2" d="M285.44,169.6a2.79,2.79,0,0,1-.7,1.86,5.42,5.42,0,0,1-2.93,1.56,17.82,17.82,0,0,1-7-.1,6.82,6.82,0,0,1-2.35-1.17c4.23-1.48,8.63-4.06,10.63-7.88a16,16,0,0,1,1.33,2.48A12.34,12.34,0,0,1,285.44,169.6Z" transform="translate(-81.54 -49.4)"/><path class="cls-13" d="M283,163.89c-2,3.82-6.4,6.4-10.63,7.88h0a32.4,32.4,0,0,1-6.87,1.39h0c-2.24.25-4.51.43-6.62.85s-4,1.26-6.11.94a15,15,0,0,0-2.22-.21,11.92,11.92,0,0,0,1.07-2.6,26.11,26.11,0,0,0,1.28-8V164a15.07,15.07,0,0,0,1.5.25,47.31,47.31,0,0,0,9.35-.3c2.22-.21,4.4-.3,6.62-.52a11.44,11.44,0,0,0,7.41-3.33,9.27,9.27,0,0,0,3.37-8.39,10,10,0,0,1,2.6,4.2,10.18,10.18,0,0,1,.32,1.17,5.53,5.53,0,0,0,.09.58A9.81,9.81,0,0,1,283,163.89Z" transform="translate(-81.54 -49.4)"/><path class="cls-2" d="M277.75,160.14a11.44,11.44,0,0,1-7.41,3.29c-2.22.19-4.4.28-6.62.52a47.19,47.19,0,0,1-9.35.3,15.07,15.07,0,0,1-1.5-.25,24.34,24.34,0,0,0-.89-7.58c-.43-1.56-.26-1.73,1-2.73a18.19,18.19,0,0,0,3.78-4c1.38-2.14,1.88-5.66.38-7.88a29.51,29.51,0,0,0-5.17-5.57,25.29,25.29,0,0,1,4.89.41A38.89,38.89,0,0,1,267,139.94a71.5,71.5,0,0,1,7.91,4.73c1.79,1.23,3.92,2.13,5.12,4.05a8,8,0,0,1,1.17,3A9.37,9.37,0,0,1,277.75,160.14Z" transform="translate(-81.54 -49.4)"/><path class="cls-2" d="M265.49,173.15l-.26.17c-1.11.75-2.31,1.66-3.31,2.45-4.16,3.2-7.37,7.41-11.37,10.78a29.57,29.57,0,0,1-2.39,1.86c-3,2.12-7.34,1.75-11.46,1.26A22.73,22.73,0,0,0,244,185.1c1.83-1.81,2-4.19,3-6.19.52-1.09,1.9-2,2.71-3a7.12,7.12,0,0,0,.81-1.24,15,15,0,0,1,2.22.21c2.11.32,4-.52,6.11-.94A62.57,62.57,0,0,1,265.49,173.15Z" transform="translate(-81.54 -49.4)"/><path class="cls-2" d="M256.77,149.74a18.19,18.19,0,0,1-3.78,4c-1.3,1-1.47,1.17-1,2.73a24.34,24.34,0,0,1,.89,7.58v.1a26.11,26.11,0,0,1-1.28,8,11.92,11.92,0,0,1-1.07,2.6,7.12,7.12,0,0,1-.81,1.24c-.81,1-2.19,1.86-2.71,2.95-1,2-1.21,4.38-3,6.19a22.73,22.73,0,0,1-7.34,4.57c-2.17.9-4.44,1.71-6.44,2.46a32.3,32.3,0,0,1-14,2.28c-6.58-.36-12.94-1.88-19.45-2.56s-12.89-.79-19.08-3.28A118.83,118.83,0,0,1,163,181.7c-4.82-2.81-9.93-5.15-14.69-8.15a117.88,117.88,0,0,1-11.61-9c-4-3.33-5.92-8-7.84-12.73-2.22-5.39-1.22-10.39.52-15.88,3.52-11,10.76-20.24,19.38-27.73A50.63,50.63,0,0,0,157,99.43a19,19,0,0,0,2.8-5.2,34.22,34.22,0,0,0-.91-9.32c-.79-3.28-2.45-6.91-1.67-10.17a88.33,88.33,0,0,1,12.79-.06c3.94.38,7.85.85,11.74,1.48,11.31,1.83,18.54,6.21,22.09,7.52,2,.75,8.27,3.79,10.2,4.68,2.46,1.87,6.62,2.07,6.62,6.07,0,1-.75,1.6-.83,2.22s.66.79.47,1.47c-.53,1.84-3.23,1-4.53,1.17,1.69.67,3.72,1,5.49,1.67,1.95.68,3.8,1.62,5.72,2.45,3.86,1.71,7.28,3.08,10.76,5.55,2.32,1.6,6.21,4.76,7,7.6.46,1.76,0,4.42-2.14,4.76,2,1.2,4.48,2.67,5.14,5.2.55,2.13.4,5.33-2.2,5.93.92.52,2.06.85,3.06,1.41a21.42,21.42,0,0,1,3.33,2.41,29.51,29.51,0,0,1,5.2,5.57C258.63,144,258.11,147.53,256.77,149.74Z" transform="translate(-81.54 -49.4)"/></svg>