<svg id="d6" xmlns="http://www.w3.org/2000/svg" viewBox="0 0 188.32 256.17"><defs><style>.cls-1{fill:#776d75;}.cls-2{fill:none;stroke:#7388a0;}.cls-11,.cls-2,.cls-3,.cls-4,.cls-5,.cls-7,.cls-8,.cls-9{stroke-miterlimit:10;stroke-width:0.43px;}.cls-3{fill:#c8c3c2;stroke:#c8c3c2;}.cls-4{fill:#d27793;stroke:#d27793;}.cls-5{fill:#fdfdfe;stroke:#fdfdfe;}.cls-6{fill:#f5f6fb;}.cls-7{fill:#c78b7a;stroke:#c78b7a;}.cls-8{fill:#69504a;stroke:#69504a;}.cls-9{fill:#231f20;stroke:#231f20;}.cls-10{fill:#fff;}.cls-11{fill:#613161;stroke:#613161;}</style></defs><title>dove-svg-6-1</title><path class="cls-1" d="M162.69,212.75a76.42,76.42,0,0,1,17.78,2.46c1,.28,2.39.75,2.91,1.7,1.05,1.91-.08,1.68-1.49,2.11-2.49.75-5.24,1.53-7.8,2.12-11.4,2.61-23.49,5.73-34.4,10.48-12.91,5.62-25.91,12.44-39.57,16.68-4,1.23-7.91,2.57-11.91,3.6-4.25,1.1-8.63,1.38-12.93,2.58-9.46,2.65-19.4,2.28-29.12,2.65-8.45.33-16.62-1.64-24.41-4.31a67.56,67.56,0,0,1-9.78-4c-2.22-1.17-5.87-1.84-7.28-3.87a4.23,4.23,0,0,1-.31-.51A2.84,2.84,0,0,1,5.15,241a55.26,55.26,0,0,0,4.37-4.26c2.42-2.53,5.3-4.23,7.59-6.92,5.57-6.54,11.27-12.5,19.59-15.27a118.49,118.49,0,0,1,33.23-5.79c13.79-.54,27.42-1.22,41.06-.09,8.92.74,17.78,2.37,26.67,3.06,5.58.43,11.17-.33,16.77.28,3.87.42,4.29.15,8.27.75" transform="translate(-1.25 -0.99)"/><path class="cls-2" d="M95.66,241.06a.17.17,0,0,0-.09-.09" transform="translate(-1.25 -0.99)"/><path class="cls-3" d="M96.22,242.52c-.29,1.15-1.81,2.37-2.24.64a2,2,0,0,1,.09-.91c.5.11,1.07-.47,1.5-1.24h0C96.17,241.16,96.37,241.93,96.22,242.52Z" transform="translate(-1.25 -0.99)"/><path class="cls-2" d="M95.57,240.93h-.1" transform="translate(-1.25 -0.99)"/><path class="cls-2" d="M69.77,240.67h0a.08.08,0,0,1,0-.06" transform="translate(-1.25 -0.99)"/><path class="cls-3" d="M58.89,232.06a9.22,9.22,0,0,1-1.06,1,10.85,10.85,0,0,1-1.11.86c-.57.37-.47.56-.73-.06a3.36,3.36,0,0,1,.6-3.43,3,3,0,0,1,.51.2,7,7,0,0,1,1.55,1.08A1.73,1.73,0,0,1,58.89,232.06Z" transform="translate(-1.25 -0.99)"/><path class="cls-3" d="M42.17,216.48h-.06c-.53.22-1.33.53-1.53,1-.93-.56-2.44-1.48-1.3-1.86C40.23,215.34,41.26,216,42.17,216.48Z" transform="translate(-1.25 -0.99)"/><path class="cls-2" d="M103.39,218.69a1.36,1.36,0,0,1-.06.24" transform="translate(-1.25 -0.99)"/><path class="cls-3" d="M87.37,222.73c-.35.17-.86-.16-1.26-.16a4.58,4.58,0,0,0-1.35.09,8.85,8.85,0,0,1-1.37.11,1.75,1.75,0,0,0,.43-.67,1.93,1.93,0,0,0-.18-2.11C85.34,220.32,87.57,221.47,87.37,222.73Z" transform="translate(-1.25 -0.99)"/><path class="cls-4" d="M89.17,197.58a20.26,20.26,0,0,0-1.35,5.27,10.87,10.87,0,0,1-.22,1.73c-.24.69-.24.69-.91.69-1.12,0-2.06-.37-3.12.27a18.5,18.5,0,0,0-3.1,2.88c-1.44,1.43-3,2.92-4.32,4.43-.93,1-4.85,5-2.66,6.18,1.57.84,4-.09,5.71-.16,1,0,3-.06,3.85.49a2.11,2.11,0,0,1,.69.64,1.92,1.92,0,0,1,.18,2.1,1.73,1.73,0,0,1-.43.67,3.57,3.57,0,0,1-2.93.93,36,36,0,0,0-9.94,1.47,17.61,17.61,0,0,0-6.53,2.89,4,4,0,0,0-2.33-.77c-.62,0-2.41.08-2.9.73s1.73.8,2.28,1a13.28,13.28,0,0,1,1.37.53c-.38.37-.64.58-1.15,1.08a7.12,7.12,0,0,1-1.64,1.5c-.57.24-.62.14-.77-.11a1.9,1.9,0,0,0-.25-.38,7.11,7.11,0,0,0-1.56-1.1,3.08,3.08,0,0,0-.51-.2c-.41-.13-.72-.2-.76-.77a2.77,2.77,0,0,1,.76-1.57,16,16,0,0,1,2.08-2.33,38.24,38.24,0,0,0-3.94.18,28.1,28.1,0,0,0-5.27.73c-2.16.6-4.37.87-6.56,1.3a65,65,0,0,0-6.67,1.86c-1.19.4-3.46,1.17-4.65.31a1.23,1.23,0,0,1-.4-1.33c.86-.24,1.86-.4,2.16-1.17a1.31,1.31,0,0,0-.07-1.37,12.46,12.46,0,0,1,3-1c1.58-.37,3.19-.64,4.79-.86a47,47,0,0,0,4.75-1.13c1.86-.4,3.74-.87,5.62-1.4,1.08-.22,2.08-.51,3.08-.77A10.73,10.73,0,0,0,60,218l.24-.27h0c1.43-1.55,3.14-2.74,4.75-4.18a56,56,0,0,0,6-5.89,34.88,34.88,0,0,0,2.08-3c.25-.37.87-1.1,1.3-1.77a2.4,2.4,0,0,0,2.16,1.44c2.7,0,4.75-2.48,6.53-4.16a8.42,8.42,0,0,1,3.28-1.95c.78-.26,1.58-.33,2.35-.55A2.83,2.83,0,0,1,89.17,197.58Z" transform="translate(-1.25 -0.99)"/><path class="cls-3" d="M33.38,227.64c-.31.77-1.3.93-2.16,1.17a4.85,4.85,0,0,0-1,.38,4.43,4.43,0,0,0-1.3,1.26c-.31.43-.75,1.37-1.13.75-.46-.84.53-2.68,1-3.34a4.4,4.4,0,0,1,3.46-2.08,1.3,1.3,0,0,1,1.06.49A1.35,1.35,0,0,1,33.38,227.64Z" transform="translate(-1.25 -0.99)"/><line class="cls-2" x1="87.92" y1="196.59" x2="87.9" y2="196.59"/><path class="cls-4" d="M60.33,217.8l-.24.27a10.92,10.92,0,0,1-5.49,3c-1,.26-2.08.55-3.08.77a23.39,23.39,0,0,0-3.52-1,46.49,46.49,0,0,1-5.19-1.15A4.35,4.35,0,0,1,40.65,218a.57.57,0,0,1,0-.46c.2-.49,1-.8,1.53-1h.06c1.93-.71,4.16.16,6,.73,1.15.33,2.31.86,3.46,1.13a16.56,16.56,0,0,0,4,0,31.21,31.21,0,0,0,4-.47A2.74,2.74,0,0,0,60.33,217.8Z" transform="translate(-1.25 -0.99)"/><line class="cls-2" x1="87.92" y1="196.59" x2="87.9" y2="196.59"/><path class="cls-4" d="M99.93,215.52c-.57-.34-1.13-.6-1.46-.8a13.57,13.57,0,0,0-3.74-1.57h-.09a8.76,8.76,0,0,0,1-1.3c.53-1.05.64-2.3,1.53-3.21,1.18-1.24,2.07.33,2.42,1.44s.06,2.55.22,3.7A16.17,16.17,0,0,1,99.93,215.52Z" transform="translate(-1.25 -0.99)"/><path class="cls-3" d="M65.57,229a2.43,2.43,0,0,0-1.37,1.46,10.83,10.83,0,0,0-1.73-.86,14.18,14.18,0,0,0-1.37-.53c-.55-.16-2.68-.45-2.28-1s2.28-.73,2.9-.73a4,4,0,0,1,2.33.77,1.22,1.22,0,0,1,.31.2A13.19,13.19,0,0,0,65.57,229Z" transform="translate(-1.25 -0.99)"/><path class="cls-4" d="M97,229.83a17.31,17.31,0,0,0-.33,4c-.09,2.07.05,4.94-.86,6.82l-.2.35h0c-.43.77-.95,1.35-1.5,1.24-.38-.07-.69-.38-1-1-.87-1.79-.75-4-1.3-6s-2.16-.93-3.23,0c-1.53,1.29-3.12,2.47-4.63,3.76s-3.57,1.68-5.34,2.59a42.21,42.21,0,0,1-6.33,3c-1.11.35-7.73,1.92-6.56-1.33v-.09l.77-.33c.66-.29,3.36-1.13,3.25-2.13a4.42,4.42,0,0,0-.77-.2,21.45,21.45,0,0,1,3.23-1.45,43.58,43.58,0,0,0,4.45-1.46,11.4,11.4,0,0,0,3.19-2.11c-2.3-.27-4.56-.71-6.86-1-1.32-.18-2.67-.29-4-.4-1.11-.11-2.5.14-3.5-.26a2.46,2.46,0,0,1-1.4-3.1.92.92,0,0,1,.09-.22,2.43,2.43,0,0,1,1.37-1.45,3.07,3.07,0,0,1,1.3-.2c1.88.09,3.76.49,5.69.49s3.76-.07,5.67-.18c3.46-.22,7-.55,9.37-3.41.95-1.15,2-2.35,2.88-3.57l1-1.24a10.13,10.13,0,0,1,3.66,2c.64.43,1.37.73,2.06,1.13a4.1,4.1,0,0,0-.09,1.64A13.53,13.53,0,0,1,97,229.83Z" transform="translate(-1.25 -0.99)"/><path class="cls-5" d="M171.47,183.39h0c-1,.07-2,.2-3,.2-4.76.17-8.84-1.24-13.36-2.35-2.26-.55-4.05-1.22-6.4-1.11a14,14,0,0,0-2.13.16,19.7,19.7,0,0,0-2.77,1.3h0c-1.16.3-2.32.83-3.62,1.3-3.23,1.13-6.82,2-10.23,1.13a7.38,7.38,0,0,0-5.14.93c1-1.59,4.88-2.32,6.61-2.94a28.22,28.22,0,0,0,5.19-2.52,32.57,32.57,0,0,0,3.08-2.5,43.66,43.66,0,0,0,15.51-.74,9.72,9.72,0,0,0,1-.25c.62.31,1.15.62,1.62.82,2.43,1.14,4.87,2.19,7.31,3.3C167.41,181.14,169.28,182.49,171.47,183.39Z" transform="translate(-1.25 -0.99)"/><path class="cls-6" d="M136.23,176.06a25.31,25.31,0,0,0,3.52.82,32.57,32.57,0,0,1-3.08,2.5,28.22,28.22,0,0,1-5.19,2.52c-1.71.61-5.61,1.35-6.61,2.94h0c-.75.4-1.49.83-2.21,1.26a35.25,35.25,0,0,1-6.87,3.59,9.84,9.84,0,0,0-4.28,3c-1.9,2.95-1.19,8.88-1.19,12.34-1.29,2-3.21,3.45-4.56,5.45-1.28,1.8-3.11,3.79-4,5.74-2.49-.63-1.85-2.35-2-4.63,0-1.11-1.44-5-3-2.68.07-1.54-.53-3-.62-4.54a7.6,7.6,0,0,0-.86-3.81c-.73-1.49.43-3.79-.09-5.67a25.14,25.14,0,0,1-8.93,3.45c-3.8.74-6,7.06-10.28,5.93-3.41-.91-1.08-5.7-1.19-8.42-.16-3.39-2.6-5.32-4.79-7.78a68,68,0,0,1-5.12-6.48c-2-.91-4-1.88-6-2.64a63,63,0,0,1-24.14-16.81c-3.66-4-7.66-7.88-10.66-12.4a79.44,79.44,0,0,1-8.33-17.68,22.47,22.47,0,0,1-1.5-4.63,12.81,12.81,0,0,1-.53-1.73c-2.3-7.44-2.12-15.66-.82-23.52,1.62-9.68,2.82-19.49,5.3-29.06,2.27-8.69,7.27-16.94,8.51-25.69a17.92,17.92,0,0,0-1-9.41c-1.66-3.83-3.85-3.46-7.55-3.83-3-.26-6.08-1-9,0-2.55.87-4.45,3.17-6.8,4.17-3.17-.76,3.76-9.75,4.56-10.88s.74-2.13,1.3-3.13,2-1.93,2.77-2.79c1.62-1.86,2-3.85,2.88-6,1.84-4.67,4.89-10,9.7-12.1a31.86,31.86,0,0,1,14.37-2.4c2.37.1,4.43,1.37,6.63,2.1a23.82,23.82,0,0,1,5.9,2.9,44.21,44.21,0,0,1,13.21,15C67.14,27.35,71.8,34,71.89,41.55a63.35,63.35,0,0,0,.64,11.74c1,4.91,3.17,9.35,5.1,13.91,0,9.86-1.91,13.86-7.78,20.86-7.75,9.25-16.06,16.62-15.53,32.73.09,2.83,3.22,9.22,4.32,11.29a57.64,57.64,0,0,0,3.61,7.29,54.59,54.59,0,0,0,4.52,6.3c1.88,2.35,3.27,4.92,5.4,7.18s3.81,5,6.05,7.11,4.7,4.14,7.06,6a42,42,0,0,0,13.63,7.52c5.43,1.65,11.48,1.48,17.1,1.08,4.43-.33,8.84-.86,13.31-1.06A72.35,72.35,0,0,0,136.23,176.06Z" transform="translate(-1.25 -0.99)"/><path class="cls-6" d="M177.35,189.76c-2.59-.46-5.16-1.77-7.75-2.06a51.4,51.4,0,0,0-7.11,0c-2.72.09-5-1.37-7.47-2.3s-4.75-2.28-7.15-3.46a5.49,5.49,0,0,0-4-.35,19.7,19.7,0,0,1,2.77-1.3,14,14,0,0,1,2.13-.16c2.35-.11,4.14.56,6.4,1.11,4.52,1.11,8.61,2.53,13.36,2.35,1,0,2-.14,3-.2h0c.37.13.73.27,1.13.38a36,36,0,0,1,8.45,4.61C182.85,190.18,178.35,190,177.35,189.76Z" transform="translate(-1.25 -0.99)"/><path class="cls-7" d="M27.18,23.06c-.22.41-1.19.75-1.62,1-1.15.68-2.55,1.4-3.5,2.08s-1.77,1.5-2.7,2.21a28.89,28.89,0,0,1-2.84,1.71c-1.82,1.06-3.72,2-5.54,3.06-.8.47-1.54.85-2.44,1.4S6.47,35.6,5.73,36.06s-3.08,3-4.08,1.84c-.38-.44-.08-1.06.11-1.52s.38-1.06.62-1.57A25.62,25.62,0,0,1,4,32.06a39,39,0,0,0,2.68-4.4c.38-.79.82-1.44,1.22-2.19h0A1,1,0,0,0,8,26a2.1,2.1,0,0,0,2,1.46A7.85,7.85,0,0,0,12.47,27a14.82,14.82,0,0,1,2.21-.6,16.09,16.09,0,0,1,2-.16,6,6,0,0,0,1.66-.38,9.34,9.34,0,0,0,2-1A9.47,9.47,0,0,0,22.1,23.4a1.22,1.22,0,0,0,.2-.31,3.31,3.31,0,0,1,.82-.16c1-.13,1.84-.37,2.84-.43C26.31,22.44,27.47,22.24,27.18,23.06Z" transform="translate(-1.25 -0.99)"/><path class="cls-8" d="M42.47,12.93a4.1,4.1,0,0,0-1.4-2.58,3.62,3.62,0,0,0-4.18-.76,5.86,5.86,0,0,0-2.31,1.68,6.11,6.11,0,0,0-.43,1.25,3.18,3.18,0,0,0-.21,1.66,4.68,4.68,0,0,0,1.4,2.9,4.63,4.63,0,0,0,3.38.8,4.39,4.39,0,0,0,2.55-1.3,3.35,3.35,0,0,0,1.2-2.22,2.21,2.21,0,0,0,0-.43A6.92,6.92,0,0,0,42.47,12.93Z" transform="translate(-1.25 -0.99)"/><path class="cls-9" d="M39.55,15.87c-1.38,1.18-3.59-.22-3.59-2A2.26,2.26,0,0,1,37,12c.4-.27,1-.6,1.4-.4a1.4,1.4,0,0,0-.18,1.62,1,1,0,0,0,1.66.13A2.17,2.17,0,0,1,39.55,15.87Z" transform="translate(-1.25 -0.99)"/><path class="cls-2" d="M153.57,147.8a.82.82,0,0,0,0-.17" transform="translate(-1.25 -0.99)"/><path class="cls-2" d="M124.87,184.93h0" transform="translate(-1.25 -0.99)"/><path class="cls-10" d="M39.85,13.41a1,1,0,0,1-1.66-.13,1.4,1.4,0,0,1,.18-1.62.81.81,0,0,1,.93-.22h.06a1.54,1.54,0,0,1,.64.73A1.13,1.13,0,0,1,39.85,13.41Z" transform="translate(-1.25 -0.99)"/><path class="cls-7" d="M22.25,23a1.22,1.22,0,0,1-.2.31,9.47,9.47,0,0,1-1.79,1.44,9.34,9.34,0,0,1-2,1,6,6,0,0,1-1.66.38,16.09,16.09,0,0,0-2,.16,14.82,14.82,0,0,0-2.21.6,7.85,7.85,0,0,1-2.46.51,2.1,2.1,0,0,1-2.06-1.44,1,1,0,0,1-.09-.51h0a3.15,3.15,0,0,1,.43-1.5,2.23,2.23,0,0,1,.26-.29,12,12,0,0,0,1.35-1c.36-.36.65-.75,1-1.13.58-.62,1.11-1.64,2-1.73.53-.06,1,.06,1.53,0a18.37,18.37,0,0,1,1.93-.29,5.93,5.93,0,0,1,4.3,1.42c.27.24.51.5.8.75s.58.38.8.6A.63.63,0,0,1,22.25,23Z" transform="translate(-1.25 -0.99)"/><path class="cls-3" d="M69.81,240.68c.12,1.05-2.59,1.84-3.25,2.13l-.77.33a13,13,0,0,0-3.25,1.92c-.43.37-1,1.26-1.2.26-.09-.58.51-1.3.82-1.73A7.36,7.36,0,0,1,69,240.47h0A4.42,4.42,0,0,1,69.81,240.68Z" transform="translate(-1.25 -0.99)"/><path class="cls-6" d="M188.18,190.74c-2.07,0-5.19-1.44-7.07-2.37a36,36,0,0,0-8.45-4.61c-.4-.12-.75-.25-1.13-.38-2.26-.89-4.12-2.26-6.38-3.26-2.44-1.11-4.88-2.16-7.31-3.3-.47-.2-1-.51-1.62-.82,3.41-.87,6.49-2.39,10.1-2.77a22.13,22.13,0,0,0,2.29-.13c-1,.16.46,0,0,0,1.47,1.62,3.59,2.26,5.36,3.46,2.48,1.64,4.65,3.81,7.09,5.47a40.52,40.52,0,0,1,6.13,4.47C188.47,187.74,191.24,190.71,188.18,190.74Z" transform="translate(-1.25 -0.99)"/><path class="cls-5" d="M171.86,172.61a1.64,1.64,0,0,1-.32.05l-.53.08h0c-1.49.21-3.08.27-4.57.43-3.62.38-6.69,1.91-10.1,2.77-.36.09-.67.18-1,.25a43.41,43.41,0,0,1-15.53.73,25.31,25.31,0,0,1-3.52-.82,67.24,67.24,0,0,1-6.92-2.68,7.8,7.8,0,0,1,1.46-.09c4.37-.19,9.35-.47,12.23-4.19a2.35,2.35,0,0,0,.18-.26c.53.05,1,.09,1.53.16a35.51,35.51,0,0,0,7.51.71c3.23-.24,6.36-1.51,9.55-1.86a43,43,0,0,1,4.47,0c3.94,0,1.17-4.16-.18-6-2-2.8-4.54-5.26-6.6-8.1a32.89,32.89,0,0,0-2.71-3.22c2.95,2.17,6.35,3.83,9.51,5.71,4.63,2.77,10.61,5.46,14.37,9.35C184.57,169.68,176.73,171.8,171.86,172.61Z" transform="translate(-1.25 -0.99)"/><path class="cls-6" d="M166.26,167.94a43,43,0,0,0-4.46,0c-3.19.35-6.32,1.61-9.55,1.86a35.51,35.51,0,0,1-7.51-.71,11.69,11.69,0,0,0-1.53-.16,32.1,32.1,0,0,0,1.89-3.55.86.86,0,0,0,.33,0,41.3,41.3,0,0,0,4.5.57c3.45.15,7,.69,10.37.75,5.43.11.22-9.16-1.3-11.32a19.82,19.82,0,0,0-3.7-3.76,19.65,19.65,0,0,1-1.46-1.37,13.07,13.07,0,0,0-.21-2.42,6.7,6.7,0,0,0,.53.58,22.88,22.88,0,0,0,2.59,2.2h0a32.89,32.89,0,0,1,2.71,3.22c2.06,2.83,4.6,5.29,6.6,8.1C167.41,163.75,170.19,167.93,166.26,167.94Z" transform="translate(-1.25 -0.99)"/><path class="cls-5" d="M160.24,166.67c-3.37-.06-6.91-.59-10.37-.75a41.3,41.3,0,0,1-4.5-.57.86.86,0,0,1-.33,0,9.42,9.42,0,0,1,1-1.53,18.22,18.22,0,0,1,2.16-2.21,7.09,7.09,0,0,0,.82.48c1.32.66,2.74,1.33,4.16,1.88,1,.35,3,.91,3.89,0,1.94-2-1.13-5.36-2.06-6.92-.57-.91-1.06-1.86-1.57-2.86a11.81,11.81,0,0,0,.33-1.73,21.83,21.83,0,0,0,.11-2.21,16.66,16.66,0,0,0,1.46,1.37,19.82,19.82,0,0,1,3.7,3.76C160.47,157.51,165.72,166.79,160.24,166.67Z" transform="translate(-1.25 -0.99)"/><path class="cls-6" d="M157,163.92c-.89,1-2.89.4-3.89,0-1.42-.55-2.83-1.21-4.16-1.88a7.09,7.09,0,0,1-.82-.48c.4-.38.82-.76,1.22-1.11a13.34,13.34,0,0,0,4-6.27c.51,1,1,1.95,1.57,2.86C155.91,158.61,159,162,157,163.92Z" transform="translate(-1.25 -0.99)"/><path class="cls-5" d="M153.81,150.22a21.83,21.83,0,0,1-.11,2.21,11.81,11.81,0,0,1-.33,1.73,13.34,13.34,0,0,1-4,6.27c-.4.35-.82.73-1.22,1.11a18.22,18.22,0,0,0-2.16,2.21,9.42,9.42,0,0,0-1,1.53,32.1,32.1,0,0,1-1.88,3.64,2.35,2.35,0,0,1-.18.26c-2.88,3.72-7.86,4-12.23,4.19-.46,0-1,.09-1.46.09-4.47.22-8.88.73-13.31,1.06-5.62.4-11.68.58-17.1-1.08a42,42,0,0,1-13.62-7.53c-2.33-1.9-4.77-4-7-6s-4-4.93-6.05-7.11-3.52-4.83-5.4-7.18a54.59,54.59,0,0,1-4.52-6.32,57.64,57.64,0,0,1-3.62-7.24c-1.12-2.07-4.25-8.46-4.32-11.29C53.77,104.66,62.08,97.29,69.83,88c5.87-7,7.78-10.94,7.78-20.84,4.27,10.17,13.35,16,22.94,20.69,5.24,2.56,9.75,7,13.89,11a65.27,65.27,0,0,1,11,13.89c1,1.73,6.74,9.31,8,10.81,2.49,2.95,4.83,5.83,7.49,8.65,2.88,3.05,6,5.89,8.65,9.17,1.64,2,2.51,4.54,4.08,6.42A13.07,13.07,0,0,1,153.81,150.22Z" transform="translate(-1.25 -0.99)"/><path class="cls-11" d="M103.35,218.93v.13c-.49,2.11-2,6.2-4.63,5.87-.54-.07-.91-.49-1.4-.8a.67.67,0,0,0-.18-.09c-.69-.4-1.42-.7-2.06-1.13a10.17,10.17,0,0,0-3.69-2h0c-1.37-.33-2-.69-1.57-2.16a14.1,14.1,0,0,1,2.26-4c.79-1.19,1.17-1.9,2.59-1.57h.09a13.57,13.57,0,0,1,3.71,1.58c.33.2.86.47,1.46.8C101.57,216.37,103.47,217.62,103.35,218.93Z" transform="translate(-1.25 -0.99)"/></svg>