<svg id="d3" xmlns="http://www.w3.org/2000/svg" viewBox="0 0 349.34 401.45"><defs><style>.cls-1{fill:#776d75;}.cls-2{fill:#f5f6fb;stroke:#f5f6fb;}.cls-10,.cls-11,.cls-2,.cls-3,.cls-4,.cls-5,.cls-6,.cls-7,.cls-8,.cls-9{stroke-miterlimit:10;stroke-width:0.74px;}.cls-3{fill:#c8c3c2;stroke:#c8c3c2;}.cls-4{fill:#d27793;stroke:#d27793;}.cls-5{fill:#fdfdfe;stroke:#fdfdfe;}.cls-6{fill:#bacafc;stroke:#bacafc;}.cls-7{fill:#283a56;stroke:#283a56;}.cls-8{fill:none;}.cls-11,.cls-8{stroke:#000;}.cls-9{fill:#c78b7a;stroke:#c78b7a;}.cls-10{fill:#69504a;stroke:#69504a;}</style></defs><title>dove-svg-3-1</title><path class="cls-1" d="M334.09,381.48c.4,1.52,0,3.73-.15,5.24-22.36,3.26-44.35,5.51-68.21,5.51-28.43,0-54.76,4.47-82.64,8.36-12.68,1.77-24.95,2.16-37.92,3.13-11.78.89-23.21,3.83-35.09,4.48-23.61,1.28-53.88-2.3-75.51-12.87-14.32-7-38.34-14-34.08-32.19,3.66-15.69,13.83-24.57,27.92-29.5C49,326.46,66.73,325,89.13,325c14.44,0,35.08,1.08,49,4.06,13.49,2.89,26.78,3.24,39.31,7.06,23.07,7,49.7,10.51,72.07,20.86,23.34,10.79,51.57,14.39,75.9,21.89,4.18,1.29,8.14,1.24,8.71,6.22" transform="translate(6.39 -6.99)"/><path class="cls-2" d="M233,305.47a28.62,28.62,0,0,0,1.92-2.16h0c3.27.44,6.57,1.07,9.63,1.28,5,.4,9.65.52,14.64.46,15.24,0,31-.72,46,1.55,4.4.66,8.72.87,8.18-5a16.23,16.23,0,0,0-3.67-8c2.87,2.34,5.64,4.78,8.55,7.29a31.57,31.57,0,0,1,3.92,3.95,4.79,4.79,0,0,1,.38,1.27c.59,4-.78,4.13-4.3,4.4-5.21.4-10.41-1-15.74-.95-10.34.17-20.72,2.38-31.09,2.21a186.63,186.63,0,0,1-24.72-2.48,89.22,89.22,0,0,1-9.8-1.81,26.32,26.32,0,0,1-4-1.92Z" transform="translate(6.39 -6.99)"/><path class="cls-3" d="M59.41,349.49a21.11,21.11,0,0,1,2.22-3.82A5.52,5.52,0,0,1,64.38,344a2.54,2.54,0,0,0-.6.86c-.3,1.07.51,1,1.12,1.61.78.8.4.79.56,1.67a2.79,2.79,0,0,0,.76,1.56,28.41,28.41,0,0,0-2.87,1.71c-.77.54-2.64,3-3.66,2.3S59,350.4,59.41,349.49Z" transform="translate(6.39 -6.99)"/><path class="cls-4" d="M63.76,344.83a2.54,2.54,0,0,1,.6-.86,18.26,18.26,0,0,1,2.7-2.4c3.21-2.08,8.85-3.11,12.66-2.69,4.81.5,9.12,2.65,13.17,5.13.5.33,1,.65,1.56,1,3.73,2.39,7.55,5.66,12.06,6.08a7.2,7.2,0,0,0,1.26,0,14,14,0,0,0,7.43-2.41A8.42,8.42,0,0,0,116,348a7.43,7.43,0,0,0,.14,1.22,6.16,6.16,0,0,0,1.52,2.86c-1.1.53-2.16,1-3.21,1.43-1.55.61-3.61.64-4.86,1.87-1,.93-1.77,2.12-2.85,3.06a7,7,0,0,0-1.59,2c-5,.66-10.39,1.26-13.87-2.48-2.14-2.29-4.32-5.28-6.88-7.21-2.78-2.11-7.2-2.3-10.42-1.51-2.18.5-6.1,2.16-7.77.36a2.79,2.79,0,0,1-.76-1.56c-.15-.87.22-.86-.56-1.67C64.29,345.89,63.47,346,63.76,344.83Z" transform="translate(6.39 -6.99)"/><path class="cls-3" d="M85.73,334.5a6.28,6.28,0,0,1,1.86-3.72,2.76,2.76,0,0,1,2.76-.37,14.73,14.73,0,0,0-1.44,1.83c-.76,1.45-.93,2.2.07,3.64V336A5.5,5.5,0,0,0,87.22,337c-.65.6-1.28,2.37-1.91,1.09C84.84,337.15,85.48,335.56,85.73,334.5Z" transform="translate(6.39 -6.99)"/><path class="cls-4" d="M88.83,332.29a14.73,14.73,0,0,1,1.44-1.83,2.82,2.82,0,0,0,.54-1.19c2.74-1.12,5.08,2.54,6.35,4.37,2.23,3.23,3.24,7.47,4.74,11.1a18.09,18.09,0,0,0,4.61,6.29c-4.52-.41-8.33-3.72-12.06-6.08-.5-.33-1-.65-1.56-1a10.78,10.78,0,0,0-.77-3.7A40.85,40.85,0,0,0,89,336l0-.11C87.95,334.5,88.06,333.73,88.83,332.29Z" transform="translate(6.39 -6.99)"/><path class="cls-5" d="M55,188.11c22-12.29,53.86-39,60-44.22,5.08-4.37,20.85-17.32,22.3-27.29a45.2,45.2,0,0,0,5.66,9.07,282.5,282.5,0,0,0,20.14,22c8.71,8.62,18.19,16.08,25.44,26.41s13.35,21.09,20.44,31.35c3.75,5.38,6.28,4.47,11.54,6.78,5.58,2.48,9.37,7.48,12.64,12.55,1.39,2.12,2.45,4.46,4.15,6.27,6.75,7.5,14.44,15.06,21.6,22.79,1.72,1.86,3.37,3.83,5.07,5.74a26.09,26.09,0,0,1,.53,3.68,10.26,10.26,0,0,1-.38,2.88c-.45,1.73-1.22,3.44-1.55,5.19-1.09,5.74-.83,10.94-4.46,15a15.06,15.06,0,0,1-4,3.1c-4.36,2.4-9.09,4.65-13.26,7.54a10,10,0,0,0-.82.63,38.41,38.41,0,0,0-5.05,5.61h0a28.62,28.62,0,0,1-1.92,2.16l-.23.22a30.83,30.83,0,0,1-3.33,2.85,33.94,33.94,0,0,1-17.35,6.29c-7.1.5-15.3-2.95-21.87-5.61-9.61-3.89-18.93-5-28.84-5.91-8.18-.78-14.81-3.05-22.91-2.43-8.39.65-17.12-4-24.08-8.49-15.66-10.17-21.89-30.19-34.5-43.21-.6-.57-1.23-1.21-1.84-1.87-1.13-1.16-2.36-2.48-3.64-3.89-8.61-9.36-19.93-22.55-22.9-26.55C40,201.42,43.35,194.69,55,188.11Z" transform="translate(6.39 -6.99)"/><path class="cls-5" d="M240,297.72a126,126,0,0,0,30,2.9c7.5-.24,14-.66,21.29.31,5.12.67,10.88,1.74,9.47-5-1.45-7.14-7.67-12.12-12.56-17.36,4.24,3.31,8.75,6.21,13.36,9.17a90.64,90.64,0,0,1,8.17,6,16.37,16.37,0,0,1,3.67,8c.52,5.86-3.82,5.64-8.18,5-15-2.28-30.73-1.53-46-1.55-5,0-9.68-.1-14.64-.46-3.08-.21-6.35-.8-9.63-1.28A39.13,39.13,0,0,1,240,297.72Z" transform="translate(6.39 -6.99)"/><path class="cls-2" d="M240.84,297.11c4.17-2.92,8.9-5.15,13.26-7.54a15.06,15.06,0,0,0,4-3.1,20.27,20.27,0,0,0,2.92,1.25,28.41,28.41,0,0,0,5.84,1.72c14.28,1.32,3.72-14.58-2.72-23.19a10.26,10.26,0,0,0,.44-2.94,26.09,26.09,0,0,0-.53-3.68,39.68,39.68,0,0,0,6.4,5.83c5.32,3.76,10.67,7.11,15.68,11.39.67.56,1.33,1.12,2,1.67h0c4.88,5.23,11.12,10.22,12.56,17.36,1.41,6.72-4.34,5.66-9.47,5-7.27-.94-13.77-.51-21.29-.31a126,126,0,0,1-30-2.9A8.82,8.82,0,0,1,240.84,297.11Z" transform="translate(6.39 -6.99)"/><path class="cls-5" d="M232.79,305.71a26.32,26.32,0,0,0,4,1.92,89.22,89.22,0,0,0,9.8,1.81,178.55,178.55,0,0,0,24.71,2.46c10.4.2,20.78-2,31.09-2.21,5.33-.08,10.53,1.34,15.74.95,3.52-.29,4.89-.45,4.3-4.4a4.79,4.79,0,0,0-.38-1.27c.82,1,1.57,2,2.39,3.18,2,2.81,3.43,3.68.19,5.31-4.47,2.22-10.47.6-14.91.45-11.24-.38-23,1.79-34,1.3l.37.38c-2.32-.34-4.64-1-7-1.29-3.57-.39-7.17.11-10.85,0A131.08,131.08,0,0,1,239.08,312c-3.39-.6-6.46-2.08-9.66-3.43A30.83,30.83,0,0,0,232.79,305.71Z" transform="translate(6.39 -6.99)"/><path class="cls-2" d="M-5.85,170.93c1.15-15.71,4-30.44,11.41-45,3.06-6.07,4.55-11.48,6.55-17.87A9.75,9.75,0,0,0,8.75,112C10.81,98.06,18.19,85,25,72.11,33,56.88,46.94,45.89,59.7,34.75,64.75,30.34,70.94,20.41,77.62,19a6.69,6.69,0,0,1,4-4.09c3-3.21,3.52-4.57,8.22-5.65,3.91-.88,8-2.43,12.12-1.72,8,1.52,17,5.65,22.12,12.2,9.8,12.42,8.86,35.28,7.78,50.3-1.08,15.29-1.37,32.5,5.42,46.67-1.44,10-17.22,22.92-22.3,27.29-6.1,5.24-38,31.93-60,44.22-11.61,6.5-14.93,13.21-3.44,28.64,3,4,14.26,17.23,22.91,26.6,1.26,1.38,2.51,2.7,3.64,3.89.66.63,1.24,1.29,1.84,1.87,12.61,13,18.85,33,34.5,43.21,7,4.53,15.7,9.14,24.08,8.49,8.1-.63,14.72,1.66,22.91,2.43,9.9.94,19.26,2,28.84,5.91,6.56,2.66,14.77,6.11,21.87,5.61a33.94,33.94,0,0,0,17.35-6.29,43.32,43.32,0,0,0,9.66,3.43,132.86,132.86,0,0,0,19.29,2.32c3.67.1,7.27-.38,10.85,0,2.31.26,4.63,1,7,1.29A265.56,265.56,0,0,0,311.53,346c7.79,5.63,14.79,12.18,22.38,17.84,1.87,1.37,8.2,4.88,8.61,7.21.78,3.92-6.63,2.26-8.75,1.74-5.31-1.33-24.84-8.76-29.54-10.64-5-1.95-8.88-4.27-14-6.35-5.39-2.18-9.46-3.34-14.49-6.14-9.16-5.18-18-12.06-27.49-16.29-4-1.84-8.26-4.8-12.54-5.62-4.7-.95-10-.4-14.63-1.2-7.32-1.23-19.08-5.1-25.35-1a70.2,70.2,0,0,0-8.23,6c-1.51,1.28-5.64,7.09-7.47,7.16s-2.71-3.22-3.48-4.81a62.39,62.39,0,0,1-4.6,4.65c-1.19-3.36-8.56-8.21-12.14-7.58a31.38,31.38,0,0,0,3-4.82,32.33,32.33,0,0,0-5.47-.5c-.66,1-1.41,2.88-2,3.59-1.49,1.62-3.21,1.29-5,2.25-2.15,1.13-3.35,3.53-5.13,5.19-1.55,1.44-3.42,2.52-4.94,4-1.11,1.14-3.4,3.35-3.81,4.81-3.45-.55-6.43,1.06-9.58,2.71-1.39.67-2.62,1.56-4,2.23a23.48,23.48,0,0,0-4.34,2c-5.06-3-1.14-10.72,2.14-13.52,2.41-2.07,5.42-3.06,5.66-6.42.21-3.08.77-8.49-1.56-10.75-1.41-1.37-3.3-2-4.7-3.61a38.4,38.4,0,0,1-2.09-3.25h0a52.49,52.49,0,0,1-10.75-5.73c-4.34-3.1-8.33-6.4-12.82-9.37a400.47,400.47,0,0,1-34.14-25.18c-6-5-10.73-10.83-16.16-16.31-4.51-4.59-9-9-12.66-14.21a397.81,397.81,0,0,0-25-32c-4.39-5-6.36-12.8-8.89-19.24A47.58,47.58,0,0,1-5.85,170.93Z" transform="translate(6.39 -6.99)"/><path class="cls-6" d="M153.06,340.1a30.48,30.48,0,0,1,3.71-5.84c.95-1.18,2.21-2.84,3.82-3.12,1.87-.33,3.94.7,5.56,1.58a23.91,23.91,0,0,1,5,4.09,4.46,4.46,0,0,1,.49.66l-.09-.1c.51,1.16,1.58,2.77,1.29,4.3a13.16,13.16,0,0,1-2.33,4.67c-1,1.18-2.11,2.33-3,3.51-.77.93-1,1.43-2.26,1s-1.18-.95-1.38-2.09h0a6.54,6.54,0,0,0-2.55-3.33c-1.95-1.43-4.05-2.48-6.36-2.08a3.81,3.81,0,0,0-.62.11c-1.15.28-1.56.09-1.77-1.12S152.66,341,153.06,340.1Z" transform="translate(6.39 -6.99)"/><path class="cls-4" d="M136.84,363.06a5.06,5.06,0,0,1,1.83-2.88c.81-.74,1.58-1.48,2.4-2.19.65-.56,1.31-1.13,2-1.67,2.69-2,5.53-4.49,6.36-7.92a.79.79,0,0,0,.06-.28c.19-1,.12-1.68,1.14-2.12a14.94,14.94,0,0,0,3.17-1.87c.33-.25.66-.49,1-.7,2.29-.4,4.41.65,6.36,2.08a6.54,6.54,0,0,1,2.55,3.33h0c-.07.47-.11.88-.15,1.31A31.59,31.59,0,0,1,163,354a8.31,8.31,0,0,1-1,2.89c-.63.68-2.26.59-3.09.62a12.24,12.24,0,0,0-4.11.8,16.36,16.36,0,0,0-6.22,4c-1,.92-2.11,1.68-3.12,2.58s-1.17,1.93-1.84,2.81c-.9,1.17-1.91,2.67-3.39,2.17a16.83,16.83,0,0,1,.48-3,3.31,3.31,0,0,0-2.14-3.91l-.08-.06-.13-.09a.23.23,0,0,0-.16,0c-.59-.2-1,1.11-1.15,1.59a5.69,5.69,0,0,0-.17.78A5.61,5.61,0,0,1,136.84,363.06Z" transform="translate(6.39 -6.99)"/><path class="cls-4" d="M106.49,363a.28.28,0,0,0-.16,0c-.81-.31-1.31.23-1.71.94a6,6,0,0,1,.52-3.29,7,7,0,0,1,1.59-2.12c1.08-1,1.85-2.13,2.85-3.06,1.24-1.24,3.33-1.23,4.86-1.87,1.06-.41,2.11-.9,3.21-1.43,1.56-.76,3.15-1.57,4.65-2.4,2.93-1.53,5.89-3.07,8.94-4.33,2.84-1.14,5.17-.09,7.84,1a19.33,19.33,0,0,0,7.4,1.63c1,0,2.09.31,3,.33-.83,3.4-3.63,5.86-6.36,7.92-.73.53-1.38,1.11-2,1.67a41.94,41.94,0,0,1-7.8-.46,14.39,14.39,0,0,0-7.81,1.38c-4.14,1.68-9,3.73-12,7.07-1.31,1.48-2.29,3.45-4.41,3.75a2.85,2.85,0,0,1-2.68-1.1c.27-.38.55-.74.82-1.09C107.78,366.68,107.79,363.3,106.49,363Z" transform="translate(6.39 -6.99)"/><path class="cls-3" d="M136.91,365.07h0a5.69,5.69,0,0,1,.17-.78c.14-.47.55-1.79,1.15-1.59a.53.53,0,0,0,.16,0s0,.11.13.09a.07.07,0,0,1,.08.06h0a3.31,3.31,0,0,1,2.12,3.91,16.83,16.83,0,0,0-.48,3c-.09,1-.12,1.9-.13,2.92,0,1.28-.11,2.62-.07,3.85-.82.07-1.49-2.25-1.72-2.9a36.13,36.13,0,0,1-.88-3.91A11.89,11.89,0,0,1,136.91,365.07Z" transform="translate(6.39 -6.99)"/><path class="cls-3" d="M102.19,370a33.26,33.26,0,0,1,2.07-5.52,6.8,6.8,0,0,1,.37-.66c.4-.71.91-1.26,1.71-.94a.28.28,0,0,1,.16,0c1.3.34,1.3,3.72.73,4.53-.24.35-.52.69-.82,1.09a21.22,21.22,0,0,0-3,4.9c-.34.81-.14,1.94-.81,2.51C100.94,374.4,101.61,371.87,102.19,370Z" transform="translate(6.39 -6.99)"/><path class="cls-7" d="M81.59,14.88a6.49,6.49,0,0,1,.77-.33l-1,.55C81.42,15,81.53,15,81.59,14.88Z" transform="translate(6.39 -6.99)"/><path class="cls-7" d="M81.59,14.88a6.49,6.49,0,0,1,.77-.33l-1,.55C81.42,15,81.53,15,81.59,14.88Z" transform="translate(6.39 -6.99)"/><path class="cls-7" d="M81.59,14.88a6.49,6.49,0,0,1,.77-.33l-1,.55C81.42,15,81.53,15,81.59,14.88Z" transform="translate(6.39 -6.99)"/><path class="cls-7" d="M81.39,15.12l1-.55a6.45,6.45,0,0,0-.77.33C81.53,15,81.42,15,81.39,15.12Z" transform="translate(6.39 -6.99)"/><path class="cls-7" d="M81.59,14.88a6.49,6.49,0,0,1,.77-.33l-1,.55C81.42,15,81.53,15,81.59,14.88Z" transform="translate(6.39 -6.99)"/><path class="cls-7" d="M81.59,14.88a6.49,6.49,0,0,1,.77-.33l-1,.55C81.42,15,81.53,15,81.59,14.88Z" transform="translate(6.39 -6.99)"/><path class="cls-7" d="M81.59,14.88a6.49,6.49,0,0,1,.77-.33l-1,.55C81.42,15,81.53,15,81.59,14.88Z" transform="translate(6.39 -6.99)"/><path class="cls-7" d="M81.59,14.88a6.49,6.49,0,0,1,.77-.33l-1,.55C81.42,15,81.53,15,81.59,14.88Z" transform="translate(6.39 -6.99)"/><path class="cls-8" d="M71.53,59.34v.07l-.1,0A.13.13,0,0,0,71.53,59.34Z" transform="translate(6.39 -6.99)"/><path class="cls-9" d="M60.16,76a60,60,0,0,0,2.41-5.58c1.09-2.4,2.51-4.7,3.11-7.28.36-1.58.88-3.12,1.2-4.69.29-1.14.34-2.32.64-3.46a13.46,13.46,0,0,1,1.59-3.51c.47-.71,1.16-1.33,1.66-2.1a36.31,36.31,0,0,0,.63,4.85,38.2,38.2,0,0,1,.17,5.2.13.13,0,0,1-.11,0l.11,0v-.08c1.13-.39,1.15-3.89,1.32-4.67,2.47.77,1.28,4.3,2.43,5.9.65.9.93.4,1.73,0,1-.52,1.64-.29,2.53.5a11.26,11.26,0,0,0,2.67,2.28,26.32,26.32,0,0,0,3.52,1l1.47.42c-.89.69-1.53,1.73-2.57,2.29-2,1.11-4.15,2.12-6.17,3.19-2.65,1.41-5.45,1.75-7.66,4a25.2,25.2,0,0,1-5.52,4.55c-1.22.74-3,1.36-4.34.77a3,3,0,0,1-1.17-1.31C59.35,77.29,59.78,76.73,60.16,76Z" transform="translate(6.39 -6.99)"/><path class="cls-3" d="M76.74,30.52A18.44,18.44,0,0,1,76.69,27a24.12,24.12,0,0,1,.77-4.2c.11-.65.11-1.3.24-1.85a12,12,0,0,0,.55,5.24c.44,1.2,1.15,1.61,2.2,1s1.28-1.66,1.67-2.7a26.3,26.3,0,0,0,1.29-6.81,13.08,13.08,0,0,0,.07-2.38c-.15-.88-1-.84-1.74-.71h0a5.64,5.64,0,0,0-.54.36A8.92,8.92,0,0,1,82.38,13a8.49,8.49,0,0,1,3.6-2.6c.6.65.34,2.31.16,3a13.5,13.5,0,0,1-1.5,3.62c-1.29,2.63-1.55,5.74-2.56,8.5a26.22,26.22,0,0,1-1.57,3.48,25.32,25.32,0,0,1-1.28,2.37c-.2.34-.38,1.08-.67,1.33C77.42,33.91,76.86,31.3,76.74,30.52Z" transform="translate(6.39 -6.99)"/><path class="cls-10" d="M77.49,26.37c.44,1.2,1.15,1.61,2.2,1s1.28-1.66,1.67-2.7a26.3,26.3,0,0,0,1.29-6.81,13.08,13.08,0,0,0,.07-2.38c-.15-.88-1-.84-1.74-.71h0a5.64,5.64,0,0,0-.54.36A6.45,6.45,0,0,0,79,16.36,7.06,7.06,0,0,0,77.18,20c0,.38-.09.77-.11,1.12v.07A12,12,0,0,0,77.49,26.37ZM79.59,24c-.44-.61.15-2.39.29-3.1a7.78,7.78,0,0,1,1-2.21c.73-.13,1,1.1,1.12,1.61a4.74,4.74,0,0,1-.62,3.09c-.3.62-1.29,1.24-1.81.62Z" transform="translate(6.39 -6.99)"/><path class="cls-3" d="M106.37,56.49a5.62,5.62,0,0,1,2.71-1.91l.32-.06a1.35,1.35,0,0,1,.66-.12,2.79,2.79,0,0,0,1.08-.34,12,12,0,0,0,1.67-1,11.15,11.15,0,0,1,2-1.22l1.15-.54a8.77,8.77,0,0,1,1.31-.45c.56-.21,1.08-.45,1.65-.67a6.79,6.79,0,0,0,1.13-.46,5.32,5.32,0,0,1,2.39-1,1.12,1.12,0,0,1,1.24.8,2.17,2.17,0,0,1-.53,1.9,12.08,12.08,0,0,1-3.64,3.27,9.41,9.41,0,0,0,.41-1.09,4.54,4.54,0,0,0,.34-1.45c0-.26-.13-.73-.38-.88s-.86.22-1.16.28a20.82,20.82,0,0,0-2.86,1,6.26,6.26,0,0,0-1.67.75l-.11,0a6.3,6.3,0,0,0-1.73,1.23,10.26,10.26,0,0,1-1.8,1.33c-.23.19-.58.37-.63.71a1.79,1.79,0,0,0,.69,1.16,5.32,5.32,0,0,0,2.85,1.22,5.69,5.69,0,0,1-.68.42c-.38.18-.79.4-1.18.54a9.91,9.91,0,0,1-1.47.26,3.72,3.72,0,0,1-2.36-.53,13.75,13.75,0,0,0-2.12-.53C104.19,58.84,105.84,57.14,106.37,56.49Z" transform="translate(6.39 -6.99)"/><path class="cls-5" d="M71.36,54.16a36.31,36.31,0,0,1-.63-4.85,13.7,13.7,0,0,1,0-2.18,23.34,23.34,0,0,1,.76-4.27,4.14,4.14,0,0,1,2.29-2.63,5,5,0,0,1,3.63-.83c1.52.33,3.62.95,4.66,2.11a8.78,8.78,0,0,1,2.14,4.41c.22,1.24-.34,2.77.05,3.91,3.26-1.77,7.83,2.05,9.59,4.4a8.74,8.74,0,0,1,1.41,2.21,4.19,4.19,0,0,1-.17,2.25c-.07.47-.43,1.84.28,2,.54.1,1.23-.67,1.94-.5,1,.28.76,3-.43,3.32-.76.25-1.58-.36-2.32-.34-1,0-1.95,1.1-2.86,1.52a5.18,5.18,0,0,1-4.43,0c-.47-.14-.94-.29-1.47-.42a26.32,26.32,0,0,1-3.47-.93,15.1,15.1,0,0,1-2.67-2.28c-.88-.71-1.49-1-2.53-.5-.79.4-1.08.91-1.73,0-1.14-1.6,0-5.09-2.43-5.9-.17.78-.18,4.29-1.32,4.67C71.43,57.67,71.68,56,71.36,54.16Z" transform="translate(6.39 -6.99)"/><path class="cls-11" d="M79.87,20.87a7.78,7.78,0,0,1,1-2.21c.73-.13,1,1.1,1.12,1.61a4.74,4.74,0,0,1-.62,3.09c-.3.62-1.29,1.24-1.81.62S79.73,21.57,79.87,20.87Z" transform="translate(6.39 -6.99)"/><path class="cls-10" d="M110.59,56.06a10.26,10.26,0,0,0,1.8-1.33,6.3,6.3,0,0,1,1.71-1.2l.1,0a6.26,6.26,0,0,1,1.67-.75,20.82,20.82,0,0,1,2.86-1c.28-.12.94-.43,1.16-.28a1.55,1.55,0,0,1,.38.88,4.54,4.54,0,0,1-.34,1.45,9.41,9.41,0,0,1-.41,1.09,4.82,4.82,0,0,1-.27.62,4.52,4.52,0,0,1-1.06,1.44,10.7,10.7,0,0,1-1.43,1.27,6.75,6.75,0,0,1-1.58.65,3.1,3.1,0,0,1-1.71.3h0a5.32,5.32,0,0,1-2.85-1.22,1.79,1.79,0,0,1-.69-1.16C110,56.4,110.31,56.23,110.59,56.06Z" transform="translate(6.39 -6.99)"/><path class="cls-11" d="M113.26,55.67c0-.11.32-.32.41-.45a3.88,3.88,0,0,1,.35-.37,1.69,1.69,0,0,1,.68-.42c.24-.15.6-.22.88-.38a11.06,11.06,0,0,1,1.13-.46c.39-.14.84-.34,1.16-.05a.94.94,0,0,1,.13,1.12,3.52,3.52,0,0,1-.56.47,2,2,0,0,1-.52.47,5.71,5.71,0,0,1-1.54.53,4.46,4.46,0,0,1-1.39.25C113.64,56.35,113,56.05,113.26,55.67Z" transform="translate(6.39 -6.99)"/><path class="cls-5" d="M262.58,271.42c.33-1.74,1.11-3.45,1.55-5.19,6.44,8.61,17,24.51,2.72,23.19A28.4,28.4,0,0,1,261,287.7a20.27,20.27,0,0,1-2.92-1.25C261.77,282.36,261.5,277.08,262.58,271.42Z" transform="translate(6.39 -6.99)"/><polyline class="cls-8" points="270.53 259.25 270.51 259.24 270.51 259.2"/></svg>