<svg id="p4" xmlns="http://www.w3.org/2000/svg" viewBox="0 0 188.1 300.24"><defs><style>.cls-1{fill:#776d75;}.cls-2{fill:#c8c3c2;stroke:#c8c3c2;}.cls-10,.cls-11,.cls-12,.cls-2,.cls-3,.cls-4,.cls-6,.cls-7,.cls-8,.cls-9{stroke-miterlimit:10;stroke-width:0.67px;}.cls-10,.cls-3{fill:none;}.cls-12,.cls-3{stroke:#000;}.cls-4{fill:#d27793;stroke:#d27793;}.cls-5{fill:#943a52;}.cls-6{fill:#7388a0;stroke:#7388a0;}.cls-7{fill:#526680;stroke:#526680;}.cls-8{fill:#c8d4e4;}.cls-10,.cls-8{stroke:#c8d4e4;}.cls-9{fill:#c78b7a;stroke:#c78b7a;}.cls-11{fill:#fdfdfe;stroke:#fdfdfe;}</style></defs><title>pigeon-svg-4-1</title><path class="cls-1" d="M126.42,177.39c-11.46,0-15.94,0-24.67,5.43-5.46,3.37-10.43,6.73-16.27,9.61C74,198.09,61.08,203.1,50.79,210.58c-9.32,6.77-11.36,20.57-10,30.74,1.27,9.5,10.57,15.86,15.49,24.28,2.71,4.63,3.22,9.81,5.3,14.25,2.35,5,7.81,10.7,12.48,14.12,8.69,6.34,22.14,7,33.14,5.79,10.25-1.09,18.4-8.28,28.26-10.87,12.68-3.34,23.57-3.55,37.31-7.93,5.87-1.87,11.58-5.07,17.19-7.89,3.82-1.92,9.45-6.51,12.75-9.26,11.71-9.77,12.24-27.69,6.24-40.76-4.29-9.34-14.59-16.28-23.38-22.07-6.6-4.35-13.21-6.74-21.47-8.54-6.74-1.47-12.93-1.73-19.39-4.29-6.29-2.49-10.85-6.17-16.36-9a57.52,57.52,0,0,0-8.8-3.34" transform="translate(-33 0)"/><path class="cls-2" d="M143.75,221.73h0c-.41.52-.81,1-1.19,1.57a11.45,11.45,0,0,0-2.06-1.45,35.11,35.11,0,0,0-4.5-1.1,3.89,3.89,0,0,0,.44-3.36,1,1,0,0,0-.11-.26,9.24,9.24,0,0,1,5.37.9A4.63,4.63,0,0,1,143.75,221.73Z" transform="translate(-33 0)"/><path class="cls-3" d="M81.11,244.27v.06a2.36,2.36,0,0,1,.29.26" transform="translate(-33 0)"/><path class="cls-2" d="M118.21,262.2a25.5,25.5,0,0,1-2.56-3.7,15.31,15.31,0,0,1-.79-2.23,3.07,3.07,0,0,0,1.27-.72,2.93,2.93,0,0,0,.5-.55C117.6,257.28,119.23,261,118.21,262.2Z" transform="translate(-33 0)"/><path class="cls-2" d="M134.33,238.06a37.23,37.23,0,0,1-3.54,2.62c-1,.5-2.41,2.06-3.22,2.23,0-2.64,2.32-5.37,4.94-6.33.76.17.76.52,1.68,1.34A.52.52,0,0,0,134.33,238.06Z" transform="translate(-33 0)"/><path class="cls-3" d="M91.52,198.2a.35.35,0,0,0-.15-.15" transform="translate(-33 0)"/><path class="cls-4" d="M136,220.77a4.21,4.21,0,0,1-3.87,1.8A9,9,0,0,0,128,223c-1.95.76-3.52,2-5.58,2.58a16.78,16.78,0,0,1-10.14-.32,53.54,53.54,0,0,1,1,6.48c.41,3,1.1,6,1.54,8.89a82.57,82.57,0,0,0,1.92,9.14c.46,1.8,1,3.66-.17,5.17a2.93,2.93,0,0,1-.5.55,3.07,3.07,0,0,1-1.27.72c-3.28.85-4.62-7.93-5.4-9.9-2.05-5.14-3.65-10.32-5.32-15.63-.93-3-3.13-9.76-7.46-5.69-2,1.83-3.54,5-5,7.26a53.06,53.06,0,0,0-3.43,6.13C87,241,84.79,247.7,81,246.92c.41-1.1.52-2.09.11-2.62-.81-.61-1.6-.29-2.29.52-.44-3.89,5.86-12.57,7.09-14.7,1.83-3.13,3-6.65,5-9.7S95.14,213,95,209.09c-.17-3.78-.32-8.39-3.48-11,2.56-.09,3.92-1.95,6.39-.72a16.66,16.66,0,0,1,2.88,1.45c1.27,1,1,1.68,1.27,3.11a20.29,20.29,0,0,0,9.88,13.94,14,14,0,0,0,3.83,1.33c1.45.46,2.85,1.31,4.48.85,3-.85,5.52-3,8.8-3,2,0,6.33-.06,7.26,2.09a1,1,0,0,1,.11.26A3.89,3.89,0,0,1,136,220.77Z" transform="translate(-33 0)"/><path class="cls-4" d="M192.74,233.09a1.64,1.64,0,0,1-2,.61c-1.74-.5-3.54-2.76-5-3.83a20.83,20.83,0,0,0-6.13-2.88c-2.82-1-5-3.17-8-3.78a26.47,26.47,0,0,0-6.27-.26c.9,3.25.46,7.15.67,10.37.2,3.48.61,6.8.61,10.37,0,3.11-.46,6.19-.61,9.27-.09,1.83-.23,4.48-1.6,6a8.88,8.88,0,0,0-.06-1.77,1.13,1.13,0,0,0-.67-1,1.74,1.74,0,0,0-.72-.38,1.18,1.18,0,0,1-.26.15,4.7,4.7,0,0,0-1.34.9,5.08,5.08,0,0,0-1.13,2.47v.15l-.09-.06c-2.12-2.53-1.42-10.11-1.51-11.94a139,139,0,0,0-1.52-14c-.5-3.28.29-9.76-4.18-10.51-1.89,1.31-3.17,3.52-4.91,5.08-3.52,3.19-7.09,6.27-10.86,9.12-1.07.85-1.8,1.71-2.79.93a.52.52,0,0,1-.15-.11c-.93-.85-.93-1.19-1.68-1.34a7.27,7.27,0,0,0-1.19-.15c1.34-1.83,2.91-3.54,4.39-5.31,2.12-2.56,4.53-4.59,6.51-7.29.11-.17.23-.32.35-.5.38-.52.79-1,1.19-1.57h0c.79-1.07,1.57-2.15,2.27-3.28a17.37,17.37,0,0,0,2.82-7.84.94.94,0,0,0,.5.09c1.48-.11,2.68-2.68,3.69-3.63,1.25-1.19,3.43-2.41,5.2-1.74,1.34.52,1.68,2.12,2.79,2.82a1.85,1.85,0,0,0,.41-.23l.5.67c.67,1,1.19,2.09,1.8,3.13,1.31,2.18,3.54,3.25,5.72,4.44a14.09,14.09,0,0,0,3.66,1.16,46.53,46.53,0,0,1,5.37,2.06c3.13,1.19,6.16,2.64,9.21,4.07,2.53,1.22,4.35,2.68,5.14,5.17C190.27,229.05,191.21,231.05,192.74,233.09Z" transform="translate(-33 0)"/><path class="cls-2" d="M164.37,259h0a6.36,6.36,0,0,1-.23,1.34,28.46,28.46,0,0,1-1.1,3c-.46,1.13-1.1,2.15-1.66,3.25-.26.52-.67,1.25-1.31,1.4-.2,0-.85.29-1,.15s.15-1.16.2-1.34c.17-.61.41-1.19.58-1.83.5-1.77.09-3.66.32-5.43v-.15a5.08,5.08,0,0,1,1.13-2.47,4.7,4.7,0,0,1,1.34-.9,1,1,0,0,1,.32-.08,1.42,1.42,0,0,1,.67.32,1.13,1.13,0,0,1,.67,1A8.88,8.88,0,0,1,164.37,259Z" transform="translate(-33 0)"/><path class="cls-2" d="M81,246.94c-.93,2.5-3.28,5.58-4.56,5.46a14.44,14.44,0,0,1,2.38-7.55c.67-.81,1.48-1.13,2.29-.52C81.57,244.86,81.44,245.84,81,246.94Z" transform="translate(-33 0)"/><path class="cls-2" d="M196.31,237.65c-.15-.67-2.09-2.64-3.54-4.56s-2.47-4,0-4.48c.06.06.06.15.09.2,1.62.23,2.5,1.8,3,3.25C196.31,233.2,197.24,236.66,196.31,237.65Z" transform="translate(-33 0)"/><path class="cls-5" d="M161.42,207.91a1.85,1.85,0,0,1-.41.23c-1.1-.67-1.45-2.29-2.79-2.82-1.77-.67-4,.55-5.2,1.74-1,1-2.21,3.52-3.69,3.63a.94.94,0,0,1-.5-.09c-1.07-.29-1.34-1.86-1.8-2.79-1.22-2.47-3.25-5-2.18-7.67.87-2.23,4.07-2.58,6.19-3.36a24.74,24.74,0,0,0,6.42-3.25,7,7,0,0,1,2.76,1.66C162.94,197.74,165.26,205.51,161.42,207.91Z" transform="translate(-33 0)"/><path class="cls-6" d="M151.74,16.86Z" transform="translate(-33 0)"/><path class="cls-6" d="M155.68,22.8a3.05,3.05,0,0,1-1.34-2.14,26.62,26.62,0,0,0,2.25,2.81A9.31,9.31,0,0,1,155.68,22.8Z" transform="translate(-33 0)"/><path class="cls-6" d="M190.94,47.2a48,48,0,0,0-11.77-11.74c4.33,2.93,8.55,6.31,11.24,10.79A4.55,4.55,0,0,1,190.94,47.2Z" transform="translate(-33 0)"/><path class="cls-6" d="M220.77,94.2c0,11.11-.78,21.74-4.07,32.21a141.87,141.87,0,0,1-11.81,26.52c-2,3.63-3.58,6.91-6.55,9.88a71.09,71.09,0,0,0-8,10.13c-3.13,4.52-8.19,8.19-12.66,11.52a28.7,28.7,0,0,1,1.22-4.6c-2.36,2.48-4,4.57-7.38,5.94-6.8,2.78-12.88,8.18-19.78,10.74-5.37,2-10.88,3.36-15.68,6.88-2.42-1.6-5-5.51-8.05-5.84-1.78-.19-2.68,1.42-4.19,2.43a50.39,50.39,0,0,1-5.31,2.87c-3.52,1.82-4.84,1.89-8.6.45-2.58-1-5.05-.87-7.38-2.49-1.78-1.24-4.29-4.46-6.75-4-1.46.28-1.58,1.52-3.32,1.52-1,0-2.33-.84-3.31-1.27-6.71-3-12.41-7.81-17.8-12.64-4.6-4.14-8.85-10.39-8.72-16.59-1-1-3-1.14-4.44-1.89a41.28,41.28,0,0,1-5.08-3.25c-3.4-2.56-7.68-5.77-9.78-9.64-4.31-7.9-6.17-17-7.3-25.74-1-7.46-2.92-14.84-2.67-22.47C33.74,95,36.94,86,39.51,76.51A84.22,84.22,0,0,1,44,62.8c1.2-2.6,3.57-8.6,6.29-9.71C50.57,51.53,49,51,48.11,50c.47-4.64,6.36-9.3,9.11-12.82a31.07,31.07,0,0,1,5.89-5.54c-6.93,11.89-16.2,37.56-17,45.24-1.09,11-.17,23.08,1.3,33.92,2.48,18.31,6.71,42.65,25,51.43,27.26,13.08,59.54,12.08,88.4,7.34,14-2.28,27.62-11.41,34.6-23.88,6.29-11.22,8.19-21.42,9.23-33.83a84.32,84.32,0,0,0-1.34-23.18,28.78,28.78,0,0,0,0-5.21c-.4-3.13-1-5.92-1.67-9-1.43-6.6-2-14.49-5-20.49-3.09-6.35-5.49-13.06-11.28-17.88-4.8-4-9.17-8.6-15.24-11-5.85-2.37-10.56-6.49-16.18-9.15a6.33,6.33,0,0,1,2.44-.5c1.7,0,3.31.1,5,.17a38.41,38.41,0,0,1,11.58,2.63c4,1.43,7.47,2.25,11.08,4.58a65.3,65.3,0,0,1,8.92,6.55,47.36,47.36,0,0,1,6.51,8c2.8,4-2.91,1.42-4.82.67,1.85,1.92,4.84,3.36,7.15,4.7,3.95,2.28,6.71,6.13,9.67,9.5,2.24,2.58,6.29,7.86,4,11.27,2.34,2.73,2.48,9.85,3.19,13.25A86.19,86.19,0,0,1,220.77,94.2Z" transform="translate(-33 0)"/><path class="cls-6" d="M197.52,65.77h0c0,6.5-2.25,13.49-4.15,19.4-2.52,7.86-6.22,16.65-10.79,23.4-2.42,4.7-6.56,8.58-11.23,11.9a118.39,118.39,0,0,1-14.47,8.41c-6.71,3.46-13.36,7.72-21.08,8.25-14,1-31.43-2.12-42.38-11.47-4.91-4.21-9.73-7.58-13.65-12.87-3.25-4.44-6.25-8.86-9.53-13.1-5.44-7-6.78-17.36-7-25.68a36.41,36.41,0,0,1,2.21-12.49,21.43,21.43,0,0,1-2.21-8.17,46.16,46.16,0,0,1,1.69-13,88.82,88.82,0,0,1,4-11.53l-.21-.21c-.71-1.08.3-4,1-5.27,1.6-2.93,4.58-5,6.71-7.49A55.64,55.64,0,0,1,86.81,6C89,4.42,92,1.63,94.47.71a6.15,6.15,0,0,0-.8,2.09,21.58,21.58,0,0,1,10-2.46c-.38.24-.85.67-1.15.87A13.21,13.21,0,0,1,105,.87c5.86-.29,11.41,1,16.86,2.8,4.56,1.47,9.36,2.29,14,3.55,1.52.42,4.7,1,5.68,2.44.82,1.15.57,2.72,1.7,4a8.82,8.82,0,0,0,4.48,2.21c1.41.33,2.41,1.33,3.81,1l.22,0a7.86,7.86,0,0,1,2,1.91c1.05,1.82,0,2.47,2,4,3.71,3,9.29,4.51,13.61,6.67C178.68,34.11,188,41,193,50.41c2.45,4.62,2.94,10.07,4.21,14.82v0A3.06,3.06,0,0,0,197.52,65.77Z" transform="translate(-33 0)"/><path class="cls-7" d="M106.28,89c-2.58,3.92-2.27,8.05-1.83,12.49.15,1.34,0,4.27-1.4,5-1.22.61-1.68-2.18-1.92-2.91-.67-2.12-1-4.39-1.68-6.54a10.62,10.62,0,0,0-1-2.62c-.2-.35-.41-.87-.67-1.34a1.88,1.88,0,0,0,.76-.85c.32-1-.38-2.09-.79-2.93a21.63,21.63,0,0,1-.85-2.38,7.29,7.29,0,0,1-.67-2.18c0-.76,0-1.48-.06-2.21.38-.44.76-.85,1.16-1.25a17.67,17.67,0,0,1,2.41-1.66,5.4,5.4,0,0,0,.9-.76,4.7,4.7,0,0,0,1.68.11c.46,0,.81-.26,1.16.09s.09.67.23,1c.29.67,1.34.67,2.06.67s1.54-.58,2,0c.32.38.23,1.42.29,1.92a8.59,8.59,0,0,1,.09,2.12C108.11,86.41,107.11,87.57,106.28,89Z" transform="translate(-33 0)"/><path class="cls-8" d="M107.11,37.34a5.54,5.54,0,0,0-1.39-.52,5,5,0,0,0-2.52.83,9.86,9.86,0,0,1-1.93.48c-.86.24-1.74.43-2.58.74a4.76,4.76,0,0,0-2.32,1.81,9.09,9.09,0,0,0-1.66,2.68,6,6,0,0,0,.34,5c.67,1.11,1.86,2,2.23,3.36a10.23,10.23,0,0,0,.42,1.62c.21.46.42.15.81.5a5.51,5.51,0,0,1,.77,1.36c.24.45.36.95.59,1.39s.43.9.82.79a5.44,5.44,0,0,0,.67-.55c.27-.22.51-.47.78-.67a39.5,39.5,0,0,0,3.72-2.82c.74-.74,1.63-1.62,1.61-2.74,0-.67-.34-1.62.11-2.24.11-.16.3-.1.4-.22a2.08,2.08,0,0,0,.1-.74,17.13,17.13,0,0,1,.27-1.7,10,10,0,0,0,0-4.07,2.6,2.6,0,0,0-.79-1.18c-.25-.23-.78-.44-1-.67-.67-1,.71-1,.82-1.76A.59.59,0,0,0,107.11,37.34Z" transform="translate(-33 0)"/><path class="cls-9" d="M106.44,44.7a4.93,4.93,0,0,0-2.62-4c-2.22-1.15-4.25,1.06-5.28,2.74a5.74,5.74,0,0,0-1,3.47,6.78,6.78,0,0,0,.76,2.63,4.17,4.17,0,0,0,5.89,1.26A11.41,11.41,0,0,0,106,48a6.27,6.27,0,0,0,.47-2.93A3.64,3.64,0,0,0,106.44,44.7Z" transform="translate(-33 0)"/><path class="cls-10" d="M65.47,61.51c.41,1,.83,1.94,1.21,2.9a38.47,38.47,0,0,0,6.71,11.78c3.22,3.78,7.82,3.72,12.7,2.23" transform="translate(-33 0)"/><path class="cls-8" d="M98.55,92.2a1.88,1.88,0,0,1-.76.85,4,4,0,0,1-1.51.67c-1,.17-1.31-.35-1.89-1.13a33.07,33.07,0,0,1-2.91-4.13,27.06,27.06,0,0,1-1.16-2.88,3.21,3.21,0,0,1,.76-.44c.2-.11.61-.15.79-.23a3.29,3.29,0,0,0,.38-.46,4,4,0,0,1,1.68-.23c.85-.06,1-.41,1.57-1a9,9,0,0,0,.67-.76c0,.72,0,1.45.06,2.21a7.29,7.29,0,0,0,.67,2.18c.29.81.5,1.62.85,2.38S98.87,91.2,98.55,92.2Z" transform="translate(-33 0)"/><path class="cls-11" d="M102.59,75.9a9.47,9.47,0,0,1-1.92,2.93,5.4,5.4,0,0,1-.9.76,17.67,17.67,0,0,0-2.41,1.61c-.41.41-.79.81-1.16,1.25l-.67.76c-.58.55-.72.9-1.57,1a4,4,0,0,0-1.68.23,3.29,3.29,0,0,1-.38.46c-.17.09-.58.11-.79.23a3.21,3.21,0,0,0-.76.44,4.8,4.8,0,0,0-1,1c-.41.52-.41.67-1.16.35a8.62,8.62,0,0,1-2-1.34,6.34,6.34,0,0,1-2-4.15c-.27-1.6.52-2.06,1.92-2.73.87-.44,2.29-1,3,.06a12,12,0,0,1,1-2.92c1.4-2,3.43-3,5.49-4.18,1-.52,2-1,3-1.51.41-.17,1.86-1.34,2.23-1.19a6.63,6.63,0,0,1,1.86,2.53A5.51,5.51,0,0,1,102.59,75.9Z" transform="translate(-33 0)"/><path class="cls-12" d="M100.84,49.09c-2.18-1.25-1.86-5.81,1.07-5.6A2.29,2.29,0,0,1,104,45C104.91,47,103.43,50.6,100.84,49.09Z" transform="translate(-33 0)"/><path class="cls-8" d="M193.37,85.2c-2.87,7.74-6.22,16.65-10.79,23.4-2.42,4.7-6.56,8.58-11.23,11.9a118.41,118.41,0,0,1-14.47,8.41c-6.71,3.46-13.36,7.72-21.08,8.25-14,1-31.43-2.12-42.38-11.47-4.91-4.21-9.73-7.58-13.65-12.87-3.25-4.44-6.25-8.86-9.53-13.1-5.44-7-6.78-17.37-7-25.69a36.41,36.41,0,0,1,2.21-12.49,21.43,21.43,0,0,1-2.21-8.17,46.16,46.16,0,0,1,1.69-13,88.82,88.82,0,0,1,4-11.53,2.5,2.5,0,0,0-.67.15,16.17,16.17,0,0,0-5.15,2.68C56.23,43.58,47,69.28,46.2,76.93c-1.09,11-.17,23.08,1.3,33.92,2.48,18.31,6.71,42.65,25,51.43,27.26,13.08,59.54,12.08,88.4,7.34,14-2.28,27.62-11.41,34.6-23.88,6.29-11.22,8.19-21.42,9.23-33.83a82.16,82.16,0,0,0-.67-19.23l-.56-6.94a17.93,17.93,0,0,0-.13-2.23c-.4-3.13-1-5.92-1.67-9-1.43-6.6-2-14.49-5-20.49-3.09-6.35-5.49-13.06-11.28-17.88-4.8-4-9.17-8.6-15.24-11-5.85-2.37-10.56-6.49-16.18-9.15a17.38,17.38,0,0,1-2.29.85h0a7.76,7.76,0,0,1,2,1.88,5,5,0,0,1,.62,1.92,26.62,26.62,0,0,0,2.25,2.81c3.68,2.58,8.72,4,12.75,6a72.64,72.64,0,0,1,9.91,5.94c4.33,2.93,8.55,6.31,11.24,10.79a9.33,9.33,0,0,1,.53,1,37.49,37.49,0,0,1,2,3.36,26.37,26.37,0,0,1,2.1,5.5A46.61,46.61,0,0,1,194,83.5Q193.69,84.3,193.37,85.2Z" transform="translate(-33 0)"/></svg>