<svg id="p2" xmlns="http://www.w3.org/2000/svg" viewBox="0 0 352.23 323.04"><defs><style>.cls-1{fill:#776d75;}.cls-2{fill:#d27793;stroke:#d27793;}.cls-11,.cls-12,.cls-13,.cls-14,.cls-2,.cls-3,.cls-4,.cls-5,.cls-6,.cls-7,.cls-9{stroke-miterlimit:10;stroke-width:0.62px;}.cls-3{fill:#fff;stroke:#fff;}.cls-4{fill:#4b516b;stroke:#4b516b;}.cls-10,.cls-5{fill:#526680;}.cls-5{stroke:#526680;}.cls-6{fill:#7388a0;stroke:#7388a0;}.cls-7{fill:none;}.cls-13,.cls-7{stroke:#000;}.cls-8{fill:#c8c3c2;}.cls-9{fill:#c8d4e4;stroke:#c8d4e4;}.cls-11{fill:#fdfdfe;stroke:#fdfdfe;}.cls-12{fill:#c78b7a;stroke:#c78b7a;}.cls-14{fill:#a4361f;stroke:#a4361f;}</style></defs><title>pigeon-svg-2-1</title><path class="cls-1" d="M102.48,240.12c-6.57,10.24,25.77,17.4,29.31,18.61,17.8,6.1,36,14.82,52.79,23,26.56,12.89,72.71,33.32,101.76,38.13,58.37,9.67,146.94-2.09,149.78-44.81,3.8-57.19-98.21-49.67-141.38-52.71-36.05-2.54-76.26,4.5-112.12,8.7-10.65,1.25-74.89,3.78-80.14,9.11" transform="translate(-83.99 0.03)"/><path class="cls-2" d="M318,299.87a1.74,1.74,0,0,1-.32.58c-.93,1.19-2.8.58-4.08.48a68.67,68.67,0,0,1-8.52-.87c-5.55-1.09-10.93-4.21-15.68-7.13-1.64-1-3.89-3.41-5.94-2.93s-1.77,3.38-1.93,5a27.09,27.09,0,0,1-1.6,7.84,4,4,0,0,1-1.73,1.8c.1-.22.22-.42.32-.62.39-.8.58-3.09-.42-3.47-1-.06-2.06,1.09-2.64,2.54a15,15,0,0,1,0-2.38,63.21,63.21,0,0,0,.26-6.55c-.13-2.47-.13-5-.35-7.41a67.88,67.88,0,0,1-.58-6.79c0-4.56-.22-9.45-1.89-13.73-.51-1.28-1-2.57-1.54-3.83a12.65,12.65,0,0,1-1.38-2.8c1.41.06,2.09-.62,3-1.64.74-.87,1-2.06,1.57-2.76,1.23-1.38,3.18-1.54,4.53-2.93.26.77.51,1.54.67,2.22.71,3.28,1.64,6.49,2.25,9.77a30.88,30.88,0,0,0,4.12,10.83c1.44,2,3.89,4.53,6.3,5.17,1.51.38,2.93-.06,4.5-.13a25.87,25.87,0,0,1,5,.45,50.93,50.93,0,0,0,9.13.71c1.28-.06,5.75-1.23,6,.51a1,1,0,0,1,0,.32,3.52,3.52,0,0,1-1.85,2.38,8.64,8.64,0,0,1-2.22,1,24.6,24.6,0,0,1-5.11.48c-2,.1-4,.58-5.94.74a53.13,53.13,0,0,1-8.17-.13c5.27,4.15,11,6.33,17.45,8.26a31.36,31.36,0,0,1,4.18,1.44,1.76,1.76,0,0,0-.9.29.62.62,0,0,0-.32.26h0c-2,1.8,2.51,2.86,3.7,3Z" transform="translate(-83.99 0.03)"/><path class="cls-2" d="M404.72,249.12a1.23,1.23,0,0,1,0,.48,4.41,4.41,0,0,1-2.47,2.6c-1.7.62-3.18-.13-4.82-.48a56.93,56.93,0,0,0-11.66-1.31c-4.79,0-9.61-.16-14.46,0-2.15.1-4.15-.22-6.26-.22-.87,0-1.73-.1-2.6-.16A21.77,21.77,0,0,0,364,251.6a8,8,0,0,1,2.22,2.7l.1.38a3.67,3.67,0,0,0-.83-.29h0a1.5,1.5,0,0,0-1.51,1.49s0,.05,0,.08a19.09,19.09,0,0,1-2.64-.51c-7.36-1.8-14.75-3.67-22.37-1.85-3.67.87-6.75,2.18-10.49,1.15h-.1c-1.19-.35-2-1-2-1.67s.55-1.12,1.7-1.6c2.76-1.15,5.94-1.77,8.81-2.93a59.35,59.35,0,0,0,7.41-4.24,21.65,21.65,0,0,0,5-4.53,22.65,22.65,0,0,0,3.15-3.92c1.89,1,3.79,1.89,5.75,2.7h0a38.43,38.43,0,0,0,7.91,2.51,61.06,61.06,0,0,0,10.73,1.38h.35c4.18,0,8.29-.51,12.44.06,3.57.51,7.58.51,10.86,2.35a10.15,10.15,0,0,1,1.12.71,1.34,1.34,0,0,1,.26.19,2.43,2.43,0,0,0-.58.29h0c-.77,1.7,2,3.18,3.41,3.09Z" transform="translate(-83.99 0.03)"/><path class="cls-3" d="M222.44,87.37l-.45-.51a1.09,1.09,0,0,0,.32,0Z" transform="translate(-83.99 0.03)"/><path class="cls-4" d="M140.52,125.7c-.93-.87-1.85-1.72-2.82-2.47-2.57-2.06-6-2.86-9.16-3.86-7.78-2.47-15.43-6.39-23.2-9.42-4-1.54-8-3-12-4.32-3.63-1.28-8.36-2.15-8.9-6.17-.31-2.22.46-4.26,1-6.39.91,3.74,6.73,6.56,9.69,8A169.32,169.32,0,0,0,119.2,110c2.83.83,5.68,1.85,8.45,2.93l.07.06c1.23,1.48,2.22,3.18,3.54,4.5,1.7,1.73,3.85,2.51,5.55,4.15A47.2,47.2,0,0,1,140.52,125.7Z" transform="translate(-83.99 0.03)"/><path class="cls-5" d="M127.55,112.83c-2.76-1.09-5.62-2.09-8.45-2.93A165.11,165.11,0,0,1,95,101c-3-1.4-8.78-4.22-9.69-8a11.21,11.21,0,0,0,.35-3.7,28.09,28.09,0,0,0-.73-3.7c1.38,2.53,4.94,4.69,6.95,5.81,2.64,1.48,5.5,2.41,8.07,4a57.43,57.43,0,0,0,9.49,4.63,45.24,45.24,0,0,0,7.8,2.18h0a40,40,0,0,0,6.17,7C124.92,110.57,126.32,111.26,127.55,112.83Z" transform="translate(-83.99 0.03)"/><path class="cls-4" d="M123.19,72.3c-1.77,1.85-1.77,5.46-1.09,8.68l-1.77-.58c-4.11-1.15-14.19-.86-13.79,5.5.13,2.25,2.25,5,3.44,6.88a15.43,15.43,0,0,0,3,3.7c2,1.67,2.7,3.38,4.15,5.5,0,.06.09.12.12.19a45.24,45.24,0,0,1-7.8-2.18A57.43,57.43,0,0,1,100,95.36c-2.57-1.57-5.43-2.51-8.07-4-2-1.12-5.55-3.28-6.95-5.81h0a9.21,9.21,0,0,1,.25-6.3C89.19,69.93,107,72.31,115,72c3.42-.17,6.74-.7,10.05-1.13A7.9,7.9,0,0,0,123.19,72.3Z" transform="translate(-83.99 0.03)"/><path class="cls-6" d="M117.3,102.18" transform="translate(-83.99 0.03)"/><path class="cls-7" d="M314.09,296.88a1.53,1.53,0,0,0-.26.51" transform="translate(-83.99 0.03)"/><path class="cls-8" d="M324.5,301.15c-1-.19-1.89-.87-2.89-1.09a33.44,33.44,0,0,0-3.63-.19h-.16c-1.23-.13-5.72-1.19-3.7-3h0l.27-.23a1.76,1.76,0,0,1,.9-.29h.1a3.93,3.93,0,0,1,.87,0,10.16,10.16,0,0,1,5,1.51C322.28,298.55,324.31,299.81,324.5,301.15Z" transform="translate(-83.99 0.03)"/><path class="cls-8" d="M324.15,286.11c-1.54-.22-2.93-.83-4.6-.93-1.15-.06-3.22.06-4.44-.67a3.46,3.46,0,0,0,1.85-2.38,1,1,0,0,0,0-.32,8.57,8.57,0,0,1,4,1.15C321.67,283.45,324.39,285.3,324.15,286.11Z" transform="translate(-83.99 0.03)"/><path class="cls-8" d="M328.29,254.72a9.21,9.21,0,0,1-4.9-.08c.32-1,1.77-1.35,3-1.57C326.33,253.72,327.1,254.36,328.29,254.72Z" transform="translate(-83.99 0.03)"/><path class="cls-8" d="M410.5,250.41a17.52,17.52,0,0,0-2.64-1.32,11.51,11.51,0,0,0-3.15,0h-.06c-1.44.1-4.18-1.38-3.41-3.09h0a2.43,2.43,0,0,1,.58-.29c3.31-1.54,8-1.12,9.87,1.93C412.78,249.25,413.13,251.53,410.5,250.41Z" transform="translate(-83.99 0.03)"/><path class="cls-2" d="M384.39,238.2c-.71,1.73-4.32,2.57-5.78,3.38a18,18,0,0,1-1.77.87h0a61,61,0,0,1-10.73-1.38,38.43,38.43,0,0,1-7.91-2.51c1.77,0,3.63-.22,5.24-.35a56.38,56.38,0,0,0,9.26-1.41C373.89,236.49,386.46,233.22,384.39,238.2Z" transform="translate(-83.99 0.03)"/><path class="cls-8" d="M278.48,304.05c-.1.22-.22.42-.32.62a15.71,15.71,0,0,0-1.6,4c-2.06-.06-2.06-3.18-1.12-5.55.58-1.44,1.6-2.6,2.64-2.54C279.06,301,278.86,303.25,278.48,304.05Z" transform="translate(-83.99 0.03)"/><path class="cls-8" d="M367.46,257c-.8.06-2.57.16-3.18-.42A.89.89,0,0,1,364,256h0a1.48,1.48,0,0,1,1.39-1.57h.12a3.67,3.67,0,0,1,.83.29C367.24,255.1,367.95,255.9,367.46,257Z" transform="translate(-83.99 0.03)"/><path class="cls-9" d="M167.92,95.15a37.86,37.86,0,0,1-4.24-1.51,84.7,84.7,0,0,0-19-6c-3.28-.54-9.19-1.44-13.37-.06-1-.93-2-1.89-2.57-2.47A20.66,20.66,0,0,0,122.06,81c-.68-3.22-.68-6.79,1.09-8.68A7.9,7.9,0,0,1,125,70.86h0c2.86-1.6,6.56-1.41,9.6-.2h0c.28.11.56.23.83.36a80.36,80.36,0,0,1,18,11.92c3,2.64,6.17,4.94,9,7.75A34.56,34.56,0,0,0,167.92,95.15Z" transform="translate(-83.99 0.03)"/><path class="cls-5" d="M174.46,99c-5.43-.77-10.93-2.19-16.49-2.47-6.62-.32-18.42,1.64-19.31,10,0,.39-.07.77-.07,1.16-2.09-1.73-4.14-3.44-6.36-5.08-3.09-2.25-6.36-6.3-5.49-10.35a6.3,6.3,0,0,1,4.65-4.73c4.18-1.38,10.09-.48,13.37.06a84.7,84.7,0,0,1,19,6A37.86,37.86,0,0,0,168,95.14c1.06.7,2.15,1.35,3.21,2S173.32,98.36,174.46,99Z" transform="translate(-83.99 0.03)"/><path class="cls-4" d="M194.6,160.48c-2.93-2.22-6.36-4.11-9.1-6.23-4.24-3.18-9-5.88-13.08-9.38a104,104,0,0,1-11.92-11.38c-3.15-3.63-6.27-7.46-9.48-11-4.32-4.69-12.37-7.65-12.44-14.81a6.66,6.66,0,0,1,.07-1.16c.89-8.36,12.69-10.31,19.31-10,5.55.25,11.06,1.67,16.49,2.47h0c1.31.7,2.64,1.44,4,2.12a60.48,60.48,0,0,0,6.59,3,13,13,0,0,0-1.85,6A119.22,119.22,0,0,0,183,123a16.28,16.28,0,0,0,.62,5.55,47.07,47.07,0,0,0,2.31,4.55c4.23,7.55,3.84,16.18,7.17,24.07C193.59,158.31,194.08,159.4,194.6,160.48Z" transform="translate(-83.99 0.03)"/><line class="cls-7" x1="101.09" y1="104.18" x2="101.06" y2="104.18"/><path class="cls-6" d="M433.27,152.71c0,8.81-.86,18.16-4.79,26.13a35,35,0,0,1-5.78,8.52c-4.18,4.15-7.41,10.09-11.89,14.08-7.52,6.55-16.66,12.4-25.19,17.55-9.58,5.75-19.64,8.17-30,12.11-1.6.62-3.15,1.16-4.72,1.67a3,3,0,0,0,.62.52,14.81,14.81,0,0,1-1.7.46c-3.36.65-6.79,1.13-10.16,1.85-2.36.5-4.62,1.34-6.79,1.8v-.23c-3.47.62-7,1.16-10.6,1.67-9.55,1.35-19.13-.19-28.7-.29a94.49,94.49,0,0,1-10.9-.7c-.13.19-.29.41-.42.57-2.6,3.67-2.12,7.68-2.54,11.92a4.47,4.47,0,0,1-.8,2.54c-.77.9-2.38,1.06-3.47,1.57-.57.29-.54.22-.89.77a12.42,12.42,0,0,0-.77,1.48,6.74,6.74,0,0,1-2,2.6c-1.7,1-3,.19-3.76-1.38a40.13,40.13,0,0,1-2.18-6.49,31.4,31.4,0,0,0-1.28-3.44,6.65,6.65,0,0,0-2.06-2.15,6.27,6.27,0,0,1-2.31-3.15c-.38-1.38-.45-2.76-.87-4.12-.62-1.93-2.25-3.21-2.93-5-.54-1.35,0-3.09,0-4.32C253,227,250.54,224.14,247,221c-2.57-2.31-5.55-4-8-6.33-2.64-2.6-5-5.59-7.58-8.17-6.23-6.17-12.53-12.15-18.29-18.61-2.83-3.15-5.11-6.52-7.62-9.87-2.31-3.15-5.46-5.82-8.26-8.58a16.36,16.36,0,0,0-3.09-2.6c-3-1.77-5.95-2.47-8.94-4.6-4.32-3.09-9.26-5.65-13.5-8.93-4.67-3.65-9-7.73-13.31-11.43-3.89-3.31-8-6.71-11.66-10.09-2.06-1.9-4.12-4.05-6.24-6.05a47.2,47.2,0,0,0-3.77-4.17c-1.67-1.64-3.82-2.41-5.55-4.15-1.32-1.31-2.31-3-3.54-4.5l-.07-.06c-1.28-1.57-2.67-2.25-4.11-3.6a40,40,0,0,1-6.17-7h0c0-.06-.09-.12-.12-.19-1.44-2.12-2.18-3.83-4.15-5.5a15.43,15.43,0,0,1-3-3.7C108.82,91,106.7,88.2,106.57,86c-.41-6.36,9.68-6.65,13.79-5.5.62.2,1.23.39,1.77.58a20.66,20.66,0,0,1,6.73,4.09c.53.52,1.53,1.52,2.53,2.44a6.3,6.3,0,0,0-4.63,4.72c-.87,4,2.44,8.1,5.49,10.35,2.22,1.64,4.28,3.35,6.36,5.08.07,7.17,8.13,10.12,12.44,14.81,3.21,3.51,6.33,7.33,9.48,11a105.52,105.52,0,0,0,11.86,11.34c4.11,3.5,8.84,6.17,13.08,9.38,2.73,2.12,6.17,4,9.1,6.23a31.61,31.61,0,0,0,7.23,10,202.23,202.23,0,0,0,16,13c12.4,9.38,26.31,16.4,40.42,22.76,6.44,2.9,12.89,5.88,19.19,9s13,6.23,20.16,6.51c4,.16,7.41-.54,11.38-1.23,3.44-.58,6.89-.54,10.33-1a35.45,35.45,0,0,0,16.37-7.17,23,23,0,0,0,3.94-4.57c3.2-3.49,4-3.41,7-6.5a121.45,121.45,0,0,0,12.8-14.81c4.83-7,4.36-14.69,4.36-22.9a3.34,3.34,0,0,0-1.09-1.31,16.66,16.66,0,0,1-1.41-1.18c-2-2-3.55-4.21-5.71-6.09-5.16-4.49-8.11-9.82-12.42-14.89a104,104,0,0,1-8.94-12.76c-2.25-3.6-3.84-7.25-5.8-10.94-3.48-6.55-6-12.34-7-19.85-.62-4.54-.65-11.32,2.76-14.88,2.09-2.18,5-3.7,7.18-5.85a24.37,24.37,0,0,0,2.51-3.37h.56a10.29,10.29,0,0,1,.28-1h0c.7-2.27,2-4.55,2.8-6.79a50.78,50.78,0,0,0,2.38-9c.45-3.18,1.8-6.23,1.35-9.61-.19-1.51-1.16-2.89-1.09-4.47s1.15-3.79,1.64-5.4c1-3.5,3.15-6.59,4.22-9.87.83-2.7.86-5.75,1.48-8.55C349.3,9,353.84,3.35,363.17,1.17c7.65-1.8,15.43-1.06,20.85,4a19.87,19.87,0,0,1,4.6,7.41c1.23,3.22,1.57,6.59,2.7,9.77,1.09,3,3.35,5.08,4.63,8.64,1.64,4.5,3.47,8.84,5.08,13.31,4.63,12.89,11,24.55,17.52,36.7,7.84,14.81,11.47,32,13.79,48.4C433.39,137,433.27,145,433.27,152.71Z" transform="translate(-83.99 0.03)"/><path class="cls-6" d="M359.39,186.48a123.74,123.74,0,0,1-12.73,14.81c-3,3.09-3.8,3-7,6.5a23.21,23.21,0,0,1-3.94,4.57,35.45,35.45,0,0,1-16.33,7.17c-3.43.45-6.89.41-10.33,1-4,.67-7.33,1.36-11.38,1.23-7.11-.28-13.85-3.4-20.16-6.51s-12.74-6.09-19.19-9c-14.11-6.41-28-13.43-40.42-22.79a199,199,0,0,1-16-13,31.61,31.61,0,0,1-7.25-10c-.51-1.06-1-2.17-1.51-3.35-3.33-7.9-2.94-16.52-7.17-24.07a47.07,47.07,0,0,1-2.31-4.55c-.62-1.44-.57-3.83-.62-5.55a119.22,119.22,0,0,1,.2-12.86,13,13,0,0,1,1.85-6,60.48,60.48,0,0,1-6.59-3c-1.35-.67-2.67-1.41-4-2.12h0c-1.13-.62-2.22-1.29-3.31-1.9a31.47,31.47,0,0,1-3.21-2,34.56,34.56,0,0,1-5.6-4.42c-2.83-2.83-6-5.11-9-7.75A80.36,80.36,0,0,0,135.46,71c-.27-.13-.54-.25-.83-.36,3.65.62,7.29,2,10.94,2.39,10.92,1.23,21.43,2.7,32.23,4.79,6.52,1.28,13,1.28,19.54,2.8,6.17,1.48,12.63,2.51,18.71,4.24q3.18.93,6.17,1.7l.07.26a1.15,1.15,0,0,1-.32,0l.45.52-.13-.55a113.69,113.69,0,0,0,14.3-2.22c8.23-1.64,16.81-2.31,25.17-3.18,8-.86,15.87-1,23.62-2.93,8.87-2.12,17.93-3.18,27.06-4.43A182.8,182.8,0,0,1,332,72.45h1.78a24.37,24.37,0,0,1-2.51,3.37c-2.15,2.17-5.09,3.7-7.18,5.85-3.41,3.55-3.38,10.34-2.76,14.88,1,7.5,3.5,13.3,7,19.85,2,3.7,3.54,7.33,5.8,10.94a104,104,0,0,0,8.94,12.76c4.32,5.07,7.26,10.39,12.42,14.89a73.26,73.26,0,0,1,5.71,6.09,16.66,16.66,0,0,0,1.41,1.18,3.34,3.34,0,0,1,1.09,1.31C363.75,171.8,364.22,179.47,359.39,186.48Z" transform="translate(-83.99 0.03)"/><path class="cls-10" d="M380.77,44.11c-.25,3.93-1.8,8-3.09,11.44A24.83,24.83,0,0,0,376,61.82c-.19,2.41.16,5.33-1.06,7.52-2.28,4-5.21-3.63-5.82-5.27a26.8,26.8,0,0,0-3.09-6.62c-1.09-1.51-2.19-3-3.25-4.56a15.81,15.81,0,0,1-2.43-6.08c-.1-.52-.22-1.09-.32-1.7h.13c1.64.29,2.86.32,4.24,1.23,1.67,1.12,5.8,3.09,11.73.67a41.1,41.1,0,0,0,4-2.37A4.81,4.81,0,0,0,380.77,44.11Z" transform="translate(-83.99 0.03)"/><path class="cls-11" d="M380.77,44.08h0a8.64,8.64,0,0,1-.67.62A18.77,18.77,0,0,1,377,46.55a10.66,10.66,0,0,1-2,.92,11.9,11.9,0,0,1-10.43-1.13,8.86,8.86,0,0,0-4.24-1.23h-.13A3.37,3.37,0,0,1,357.81,43a8.54,8.54,0,0,1-.74-4.32c1,.26,1.09,1.48,2.35.84s2.28-2.47,3.41-3.41c1.45-1.13,3.09-2.28,5.08-2,1.35.19,1.93,1.23,2.83,2,.48-1.51,2.64-1.9,4-2a4.27,4.27,0,0,1,3.7,1.12,13.48,13.48,0,0,1,2.86,3.34c1,1.31.93.68,2.28.13C383.79,40.16,382.09,42.7,380.77,44.08Z" transform="translate(-83.99 0.03)"/><path class="cls-9" d="M353.68,33.7c-.22,1.06-.22,2.47-1.41,2.8-.9.22-1.8-.93-1.73-1.8s.38-1.19-.38-1.85c-.55-.45-1.15-.8-1.67-1.28a2.7,2.7,0,0,1-.26-3.15,4.78,4.78,0,0,0,1.54,1.35c.42.19,1.57.74,2,.32s.06-1.41-.13-2.06a2.21,2.21,0,0,1-.13-.32c-.29-.83-.58-1.73-.9-2.6s-.58-1.57-.87-2.38c-.16-.42-.29-.83-.42-1.23a15.33,15.33,0,0,1-.22-1.64,1.62,1.62,0,0,0-.16-.42.35.35,0,0,0-.06-.16h0v-.67c0-.45-.13-1.28.19-1.64.67-.8,1.64.19,1.77.9.19,1.19,0,2.47.13,3.67A19.13,19.13,0,0,0,352,25.62c.45,1.41,1.41,2.64,1.8,4.12A8.64,8.64,0,0,1,353.68,33.7Z" transform="translate(-83.99 0.03)"/><path class="cls-9" d="M391.22,29.14c-.22,1.19-1,1.7-1.57,2.67-.48.74-.55,2.12-1.7,1.85a2.37,2.37,0,0,1-1.85-1.51c-.83-2.09-.1-4.66.38-6.79.32-1.48.42-2.93.87-4.37a17.87,17.87,0,0,1,1.23-3.7c.38-.62,1-1.23,1.77-.62.58.48.55,1.6.48,2.31-.06-.22-.19-.35-.35-.35a.41.41,0,0,0-.22.13c-.67.62-1,3-1.15,3.92A2,2,0,0,1,389,23l-.66,3.4a3,3,0,0,1-.13.51,13.13,13.13,0,0,0-.67,2.47c-.1,1.09.55.77,1.15.22a8.42,8.42,0,0,0,2.06-2.8,2.23,2.23,0,0,0,.16-.42A4.66,4.66,0,0,1,391.22,29.14Z" transform="translate(-83.99 0.03)"/><path class="cls-12" d="M391.44,22.46a11.19,11.19,0,0,1-.51,3.86h0a2.23,2.23,0,0,1-.16.42,8.42,8.42,0,0,1-2.06,2.8c-.62.55-1.23.87-1.15-.22a13.13,13.13,0,0,1,.67-2.47,2.56,2.56,0,0,0,1.31-1.51,2.92,2.92,0,0,0-.45-2.7c.16-.9.48-3.28,1.15-3.92a.41.41,0,0,1,.22-.13c.16,0,.29.13.35.35a6.1,6.1,0,0,1,.32,1.28A8,8,0,0,1,391.44,22.46Z" transform="translate(-83.99 0.03)"/><path class="cls-13" d="M389.55,25.37a2.56,2.56,0,0,1-1.31,1.51,3,3,0,0,0,.13-.51L389,23a2,2,0,0,0,.06-.29A2.92,2.92,0,0,1,389.55,25.37Z" transform="translate(-83.99 0.03)"/><path class="cls-12" d="M351.78,30.07c-.45.42-1.6-.13-2-.32a4.78,4.78,0,0,1-1.54-1.35A2.47,2.47,0,0,0,348,28a7.36,7.36,0,0,1-1.48-6.1,3,3,0,0,1,1.35-1.89,11.18,11.18,0,0,1,1.06-.58l.06-.06a1.62,1.62,0,0,1,.16.42,15.33,15.33,0,0,0,.22,1.64c.13.42.26.83.42,1.23-.35,0-.71,0-.9.29a3.19,3.19,0,0,0-.16,1.48,3.51,3.51,0,0,0,1.12,2.8,2.47,2.47,0,0,0,1.85.74C351.85,28.64,352.17,29.64,351.78,30.07Z" transform="translate(-83.99 0.03)"/><path class="cls-13" d="M351.65,28a2.47,2.47,0,0,1-1.85-.74,3.51,3.51,0,0,1-1.12-2.8,3.19,3.19,0,0,1,.16-1.48c.19-.29.55-.29.9-.29.29.8.58,1.6.87,2.38s.62,1.77.9,2.6A2.21,2.21,0,0,0,351.65,28Z" transform="translate(-83.99 0.03)"/><path class="cls-9" d="M359.39,186.48a123.74,123.74,0,0,1-12.73,14.81c-3,3.09-3.8,3-7,6.5a23.21,23.21,0,0,1-3.94,4.57,35.45,35.45,0,0,1-16.33,7.17c-3.43.45-6.89.41-10.33,1-4,.67-7.33,1.36-11.38,1.23-7.11-.28-13.85-3.4-20.16-6.51s-12.74-6.09-19.19-9c-14.11-6.41-28-13.43-40.42-22.79a199,199,0,0,1-16-13,31.61,31.61,0,0,1-7.25-10c-.51-1.06-1-2.17-1.51-3.35-3.33-7.9-2.94-16.52-7.17-24.07a47.07,47.07,0,0,1-2.31-4.55c-.62-1.44-.57-3.83-.62-5.55a119.22,119.22,0,0,1,.2-12.86,13,13,0,0,1,1.85-6c1.64-2.57,4.32-4.15,8-4.89,9.07-1.81,18.33-2.76,27.51-4.27,14.31-2.36,28.11-6.85,42.39-9.06,4.15-.62,8.49-.75,12.77-1a57.87,57.87,0,0,0,12.4-1.6c4.1-.44,7-2.33,10.87-2.74,4.62-.48,9.19-.37,13.76-1a40.63,40.63,0,0,0,11.25-3.37c2.64-1.17,5.22-2.47,8-3.74.83-.37,1.68-.73,2.56-1.09h0a12,12,0,0,0-.77,1h0a24.37,24.37,0,0,1-2.51,3.37c-2.15,2.17-5.09,3.7-7.18,5.85-3.41,3.55-3.38,10.34-2.76,14.88,1,7.5,3.5,13.3,7,19.85,2,3.7,3.54,7.33,5.8,10.94A104,104,0,0,0,343.13,140c4.32,5.07,7.26,10.39,12.42,14.89a73.26,73.26,0,0,1,5.71,6.09,16.66,16.66,0,0,0,1.41,1.18,3.34,3.34,0,0,1,1.09,1.31C363.75,171.8,364.22,179.47,359.39,186.48Z" transform="translate(-83.99 0.03)"/><path class="cls-14" d="M352.89,235c0,1.32-1.74,2.7-2.51,3.64-.93,1.09-1.93,2.09-2.89,3.15a18.83,18.83,0,0,1-3.8,2.73c-.7.41-1.41,1.12-2.12,1.48a21.29,21.29,0,0,1-1.85-1.67c-1.61-1.35-3.8-2-5.37-3.44a4.28,4.28,0,0,1-1.51-3.47c2.19-.46,4.45-1.3,6.79-1.8,3.39-.72,6.79-1.19,10.16-1.85a14.81,14.81,0,0,0,1.7-.46C352.15,233.75,352.89,234.14,352.89,235Z" transform="translate(-83.99 0.03)"/></svg>