<svg id="p4" xmlns="http://www.w3.org/2000/svg" viewBox="0 0 188.11 268.51"><defs><style>.cls-1{fill:#c8c3c2;stroke:#c8c3c2;}.cls-1,.cls-10,.cls-11,.cls-2,.cls-3,.cls-5,.cls-6,.cls-7,.cls-8,.cls-9{stroke-miterlimit:10;stroke-width:0.67px;}.cls-2,.cls-9{fill:none;}.cls-11,.cls-2{stroke:#000;}.cls-3{fill:#d27793;stroke:#d27793;}.cls-4{fill:#943a52;}.cls-5{fill:#7388a0;stroke:#7388a0;}.cls-6{fill:#526680;stroke:#526680;}.cls-7{fill:#c8d4e4;}.cls-7,.cls-9{stroke:#c8d4e4;}.cls-8{fill:#c78b7a;stroke:#c78b7a;}.cls-10{fill:#fdfdfe;stroke:#fdfdfe;}</style></defs><title>pigeon-svg-4</title><path class="cls-1" d="M110.64,245.53h0c-.41.52-.81,1-1.19,1.57a11.45,11.45,0,0,0-2.06-1.45,35.11,35.11,0,0,0-4.5-1.1,3.89,3.89,0,0,0,.44-3.36,1,1,0,0,0-.11-.26,9.24,9.24,0,0,1,5.37.9A4.63,4.63,0,0,1,110.64,245.53Z" transform="translate(0.11 -23.8)"/><path class="cls-2" d="M48,268.07v.06a2.36,2.36,0,0,1,.29.26" transform="translate(0.11 -23.8)"/><path class="cls-1" d="M85.1,286a25.5,25.5,0,0,1-2.56-3.7,15.31,15.31,0,0,1-.79-2.23,3.07,3.07,0,0,0,1.27-.72,2.93,2.93,0,0,0,.5-.55C84.49,281.08,86.12,284.83,85.1,286Z" transform="translate(0.11 -23.8)"/><path class="cls-1" d="M101.22,261.86a37.23,37.23,0,0,1-3.54,2.62c-1,.5-2.41,2.06-3.22,2.23,0-2.64,2.32-5.37,4.94-6.33.76.17.76.52,1.68,1.34A.52.52,0,0,0,101.22,261.86Z" transform="translate(0.11 -23.8)"/><path class="cls-2" d="M58.41,222a.35.35,0,0,0-.15-.15" transform="translate(0.11 -23.8)"/><path class="cls-3" d="M102.88,244.57a4.21,4.21,0,0,1-3.87,1.8,9,9,0,0,0-4.09.46c-1.95.76-3.52,2-5.58,2.58a16.78,16.78,0,0,1-10.14-.32,53.54,53.54,0,0,1,1,6.48c.41,3,1.1,6,1.54,8.89a82.57,82.57,0,0,0,1.92,9.14c.46,1.8,1,3.66-.17,5.17a2.93,2.93,0,0,1-.5.55,3.07,3.07,0,0,1-1.27.72c-3.28.85-4.62-7.93-5.4-9.9C74.27,265,72.67,259.82,71,254.51c-.93-3-3.13-9.76-7.46-5.69-1.95,1.83-3.54,5-5,7.26a53.06,53.06,0,0,0-3.43,6.13c-1.27,2.56-3.43,9.29-7.2,8.51.41-1.1.52-2.09.11-2.62-.81-.61-1.6-.29-2.29.52-.44-3.89,5.86-12.57,7.09-14.7,1.83-3.13,3-6.65,5-9.7s4.21-7.38,4.07-11.33c-.17-3.78-.32-8.39-3.48-11,2.56-.09,3.92-1.95,6.39-.72a16.66,16.66,0,0,1,2.88,1.45c1.27,1,1,1.68,1.27,3.11a20.29,20.29,0,0,0,9.88,13.94A14,14,0,0,0,82.66,241c1.45.46,2.85,1.31,4.48.85,3-.85,5.52-3,8.8-3,2,0,6.33-.06,7.26,2.09a1,1,0,0,1,.11.26A3.89,3.89,0,0,1,102.88,244.57Z" transform="translate(0.11 -23.8)"/><path class="cls-3" d="M159.63,256.89a1.64,1.64,0,0,1-2,.61c-1.74-.5-3.54-2.76-5-3.83a20.83,20.83,0,0,0-6.13-2.88c-2.82-1-5-3.17-8-3.78a26.47,26.47,0,0,0-6.27-.26c.9,3.25.46,7.15.67,10.37.2,3.48.61,6.8.61,10.37,0,3.11-.46,6.19-.61,9.27-.09,1.83-.23,4.48-1.6,6a8.88,8.88,0,0,0-.06-1.77,1.13,1.13,0,0,0-.67-1,1.74,1.74,0,0,0-.72-.38,1.18,1.18,0,0,1-.26.15,4.7,4.7,0,0,0-1.34.9,5.08,5.08,0,0,0-1.13,2.47v.15l-.09-.06c-2.12-2.53-1.42-10.11-1.51-11.94A139,139,0,0,0,124,257.25c-.5-3.28.29-9.76-4.18-10.51-1.89,1.31-3.17,3.52-4.91,5.08-3.52,3.19-7.09,6.27-10.86,9.12-1.07.85-1.8,1.71-2.79.93a.52.52,0,0,1-.15-.11c-.93-.85-.93-1.19-1.68-1.34a7.27,7.27,0,0,0-1.19-.15c1.34-1.83,2.91-3.54,4.39-5.31,2.12-2.56,4.53-4.59,6.51-7.29.11-.17.23-.32.35-.5.38-.52.79-1,1.19-1.57h0c.79-1.07,1.57-2.15,2.27-3.28a17.37,17.37,0,0,0,2.82-7.84.94.94,0,0,0,.5.09c1.48-.11,2.68-2.68,3.69-3.63,1.25-1.19,3.43-2.41,5.2-1.74,1.34.52,1.68,2.12,2.79,2.82a1.85,1.85,0,0,0,.41-.23l.5.67c.67,1,1.19,2.09,1.8,3.13,1.31,2.18,3.54,3.25,5.72,4.44a14.09,14.09,0,0,0,3.66,1.16,46.53,46.53,0,0,1,5.37,2.06c3.13,1.19,6.16,2.64,9.21,4.07,2.53,1.22,4.35,2.68,5.14,5.17C157.16,252.85,158.1,254.85,159.63,256.89Z" transform="translate(0.11 -23.8)"/><path class="cls-1" d="M131.26,282.8h0a6.36,6.36,0,0,1-.23,1.34,28.46,28.46,0,0,1-1.1,3c-.46,1.13-1.1,2.15-1.66,3.25-.26.52-.67,1.25-1.31,1.4-.2,0-.85.29-1,.15s.15-1.16.2-1.34c.17-.61.41-1.19.58-1.83.5-1.77.09-3.66.32-5.43v-.15a5.08,5.08,0,0,1,1.13-2.47,4.7,4.7,0,0,1,1.34-.9,1.05,1.05,0,0,1,.32-.08,1.42,1.42,0,0,1,.67.32,1.13,1.13,0,0,1,.67,1A8.88,8.88,0,0,1,131.26,282.8Z" transform="translate(0.11 -23.8)"/><path class="cls-1" d="M47.92,270.74c-.93,2.5-3.28,5.58-4.56,5.46a14.44,14.44,0,0,1,2.38-7.55c.67-.81,1.48-1.13,2.29-.52C48.46,268.66,48.33,269.64,47.92,270.74Z" transform="translate(0.11 -23.8)"/><path class="cls-1" d="M163.2,261.45c-.15-.67-2.09-2.64-3.54-4.56s-2.47-4,0-4.48c.06.06.06.15.09.2,1.62.23,2.5,1.8,3,3.25C163.2,257,164.13,260.46,163.2,261.45Z" transform="translate(0.11 -23.8)"/><path class="cls-4" d="M128.31,231.71a1.85,1.85,0,0,1-.41.23c-1.1-.67-1.45-2.29-2.79-2.82-1.77-.67-4,.55-5.2,1.74-1,1-2.21,3.52-3.69,3.63a.94.94,0,0,1-.5-.09c-1.07-.29-1.34-1.86-1.8-2.79-1.22-2.47-3.25-5-2.18-7.67.87-2.23,4.07-2.58,6.19-3.36a24.74,24.74,0,0,0,6.42-3.25,7,7,0,0,1,2.76,1.66C129.83,221.54,132.15,229.31,128.31,231.71Z" transform="translate(0.11 -23.8)"/><path class="cls-5" d="M118.63,40.66h0Z" transform="translate(0.11 -23.8)"/><path class="cls-5" d="M122.57,46.6a3.05,3.05,0,0,1-1.34-2.14,26.62,26.62,0,0,0,2.25,2.81C123.15,47.06,122.85,46.83,122.57,46.6Z" transform="translate(0.11 -23.8)"/><path class="cls-5" d="M157.83,71a48,48,0,0,0-11.77-11.74c4.33,2.93,8.55,6.31,11.24,10.79A4.55,4.55,0,0,1,157.83,71Z" transform="translate(0.11 -23.8)"/><path class="cls-5" d="M187.66,118c0,11.11-.78,21.74-4.07,32.21a141.87,141.87,0,0,1-11.81,26.52c-2,3.63-3.58,6.91-6.55,9.88a71.09,71.09,0,0,0-8,10.13c-3.13,4.52-8.19,8.19-12.66,11.52a28.7,28.7,0,0,1,1.22-4.6c-2.36,2.48-4,4.57-7.38,5.94-6.8,2.78-12.88,8.18-19.78,10.74-5.37,2-10.88,3.36-15.68,6.88-2.42-1.6-5-5.51-8.05-5.84-1.78-.19-2.68,1.42-4.19,2.43a50.39,50.39,0,0,1-5.31,2.87c-3.52,1.82-4.84,1.89-8.6.45-2.58-1-5.05-.87-7.38-2.49-1.78-1.24-4.29-4.46-6.75-4-1.46.28-1.58,1.52-3.32,1.52-1,0-2.33-.84-3.31-1.27-6.71-3-12.41-7.81-17.8-12.64-4.6-4.14-8.85-10.39-8.72-16.59-1-1-3-1.14-4.44-1.89A41.28,41.28,0,0,1,20,186.52c-3.4-2.56-7.68-5.77-9.78-9.64-4.31-7.9-6.17-17-7.3-25.74C1.91,143.68,0,136.3.25,128.67c.38-9.89,3.58-18.86,6.15-28.36A84.22,84.22,0,0,1,10.9,86.6C12.1,84,14.47,78,17.19,76.89c.27-1.56-1.26-2.1-2.19-3.09.47-4.64,6.36-9.3,9.11-12.82A31.07,31.07,0,0,1,30,55.44C23.07,67.33,13.8,93,13,100.68c-1.09,11-.17,23.08,1.3,33.92,2.48,18.31,6.71,42.65,25,51.43,27.26,13.08,59.54,12.08,88.4,7.34,14-2.28,27.62-11.41,34.6-23.88,6.29-11.22,8.19-21.42,9.23-33.83a84.32,84.32,0,0,0-1.34-23.18,28.78,28.78,0,0,0,0-5.21c-.4-3.13-1-5.92-1.67-9-1.43-6.6-2-14.49-5-20.49-3.09-6.35-5.49-13.06-11.28-17.88-4.8-4-9.17-8.6-15.24-11.05-5.85-2.37-10.56-6.49-16.18-9.15a6.33,6.33,0,0,1,2.44-.5c1.7,0,3.31.1,5,.17A38.41,38.41,0,0,1,139.84,42c4,1.43,7.47,2.25,11.08,4.58a65.3,65.3,0,0,1,8.92,6.55,47.36,47.36,0,0,1,6.51,8.05c2.8,4-2.91,1.42-4.82.67,1.85,1.92,4.84,3.36,7.15,4.7,3.95,2.28,6.71,6.13,9.67,9.5,2.24,2.58,6.29,7.86,4,11.27,2.34,2.73,2.48,9.85,3.19,13.25A86.19,86.19,0,0,1,187.66,118Z" transform="translate(0.11 -23.8)"/><path class="cls-5" d="M164.41,89.57h0c0,6.5-2.25,13.49-4.15,19.4-2.52,7.86-6.22,16.65-10.79,23.4-2.42,4.7-6.56,8.58-11.23,11.9a118.39,118.39,0,0,1-14.47,8.41c-6.71,3.46-13.36,7.72-21.08,8.25-14,1-31.43-2.12-42.38-11.47-4.91-4.21-9.73-7.58-13.65-12.87-3.25-4.44-6.25-8.86-9.53-13.1-5.44-7-6.78-17.36-7-25.68a36.41,36.41,0,0,1,2.21-12.49,21.43,21.43,0,0,1-2.21-8.17A46.16,46.16,0,0,1,31.82,64.2a88.82,88.82,0,0,1,4-11.53l-.21-.21c-.71-1.08.3-4,1-5.27,1.6-2.93,4.58-5,6.71-7.49a55.64,55.64,0,0,1,10.38-9.94c2.2-1.54,5.16-4.33,7.66-5.25a6.15,6.15,0,0,0-.8,2.09,21.58,21.58,0,0,1,10-2.46c-.38.24-.85.67-1.15.87a13.21,13.21,0,0,1,2.46-.34c5.86-.29,11.41,1.05,16.86,2.8,4.56,1.47,9.36,2.29,14,3.55,1.52.42,4.7,1,5.68,2.44.82,1.15.57,2.72,1.7,4a8.82,8.82,0,0,0,4.48,2.21C116,40,117,41,118.4,40.68l.22-.05a7.86,7.86,0,0,1,2,1.91c1.05,1.82,0,2.47,2,4,3.71,3,9.29,4.51,13.61,6.67,9.34,4.7,18.67,11.54,23.69,21,2.45,4.62,2.94,10.07,4.21,14.82V89A3.06,3.06,0,0,0,164.41,89.57Z" transform="translate(0.11 -23.8)"/><path class="cls-6" d="M73.17,112.77c-2.58,3.92-2.27,8.05-1.83,12.49.15,1.34,0,4.27-1.4,5-1.22.61-1.68-2.18-1.92-2.91-.67-2.12-1-4.39-1.68-6.54a10.62,10.62,0,0,0-1-2.62c-.2-.35-.41-.87-.67-1.34a1.88,1.88,0,0,0,.76-.85c.32-1-.38-2.09-.79-2.93a21.63,21.63,0,0,1-.85-2.38,7.29,7.29,0,0,1-.67-2.18c0-.76,0-1.48-.06-2.21.38-.44.76-.85,1.16-1.25a17.67,17.67,0,0,1,2.41-1.66,5.4,5.4,0,0,0,.9-.76,4.7,4.7,0,0,0,1.68.11c.46,0,.81-.26,1.16.09s.09.67.23,1c.29.67,1.34.67,2.06.67s1.54-.58,2,0c.32.38.23,1.42.29,1.92a8.59,8.59,0,0,1,.09,2.12C75,110.21,74,111.37,73.17,112.77Z" transform="translate(0.11 -23.8)"/><path class="cls-7" d="M74,61.14a5.54,5.54,0,0,0-1.39-.52,5,5,0,0,0-2.52.83,9.86,9.86,0,0,1-1.93.48c-.86.24-1.74.43-2.58.74a4.76,4.76,0,0,0-2.32,1.81,9.09,9.09,0,0,0-1.66,2.68,6,6,0,0,0,.34,5c.67,1.11,1.86,2,2.23,3.36a10.23,10.23,0,0,0,.42,1.62c.21.46.42.15.81.5A5.51,5.51,0,0,1,66.17,79c.24.45.36.95.59,1.39s.43.9.82.79a5.44,5.44,0,0,0,.67-.55c.27-.22.51-.47.78-.67a39.5,39.5,0,0,0,3.72-2.82c.74-.74,1.63-1.62,1.61-2.74,0-.67-.34-1.62.11-2.24.11-.16.3-.1.4-.22a2.08,2.08,0,0,0,.1-.74c0-.56.21-1.13.27-1.7a10,10,0,0,0,0-4.07,2.6,2.6,0,0,0-.79-1.18c-.25-.23-.78-.44-1-.67-.67-.95.71-1,.82-1.76A.59.59,0,0,0,74,61.14Z" transform="translate(0.11 -23.8)"/><path class="cls-8" d="M73.33,68.5a4.93,4.93,0,0,0-2.62-4c-2.22-1.15-4.25,1.06-5.28,2.74a5.74,5.74,0,0,0-1,3.47,6.78,6.78,0,0,0,.76,2.63,4,4,0,0,0,2.64,1.88,4,4,0,0,0,3.25-.62,11.41,11.41,0,0,0,1.79-2.76,6.27,6.27,0,0,0,.47-2.93A3.64,3.64,0,0,0,73.33,68.5Z" transform="translate(0.11 -23.8)"/><path class="cls-9" d="M32.36,85.31c.41,1,.83,1.94,1.21,2.9,1.84,4.6,3.49,8,6.71,11.78s7.82,3.72,12.7,2.23" transform="translate(0.11 -23.8)"/><path class="cls-7" d="M65.44,116a1.88,1.88,0,0,1-.76.85,4,4,0,0,1-1.51.67c-1,.17-1.31-.35-1.89-1.13a33.07,33.07,0,0,1-2.91-4.13,27.06,27.06,0,0,1-1.16-2.88,3.21,3.21,0,0,1,.76-.44c.2-.11.61-.15.79-.23a3.29,3.29,0,0,0,.38-.46,4,4,0,0,1,1.68-.23c.85-.06,1-.41,1.57-1a9,9,0,0,0,.67-.76c0,.72,0,1.45.06,2.21a7.29,7.29,0,0,0,.67,2.18c.29.81.5,1.62.85,2.38S65.76,115,65.44,116Z" transform="translate(0.11 -23.8)"/><path class="cls-10" d="M69.48,99.7a9.47,9.47,0,0,1-1.92,2.93,5.4,5.4,0,0,1-.9.76A17.67,17.67,0,0,0,64.25,105c-.41.41-.79.81-1.16,1.25l-.67.76c-.58.55-.72.9-1.57,1a4,4,0,0,0-1.68.23,3.29,3.29,0,0,1-.38.46c-.17.09-.58.11-.79.23a3.21,3.21,0,0,0-.76.44,4.8,4.8,0,0,0-1,1c-.41.52-.41.67-1.16.35a8.62,8.62,0,0,1-2-1.34,6.34,6.34,0,0,1-2-4.15c-.27-1.6.52-2.06,1.92-2.73.87-.44,2.29-1,3,.06A12.05,12.05,0,0,1,57,99.64c1.4-2,3.43-3,5.49-4.18,1-.52,2-1,3-1.51.41-.17,1.86-1.34,2.23-1.19a6.63,6.63,0,0,1,1.86,2.53C70.29,96.54,70,98.42,69.48,99.7Z" transform="translate(0.11 -23.8)"/><path class="cls-11" d="M67.73,72.89c-2.18-1.25-1.86-5.81,1.07-5.6a2.29,2.29,0,0,1,2.12,1.51C71.8,70.8,70.32,74.4,67.73,72.89Z" transform="translate(0.11 -23.8)"/><path class="cls-7" d="M160.26,109c-2.87,7.74-6.22,16.65-10.79,23.4-2.42,4.7-6.56,8.58-11.23,11.9a118.41,118.41,0,0,1-14.47,8.41c-6.71,3.46-13.36,7.72-21.08,8.25-14,1-31.43-2.12-42.38-11.47-4.91-4.21-9.73-7.58-13.65-12.87-3.25-4.44-6.25-8.86-9.53-13.1-5.44-7-6.78-17.37-7-25.69a36.41,36.41,0,0,1,2.21-12.49,21.43,21.43,0,0,1-2.21-8.17A46.16,46.16,0,0,1,31.82,64.2a88.82,88.82,0,0,1,4-11.53,2.5,2.5,0,0,0-.67.15A16.17,16.17,0,0,0,30,55.5c-6.88,11.88-16.16,37.58-16.91,45.23-1.09,11-.17,23.08,1.3,33.92,2.48,18.31,6.71,42.65,25,51.43,27.26,13.08,59.54,12.08,88.4,7.34,14-2.28,27.62-11.41,34.6-23.88,6.29-11.22,8.19-21.42,9.23-33.83a82.16,82.16,0,0,0-.67-19.23l-.56-6.94a17.93,17.93,0,0,0-.13-2.23c-.4-3.13-1-5.92-1.67-9-1.43-6.6-2-14.49-5-20.49-3.09-6.35-5.49-13.06-11.28-17.88-4.8-4-9.17-8.6-15.24-11.05-5.85-2.37-10.56-6.49-16.18-9.15a17.38,17.38,0,0,1-2.29.85v0a7.76,7.76,0,0,1,2,1.88,5,5,0,0,1,.62,1.92,26.62,26.62,0,0,0,2.25,2.81c3.68,2.58,8.72,4,12.75,6a72.64,72.64,0,0,1,9.91,5.94c4.33,2.93,8.55,6.31,11.24,10.79.19.31.36.63.53,1a37.49,37.49,0,0,1,2,3.36A26.37,26.37,0,0,1,162,79.79a46.61,46.61,0,0,1-1.07,27.51Q160.58,108.1,160.26,109Z" transform="translate(0.11 -23.8)"/></svg>