<svg id="p6" xmlns="http://www.w3.org/2000/svg" viewBox="0 0 187.2 254.28"><defs><style>.cls-1{fill:#776d75;}.cls-2{fill:none;}.cls-2,.cls-9{stroke:#000;}.cls-11,.cls-12,.cls-14,.cls-2,.cls-3,.cls-4,.cls-5,.cls-6,.cls-7,.cls-8,.cls-9{stroke-miterlimit:10;stroke-width:0.43px;}.cls-3{fill:#c8c3c2;stroke:#c8c3c2;}.cls-4{fill:#d27793;stroke:#d27793;}.cls-13,.cls-5{fill:#526680;}.cls-5{stroke:#526680;}.cls-6{fill:#7388a0;stroke:#7388a0;}.cls-7{fill:#c8d4e4;stroke:#c8d4e4;}.cls-8{fill:#c78b7a;stroke:#c78b7a;}.cls-10{fill:#fff;}.cls-11{fill:#fdfdfe;stroke:#fdfdfe;}.cls-12{fill:#4b516b;stroke:#4b516b;}.cls-14{fill:#613161;stroke:#613161;}</style></defs><title>pigeon-svg-6-1</title><path class="cls-1" d="M23.91,218.38a80,80,0,0,0-17.78,3.85c-1,.36-2.39.93-2.91,1.93-1.05,2,.08,1.67,1.49,2,2.49.55,5.24,1.11,7.8,1.49,11.4,1.7,23.49,3.86,34.4,7.74,12.91,4.59,25.91,10.4,39.57,13.57,4,.92,7.91,2,11.91,2.68,4.25.77,8.63.71,12.93,1.59,9.46,1.93,19.4.79,29.12.41,8.45-.33,16.62-2.93,24.41-6.21a73.41,73.41,0,0,0,9.78-4.83c2.22-1.35,5.87-2.31,7.28-4.46a4.72,4.72,0,0,0,.31-.54,2.75,2.75,0,0,0-.75-3.37,49.34,49.34,0,0,1-4.37-3.94c-2.42-2.35-5.3-3.84-7.59-6.35-5.57-6.13-11.27-11.66-19.59-13.77A114.41,114.41,0,0,0,116.69,207c-13.79.57-27.42,1-41.06,3.2C66.7,211.64,57.85,214,49,215.37c-5.58.87-11.17.56-16.77,1.61-3.87.73-4.29.49-8.27,1.4" transform="translate(0 -0.01)"/><path class="cls-2" d="M93.49,238.42a.17.17,0,0,0-.09.09" transform="translate(0 -0.01)"/><path class="cls-3" d="M93.52,238.4h0c.43.77.94,1.34,1.49,1.23a2,2,0,0,1,.09.9c-.44,1.71-1.93.5-2.22-.64A1.18,1.18,0,0,1,93.52,238.4Z" transform="translate(0 -0.01)"/><path class="cls-2" d="M93.62,238.38h-.11" transform="translate(0 -0.01)"/><path class="cls-2" d="M119.06,238.05a.08.08,0,0,1,0,.06h0" transform="translate(0 -0.01)"/><path class="cls-3" d="M130.17,229.23a6.9,6.9,0,0,1,1.54-1.08,3,3,0,0,1,.51-.2,3.33,3.33,0,0,1,.59,3.41c-.27.61-.16.43-.73.06a13.81,13.81,0,0,1-1.1-.84,9.15,9.15,0,0,1-1.06-1A1.72,1.72,0,0,1,130.17,229.23Z" transform="translate(0 -0.01)"/><path class="cls-3" d="M149.38,213.25c1.13.37-.37,1.28-1.29,1.85-.2-.49-1-.8-1.52-1h0C147.42,213.6,148.45,212.94,149.38,213.25Z" transform="translate(0 -0.01)"/><path class="cls-2" d="M85.79,216.54a1.35,1.35,0,0,1-.06-.24" transform="translate(0 -0.01)"/><path class="cls-3" d="M105.32,217.55a1.92,1.92,0,0,0-.18,2.09,1.74,1.74,0,0,0,.43.66,8.79,8.79,0,0,1-1.32-.06,4.55,4.55,0,0,0-1.34-.09c-.39,0-.9.33-1.25.15C101.43,219.05,103.67,217.88,105.32,217.55Z" transform="translate(0 -0.01)"/><path class="cls-4" d="M100.24,195.45c.77.22,1.56.28,2.33.55a8.36,8.36,0,0,1,3.28,1.94c1.76,1.67,3.8,4.13,6.48,4.13a2.38,2.38,0,0,0,2.15-1.43c.43.66,1.05,1.39,1.29,1.76a34.61,34.61,0,0,0,2.06,2.95,55.57,55.57,0,0,0,6,5.86c1.6,1.43,3.29,2.61,4.72,4.15h0l.24.27a10.65,10.65,0,0,0,5.45,3c1,.26,2,.55,3,.77,1.86.53,3.74,1,5.58,1.39a46.66,46.66,0,0,0,4.72,1.12c1.58.22,3.19.49,4.75.86a12.36,12.36,0,0,1,3,1,1.29,1.29,0,0,0-.07,1.36c.3.77,1.29.92,2.15,1.16a1.22,1.22,0,0,1-.4,1.32c-1.19.85-3.43.08-4.62-.31a64.47,64.47,0,0,0-6.62-1.8c-2.18-.43-4.36-.7-6.51-1.29a27.89,27.89,0,0,0-5.23-.73,38,38,0,0,0-3.91-.18,15.85,15.85,0,0,1,2.07,2.26,2.7,2.7,0,0,1,.75,1.56c-.05.56-.35.64-.75.77a3,3,0,0,0-.51.2,7.06,7.06,0,0,0-1.52,1.08,1.89,1.89,0,0,0-.24.37c-.15.24-.14.37-.77.11a6.36,6.36,0,0,1-1.63-1.49c-.38-.38-.77-.71-1.15-1.08a13.17,13.17,0,0,1,1.36-.53c.55-.17,2.67-.45,2.27-1s-2.27-.73-2.88-.73a3.92,3.92,0,0,0-2.31.77,17.48,17.48,0,0,0-6.44-2.92,35.77,35.77,0,0,0-9.91-1.45,3.54,3.54,0,0,1-2.9-.92,1.72,1.72,0,0,1-.42-.65,1.91,1.91,0,0,1,.18-2.09,2.09,2.09,0,0,1,.68-.64c.88-.54,2.82-.48,3.82-.48,1.67.06,4.11,1,5.67.15,2.17-1.13-1.71-5.13-2.64-6.13-1.34-1.5-2.86-3-4.29-4.4a19.21,19.21,0,0,0-3.12-2.86c-1.1-.64-2-.27-3.1-.27-.66,0-.66.05-.9-.68a10.8,10.8,0,0,1-.22-1.72,20.1,20.1,0,0,0-1.34-5.23Z" transform="translate(0 -0.01)"/><path class="cls-3" d="M155.33,223.78a1.29,1.29,0,0,1,1.06-.48,4.36,4.36,0,0,1,3.4,2.07c.49.66,1.48,2.49,1,3.32-.37.61-.81-.32-1.12-.75a4.4,4.4,0,0,0-1.29-1.25,4.81,4.81,0,0,0-.94-.37c-.86-.24-1.84-.39-2.15-1.16A1.26,1.26,0,0,1,155.33,223.78Z" transform="translate(0 -0.01)"/><line class="cls-2" x1="99.89" y1="195.3" x2="99.87" y2="195.3"/><path class="cls-4" d="M129.1,215.52a31,31,0,0,0,4,.46,16.44,16.44,0,0,0,4,0c1.14-.26,2.29-.79,3.43-1.12,1.87-.58,4.09-1.43,6-.73h.06c.52.23,1.32.54,1.52,1a.57.57,0,0,1,0,.46,4.31,4.31,0,0,1-2.15,1.67,46.15,46.15,0,0,1-5.15,1.14,23.22,23.22,0,0,0-3.5,1c-1-.22-2-.51-3-.77a10.83,10.83,0,0,1-5.45-3l-.24-.27A2.72,2.72,0,0,0,129.1,215.52Z" transform="translate(0 -0.01)"/><line class="cls-2" x1="99.89" y1="195.3" x2="99.87" y2="195.3"/><path class="cls-4" d="M89.32,211.41c.16-1.14-.18-2.5.22-3.67s1.23-2.66,2.4-1.43c.88.9.95,2.19,1.52,3.19a8.7,8.7,0,0,0,.94,1.29h-.09a13.47,13.47,0,0,0-3.72,1.56c-.33.2-.88.46-1.45.79A16,16,0,0,1,89.32,211.41Z" transform="translate(0 -0.01)"/><path class="cls-3" d="M124.49,225.85a1.21,1.21,0,0,1,.31-.2,3.93,3.93,0,0,1,2.31-.77c.61,0,2.4.08,2.88.73s-1.72.8-2.27,1a14.59,14.59,0,0,0-1.36.53,10.75,10.75,0,0,0-1.72.86,2.41,2.41,0,0,0-1.36-1.45A13.08,13.08,0,0,0,124.49,225.85Z" transform="translate(0 -0.01)"/><path class="cls-4" d="M92.07,223.18a4.07,4.07,0,0,0-.08-1.63c.64-.39,1.36-.69,2-1.12a9.64,9.64,0,0,1,3.63-1.93c.33.44.65.84.94,1.23.86,1.21,1.92,2.4,2.86,3.54,2.38,2.83,5.87,3.16,9.3,3.38,1.89.12,3.72.18,5.63.18s3.78-.39,5.65-.48a3,3,0,0,1,1.29.2,2.41,2.41,0,0,1,1.36,1.45.92.92,0,0,1,.09.22,2.45,2.45,0,0,1-1.39,3.08c-1,.39-2.38.15-3.48.26-1.34.1-2.68.21-4,.39-2.28.28-4.52.72-6.81.94a11.31,11.31,0,0,0,3.17,2.09,43.26,43.26,0,0,0,4.42,1.45,21.29,21.29,0,0,1,3.21,1.45,4.38,4.38,0,0,0-.77.2c-.11,1,2.59,1.82,3.23,2.11l.77.33v.09c1.16,3.23-5.41,1.67-6.51,1.32a41.89,41.89,0,0,1-6.25-3c-1.76-.9-3.81-1.29-5.3-2.57s-3.07-2.45-4.59-3.74c-1.06-.94-2.69-1.93-3.21,0s-.43,4.22-1.29,6c-.3.65-.61,1-.94,1-.55.11-1.06-.46-1.49-1.23h0a2.91,2.91,0,0,1-.2-.35c-.86-1.87-.77-4.77-.86-6.77a17.18,17.18,0,0,0-.33-4A14.36,14.36,0,0,1,92.07,223.18Z" transform="translate(0 -0.01)"/><path class="cls-5" d="M24.45,178.05c2.41-1.09,4.83-2.15,7.25-3.27.46-.2,1-.51,1.6-.82.31.09.62.17,1,.24a43.08,43.08,0,0,0,15.41.73,32.33,32.33,0,0,0,3.06,2.46,28,28,0,0,0,5.15,2.51c1.69.61,5.56,1.34,6.56,2.92a7.33,7.33,0,0,0-5.1-.92c-3.38.88-6.92,0-10.15-1.12-1.28-.47-2.44-1-3.59-1.29h0a19.55,19.55,0,0,0-2.75-1.31,13.94,13.94,0,0,0-2.11-.15c-2.35-.11-4.11.55-6.35,1.1-4.49,1.1-8.54,2.51-13.26,2.33-1-.05-2-.14-3-.2h0C20.36,180.3,22.2,179,24.45,178.05Z" transform="translate(0 -0.01)"/><path class="cls-6" d="M60,171.39c4.44.2,8.81.73,13.21,1.06,5.59.39,11.62.57,17-1.08a42.05,42.05,0,0,0,13.52-7.47c2.36-1.84,4.78-3.85,7-5.91s3.93-4.89,6-7.06,3.49-4.79,5.36-7.12a54.18,54.18,0,0,0,4.49-6.27,57.21,57.21,0,0,0,3.59-7.22c1.09-2.06,4.2-8.4,4.29-11.21.53-16-7.73-23.31-15.41-32.49-5.82-7-7.72-10.87-7.72-20.69,1.92-4.53,4.06-9,5.06-13.81.73-3.65.64-7.91.64-11.65.08-7.57,4.7-14.1,8.15-20.34A44,44,0,0,1,138.24,5.3a23.64,23.64,0,0,1,5.87-2.93c2.18-.71,4.22-2,6.57-2.07A32.06,32.06,0,0,1,165,2.58c4.77,2,7.8,7.36,9.63,12,.86,2.17,1.26,4.15,2.86,6,.75.86,2.14,1.67,2.75,2.77s.46,2,1.29,3.1,7.64,10,4.46,10.85c-2.33-1-4.22-3.24-6.75-4.14-2.95-1-5.95-.29-8.95,0-3.66.37-5.84,0-7.49,3.8a17.78,17.78,0,0,0-1,9.34C163,55,168,63.18,170.23,71.8c2.47,9.5,3.66,19.23,5.26,28.84,1.29,7.81,1.47,16-.82,23.35a12.72,12.72,0,0,1-.53,1.72,22.3,22.3,0,0,1-1.49,4.59,78.84,78.84,0,0,1-8.23,17.58c-3,4.48-7,8.31-10.58,12.31a62.69,62.69,0,0,1-24,16.68c-2,.75-3.91,1.7-5.91,2.62a67.49,67.49,0,0,1-5.08,6.44c-2.18,2.44-4.6,4.36-4.75,7.72-.1,2.7,2.2,7.45-1.18,8.35-4.2,1.11-6.44-5.14-10.2-5.89a24.89,24.89,0,0,1-8.88-3.41c-.52,1.86.64,4.15-.09,5.62a7.55,7.55,0,0,0-.86,3.78c-.09,1.55-.68,3-.62,4.5-1.55-2.27-2.93,1.56-3,2.66-.15,2.26.48,4-2,4.59-.88-1.93-2.7-3.91-3.93-5.69-1.34-2-3.24-3.41-4.53-5.41,0-3.45.71-9.31-1.18-12.24a9.77,9.77,0,0,0-4.24-2.94,35,35,0,0,1-6.77-3.52c-.72-.43-1.45-.87-2.2-1.25h0c-1-1.58-4.87-2.31-6.56-2.92a28,28,0,0,1-5.15-2.51,32.33,32.33,0,0,1-3-2.48,25.12,25.12,0,0,0,3.49-.82C55.38,173.37,57.73,172.3,60,171.39Z" transform="translate(0 -0.01)"/><path class="cls-7" d="M8.64,186.27A35.56,35.56,0,0,1,17,181.7c.39-.11.75-.24,1.12-.37h0c1,.07,2,.2,3,.2,4.73.18,8.77-1.23,13.26-2.33,2.24-.55,4-1.21,6.35-1.1a13.94,13.94,0,0,1,2.11.15,19.55,19.55,0,0,1,2.75,1.31,5.45,5.45,0,0,0-4,.34c-2.38,1.16-4.75,2.5-7.1,3.43s-4.71,2.38-7.41,2.29a51,51,0,0,0-7.06,0c-2.57.24-5.12,1.54-7.69,2C11.35,187.79,6.89,188,8.64,186.27Z" transform="translate(0 -0.01)"/><path class="cls-5" d="M162.63,21.52c.94.06,1.87.3,2.81.43a3.82,3.82,0,0,1,.82.15,1.21,1.21,0,0,0,.2.31,9.4,9.4,0,0,0,1.78,1.43,9.27,9.27,0,0,0,2,.94,6,6,0,0,0,1.65.37,16,16,0,0,1,2,.15,14.71,14.71,0,0,1,2.2.59,7.8,7.8,0,0,0,2.44.51,2.09,2.09,0,0,0,2-1.46,1,1,0,0,0,.09-.51h0c.39.75.84,1.39,1.21,2.18A38.67,38.67,0,0,0,184.49,31a25.42,25.42,0,0,1,1.6,2.68c.24.5.4,1.1.61,1.56s.49,1.07.07,1.5c-.9,1.18-3.1-1.28-4-1.82s-2-1-2.79-1.54-1.63-.93-2.42-1.39c-1.81-1-3.7-1.94-5.5-3a28.68,28.68,0,0,1-2.81-1.76c-.92-.71-1.6-1.42-2.68-2.2s-2.34-1.39-3.48-2.07c-.41-.23-1.38-.57-1.6-1C161.13,21.3,162.26,21.49,162.63,21.52Z" transform="translate(0 -0.01)"/><path class="cls-8" d="M146.23,13.05a2.19,2.19,0,0,0,0,.43,3.32,3.32,0,0,0,1.23,2.2A4.36,4.36,0,0,0,150,17a4.59,4.59,0,0,0,3.35-.78,4.64,4.64,0,0,0,1.39-2.88,3.15,3.15,0,0,0-.16-1.67,6.06,6.06,0,0,0-.47-1.25,5.73,5.73,0,0,0-2.3-1.66,3.6,3.6,0,0,0-4.15.75,4.1,4.1,0,0,0-1.42,2.6A6.7,6.7,0,0,0,146.23,13.05Z" transform="translate(0 -0.01)"/><path class="cls-9" d="M148.86,12.53a1,1,0,0,0,1.65-.13,1.39,1.39,0,0,0-.18-1.6c.45-.2,1,.13,1.39.39a2.24,2.24,0,0,1,1,1.84c0,1.69-2.2,3.1-3.56,1.93A2.16,2.16,0,0,1,148.86,12.53Z" transform="translate(0 -0.01)"/><path class="cls-2" d="M35.89,145.74a.81.81,0,0,0,0,.17" transform="translate(0 -0.01)"/><path class="cls-2" d="M64.44,182.78h0" transform="translate(0 -0.01)"/><path class="cls-10" d="M148.68,11.27a1.53,1.53,0,0,1,.64-.7h.06a.81.81,0,0,1,.92.22,1.39,1.39,0,0,1,.18,1.6,1,1,0,0,1-1.65.13A1.12,1.12,0,0,1,148.68,11.27Z" transform="translate(0 -0.01)"/><path class="cls-11" d="M166.27,21.36c.22-.22.51-.35.79-.59s.53-.51.79-.75a5.89,5.89,0,0,1,4.26-1.41,18.23,18.23,0,0,1,1.91.29c.52.06,1-.06,1.52,0,.92.09,1.45,1.1,2,1.69.36.37.65.77,1,1.12a11.91,11.91,0,0,0,1.34,1,2.22,2.22,0,0,1,.26.29,3.13,3.13,0,0,1,.43,1.49h0a1,1,0,0,1,0,.51,2.09,2.09,0,0,1-2.08,1.44,7.8,7.8,0,0,1-2.45-.51,14.71,14.71,0,0,0-2.2-.59,16,16,0,0,0-2-.15,6,6,0,0,1-1.65-.37,9.27,9.27,0,0,1-2-.94,9.4,9.4,0,0,1-1.78-1.44,1.21,1.21,0,0,1-.2-.31A.63.63,0,0,1,166.27,21.36Z" transform="translate(0 -0.01)"/><path class="cls-3" d="M119.89,237.88h0a7.3,7.3,0,0,1,6.81,3.1c.31.43.91,1.15.82,1.72-.19,1-.76.11-1.19-.26a12.93,12.93,0,0,0-3.23-1.91l-.77-.33c-.66-.29-3.34-1.11-3.23-2.11A4.38,4.38,0,0,1,119.89,237.88Z" transform="translate(0 -0.01)"/><path class="cls-6" d="M2.57,184.3a41.12,41.12,0,0,1,6.09-4.41c2.38-1.65,4.54-3.8,7-5.43,1.76-1.19,3.85-1.83,5.32-3.43-.46,0,1,.15,0,0,1.48.2.79,0,2.27.13,3.56.38,6.62,1.89,10,2.75-.6.31-1.14.62-1.6.82-2.41,1.12-4.83,2.17-7.25,3.27-2.24,1-4.09,2.35-6.33,3.23-.37.13-.72.26-1.12.37a35.53,35.53,0,0,0-8.38,4.57c-1.85.92-5,2.35-7,2.35C-1.43,188.5,1.31,185.55,2.57,184.3Z" transform="translate(0 -0.01)"/><path class="cls-12" d="M9.06,163.7c3.73-3.87,9.67-6.53,14.26-9.28,3.14-1.86,6.51-3.51,9.44-5.66a32.65,32.65,0,0,0-2.69,3.2c-2,2.77-4.55,5.21-6.55,8-1.34,1.83-4.09,5.94-.18,5.94a42.65,42.65,0,0,1,4.44,0c3.17.35,6.27,1.61,9.48,1.85a35.24,35.24,0,0,0,7.45-.7,13.08,13.08,0,0,1,1.51-.15,2.33,2.33,0,0,0,.18.26c2.86,3.7,7.81,4,12.14,4.16.45,0,1,.09,1.45.09-2.29.94-4.64,2-6.86,2.66a25.12,25.12,0,0,1-3.49.82,43.77,43.77,0,0,1-15.41-.74,9.43,9.43,0,0,1-1-.24c-3.36-.88-6.42-2.38-10-2.75-1.48-.16-3.06-.22-4.54-.43h0l-.52-.08-.32-.05C13,169.74,5.33,167.57,9.06,163.7Z" transform="translate(0 -0.01)"/><path class="cls-6" d="M23.58,159.78c2-2.74,4.55-5.19,6.55-8a32.65,32.65,0,0,1,2.69-3.2h0a22.7,22.7,0,0,0,2.57-2.18,6.65,6.65,0,0,0,.52-.57,13,13,0,0,0-.21,2.4c-.51.5-1,1-1.45,1.36a19.67,19.67,0,0,0-3.67,3.74c-1.51,2.13-6.68,11.34-1.29,11.23,3.38-.07,6.87-.6,10.3-.75a41,41,0,0,0,4.46-.57h.33a31.87,31.87,0,0,0,1.87,3.61,11,11,0,0,0-1.51.15,35.24,35.24,0,0,1-7.45.7c-3.21-.25-6.31-1.5-9.48-1.85a42.65,42.65,0,0,0-4.44,0C19.45,165.85,22.2,161.74,23.58,159.78Z" transform="translate(0 -0.01)"/><path class="cls-13" d="M30.47,153.44a19.67,19.67,0,0,1,3.67-3.74,19.23,19.23,0,0,0,1.45-1.36,21.67,21.67,0,0,0,.11,2.2,11.72,11.72,0,0,0,.33,1.72c-.51.95-1,1.94-1.56,2.84-.88,1.54-4,4.86-2,6.86.86.94,2.86.39,3.86,0,1.41-.55,2.81-1.21,4.13-1.87a7,7,0,0,0,.82-.48,18.09,18.09,0,0,1,2.15,2.2,9.35,9.35,0,0,1,.94,1.51.85.85,0,0,1-.33,0,41,41,0,0,1-4.46.57c-3.44.16-6.92.69-10.3.75C23.89,164.75,29.06,155.54,30.47,153.44Z" transform="translate(0 -0.01)"/><path class="cls-12" d="M34.55,155.13c.56-.91,1-1.89,1.56-2.84a13.24,13.24,0,0,0,4,6.22c.39.35.81.72,1.21,1.1a7,7,0,0,1-.82.48c-1.32.66-2.72,1.32-4.13,1.87-1,.35-3,.9-3.86,0C30.57,160,33.63,156.64,34.55,155.13Z" transform="translate(0 -0.01)"/><path class="cls-7" d="M35.94,145.93c1.51-1.87,2.37-4.37,4-6.37,2.67-3.25,5.72-6.1,8.58-9.1,2.64-2.8,5-5.66,7.43-8.58,1.26-1.5,6.92-9,7.92-10.73A64.78,64.78,0,0,1,74.79,97.37C78.9,93.44,83.38,89,88.57,86.49,98.09,81.88,107.1,76.05,111.34,66c0,9.82,1.91,13.72,7.7,20.64,7.69,9.18,16,16.45,15.41,32.45-.07,2.81-3.18,9.15-4.29,11.21a57.21,57.21,0,0,1-3.59,7.19,54.18,54.18,0,0,1-4.42,6.3c-1.86,2.33-3.27,4.88-5.36,7.12s-3.77,5-6,7.06-4.65,4.07-7,5.91a41.91,41.91,0,0,1-13.52,7.47c-5.42,1.65-11.42,1.47-17,1.08-4.39-.33-8.77-.84-13.21-1.06a7.69,7.69,0,0,0-1.45-.09c-4.34-.16-9.28-.47-12.14-4.16a2.33,2.33,0,0,1-.18-.26,31.86,31.86,0,0,1-1.87-3.61,9.35,9.35,0,0,0-.94-1.51,18.09,18.09,0,0,0-2.15-2.2l-1.21-1.1a13.24,13.24,0,0,1-4-6.22,11.72,11.72,0,0,1-.33-1.72,21.67,21.67,0,0,1-.11-2.2A13,13,0,0,1,35.94,145.93Z" transform="translate(0 -0.01)"/><path class="cls-14" d="M89.12,213.05c.59-.33,1.12-.59,1.45-.79a13.47,13.47,0,0,1,3.66-1.52h.09c1.4-.33,1.78.37,2.57,1.56a14,14,0,0,1,2.24,4c.44,1.47-.2,1.82-1.56,2.15h0a10.09,10.09,0,0,0-3.58,2c-.59.42-1.32.73-2,1.12a.66.66,0,0,0-.18.09c-.49.31-.84.73-1.39.79-2.59.33-4.11-3.74-4.59-5.83v-.09C85.67,215.21,87.57,214,89.12,213.05Z" transform="translate(0 -0.01)"/></svg>