<svg id="p3" xmlns="http://www.w3.org/2000/svg" viewBox="0 0 209.75 241.12"><defs><style>.cls-1{fill:#776d75;}.cls-2{fill:#c8d4e4;stroke:#c8d4e4;}.cls-10,.cls-11,.cls-12,.cls-13,.cls-2,.cls-3,.cls-4,.cls-5,.cls-6,.cls-7,.cls-8,.cls-9{stroke-miterlimit:10;stroke-width:0.45px;}.cls-3{fill:#c8c3c2;stroke:#c8c3c2;}.cls-4{fill:#d27793;stroke:#d27793;}.cls-5{fill:#4b516b;stroke:#4b516b;}.cls-6{fill:#526680;stroke:#526680;}.cls-7{fill:#7388a0;stroke:#7388a0;}.cls-8{fill:#bacafc;stroke:#bacafc;}.cls-9{fill:#283a56;stroke:#283a56;}.cls-10{fill:none;}.cls-10,.cls-13{stroke:#000;}.cls-11{fill:#c78b7a;stroke:#c78b7a;}.cls-12{fill:#fdfdfe;stroke:#fdfdfe;}</style></defs><title>pigeon-svg-3-1</title><path class="cls-1" d="M18.83,229.26a9.78,9.78,0,0,0,.09,3.07,271.66,271.66,0,0,0,40,3.23c16.66,0,32.09,2.62,48.43,4.9,7.43,1,14.62,1.26,22.22,1.84,6.91.52,13.6,2.24,20.57,2.62,13.84.75,31.58-1.35,44.25-7.54,8.39-4.1,22.47-8.18,20-18.87-2.15-9.2-8.1-14.4-16.36-17.29-12-4.21-22.46-5.07-35.58-5.07-8.47,0-20.56.63-28.7,2.38-7.91,1.7-15.69,1.9-23,4.14-13.52,4.12-29.13,6.16-42.24,12.22-13.68,6.33-30.22,8.43-44.48,12.83-2.45.76-4.77.73-5.11,3.64" transform="translate(-13.31 -3.94)"/><path class="cls-2" d="M79.44,184.72A15.87,15.87,0,0,1,77,185.9a53.8,53.8,0,0,1-5.9,1.14,113,113,0,0,1-14.9,1.62c-6.26.14-12.54-1.09-18.77-1.18-3.21,0-6.33.86-9.49.65-2.1-.15-3-.25-2.6-2.64a2.89,2.89,0,0,1,.22-.77,19,19,0,0,1,2.34-2.41c1.75-1.52,3.41-3,5.12-4.43a9.79,9.79,0,0,0-2.18,4.82c-.3,3.53,2.3,3.43,5,3,9-1.45,18.49-1.08,27.72-1.16,3,0,5.84-.11,8.83-.37,1.84-.15,3.83-.51,5.8-.82h0a17.26,17.26,0,0,0,1.17,1.29Z" transform="translate(-13.31 -3.94)"/><path class="cls-3" d="M184,212.82c-.59.4-1.73-1-2.19-1.38a17.13,17.13,0,0,0-1.73-1,1.68,1.68,0,0,0,.45-.94c.09-.53-.14-.52.32-1s.84-.31.66-1a1.53,1.53,0,0,0-.37-.52,3.33,3.33,0,0,1,1.65,1,12.73,12.73,0,0,1,1.36,2.26C184.51,210.82,184.71,212.39,184,212.82Z" transform="translate(-13.31 -3.94)"/><path class="cls-4" d="M180.9,208.49c-.47.49-.24.49-.32,1a1.68,1.68,0,0,1-.45.94c-1,1.1-3.38.11-4.69-.17a7.89,7.89,0,0,0-6.25,1,35.72,35.72,0,0,0-4.11,4.38c-2.09,2.28-5.32,1.93-8.37,1.56a4.22,4.22,0,0,0-1-1.27c-.66-.57-1.12-1.27-1.72-1.83-.77-.7-2-.72-2.94-1.08-.64-.24-1.28-.53-1.95-.85a3.72,3.72,0,0,0,.91-1.73,4.49,4.49,0,0,0,.12-.73c.16.14.3.27.46.39a8.47,8.47,0,0,0,4.48,1.41,4.34,4.34,0,0,0,.76,0c2.72-.27,5-2.28,7.25-3.72l.93-.59a19.18,19.18,0,0,1,7.92-3.16,13.4,13.4,0,0,1,7.65,1.56,11,11,0,0,1,1.65,1.43,1.53,1.53,0,0,1,.37.52C181.75,208.18,181.26,208.11,180.9,208.49Z" transform="translate(-13.31 -3.94)"/><path class="cls-3" d="M168.54,203.55c-.39.8-.79-.26-1.16-.63a3.32,3.32,0,0,0-1.07-.64v-.07a1.68,1.68,0,0,0,0-2.2,8.88,8.88,0,0,0-.83-1.09,1.66,1.66,0,0,1,1.67.21,3.79,3.79,0,0,1,1.15,2.22C168.44,202,168.83,202.94,168.54,203.55Z" transform="translate(-13.31 -3.94)"/><path class="cls-4" d="M166.34,202.25v.07a24.64,24.64,0,0,0-1.89,2.6,6.5,6.5,0,0,0-.45,2.24l-.93.59c-2.27,1.43-4.53,3.46-7.25,3.72a10.91,10.91,0,0,0,2.76-3.85c.89-2.18,1.48-4.75,2.8-6.71.76-1.12,2.14-3.34,3.8-2.67a1.7,1.7,0,0,0,.34.72,8.88,8.88,0,0,1,.83,1.09A1.67,1.67,0,0,1,166.34,202.25Z" transform="translate(-13.31 -3.94)"/><path class="cls-2" d="M188.3,130.23c-1.78,2.43-8.54,10.44-13.68,16.13-.78.88-1.5,1.65-2.18,2.36-.38.39-.74.79-1.1,1.13-7.55,7.92-11.2,20-20.63,26.22-4.18,2.77-9.43,5.59-14.48,5.24-4.89-.34-8.87,1.06-13.8,1.57-6,.62-11.59,1.31-17.36,3.7-3.94,1.64-8.88,3.76-13.16,3.49a20.47,20.47,0,0,1-10.53-3.72,18.6,18.6,0,0,1-2-1.71l-.14-.13A17.26,17.26,0,0,1,78,183.23h0A23.16,23.16,0,0,0,75,179.87c-.16-.13-.32-.26-.5-.38a80.92,80.92,0,0,0-8-4.48A9.08,9.08,0,0,1,64,173.16c-2.23-2.4-2.1-5.6-2.78-9-.21-1-.66-2.08-1-3.12a6.19,6.19,0,0,1-.26-1.74,15.73,15.73,0,0,1,.3-2.22c1-1.14,2-2.35,3.06-3.48,4.28-4.7,8.88-9.3,12.91-13.85a25.75,25.75,0,0,0,2.49-3.78c1.95-3.07,4.21-6.12,7.56-7.63,3.16-1.42,4.69-.86,6.93-4.14,4.23-6.22,7.87-12.77,12.18-19s10-10.78,15.21-16.05a170.38,170.38,0,0,0,12.07-13.39,27.26,27.26,0,0,0,3.39-5.51c.92,6,10.5,13.74,13.58,16.35,3.7,3.13,23.08,19.09,36.37,26.39C193.13,116.84,195.17,120.87,188.3,130.23Z" transform="translate(-13.31 -3.94)"/><path class="cls-5" d="M78.12,183.3c-2,.31-4,.67-5.8.82-3,.27-5.82.36-8.83.37-9.21.08-18.67-.28-27.72,1.16-2.63.42-5.24.57-5-3A9.87,9.87,0,0,1,33,177.88a54.66,54.66,0,0,1,4.93-3.71c2.77-1.81,5.46-3.55,8-5.59-2.92,3.19-6.65,6.22-7.49,10.53-.79,4.06,2.64,3.4,5.73,3A78.26,78.26,0,0,1,57,181.83a76,76,0,0,0,18.05-1.89A23.59,23.59,0,0,1,78.12,183.3Z" transform="translate(-13.31 -3.94)"/><path class="cls-6" d="M75.06,179.94A76,76,0,0,1,57,181.84a78,78,0,0,0-12.83.27c-3.11.43-6.55,1.1-5.73-3,.84-4.31,4.57-7.34,7.49-10.53h0c.41-.33.81-.66,1.18-1,3-2.6,6.2-4.65,9.4-6.95a23.93,23.93,0,0,0,3.83-3.54,15.73,15.73,0,0,0-.3,2.22A6.19,6.19,0,0,0,60.3,161c-3.85,5.22-10.13,14.87-1.53,14A17.13,17.13,0,0,0,62.28,174a12.22,12.22,0,0,0,1.76-.72,9.08,9.08,0,0,0,2.42,1.85,85,85,0,0,1,8,4.48A4.55,4.55,0,0,1,75.06,179.94Z" transform="translate(-13.31 -3.94)"/><path class="cls-5" d="M81.43,186.41a27.1,27.1,0,0,1-5.81,2.12A79.05,79.05,0,0,1,64,190c-2.21.08-4.39-.19-6.54.06-1.4.17-2.79.61-4.19.82l.22-.23c-6.63.36-13.72-.9-20.5-.62-2.7.11-6.27,1.12-9-.19-2-1-1.09-1.5.08-3.2.48-.7.93-1.33,1.43-1.93a2.89,2.89,0,0,0-.22.77c-.33,2.39.49,2.49,2.6,2.64,3.15.21,6.28-.66,9.49-.65,6.23,0,12.5,1.33,18.77,1.18A107.68,107.68,0,0,0,71,187a53.8,53.8,0,0,0,5.9-1.14,15.87,15.87,0,0,0,2.43-1.17A18.59,18.59,0,0,0,81.43,186.41Z" transform="translate(-13.31 -3.94)"/><path class="cls-7" d="M220.78,115.52c-1.49,3.88-2.65,8.62-5.26,11.65a239.92,239.92,0,0,0-14.93,19.41,72.45,72.45,0,0,1-7.6,8.63c-3.26,3.33-6.1,6.88-9.67,9.91a241.52,241.52,0,0,1-20.46,15.35c-2.67,1.82-5.08,3.81-7.66,5.74a31.66,31.66,0,0,1-6.49,3.45h0a23.16,23.16,0,0,1-1.24,2c-.82.95-1.95,1.38-2.79,2.21-1.41,1.38-1,4.63-.89,6.49.15,2.05,2,2.61,3.41,3.84,2,1.67,4.4,6.29,1.36,8.14a14.16,14.16,0,0,0-2.63-1.21c-.87-.4-1.61-.93-2.45-1.33-1.86-1-3.73-1.95-5.82-1.6a10.29,10.29,0,0,0-2.32-2.89c-.92-.88-2.06-1.52-3-2.39s-1.81-2.41-3.12-3.11c-1.1-.57-2.14-.36-3-1.33-.39-.42-.84-1.57-1.25-2.16a19.5,19.5,0,0,0-3.3.33,18.92,18.92,0,0,0,1.85,2.9c-2.18-.37-6.58,2.6-7.29,4.63a37.63,37.63,0,0,1-2.8-2.78c-.45.94-1,2.94-2.07,2.92s-3.63-3.49-4.54-4.28a42.33,42.33,0,0,0-5-3.62c-3.81-2.44-10.9,0-15.33.73-2.82.54-6,.19-8.81.79-2.58.52-5.13,2.32-7.54,3.45-5.57,2.63-10.88,6.81-16.37,10A68.92,68.92,0,0,1,45,215.13c-3.07,1.28-5.39,2.7-8.38,3.89-2.82,1.16-14.56,5.74-17.76,6.57-1.28.32-5.74,1.37-5.29-1,.24-1.41,4-3.56,5.16-4.4,4.55-3.45,8.75-7.43,13.41-10.87A160.16,160.16,0,0,0,53.3,190.89c1.41-.22,2.77-.65,4.19-.82,2.15-.25,4.33,0,6.54-.06a80.13,80.13,0,0,0,11.62-1.49,26.13,26.13,0,0,0,5.78-2.12A20.47,20.47,0,0,0,92,190.11c4.29.26,9.21-1.85,13.16-3.49,5.76-2.4,11.39-3.08,17.36-3.7,4.93-.51,8.91-1.92,13.8-1.57s10.3-2.48,14.48-5.24c9.39-6.21,13.06-18.31,20.63-26.22.34-.35.7-.73,1.1-1.13.68-.72,1.41-1.53,2.18-2.36,5.14-5.69,11.91-13.71,13.68-16.13,6.86-9.37,4.82-13.39-2.17-17.25-13.32-7.31-32.67-23.25-36.37-26.39-3.08-2.61-12.66-10.34-13.58-16.35,3.9-8.59,3.67-19,2.9-28.16-.72-9.05-1.4-22.84,4.45-30.37,3.07-4,8.47-6.51,13.27-7.45,2.45-.45,5,.47,7.32,1,2.85.61,3.18,1.45,5,3.35a4,4,0,0,1,2.42,2.43c4,.81,7.82,6.77,10.88,9.4,7.74,6.66,16.21,13.22,21.12,22.36,4.16,7.73,8.67,15.58,10,24a5.88,5.88,0,0,0-2-2.37,65.65,65.65,0,0,0,4.06,10.81c4.52,8.72,6.33,17.58,7.1,27.05A28.69,28.69,0,0,1,220.78,115.52Z" transform="translate(-13.31 -3.94)"/><path class="cls-8" d="M128.08,206.43c-.12.73-.37.85-1.07.68a2.3,2.3,0,0,0-.37-.06,5.06,5.06,0,0,0-3.83,1.28,4,4,0,0,0-1.52,2h0c-.11.68-.1,1-.85,1.27s-.9-.06-1.37-.62-1.27-1.37-1.85-2.11a7.94,7.94,0,0,1-1.44-2.8c-.19-.91.45-1.9.75-2.6v.07a2.69,2.69,0,0,1,.29-.39,14.42,14.42,0,0,1,3-2.54,5.43,5.43,0,0,1,3.35-1,4.51,4.51,0,0,1,2.31,1.86,18.38,18.38,0,0,1,2.27,3.5C127.94,205.59,128.16,205.81,128.08,206.43Z" transform="translate(-13.31 -3.94)"/><path class="cls-4" d="M137.54,220.08a3.43,3.43,0,0,0-.11-.45c-.08-.29-.35-1.07-.7-.95a.14.14,0,0,0-.09,0l-.08.06h0a2,2,0,0,0-1.26,2.37,10.15,10.15,0,0,1,.33,1.82c-.88.31-1.52-.57-2.05-1.3a10.83,10.83,0,0,0-1.13-1.69c-.51-.45-1.3-1-1.9-1.57a9.86,9.86,0,0,0-3.77-2.38,7.38,7.38,0,0,0-2.49-.42c-.49,0-1.48,0-1.87-.31a5,5,0,0,1-.62-1.74,19,19,0,0,1-.36-2.33c0-.26,0-.5-.09-.79h0a4,4,0,0,1,1.52-2,5.15,5.15,0,0,1,3.83-1.28c.2.13.39.27.59.41a9,9,0,0,0,1.92,1.11c.61.27.57.64.7,1.27a.47.47,0,0,0,0,.17c.52,2.06,2.22,3.53,3.87,4.71.44.33.84.67,1.24,1s1,.86,1.46,1.26a3,3,0,0,1,1.12,1.73A3.38,3.38,0,0,1,137.54,220.08Z" transform="translate(-13.31 -3.94)"/><path class="cls-4" d="M155.49,221.38l.48.65a1.72,1.72,0,0,1-1.62.68c-1.3-.22-1.91-1.33-2.67-2.24-1.79-2-4.72-3.22-7.21-4.25a8.68,8.68,0,0,0-4.71-.79,25.29,25.29,0,0,1-4.7.32c-.4-.34-.8-.68-1.24-1-1.65-1.23-3.36-2.69-3.87-4.71.59,0,1.21-.2,1.83-.22a11.66,11.66,0,0,0,4.43-1c1.61-.64,3-1.29,4.73-.61a51.65,51.65,0,0,1,5.42,2.56c.93.47,1.86,1,2.8,1.42.65.31,1.31.61,1.95.85,1,.36,2.18.37,2.94,1.08.61.56,1.09,1.2,1.72,1.83a4.22,4.22,0,0,1,1,1.27,3.59,3.59,0,0,1,.33,2c-.25-.41-.55-.75-1-.56h-.09C155.07,218.83,155.13,220.88,155.49,221.38Z" transform="translate(-13.31 -3.94)"/><path class="cls-3" d="M137.28,223a21.79,21.79,0,0,1-.51,2.36c-.14.38-.53,1.8-1,1.75,0-.75-.05-1.55-.07-2.32a17.36,17.36,0,0,0-.09-1.76,10.15,10.15,0,0,0-.33-1.82,2,2,0,0,1,1.26-2.37h0a.07.07,0,0,1,.08-.06h.09c.37-.12.62.67.7.95a3.43,3.43,0,0,1,.11.45h0A7.17,7.17,0,0,1,137.28,223Z" transform="translate(-13.31 -3.94)"/><path class="cls-3" d="M158.32,226.48c-.4-.34-.28-1.06-.5-1.51A12.8,12.8,0,0,0,156,222l-.48-.65c-.35-.5-.37-2.53.46-2.73H156c.49-.19.79.13,1,.56a4.1,4.1,0,0,1,.23.4,20.06,20.06,0,0,1,1.26,3.31C158.88,224,159.3,225.5,158.32,226.48Z" transform="translate(-13.31 -3.94)"/><path class="cls-9" d="M169.33,8.73l-.6-.32a3.91,3.91,0,0,1,.46.19Z" transform="translate(-13.31 -3.94)"/><path class="cls-9" d="M169.33,8.73l-.6-.32a3.91,3.91,0,0,1,.46.19Z" transform="translate(-13.31 -3.94)"/><path class="cls-9" d="M169.33,8.73l-.6-.32a3.91,3.91,0,0,1,.46.19Z" transform="translate(-13.31 -3.94)"/><path class="cls-9" d="M169.18,8.63a3.89,3.89,0,0,0-.46-.19l.6.32S169.24,8.64,169.18,8.63Z" transform="translate(-13.31 -3.94)"/><path class="cls-9" d="M169.33,8.73l-.6-.32a3.91,3.91,0,0,1,.46.19Z" transform="translate(-13.31 -3.94)"/><path class="cls-9" d="M169.33,8.73l-.6-.32a3.91,3.91,0,0,1,.46.19Z" transform="translate(-13.31 -3.94)"/><path class="cls-9" d="M169.33,8.73l-.6-.32a3.91,3.91,0,0,1,.46.19Z" transform="translate(-13.31 -3.94)"/><path class="cls-9" d="M169.33,8.73l-.6-.32a3.91,3.91,0,0,1,.46.19Z" transform="translate(-13.31 -3.94)"/><path class="cls-10" d="M175.54,35.41h-.07A.08.08,0,0,0,175.54,35.41Z" transform="translate(-13.31 -3.94)"/><path class="cls-6" d="M182.67,46.64a1.79,1.79,0,0,1-.7.79,3.07,3.07,0,0,1-2.62-.44A15.19,15.19,0,0,1,176,44.26c-1.34-1.31-3-1.52-4.68-2.35-1.23-.64-2.52-1.23-3.74-1.9a14.43,14.43,0,0,1-1.5-1.34l.87-.26a15.88,15.88,0,0,0,2.13-.6,6.79,6.79,0,0,0,1.6-1.38c.54-.5.9-.62,1.52-.31s.66.55,1,0c.69-1-.05-3.05,1.43-3.57.1.47.13,2.58.81,2.81h0a27.3,27.3,0,0,1,.09-3.14,21.9,21.9,0,0,0,.37-3c.29.45.69.82,1,1.25a8.12,8.12,0,0,1,1,2.12c.18.69.22,1.41.4,2.09.23,1,.55,1.86.77,2.83A24.43,24.43,0,0,0,181,41.91a36.17,36.17,0,0,0,1.47,3.35C182.66,45.79,182.92,46.13,182.67,46.64Z" transform="translate(-13.31 -3.94)"/><path class="cls-2" d="M171.08,19.37c-.18-.16-.29-.6-.41-.8-.28-.48-.54-.92-.78-1.42a15.81,15.81,0,0,1-1-2.09c-.6-1.66-.78-3.53-1.56-5.11a8.14,8.14,0,0,1-.92-2.18c-.11-.45-.28-1.46.09-1.84a5.12,5.12,0,0,1,2.23,1.55,5.38,5.38,0,0,1,.72,1.14l-.33-.22h0c-.44-.07-1-.08-1.09.46a7.89,7.89,0,0,0,.05,1.44,15.86,15.86,0,0,0,.81,4.1,2.76,2.76,0,0,0,1,1.62c.62.38,1,.17,1.3-.59a7.25,7.25,0,0,0,.31-3.16c.08.33.08.71.16,1.11a14.55,14.55,0,0,1,.49,2.51,11.12,11.12,0,0,1,0,2.13C172.13,18.47,171.81,20,171.08,19.37Z" transform="translate(-13.31 -3.94)"/><path class="cls-11" d="M172,12.33h0a2.26,2.26,0,0,0-.07-.67,4.26,4.26,0,0,0-1.1-2.21,3.89,3.89,0,0,0-.89-.74l-.33-.22h0c-.44-.07-1-.08-1.09.46a7.89,7.89,0,0,0,.05,1.44,15.86,15.86,0,0,0,.81,4.1,2.76,2.76,0,0,0,1,1.62c.62.38,1,.17,1.3-.59A7.25,7.25,0,0,0,172,12.33Zm-1.54,1.77c-.32.4-.91,0-1.09-.37a2.86,2.86,0,0,1-.39-1.86c.05-.31.25-1,.66-1a4.69,4.69,0,0,1,.64,1.33C170.35,12.65,170.71,13.72,170.44,14.1Z" transform="translate(-13.31 -3.94)"/><path class="cls-2" d="M154.88,35.49a8.29,8.29,0,0,0-1.28.33,2.24,2.24,0,0,1-1.42.33,6,6,0,0,1-.89-.15,2.94,2.94,0,0,1-.72-.32,3.44,3.44,0,0,1-.39-.25,3.21,3.21,0,0,0,1.7-.73,1.08,1.08,0,0,0,.41-.7c0-.21-.24-.31-.38-.43a6.19,6.19,0,0,1-1.09-.82,3.8,3.8,0,0,0-1-.72h-.07a3.78,3.78,0,0,0-1-.44,12.55,12.55,0,0,0-1.75-.61c-.18,0-.53-.22-.71-.12s-.18.26-.21.46a2.73,2.73,0,0,0,.22.87,5.68,5.68,0,0,0,.25.68,7.29,7.29,0,0,1-2.21-2,1.31,1.31,0,0,1-.31-1.16.68.68,0,0,1,.75-.51,3.21,3.21,0,0,1,1.45.56,4.1,4.1,0,0,0,.68.28l.95.38a5.29,5.29,0,0,1,.79.26l.7.32a6.73,6.73,0,0,1,1.22.73,7.23,7.23,0,0,0,1,.58,1.68,1.68,0,0,0,.65.2.82.82,0,0,1,.39.07l.2,0a3.39,3.39,0,0,1,1.62,1.16C154.78,34.21,155.79,35.22,154.88,35.49Z" transform="translate(-13.31 -3.94)"/><path class="cls-12" d="M175.48,35.38c-.69-.23-.72-2.32-.81-2.81-1.49.48-.75,2.6-1.43,3.57-.39.55-.57.25-1,0-.63-.31-1-.17-1.52.31a9.11,9.11,0,0,1-1.6,1.38,15.88,15.88,0,0,1-2.13.6l-.87.26a3.12,3.12,0,0,1-2.68,0c-.55-.25-1.11-.92-1.73-.91-.46,0-.94.37-1.41.22-.75-.13-.89-1.82-.3-2,.42-.11.85.35,1.18.29s.16-.93.2-1.19a2.52,2.52,0,0,1-.12-1.36,5.27,5.27,0,0,1,.81-1.37c1.06-1.46,3.79-3.78,5.76-2.73.23-.69-.1-1.6,0-2.36a5.3,5.3,0,0,1,1.27-2.67,5.59,5.59,0,0,1,2.8-1.29,3,3,0,0,1,2.19.48,2.5,2.5,0,0,1,1.34,1.57A14.07,14.07,0,0,1,175.9,28a8.26,8.26,0,0,1,0,1.32,21.9,21.9,0,0,1-.37,3C175.39,33.32,175.54,34.34,175.48,35.38Z" transform="translate(-13.31 -3.94)"/><path class="cls-13" d="M170.45,14.07c-.32.4-.91,0-1.09-.37a2.86,2.86,0,0,1-.39-1.86c.05-.31.25-1,.66-1a4.69,4.69,0,0,1,.64,1.33C170.35,12.62,170.72,13.68,170.45,14.07Z" transform="translate(-13.31 -3.94)"/><path class="cls-11" d="M152.3,34a1.08,1.08,0,0,1-.41.7,3.21,3.21,0,0,1-1.7.73h0a1.87,1.87,0,0,1-1-.17,4.07,4.07,0,0,1-.95-.38,6.45,6.45,0,0,1-.89-.77,2.73,2.73,0,0,1-.65-.84,2.91,2.91,0,0,1-.16-.37,5.68,5.68,0,0,1-.25-.68,2.73,2.73,0,0,1-.22-.87c0-.16.07-.44.22-.53s.53.09.71.12a12.55,12.55,0,0,1,1.75.61,3.78,3.78,0,0,1,1,.44h.07a3.8,3.8,0,0,1,1,.72,6.19,6.19,0,0,0,1.09.82C152.05,33.66,152.27,33.77,152.3,34Z" transform="translate(-13.31 -3.94)"/><path class="cls-13" d="M149.88,33.78a2.69,2.69,0,0,1-.84-.14,3.44,3.44,0,0,1-.9-.31,1.21,1.21,0,0,1-.32-.28,2.12,2.12,0,0,1-.34-.28.57.57,0,0,1,.11-.66c.19-.17.47-.05.7,0a6.67,6.67,0,0,1,.68.28c.17.1.38.14.53.22a1,1,0,0,1,.39.25l.22.22c.06.08.24.2.25.27A.87.87,0,0,1,149.88,33.78Z" transform="translate(-13.31 -3.94)"/><path class="cls-5" d="M64.09,173.24a12.22,12.22,0,0,1-1.75.72A16.75,16.75,0,0,1,58.82,175c-8.6.87-2.32-8.78,1.53-14,.28,1.06.76,2.07,1,3.12C62,167.64,61.87,170.79,64.09,173.24Z" transform="translate(-13.31 -3.94)"/><polyline class="cls-10" points="47.04 157.1 47.03 157.13 47.03 157.13"/></svg>