<svg id="p5" xmlns="http://www.w3.org/2000/svg" viewBox="0 0 510.76 324.35"><defs><style>.cls-1{fill:#4d5660;stroke:#4d5660;stroke-width:0.67px;opacity:0.5;}.cls-1,.cls-10,.cls-11,.cls-12,.cls-2,.cls-4,.cls-5,.cls-6,.cls-7,.cls-8,.cls-9{stroke-miterlimit:10;}.cls-2{fill:#7388a0;stroke:#7388a0;}.cls-10,.cls-11,.cls-12,.cls-2,.cls-4,.cls-5,.cls-6,.cls-7,.cls-8,.cls-9{stroke-width:0.86px;}.cls-3,.cls-6{fill:#526680;}.cls-4{fill:#d27793;stroke:#d27793;}.cls-5{fill:#4b516b;stroke:#4b516b;}.cls-6{stroke:#526680;}.cls-7{fill:#fdfdfe;stroke:#fdfdfe;}.cls-8{fill:none;}.cls-12,.cls-8{stroke:#000;}.cls-9{fill:#c8d4e4;stroke:#c8d4e4;}.cls-10{fill:#c78b7a;stroke:#c78b7a;}.cls-11{fill:#c8c3c2;stroke:#c8c3c2;}.cls-13{fill:#fff;}</style></defs><title>pigeon-svg-5</title><path class="cls-1" d="M299.73,307.25c-9.05,0-46.3,4.87-32.46,14.09,4.9,3.26,20,3.54,26.9,5.14,14.07,3.28,28.48,5.4,42.63,8.34,26.79,5.56,47.58,18.22,74.77,21.63,23.23,2.92,45.89,6.7,68.59,11.14,26,5.08,52.21,5.16,79.05,6.18,43.62,1.65,84.31-8,118.09-26.2,16.87-9.07,40.44-23.28,34.77-39.4C707.8,296,675,285,657.37,281.64c-32.61-6.13-68-6.16-101.81-6.16-22.69,0-46.78-.38-69,2.37-21.74,2.69-42.75,8.71-64,12.72-13.48,2.54-26,7.14-39.4,9.56-14.13,2.54-29.51,2.43-44,3.74-13.76,1.24-29.31,2.29-42.84,2.58" transform="translate(-253.28 -49.93)"/><path class="cls-2" d="M419.29,270.82c3.07.71,6.17,1.38,9.31,1.9,13.89,2.36,31.87,3.56,47.23,3.91l-.28.09c-.6.21-1.18.4-1.72.54a45.85,45.85,0,0,1-7.29,1.2c-5.65.45-11.33,1-17,1.55-2,.17-4.1.35-6.1.45s-2.71-.55-4.43-1.41c-.92-.5-2.32-.67-3-1.24s-.94-1.62-1.54-2.29c-1.34-1.59-2.08-1.37-3.91-.92a45,45,0,0,1-9.23,1.41c-1.1,0-3,0-3.81-.63s-.6-1.45-1.09-2.26C417.81,272.7,418.07,271.67,419.29,270.82Z" transform="translate(-253.28 -49.93)"/><path class="cls-3" d="M410.14,268.63l9.16,2.22c-1.2.87-1.45,1.9-2.86,2.32-2.57.63-8.17,2.36-10.29,1.19C408.68,272.59,408.17,270.62,410.14,268.63Z" transform="translate(-253.28 -49.93)"/><path class="cls-4" d="M601.87,287.93c2.13-1.09,4-2.54,6.13-3.66,1.41-.74,3.52-1.5,4.58-2.5.82.7,3,.81,4.13,1.09,4.06,1.06,8.26,2.54,11,5.92.91,1.09,1.12,3.09,1.12,4.68a2.86,2.86,0,0,0-2.64-.81c-1.93.53-1.45,3.49-.45,5.25a12.73,12.73,0,0,1-3.59-.77c-4.26-2-8.71-5.31-13.39-6.17-1.83-.35-3.73-.74-5.6-.92-1.45-.15-3.11-.68-4.55-.5A15.48,15.48,0,0,1,601.87,287.93Z" transform="translate(-253.28 -49.93)"/><path class="cls-2" d="M474.37,215.93a30,30,0,0,0,6.24,6.62c2.08,1.69,2.36,1.94,1.58,4.51a40.17,40.17,0,0,0-1.48,12.51v.17A43.09,43.09,0,0,0,482.82,253a19.67,19.67,0,0,0,1.77,4.29,11.75,11.75,0,0,0,1.34,2c1.34,1.65,3.62,3.07,4.48,4.86,1.66,3.36,1.9,7.22,4.9,10.22,3.2,3.25,7.57,5.6,12.12,7.54,3.64,1.49,7.29,2.82,10.64,4.06a53.31,53.31,0,0,0,23.14,3.68c10.85-.6,21.25-3.1,32.1-4.23s21.28-1.3,31.5-5.42c8.32-3.38,16.53-6.83,24.32-11.38s16.38-8.46,24.24-13.46c6.65-4.2,13.1-9.8,19.16-14.8,6.67-5.49,9.77-13.28,12.94-21,3.65-8.87,2-17.21-.86-26.21-5.82-18.22-17.77-33.4-32-45.77a82.6,82.6,0,0,1-13.78-14.51c-1.87-2.65-3.84-5.77-4.62-8.58,0-6.14.11-9.6,1.5-15.39,1.29-5.41,4-11.39,2.75-16.78-7.11-.35-14.11-.77-21.11-.1q-9.77.93-19.38,2.44c-18.66,3-30.6,10.24-36.46,12.41-3.29,1.24-13.66,6.27-16.84,7.72-4.13,3.11-10.93,3.56-10.93,10.11,0,1.66,1.28,2.74,1.37,3.66s-1.09,1.31-.77,2.43c.81,3,5.32,1.59,7.47,1.94-2.79,1.16-6.14,1.69-9.06,2.75-3.24,1.08-6.3,2.63-9.44,4-6.38,2.82-12,5.08-17.76,9.16-3.77,2.71-10.19,7.86-11.49,12.54-.76,2.86,0,7.3,3.53,7.86-3.34,2-7.4,4.45-8.49,8.58-.92,3.52-.66,8.79,3.63,9.79-1.47.88-3.34,1.41-5,2.33a35.35,35.35,0,0,0-5.49,4,48.7,48.7,0,0,0-8.53,9.2C471.29,206.56,472.13,212.36,474.37,215.93Z" transform="translate(-253.28 -49.93)"/><path class="cls-5" d="M262.29,262.37c.25-2,1-5.52,2.44-7,6.87,0,12.59.7,19.53.52,4.54-.1,8.56-2,13-2.88,5.11-1,10.25-1.1,15.18-2.82,2.72-1,5.5-1.71,8.29-2.57a49.26,49.26,0,0,0,4.56,2.31c6.57,2.93,14.25,4.31,21.44,5.57,9,1.55,17.67,4.47,26.59,6.24,1.13.2,2.22.45,3.35.7a20,20,0,0,1-3,2,58,58,0,0,1-7,3.06c-1.11.38-2.27.78-3.43,1.13-3.34,1-6.94,1.14-10.29,2.14-3.09.95-6,2.75-8.91,4.09-5.55,2.54-11,5.54-16.7,7.54-2.85,1-6,1.37-8.77,2.5-2,.81-13.27,5.2-15.27,6.06-1.23-.24-2.89.58-4.09.86a14.93,14.93,0,0,1-5.77.6c-4.91-.73-9.17-2.57-13.72-4.29a36.45,36.45,0,0,1-9.69-6c-1.31-1.1-2.89-1.8-4.13-3-2.39-2.29-2.56-5-3.06-8.11A32.75,32.75,0,0,1,262.29,262.37Z" transform="translate(-253.28 -49.93)"/><path class="cls-2" d="M254.76,247.27c2.56,3.7,4.72,8,10,7.89,6.87,0,12.59.7,19.53.52,4.54-.1,8.56-2,13-2.88,5.11-1,10.25-1.1,15.18-2.82,2.72-1,5.5-1.71,8.29-2.57-3.59-2.05-7.11-4.44-10.54-6.66-4-2.64-5.84-6.59-1.41-9.76,5.88-4.17,14.31-3.45,21.11-3.17,4.29.2,8.71.63,13,1.2a65.73,65.73,0,0,1,7.57,1.34,55.1,55.1,0,0,1,11.56-2.21c4-.39,7.76-1.62,11.67-1.83,4.56-.28,9.39-.28,14-.28,4.4,0,9-.53,13.28-.53a9.76,9.76,0,0,1,3.66,1,6.1,6.1,0,0,1,1.1-.14c4-.43,7.89.08,12,0s8.23-1.24,12-.08a16.55,16.55,0,0,1,4.29-6.94,13.28,13.28,0,0,1,1.94-4.93c2-3.17,5.46-4.69,8.46-6.69a118,118,0,0,1,13.07-7.8,64.19,64.19,0,0,1,16.6-5.5,41.74,41.74,0,0,1,8.07-.67,35.35,35.35,0,0,1,5.49-4c1.62-.91,3.48-1.47,5-2.33-4.26-1-4.55-6.27-3.63-9.79,1.09-4.17,5.18-6.64,8.49-8.58-3.53-.56-4.3-5-3.53-7.86,1.31-4.68,7.68-9.83,11.49-12.54,5.79-4.1,11.39-6.36,17.79-9.18,3.17-1.32,6.23-2.88,9.44-4,2.93-1,6.27-1.58,9.06-2.75-2.15-.35-6.66,1.06-7.47-1.94-.32-1.13.9-1.41.77-2.43s-1.37-1.94-1.37-3.66c0-6.55,6.8-7,10.93-10.11,3.18-1.47,13.55-6.49,16.84-7.72,5.86-2.17,17.8-9.41,36.46-12.41,6.38-1,12.88-1.82,19.38-2.44,7-.67,14-.25,21.11.1,1.25,5.39-1.45,11.37-2.75,16.78-1.39,5.79-1.5,9.25-1.5,15.39.78,2.79,2.75,5.9,4.62,8.58a83.57,83.57,0,0,0,13.72,14.51c14.24,12.37,26.19,27.55,32,45.77,2.86,9,4.52,17.33.86,26.21-3.18,7.68-6.28,15.5-12.94,21-6,5-12.49,10.61-19.16,14.66-7.86,5-16.24,8.81-24.24,13.46a191.4,191.4,0,0,1-24.32,11.38c-10.22,4.12-20.75,4.32-31.5,5.42s-21.25,3.63-32.1,4.23a53.31,53.31,0,0,1-23.08-3.77c-3.35-1.24-7-2.54-10.64-4.06-6.8.81-13.92,1.41-18.92-2.08a48.8,48.8,0,0,1-3.94-3.06c-1.87,0-3.87-.06-5.87-.06a.15.15,0,0,1,0,.06c-.61,2.46-2.53,3.93-4.61,5.57-1.29,1.06-2.66,2.08-4,3-.85.55-2.93,1.23-2.79,2.39,3.59,0,6.87,2,10.64,2.19,2.93.14,5.89-.15,8.81,0,1.79.14,5.8,0,7.22,1-1,.84-2.68.35-3.84,1.44s.28,1.94,1.52,2.22c3.24.72,6.87-.46,10.15-.28a36.68,36.68,0,0,1,4.58.92,21.7,21.7,0,0,0,6.06-.5,51.72,51.72,0,0,1,12.62.15c2.78.23,6.69.28,8.63,2a9.44,9.44,0,0,0,2.26,1.2c3.74,1.41,8.91,3.31,13,3.55a88.19,88.19,0,0,0,11.84-.17c1.37,1.51,3,2.85,4.44,4.43,2.26,2.54,4.87,4.66,7.19,7.09a105.52,105.52,0,0,1,8.24,9c4,5.3,10,9.21,14.82,13.62a46.71,46.71,0,0,1-1.66-5.93c-.53-2-1.17-2.91.67-3.91,2.65-1.37,6.17-2.21,6.24-5.77.07-2.73-5.64-5-7.36-6.73-4.5-4.61-3.7-13-5-18.74a108.65,108.65,0,0,0,9.94-4.68c10.67-5.73,20.79-12,31.43-17.73,5.81-3.17,11.9-5.92,17.65-9.23,4.41-2.57,9.28-4.29,13.72-6.86,8-4.72,14.73-11.45,20.86-18.11,1.45-1.57,2.93-3.28,4.37-5a169.84,169.84,0,0,0,11.6-14.76c3.7-5.38,7-11,10.64-16.38,7.54-11.33,12-23.33,16-36.33,2.19-7,4.65-13.47,5.78-20.59a81.74,81.74,0,0,0,.52-20.71c-.28-2.71-1.09-5.49-1.09-8.14,0-.84-.18-3.09.42-3.66.86-.88,3.17-.49,4.29-.49,2.61,0,5.71-.39,8.07.39s4.55,2.5,6.94,3.35,4.68,1.68,7,2.68c1.8.86,4.84,2.32,6.34.21a3.76,3.76,0,0,0,.52-1.32,3.43,3.43,0,0,1-1.9,2.18c-1.59.54-2.74-.43-4.1-1a2.88,2.88,0,0,1-1.39-.86,6.41,6.41,0,0,0-1.1-1.26c-1.43-.94-3.36-1.52-4.86-2.38-2.15-1.23-6.23-2.62-7.45-4.76-.58-1-.45-2.37-.91-3.43a10.11,10.11,0,0,0-2.8-3.48c-.77-.56-2.29-1.06-2.72-2-.3-.69.39-1.61.15-2-.35-1.51-2.07-3.8-.86-4.8,1.57-1.29,3.34-2.46,5-3.7,1.24-.93,3.06-1.06,4.48-1.59a13.88,13.88,0,0,1,1.72-.5c0-1.1-.13-3,0-4.42a4,4,0,0,0,0-.57c0-.21.09-.54.09-.62a.65.65,0,0,1,0-.22,1.19,1.19,0,0,0,.09-.28.59.59,0,0,1,0-.11V81a1.41,1.41,0,0,1,.31-.43h0l.09-.08c-1.87-4.16-1.45-9.06-3-13.3-1.51-4-4.74-6.77-8.17-9.23-8.28-6-19.31-8.44-29.54-7.35-9.26.95-19.52,4.46-27.87,8.46-8.75,4.2-13.9,10.92-21.6,16.38-9.44,6.7-16.63,7-27.94,5.28-11.86-1.8-23.78-2.65-36-.8-12.44,1.86-24.44,4.08-36.44,8.91-15.57,6.22-32.8,10.15-47.71,18.22-14.36,7.75-29.28,15.66-43,24.24-3.49,2.14-6.45,5.17-9.73,7.29s-7,3.21-10.22,5.32c-8.24,5.38-17.55,10.16-25.09,16.53-3.06,2.61-6.37,4.83-8.77,8a10.34,10.34,0,0,0,2.36,0c-5.58.74-12,5.25-17.58,7.33-8.32,3.06-18.12,4.81-25.94,8.81-7.35,2-14.62,5.07-21.35,7.79-7.19,2.85-15.05,4.29-22.1,7.39-.59.26-1.19.5-1.79.73a114.64,114.64,0,0,1,18.76-4.1c6.06-.7,11.87-3,17.77-4.41a147.26,147.26,0,0,1,21.21-3.22c4-.37,7.52-1.8,11.52-1.53-2.77,2,2.85,2.66,3.71,3.17-1.35,1.49-5.63,1.75-7.63,2.3-3.22.87-6.47,1.56-9.65,2.49-12.79,3.78-24.4,11-37.47,14a193.48,193.48,0,0,0-21.36,6,2.94,2.94,0,0,0,.17.72c-9,2.33-18.46,3.35-27.62,5.21-7.34,1.49-14.85,2.47-22,4.66-5.31,1.59-10.1,6.2-13.66,10.43-1,1.15-1.57,2.64-2.57,3.83a22.3,22.3,0,0,0-2.15,2.57C253.44,244.69,253.29,245.36,254.76,247.27ZM725.09,93.93a8,8,0,0,1,2.77-2.8c1.44-.71,3.69.12,4.75,1.24a1.9,1.9,0,0,1,.19.29h0c.76,1.17,1.52,3.8,2.64,4.91a1.72,1.72,0,0,0-.59,0,2.79,2.79,0,0,0-.42.11,12.58,12.58,0,0,0-1.67.75l-.33.15-.27.1a6.62,6.62,0,0,1-5.22-.59C725.61,97.19,724.22,95.31,725.09,93.93Z" transform="translate(-253.28 -49.93)"/><path class="cls-6" d="M307.84,206.57c5.36-2.4,11.14-3.64,16.62-5.64h.09l1.13-.43a114.64,114.64,0,0,1,18.76-4.1c6.06-.7,11.87-3,17.77-4.41a147.26,147.26,0,0,1,21.21-3.22c4-.37,7.52-1.8,11.52-1.53-2.77,2,2.85,2.66,3.71,3.17-1.35,1.49-5.63,1.75-7.63,2.3-3.22.87-6.47,1.56-9.65,2.49-12.79,3.78-24.4,11-37.47,14a193.48,193.48,0,0,0-21.32,5.91c-.37-2.64,2-5.93,4.15-6.93-1.05-.14-1.92.67-2.92.92a43.32,43.32,0,0,1-5.32.42c-2.57.33-5.15.75-7.72.86-1.84.14-5.15.44-6.6-.86C302.55,208.09,306.54,207.23,307.84,206.57Z" transform="translate(-253.28 -49.93)"/><path class="cls-5" d="M380.29,276.86a125.47,125.47,0,0,1,15.33-4,47.4,47.4,0,0,0,11.13-3.93,10.46,10.46,0,0,0,1.37-.86l2,.46c-2,2-1.43,4-4,5.74-1.24,1.16-3.42,1.64-4.9,2.64a35.79,35.79,0,0,1-8.42,4.69c-4.19,1.48-9.9,1.9-14.13.24-1.18-.45-3.47-1.56-4-2.74C376.54,278.42,378.38,277.57,380.29,276.86Z" transform="translate(-253.28 -49.93)"/><path class="cls-5" d="M736.16,97.93c8.52,4.4,14,9.4,18.6,18-1.43-.94-3.36-1.52-4.86-2.38-2.15-1.23-6.23-2.62-7.45-4.76-.58-1-.45-2.37-.91-3.43a10.11,10.11,0,0,0-2.81-3.43c-.77-.56-2.29-1.06-2.72-2C735.71,99.28,736.4,98.36,736.16,97.93Z" transform="translate(-253.28 -49.93)"/><path class="cls-7" d="M746.63,82.93a4,4,0,0,0,0-.57c0-.21.09-.54.09-.62a.65.65,0,0,1,0-.22,1.19,1.19,0,0,0,.09-.28.59.59,0,0,1,0-.11V81a1.41,1.41,0,0,1,.31-.43h0a.59.59,0,0,1,.28-.12,2.18,2.18,0,0,1,1.3.07h0a4,4,0,0,1,1.5,2.09,25.58,25.58,0,0,0,1.08,2.74h0a25.08,25.08,0,0,0,1.6,3,.09.09,0,0,1-.11.14A13.39,13.39,0,0,0,750,87.16a9.38,9.38,0,0,0-3.53.17h0a.09.09,0,0,1-.08-.09A41.58,41.58,0,0,1,746.63,82.93Z" transform="translate(-253.28 -49.93)"/><path class="cls-7" d="M725.09,93.93a8,8,0,0,1,2.77-2.8c1.44-.71,3.69.12,4.75,1.24a1.9,1.9,0,0,1,.19.29h0c.76,1.17,1.52,3.8,2.64,4.91a1.72,1.72,0,0,0-.59,0,2.79,2.79,0,0,0-.42.11,12.58,12.58,0,0,0-1.67.75l-.33.15-.27.1a6.62,6.62,0,0,1-5.22-.59C725.61,97.19,724.22,95.31,725.09,93.93Z" transform="translate(-253.28 -49.93)"/><path class="cls-6" d="M735.41,93.15c1.57-1.29,3.34-2.46,5-3.7,1.24-.93,3.06-1.06,4.48-1.59a13.88,13.88,0,0,1,1.72-.5,9.44,9.44,0,0,1,3.62-.14c1,.18,2.14,1.14,3,1.43l.25.42h0c.4.89.55,1.68,1,2.68a35.8,35.8,0,0,0,2.31,4.2c1.26,2.77,2.48,5.57,3.7,8.34,1,2.18,2.36,4.37,2.86,6.55a18.13,18.13,0,0,1,.26,3.47,12.46,12.46,0,0,1-.25,2.51,3.43,3.43,0,0,1-2,2.22c-1.59.54-2.74-.43-4.1-1a2.88,2.88,0,0,1-1.39-.86,6.41,6.41,0,0,0-1.1-1.26c-4.61-8.64-10.08-13.62-18.61-18C735.85,96.46,734.12,94.14,735.41,93.15Z" transform="translate(-253.28 -49.93)"/><path class="cls-8" d="M763.35,116.93" transform="translate(-253.28 -49.93)"/><path class="cls-9" d="M704.29,76.16c-1.12,2.09-2.24,4.39-1.12,6.77a9.79,9.79,0,0,0,2.47,2.87,25.79,25.79,0,0,0,3.19,2.75,16.51,16.51,0,0,0,7.25,3c1.17.1,2.33-.55,3.43-.81a4.53,4.53,0,0,0,2.78-1.28c.74-.79,1.24-1.72,2-2.51s1.51-1.8,2.18-2.51.51-1.08.42-2.08a10.47,10.47,0,0,0-1-3.83,18.24,18.24,0,0,0-5-6.48,30.32,30.32,0,0,0-3.6-2.32A3.76,3.76,0,0,0,714.4,69c-1.56.34-4,.74-5.06,1.6A19.45,19.45,0,0,0,704.29,76.16Z" transform="translate(-253.28 -49.93)"/><path class="cls-10" d="M711.65,73.93c-1.27.51-1.64,1.66-2.13,2.81a4.54,4.54,0,0,0,1.24,5.62,6.28,6.28,0,0,0,6.85,1.44c2.67-1,4-3.77,2.44-6.35a9.91,9.91,0,0,0-2.5-2.91,5.59,5.59,0,0,0-2.86-.81A9.8,9.8,0,0,0,711.65,73.93Z" transform="translate(-253.28 -49.93)"/><path class="cls-11" d="M626.21,292.67a2.86,2.86,0,0,1,2.64.81c.72.55,1.35,1.2,1.84,1.55a7.79,7.79,0,0,1,3.38,5.6,6.69,6.69,0,0,1-.53,3.43c-2.15-1.84-4.94-3.21-7-5.15a3.26,3.26,0,0,1-.74-1.06C624.8,296.08,624.29,293.13,626.21,292.67Z" transform="translate(-253.28 -49.93)"/><path class="cls-11" d="M653.79,328.71h.35a44.46,44.46,0,0,1,4.72.42c1.59.17,6,.6,5.78,3.17a39.17,39.17,0,0,1-4.93-.35,23.25,23.25,0,0,0-5,.14,3,3,0,0,0-.1-1.44A5.4,5.4,0,0,0,653.79,328.71Z" transform="translate(-253.28 -49.93)"/><path class="cls-11" d="M626.37,353.07c.6-2.22,1.1-2.57,3.1-2.57,3.08,1.79,6.25,5.31,5.08,8.17-1.48.25-4.09-1.66-5.32-2.32s-2.49-1-3.73-1.66A3,3,0,0,0,626.37,353.07Z" transform="translate(-253.28 -49.93)"/><path class="cls-11" d="M630.61,312.49a25.51,25.51,0,0,1,7.72,0c1,.06,4.8.56,3.63,2-.75,1-4,1.47-5.08,1.72-1.4.32-2.92.53-4.4.74a1.11,1.11,0,0,1-.49.07A4.67,4.67,0,0,0,630.61,312.49Z" transform="translate(-253.28 -49.93)"/><path class="cls-8" d="M613,334.5h0" transform="translate(-253.28 -49.93)"/><path class="cls-4" d="M596.42,324.93c1.84-1,2.61-3.1,4.23-4.19,2-1.34,4.44-1.62,6.66-2.43a86.32,86.32,0,0,0,8.58-4c2.5-1.16,5-3,7.72-3.35,2.29-.35,5.22-.43,6.94,1.41,1.06,1.15,1.91,3.1,1.34,4.58a2.21,2.21,0,0,1-.57,1,9.27,9.27,0,0,1-3.21,1.66,39.46,39.46,0,0,1-6.1,2.29c-4.59,1.2-9.14,2.82-13.72,3.91a14,14,0,0,0-1.55.45c2.47.67,5.25.53,7.82.92,1.37.18,2.75,0,4.19.25s3,.63,4.44.77c1.75.1,3.47-.11,5.28,0s3.56.5,5.4.5a61.46,61.46,0,0,0,8.84-.45c2.65-.39,6-1.2,8.71-.81a3.3,3.3,0,0,1,2.29,1.27,5.4,5.4,0,0,1,.86,1.94,3,3,0,0,1,.1,1.44c-.21,1-1.09,1.55-2.43,1.94a42.71,42.71,0,0,1-12,2.15c-3.21,0-6.38.35-9.55.45-2.78.14-5.45-.54-8.24-.86-2.19-.24-4.44-.31-6.59-.63a5.4,5.4,0,0,1-2.29-.63,2.67,2.67,0,0,1-.53,0c1,1,2.17,1.93,3.17,2.79,3.67,3.06,7.76,5.91,11,9.44.89,1,2.44,2.46,2.89,3.7a3.22,3.22,0,0,0-.6,0c-2,0-2.5.35-3.1,2.57a3,3,0,0,1-.86,1.62c-1.34,1.09-3.35-.48-5.15-1.48-3.67-2-7-4.5-10.53-6.86a106,106,0,0,1-10.71-7.57c-1.48-1.27-3-2.6-4.48-3.84h0c-.6-2.19-1.16-4.76-1.41-6C592.61,325.76,594.29,326.18,596.42,324.93Z" transform="translate(-253.28 -49.93)"/><path class="cls-2" d="M373.68,264.34a20,20,0,0,0,3-2h0c4.36.95,8.66,2,13,2.89,1.19.24,2.39.42,3.59.56a20.77,20.77,0,0,1-1.94,1.2c-3.1,1.69-5.18,3.63-8.74,4.4-6.13,1.33-10.71-1.48-15.86-3.95A58,58,0,0,0,373.68,264.34Z" transform="translate(-253.28 -49.93)"/><path class="cls-12" d="M714.15,77.64a2.11,2.11,0,0,0,.57,1.37,1.44,1.44,0,0,0,1.37.39,2,2,0,0,1-3.66.7C711.34,78.61,713,77.93,714.15,77.64Z" transform="translate(-253.28 -49.93)"/><path class="cls-13" d="M714.21,77.41l.07-.1a.49.49,0,0,1,.1-.14c.57-1,2.22-.19,2.57.67a1.07,1.07,0,0,1-.86,1.55,1.44,1.44,0,0,1-1.37-.39,2.11,2.11,0,0,1-.57-1.37A.45.45,0,0,1,714.21,77.41Z" transform="translate(-253.28 -49.93)"/><path class="cls-9" d="M318.65,284.82c2.77-1.13,5.91-1.5,8.77-2.5,5.7-2,11.17-5,16.7-7.54,2.91-1.34,5.81-3.09,8.91-4.09,3.35-1,6.94-1.14,10.29-2.14,1.14-.35,2.31-.74,3.43-1.13,5.15,2.47,9.73,5.29,15.86,3.95,3.59-.77,5.63-2.68,8.74-4.4a20.77,20.77,0,0,0,1.94-1.2c3.31.41,6.58.64,9.86,1.27,1.65.32,3.31.67,4.93,1.06a10.46,10.46,0,0,1-1.37.86,47.4,47.4,0,0,1-11.15,3.88,125.47,125.47,0,0,0-15.33,4c-1.86.67-3.69,1.57-5.57,2.26h0c-3.91-.19-7.93,1.92-11.77,2.92-6.17,1.55-12.19,3.73-18.36,5.28A136.63,136.63,0,0,0,327.61,293a45.32,45.32,0,0,1-10.68,3.22c-1.51.21-3.74.73-5.39.28s-3.17-2.06-4.65-2.92c-1.3-.78-2.75-1.31-3.56-2.68C305.37,290.06,316.61,285.66,318.65,284.82Z" transform="translate(-253.28 -49.93)"/><path class="cls-6" d="M308.85,231.12c5.88-4.17,14.31-3.45,21.11-3.17,4.29.2,8.71.63,13,1.2a65.73,65.73,0,0,1,7.57,1.34c-4.39,1.34-8.47,3.46-11.15,6.66-5,6.07,3.38,8.46,8.38,9.66,4.79,1.17,11.7,2.61,17.3,1.94,1.49,2.68,5.78,4.08,8.35,5,6.69,2.4,12.54.67,19.24-.1,5.17-.6,10.18,0,15.33-.6,2.07,2.57,7.18.85,9.86.57a65,65,0,0,0,10.35-1.69A9,9,0,0,0,433,254.5a28.94,28.94,0,0,0,11.55-.17,11.26,11.26,0,0,0,3.88-1.94h.08a53.48,53.48,0,0,0,11.32,2.29h0l.43.28c1.83,1.19,3.74,2.7,5.46,4,6.88,5.29,12.23,12.23,18.76,17.8-1.87,0-3.87-.06-5.87-.06a5.72,5.72,0,0,0,.13-.69,8.66,8.66,0,0,0-3,.63c-15.36-.35-33.34-1.55-47.23-3.91-3.14-.53-6.25-1.2-9.31-1.9l-9.16-2.22-2-.46c-1.62-.39-3.27-.74-4.93-1.06-3.27-.64-6.55-.84-9.86-1.27-1.2-.14-2.4-.32-3.59-.56-4.37-.89-8.71-1.89-13-2.89h0c-1.14-.25-2.23-.49-3.35-.7-8.94-1.76-17.59-4.69-26.59-6.24-7.18-1.28-14.85-2.65-21.44-5.57a49.26,49.26,0,0,1-4.58-2.36c-3.59-2.05-7.11-4.44-10.54-6.66C306.16,238.17,304.34,234.22,308.85,231.12Z" transform="translate(-253.28 -49.93)"/><path class="cls-5" d="M339.34,237c2.69-3.23,6.78-5.32,11.15-6.66a55.1,55.1,0,0,1,11.57-2.29c4-.39,7.76-1.62,11.67-1.83,4.56-.28,9.39-.28,14-.28,4.4,0,9-.53,13.28-.53a9.76,9.76,0,0,1,3.66,1,90.78,90.78,0,0,0-24.38,6.66,36.23,36.23,0,0,0-10.53,6.31c-1.69,1.55-4.93,4.11-5.28,6.55a4,4,0,0,0,.52,2.68c-5.6.63-12.51-.77-17.3-1.94C342.74,245.53,334.29,243.13,339.34,237Z" transform="translate(-253.28 -49.93)"/><path class="cls-2" d="M364.55,245.93c.35-2.43,3.56-5,5.28-6.55a36.23,36.23,0,0,1,10.53-6.31,90.78,90.78,0,0,1,24.34-6.66,6.1,6.1,0,0,1,1.1-.14c4-.43,7.89.08,12,0s8.23-1.24,12-.08c-.2.64-.38,1.31-.52,1.94a68.33,68.33,0,0,0-8.29,4.51,34.59,34.59,0,0,0-9.37,8.31c-1.72,2.25-5.35,7.89-4.29,10.89a3.23,3.23,0,0,0,.63,1.09c-5.15.6-10.18,0-15.33.6-6.7.77-12.55,2.5-19.24.1-2.57-.88-6.87-2.29-8.35-5A4,4,0,0,1,364.55,245.93Z" transform="translate(-253.28 -49.93)"/><path class="cls-5" d="M411.65,240.93a34.59,34.59,0,0,1,9.37-8.31,68.33,68.33,0,0,1,8.29-4.51,7.3,7.3,0,0,0-.15,1,16.19,16.19,0,0,0,1.8,10.11,26.48,26.48,0,0,0-2.19,4.09c-.56,1.54-1.72,3.7-1.72,5.42a4.6,4.6,0,0,0,1.16,3.07,65,65,0,0,1-10.35,1.72c-2.68.29-7.78,2-9.86-.57a3.23,3.23,0,0,1-.63-1.09C406.29,248.93,409.86,243.25,411.65,240.93Z" transform="translate(-253.28 -49.93)"/><path class="cls-9" d="M428.71,243.36a26.48,26.48,0,0,1,2.19-4.06c3.34,6.3,10.54,10.56,17.54,13a11.26,11.26,0,0,1-3.88,1.94,29.42,29.42,0,0,1-11.55.17,9,9,0,0,1-4.83-2.57,4.6,4.6,0,0,1-1.16-3.07C427,247.08,428.18,244.93,428.71,243.36Z" transform="translate(-253.28 -49.93)"/><path class="cls-3" d="M429,229.09a9.12,9.12,0,0,0,.15-1,16.85,16.85,0,0,1,.52-1.94,16.55,16.55,0,0,1,4.29-6.94c-.87,5,1.35,10.07,5.57,13.84,3.84,3.42,7.08,5.08,12.23,5.5,3.66.36,7.26.51,10.92.86,5,.49,10.44,1,15.44.49a24.88,24.88,0,0,0,2.47-.42v.17a43.09,43.09,0,0,0,2.15,13.22,19.67,19.67,0,0,0,1.77,4.29c-1.23.07-2.43.17-3.66.35-3.49.53-6.55-.88-10.08-1.55s-7.22-1-10.93-1.41h0a53.48,53.48,0,0,1-11.34-2.29h-.08c-7-2.43-14.19-6.7-17.54-13A16.19,16.19,0,0,1,429,229.09Z" transform="translate(-253.28 -49.93)"/><path class="cls-5" d="M434.15,219.36a13.28,13.28,0,0,1,1.94-4.93c2-3.17,5.46-4.69,8.46-6.69a118,118,0,0,1,13.07-7.81,64.19,64.19,0,0,1,16.6-5.5,41.74,41.74,0,0,1,8.07-.67,48.7,48.7,0,0,0-8.53,9.2c-2.48,3.66-1.59,9.47.63,13a30,30,0,0,0,6.24,6.62c2.08,1.69,2.36,1.94,1.58,4.51a40.17,40.17,0,0,0-1.48,12.51,24.88,24.88,0,0,1-2.47.42,79.57,79.57,0,0,1-15.44-.49c-3.66-.4-7.26-.54-10.92-.86-5.18-.42-8.39-2.07-12.23-5.5C435.45,229.36,433.23,224.36,434.15,219.36Z" transform="translate(-253.28 -49.93)"/><path class="cls-5" d="M470.82,256c3.48.69,6.59,2.08,10.08,1.55,1.22-.18,2.42-.28,3.66-.35a11.75,11.75,0,0,0,1.34,2c1.34,1.65,3.62,3.07,4.48,4.86,1.66,3.36,1.9,7.22,4.9,10.22,3.2,3.25,7.57,5.6,12.12,7.54-6.8.81-13.92,1.41-18.92-2.08a48.8,48.8,0,0,1-3.94-3.06c-6.53-5.57-11.9-12.51-18.76-17.8-1.73-1.26-3.63-2.76-5.46-4l-.43-.28C463.61,255,467.34,255.3,470.82,256Z" transform="translate(-253.28 -49.93)"/><path class="cls-9" d="M473.66,202.93a48.7,48.7,0,0,1,8.53-9.2,35.35,35.35,0,0,1,5.49-4c1.62-.91,3.48-1.47,5-2.33-4.26-1-4.55-6.27-3.63-9.79,1.09-4.17,5.18-6.64,8.49-8.58-3.53-.56-4.3-5-3.53-7.86,1.31-4.68,7.68-9.83,11.49-12.54,5.79-4.07,11.39-6.33,17.79-9.15,3.17-1.32,6.23-2.88,9.44-4,2.93-1,6.27-1.58,9.06-2.75-2.15-.35-6.66,1.06-7.47-1.94-.32-1.13.9-1.41.77-2.43s-1.37-1.94-1.37-3.66c0-6.55,6.8-7,10.93-10.11,3.18-1.47,13.55-6.49,16.84-7.72,5.86-2.17,17.8-9.41,36.46-12.41,6.38-1,12.88-1.82,19.38-2.44,7-.67,14-.25,21.11.1,1.25,5.39-1.45,11.37-2.75,16.78-1.39,5.79-1.5,9.25-1.5,15.39.78,2.79,2.75,5.9,4.62,8.58a83.57,83.57,0,0,0,13.72,14.51c14.24,12.37,26.19,27.55,32,45.77,2.86,9,4.52,17.33.86,26.21-3.18,7.68-6.28,15.5-12.94,21-6,5-12.49,10.61-19.13,14.82-7.86,5-16.24,8.81-24.24,13.46A191.4,191.4,0,0,1,604.76,280c-10.22,4.12-20.75,4.32-31.5,5.42s-21.25,3.63-32.1,4.23a53.31,53.31,0,0,1-23.11-3.74c-3.35-1.24-7-2.54-10.64-4.06-4.55-1.94-8.92-4.26-12.12-7.54-3-3-3.24-6.91-4.9-10.22-.89-1.79-3.14-3.2-4.48-4.86a11.75,11.75,0,0,1-1.34-2A19.67,19.67,0,0,1,482.8,253a43.09,43.09,0,0,1-2.11-13.22v-.17a40.17,40.17,0,0,1,1.48-12.51c.78-2.61.5-2.79-1.58-4.51a30,30,0,0,1-6.24-6.62C472.13,212.36,471.29,206.56,473.66,202.93Z" transform="translate(-253.28 -49.93)"/></svg>