<svg id="p3" xmlns="http://www.w3.org/2000/svg" viewBox="0 0 187.33 243.19"><defs><style>.cls-1{fill:#c8d4e4;stroke:#c8d4e4;}.cls-1,.cls-10,.cls-11,.cls-12,.cls-2,.cls-3,.cls-4,.cls-5,.cls-6,.cls-7,.cls-8,.cls-9{stroke-miterlimit:10;stroke-width:0.45px;}.cls-2{fill:#c8c3c2;stroke:#c8c3c2;}.cls-3{fill:#d27793;stroke:#d27793;}.cls-4{fill:#4b516b;stroke:#4b516b;}.cls-5{fill:#526680;stroke:#526680;}.cls-6{fill:#7388a0;stroke:#7388a0;}.cls-7{fill:#bacafc;stroke:#bacafc;}.cls-8{fill:#283a56;stroke:#283a56;}.cls-9{fill:none;}.cls-12,.cls-9{stroke:#000;}.cls-10{fill:#c78b7a;stroke:#c78b7a;}.cls-11{fill:#fdfdfe;stroke:#fdfdfe;}</style></defs><title>pigeon-svg-3</title><path class="cls-1" d="M58.76,222.53a15.87,15.87,0,0,1-2.2,1.56,53.8,53.8,0,0,1-5.63,2.1,113,113,0,0,1-14.42,4.07c-6.15,1.18-12.55,1-18.71,1.95-3.17.52-6.1,1.9-9.25,2.21-2.1.2-3,.25-3-2.17a2.89,2.89,0,0,1,.09-.8,19,19,0,0,1,1.91-2.76c1.47-1.79,2.86-3.54,4.31-5.22a9.79,9.79,0,0,0-1.35,5.11c.29,3.53,2.84,3,5.38,2.1,8.68-2.93,18.06-4.13,27.14-5.74,3-.52,5.74-1.08,8.65-1.83,1.79-.45,3.69-1.14,5.58-1.77h0a17.26,17.26,0,0,0,1.37,1.08Z" transform="translate(-0.22 -31.02)"/><path class="cls-2" d="M166.58,232.9c-.52.49-1.88-.74-2.39-1a17.13,17.13,0,0,0-1.88-.72,1.68,1.68,0,0,0,.29-1c0-.54-.22-.49.16-1s.78-.45.49-1.07a1.53,1.53,0,0,0-.45-.45,3.33,3.33,0,0,1,1.79.69,12.73,12.73,0,0,1,1.72,2C166.7,230.85,167.16,232.37,166.58,232.9Z" transform="translate(-0.22 -31.02)"/><path class="cls-3" d="M162.76,229.15c-.38.56-.16.52-.16,1a1.68,1.68,0,0,1-.29,1c-.8,1.25-3.31.67-4.65.61a7.89,7.89,0,0,0-6,2,35.72,35.72,0,0,0-3.33,5c-1.68,2.59-4.93,2.79-8,2.93a4.22,4.22,0,0,0-1.16-1.09c-.74-.45-1.32-1.07-2-1.52-.87-.56-2.1-.38-3.08-.58-.67-.13-1.35-.31-2.06-.52a3.72,3.72,0,0,0,.61-1.86,4.49,4.49,0,0,0,0-.74c.18.11.34.22.52.31a8.47,8.47,0,0,0,4.65.65,4.34,4.34,0,0,0,.74-.16c2.64-.72,4.56-3.08,6.53-4.87l.82-.74a19.18,19.18,0,0,1,7.29-4.43,13.4,13.4,0,0,1,7.8.27,11,11,0,0,1,1.86,1.14,1.53,1.53,0,0,1,.45.45C163.54,228.7,163.05,228.72,162.76,229.15Z" transform="translate(-0.22 -31.02)"/><path class="cls-2" d="M149.75,226.33c-.25.85-.82-.13-1.25-.43a3.32,3.32,0,0,0-1.16-.45v-.07a1.68,1.68,0,0,0-.34-2.17,8.88,8.88,0,0,0-1-.94,1.66,1.66,0,0,1,1.68-.07,3.79,3.79,0,0,1,1.5,2C149.39,224.81,149.93,225.68,149.75,226.33Z" transform="translate(-0.22 -31.02)"/><path class="cls-3" d="M147.36,225.41v.07a24.64,24.64,0,0,0-1.43,2.88,6.5,6.5,0,0,0-.07,2.28l-.82.74c-2,1.79-3.89,4.16-6.53,4.87a10.91,10.91,0,0,0,2.08-4.25c.52-2.3.67-4.93,1.65-7.08.56-1.23,1.56-3.65,3.31-3.26a1.7,1.7,0,0,0,.45.65,8.88,8.88,0,0,1,1,.94A1.67,1.67,0,0,1,147.36,225.41Z" transform="translate(-0.22 -31.02)"/><path class="cls-1" d="M157.08,150.75c-1.35,2.69-6.69,11.71-10.82,18.17-.62,1-1.21,1.88-1.76,2.69-.31.45-.6.9-.9,1.3-6.13,9.06-7.73,21.59-16,29.28-3.66,3.42-8.37,7.08-13.41,7.57-4.88.48-8.57,2.52-13.35,3.84-5.78,1.6-11.21,3.21-16.51,6.53-3.61,2.27-8.13,5.18-12.4,5.62a20.47,20.47,0,0,1-11-1.92,18.6,18.6,0,0,1-2.28-1.35l-.16-.11a17.26,17.26,0,0,1-1.37-1.08h0a23.16,23.16,0,0,0-3.59-2.8c-.18-.1-.36-.2-.56-.29a80.92,80.92,0,0,0-8.67-3.09,9.08,9.08,0,0,1-2.69-1.42c-2.6-2-3-5.17-4.24-8.46-.38-1-1-1.94-1.47-2.92a6.19,6.19,0,0,1-.54-1.67,15.73,15.73,0,0,1-.07-2.24c.84-1.3,1.61-2.65,2.44-3.94,3.44-5.34,7.22-10.64,10.44-15.8A25.75,25.75,0,0,0,50,174.52c1.41-3.35,3.14-6.73,6.19-8.78,2.88-1.92,4.48-1.63,6.15-5.23,3.14-6.84,5.64-13.9,8.86-20.76s8.07-12.29,12.34-18.35a170.38,170.38,0,0,0,9.68-15.2,27.26,27.26,0,0,0,2.43-6c1.9,5.77,12.63,11.81,16.1,13.87,4.17,2.47,25.92,15,40.24,20C159.63,136.74,162.31,140.38,157.08,150.75Z" transform="translate(-0.22 -31.02)"/><path class="cls-4" d="M57.22,221.35c-1.9.63-3.79,1.32-5.58,1.77-2.91.76-5.68,1.32-8.65,1.83-9.07,1.61-18.46,2.82-27.14,5.74-2.52.85-5.07,1.43-5.38-2.1a9.87,9.87,0,0,1,1.35-5.11A54.66,54.66,0,0,1,16.07,219c2.43-2.24,4.8-4.41,7-6.85-2.35,3.63-5.53,7.24-5.64,11.63-.11,4.14,3.17,2.91,6.15,2a78.26,78.26,0,0,1,12.61-2.39,76,76,0,0,0,17.49-4.86A23.59,23.59,0,0,1,57.22,221.35Z" transform="translate(-0.22 -31.02)"/><path class="cls-5" d="M53.65,218.54a76,76,0,0,1-17.49,4.86,78,78,0,0,0-12.61,2.39c-3,.94-6.28,2.17-6.15-2,.11-4.39,3.29-8,5.64-11.63h0c.35-.39.69-.79,1-1.19,2.52-3.06,5.34-5.61,8.12-8.41a23.93,23.93,0,0,0,3.19-4.13,15.73,15.73,0,0,0,.07,2.24,6.19,6.19,0,0,0,.54,1.67c-2.93,5.79-7.53,16.34.81,14.06a17.13,17.13,0,0,0,3.29-1.63,12.22,12.22,0,0,0,1.62-1,9.08,9.08,0,0,0,2.69,1.42,85,85,0,0,1,8.67,3.09A4.55,4.55,0,0,1,53.65,218.54Z" transform="translate(-0.22 -31.02)"/><path class="cls-4" d="M61,223.86a27.1,27.1,0,0,1-5.38,3.05,79.05,79.05,0,0,1-11.21,3.4c-2.17.45-4.36.54-6.44,1.14-1.35.4-2.65,1.06-4,1.5l.18-.26c-6.48,1.45-13.68,1.39-20.32,2.79-2.64.56-6,2.14-8.9,1.3-2.1-.63-1.32-1.3-.45-3.17.36-.77.7-1.47,1.09-2.14a2.89,2.89,0,0,0-.09.8c.07,2.41.9,2.37,3,2.17,3.14-.31,6.08-1.69,9.25-2.21,6.15-1,12.55-.76,18.71-1.95a107.68,107.68,0,0,0,14.42-4.07,53.8,53.8,0,0,0,5.63-2.1,15.87,15.87,0,0,0,2.2-1.56A18.59,18.59,0,0,0,61,223.86Z" transform="translate(-0.22 -31.02)"/><path class="cls-6" d="M186.67,130.86c-.83,4.07-1.18,8.94-3.26,12.36a239.92,239.92,0,0,0-11.51,21.62,72.45,72.45,0,0,1-6.06,9.77c-2.66,3.82-4.87,7.8-7.89,11.38a241.52,241.52,0,0,1-17.63,18.53c-2.33,2.24-4.38,4.6-6.6,6.93a31.66,31.66,0,0,1-5.83,4.48h0a23.16,23.16,0,0,1-.9,2.15c-.65,1.07-1.69,1.68-2.39,2.64-1.16,1.59-.25,4.74.2,6.55.49,2,2.39,2.24,4,3.22,2.24,1.32,5.38,5.47,2.69,7.8a14.16,14.16,0,0,0-2.79-.76c-.92-.25-1.74-.65-2.64-.9-2-.65-4-1.3-6-.61a10.29,10.29,0,0,0-2.77-2.46c-1.05-.72-2.28-1.16-3.35-1.86-1.23-.8-2.19-2.08-3.59-2.55-1.18-.38-2.17,0-3.22-.81-.45-.35-1.09-1.41-1.59-1.92a19.5,19.5,0,0,0-3.2.87,18.92,18.92,0,0,0,2.3,2.55c-2.21,0-6.06,3.65-6.42,5.77a37.63,37.63,0,0,1-3.22-2.28c-.29,1-.47,3.06-1.56,3.22s-4.16-2.84-5.19-3.47a42.33,42.33,0,0,0-5.5-2.75c-4.16-1.77-10.76,1.77-15,3.26-2.69,1-5.86,1.18-8.56,2.24-2.46.94-4.67,3.14-6.86,4.65C47.27,244,42.73,249,37.84,253.05a68.92,68.92,0,0,1-8,5.17c-2.82,1.77-4.87,3.56-7.62,5.23-2.59,1.61-13.41,8.07-16.43,9.42-1.21.53-5.43,2.3-5.38-.11,0-1.43,3.4-4.18,4.36-5.19,3.91-4.16,7.4-8.78,11.42-12.94A160.16,160.16,0,0,0,34,232.94c1.35-.45,2.62-1.1,4-1.5,2.08-.6,4.27-.71,6.44-1.14a80.13,80.13,0,0,0,11.21-3.4A26.13,26.13,0,0,0,61,223.85a20.47,20.47,0,0,0,11,1.92c4.27-.45,8.78-3.35,12.4-5.62,5.28-3.32,10.72-4.93,16.51-6.53,4.78-1.32,8.47-3.37,13.35-3.84,5-.49,9.75-4.15,13.41-7.57,8.23-7.68,9.84-20.22,16-29.28.28-.4.57-.84.9-1.3.55-.82,1.14-1.74,1.76-2.69,4.13-6.46,9.47-15.49,10.82-18.17,5.21-10.38,2.53-14-5-16.65-14.35-5-36.07-17.51-40.24-20-3.47-2.06-14.2-8.1-16.1-13.87C98.23,91.13,96.29,80.95,94,72c-2.21-8.81-5.17-22.29-.65-30.69,2.37-4.45,7.27-7.82,11.85-9.55,2.34-.85,5-.36,7.38-.25,2.91.13,3.38.9,5.47,2.48a4,4,0,0,1,2.79,2c4.12.13,8.83,5.38,12.29,7.47,8.74,5.28,18.18,10.35,24.53,18.55,5.38,6.93,11.13,13.93,13.84,22a5.88,5.88,0,0,0-2.39-2A65.65,65.65,0,0,0,174.91,92c5.9,7.85,9.16,16.29,11.49,25.5A28.69,28.69,0,0,1,186.67,130.86Z" transform="translate(-0.22 -31.02)"/><path class="cls-7" d="M110.32,235.87c0,.74-.22.9-.94.85a2.3,2.3,0,0,0-.38,0,5.06,5.06,0,0,0-3.56,1.9,4,4,0,0,0-1.16,2.24h0c0,.69.07,1-.63,1.39s-.9.09-1.45-.38-1.48-1.14-2.17-1.77a7.94,7.94,0,0,1-1.88-2.52c-.34-.87.13-1.95.31-2.69l0,.07a2.69,2.69,0,0,1,.22-.43,14.42,14.42,0,0,1,2.52-3,5.43,5.43,0,0,1,3.14-1.52,4.51,4.51,0,0,1,2.59,1.45,18.38,18.38,0,0,1,2.82,3.08C110.05,235.07,110.3,235.25,110.32,235.87Z" transform="translate(-0.22 -31.02)"/><path class="cls-3" d="M121.92,247.77a3.43,3.43,0,0,0-.18-.43c-.13-.27-.52-1-.85-.82a.14.14,0,0,0-.09,0l-.07.07,0,0a2,2,0,0,0-.85,2.55,10.15,10.15,0,0,1,.63,1.74c-.82.45-1.59-.31-2.24-.94-.49-.45-.81-1.12-1.39-1.48s-1.45-.76-2.13-1.23a9.86,9.86,0,0,0-4.11-1.72,7.38,7.38,0,0,0-2.52,0c-.49.07-1.45.29-1.9,0a5,5,0,0,1-.9-1.61,19.05,19.05,0,0,1-.74-2.24c-.07-.25-.13-.49-.22-.76h0a4,4,0,0,1,1.16-2.24,5.15,5.15,0,0,1,3.56-1.9c.22.09.43.2.65.31a9,9,0,0,0,2.08.78c.65.16.67.54.9,1.14a.47.47,0,0,0,.07.16c.85,1.95,2.77,3.11,4.6,4,.49.25.94.52,1.39.78s1.09.69,1.65,1a3,3,0,0,1,1.39,1.52A3.38,3.38,0,0,1,121.92,247.77Z" transform="translate(-0.22 -31.02)"/><path class="cls-3" d="M139.83,246.07l.58.56a1.72,1.72,0,0,1-1.48.94c-1.32,0-2.1-1-3-1.77-2.1-1.68-5.19-2.39-7.82-3a8.68,8.68,0,0,0-4.78,0,25.29,25.29,0,0,1-4.58,1.09c-.45-.27-.9-.54-1.39-.78-1.83-.94-3.76-2.1-4.6-4,.58-.11,1.16-.4,1.77-.52a11.66,11.66,0,0,0,4.2-1.74c1.48-.9,2.77-1.77,4.56-1.39,1.95.4,3.86,1,5.77,1.63,1,.31,2,.65,3,.94.69.2,1.39.38,2.06.52,1,.2,2.21,0,3.08.58.69.45,1.27,1,2,1.52a4.22,4.22,0,0,1,1.16,1.09,3.59,3.59,0,0,1,.65,1.9c-.31-.36-.67-.65-1.12-.38a.17.17,0,0,0-.09,0C139,243.63,139.4,245.64,139.83,246.07Z" transform="translate(-0.22 -31.02)"/><path class="cls-2" d="M122.14,250.65a21.79,21.79,0,0,1-.11,2.41c-.07.4-.22,1.86-.72,1.9-.11-.74-.31-1.52-.45-2.28-.11-.61-.22-1.16-.38-1.72a10.15,10.15,0,0,0-.63-1.74,2,2,0,0,1,.85-2.55,0,0,0,0,1,0,0s0-.07.07-.07.07,0,.09,0c.34-.18.72.56.85.82a3.43,3.43,0,0,1,.18.43h0A7.17,7.17,0,0,1,122.14,250.65Z" transform="translate(-0.22 -31.02)"/><path class="cls-2" d="M143.47,250.63c-.45-.27-.45-1-.74-1.41a12.8,12.8,0,0,0-2.32-2.59l-.58-.56c-.43-.43-.78-2.43,0-2.77a.17.17,0,0,1,.09,0c.45-.27.8,0,1.12.38a4.1,4.1,0,0,1,.29.36,20.06,20.06,0,0,1,1.79,3.06C143.61,248.08,144.27,249.51,143.47,250.63Z" transform="translate(-0.22 -31.02)"/><path class="cls-8" d="M118.24,34.07l-.65-.22a3.91,3.91,0,0,1,.48.11A1.87,1.87,0,0,1,118.24,34.07Z" transform="translate(-0.22 -31.02)"/><path class="cls-8" d="M118.24,34.07l-.65-.22a3.91,3.91,0,0,1,.48.11A1.87,1.87,0,0,1,118.24,34.07Z" transform="translate(-0.22 -31.02)"/><path class="cls-8" d="M118.24,34.07l-.65-.22a3.91,3.91,0,0,1,.48.11A1.87,1.87,0,0,1,118.24,34.07Z" transform="translate(-0.22 -31.02)"/><path class="cls-8" d="M118.07,34a3.89,3.89,0,0,0-.49-.11l.65.22S118.13,34,118.07,34Z" transform="translate(-0.22 -31.02)"/><path class="cls-8" d="M118.24,34.07l-.65-.22a3.91,3.91,0,0,1,.48.11A1.87,1.87,0,0,1,118.24,34.07Z" transform="translate(-0.22 -31.02)"/><path class="cls-8" d="M118.24,34.07l-.65-.22a3.91,3.91,0,0,1,.48.11A1.87,1.87,0,0,1,118.24,34.07Z" transform="translate(-0.22 -31.02)"/><path class="cls-8" d="M118.24,34.07l-.65-.22a3.91,3.91,0,0,1,.48.11A1.87,1.87,0,0,1,118.24,34.07Z" transform="translate(-0.22 -31.02)"/><path class="cls-8" d="M118.24,34.07l-.65-.22a3.91,3.91,0,0,1,.48.11A1.87,1.87,0,0,1,118.24,34.07Z" transform="translate(-0.22 -31.02)"/><path class="cls-9" d="M128.78,59.35h-.07v0A.08.08,0,0,0,128.78,59.35Z" transform="translate(-0.22 -31.02)"/><path class="cls-5" d="M137.68,69.25a1.79,1.79,0,0,1-.56.9,3.07,3.07,0,0,1-2.66,0A15.19,15.19,0,0,1,130.7,68c-1.54-1.07-3.24-1-5-1.54-1.32-.43-2.69-.8-4-1.25A14.43,14.43,0,0,1,120,64.14l.82-.4a15.88,15.88,0,0,0,2-.94,6.79,6.79,0,0,0,1.35-1.63c.45-.58.78-.76,1.45-.56.52.16.74.43,1-.18.52-1.07-.56-3,.82-3.76.18.45.56,2.52,1.27,2.64v0h0a27.3,27.3,0,0,1-.43-3.11,21.9,21.9,0,0,0-.13-3c.36.4.82.69,1.18,1.07a8.12,8.12,0,0,1,1.31,1.93c.29.65.45,1.35.74,2,.38.9.85,1.74,1.23,2.66a24.43,24.43,0,0,0,2.61,4,36.17,36.17,0,0,0,2,3.06C137.52,68.41,137.84,68.7,137.68,69.25Z" transform="translate(-0.22 -31.02)"/><path class="cls-1" d="M121.72,44.27c-.2-.13-.38-.54-.54-.72-.36-.43-.69-.82-1-1.27a15.81,15.81,0,0,1-1.3-1.9c-.87-1.54-1.35-3.35-2.39-4.78a8.14,8.14,0,0,1-1.27-2c-.18-.43-.52-1.39-.22-1.83a5.12,5.12,0,0,1,2.46,1.16,5.38,5.38,0,0,1,.9,1l-.36-.16h0c-.45,0-1,.09-1,.63a7.89,7.89,0,0,0,.29,1.41,15.86,15.86,0,0,0,1.48,3.91,2.76,2.76,0,0,0,1.27,1.43c.67.27,1,0,1.18-.8a7.25,7.25,0,0,0-.22-3.17c.13.31.2.69.34,1.07a14.55,14.55,0,0,1,.9,2.39,11.12,11.12,0,0,1,.34,2.1C122.61,43.21,122.56,44.82,121.72,44.27Z" transform="translate(-0.22 -31.02)"/><path class="cls-10" d="M121.45,37.18v0c0-.22-.11-.43-.18-.65a4.26,4.26,0,0,0-1.45-2,3.89,3.89,0,0,0-1-.58l-.36-.16h0c-.45,0-1,.09-1,.63a7.89,7.89,0,0,0,.29,1.41,15.86,15.86,0,0,0,1.48,3.91,2.76,2.76,0,0,0,1.27,1.43c.67.27,1,0,1.18-.8A7.25,7.25,0,0,0,121.45,37.18Zm-1.23,2c-.25.45-.9.16-1.14-.18a2.86,2.86,0,0,1-.69-1.77c0-.31.07-1.07.49-1.07a4.69,4.69,0,0,1,.85,1.21c.16.4.69,1.39.49,1.81Z" transform="translate(-0.22 -31.02)"/><path class="cls-1" d="M108.42,62.86a8.29,8.29,0,0,0-1.21.54,2.24,2.24,0,0,1-1.35.56,6,6,0,0,1-.9,0c-.25,0-.52-.13-.76-.2a3.44,3.44,0,0,1-.43-.18,3.21,3.21,0,0,0,1.56-1,1.08,1.08,0,0,0,.29-.76c-.07-.2-.29-.27-.45-.36a6.19,6.19,0,0,1-1.21-.63,3.8,3.8,0,0,0-1.14-.54h-.07a3.78,3.78,0,0,0-1.07-.27,12.55,12.55,0,0,0-1.83-.31c-.18,0-.56-.13-.72,0S99,60,99,60.2a2.73,2.73,0,0,0,.36.82,5.68,5.68,0,0,0,.36.63,7.29,7.29,0,0,1-2.5-1.56A1.31,1.31,0,0,1,96.72,59a.68.68,0,0,1,.65-.63,3.21,3.21,0,0,1,1.52.31,4.1,4.1,0,0,0,.72.16l1,.22a5.29,5.29,0,0,1,.82.13l.74.2a6.73,6.73,0,0,1,1.32.52,7.23,7.23,0,0,0,1.09.4,1.68,1.68,0,0,0,.67.09.82.82,0,0,1,.4,0h.2a3.39,3.39,0,0,1,1.79.88C108.11,61.61,109.27,62.44,108.42,62.86Z" transform="translate(-0.22 -31.02)"/><path class="cls-11" d="M128.72,59.33c-.72-.11-1.09-2.17-1.27-2.64-1.39.72-.31,2.69-.82,3.76-.29.61-.52.34-1,.18-.67-.2-1,0-1.45.56a9.11,9.11,0,0,1-1.35,1.63,15.88,15.88,0,0,1-2,.94l-.82.4a3.12,3.12,0,0,1-2.64.45c-.58-.16-1.25-.72-1.86-.61-.45.07-.87.52-1.35.45-.76,0-1.18-1.65-.63-1.92.4-.18.9.2,1.21.09s0-.94,0-1.21a2.52,2.52,0,0,1-.34-1.32,5.27,5.27,0,0,1,.57-1.48c.8-1.61,3.11-4.36,5.23-3.65.11-.72-.36-1.56-.38-2.33a5.3,5.3,0,0,1,.81-2.84,5.59,5.59,0,0,1,2.55-1.74,3,3,0,0,1,2.24.11A2.5,2.5,0,0,1,127,49.49a14.07,14.07,0,0,1,.9,2.46,8.26,8.26,0,0,1,.22,1.3,21.9,21.9,0,0,1,.13,3C128.29,57.32,128.6,58.3,128.72,59.33Z" transform="translate(-0.22 -31.02)"/><path class="cls-12" d="M120.22,39.15c-.25.45-.9.16-1.14-.18a2.86,2.86,0,0,1-.69-1.77c0-.31.07-1.07.49-1.07a4.69,4.69,0,0,1,.85,1.21C119.89,37.74,120.43,38.72,120.22,39.15Z" transform="translate(-0.22 -31.02)"/><path class="cls-10" d="M105.63,61.79a1.08,1.08,0,0,1-.29.76,3.21,3.21,0,0,1-1.56,1h0a1.87,1.87,0,0,1-1,0,4.07,4.07,0,0,1-1-.22,6.45,6.45,0,0,1-1-.61A2.73,2.73,0,0,1,100,62a2.91,2.91,0,0,1-.22-.34,5.68,5.68,0,0,1-.36-.63,2.73,2.73,0,0,1-.36-.82c0-.16,0-.45.13-.56s.54,0,.72,0a12.55,12.55,0,0,1,1.83.31,3.78,3.78,0,0,1,1.07.27h.07a3.8,3.8,0,0,1,1.14.54,6.19,6.19,0,0,0,1.21.63C105.33,61.52,105.56,61.59,105.63,61.79Z" transform="translate(-0.22 -31.02)"/><path class="cls-12" d="M103.21,62a2.69,2.69,0,0,1-.85,0,3.44,3.44,0,0,1-.94-.16,1.21,1.21,0,0,1-.36-.22,2.12,2.12,0,0,1-.38-.22.57.57,0,0,1,0-.67c.16-.2.45-.13.69-.09a6.67,6.67,0,0,1,.72.16c.18.07.4.07.56.13a1,1,0,0,1,.43.18l.25.18c.07.07.27.16.29.22S103.39,61.95,103.21,62Z" transform="translate(-0.22 -31.02)"/><path class="cls-4" d="M41.72,213.75a12.22,12.22,0,0,1-1.61,1,16.75,16.75,0,0,1-3.29,1.63c-8.34,2.28-3.74-8.27-.81-14.06.45,1,1.09,1.92,1.47,2.92C38.71,208.58,39.12,211.7,41.72,213.75Z" transform="translate(-0.22 -31.02)"/><polyline class="cls-9" points="35.79 171.32 35.79 171.35 35.79 171.35"/></svg>