<svg id="d1" xmlns="http://www.w3.org/2000/svg" viewBox="0 0 237.67 308.07"><defs><style>.cls-1{fill:#7388a0;stroke:#7388a0;}.cls-1,.cls-10,.cls-11,.cls-13,.cls-14,.cls-2,.cls-3,.cls-4,.cls-5,.cls-9{stroke-miterlimit:10;}.cls-1,.cls-10,.cls-11,.cls-13,.cls-14,.cls-2,.cls-3,.cls-4,.cls-5,.cls-6{stroke-width:0.51px;}.cls-2{fill:#4b516b;}.cls-11,.cls-2{stroke:#4b516b;}.cls-3{fill:#fdfdfe;stroke:#fdfdfe;}.cls-4{fill:#c78b7a;stroke:#c78b7a;}.cls-5,.cls-6,.cls-9{stroke:#000;}.cls-6{stroke-linejoin:bevel;}.cls-7{fill:#4abccc;}.cls-8{fill:#c8c3c2;}.cls-11,.cls-9{fill:none;}.cls-9{stroke-width:1.03px;}.cls-10{fill:#d27793;stroke:#d27793;}.cls-12{fill:#526680;}.cls-13{fill:#93a2b5;stroke:#93a2b5;}.cls-14{fill:#c8d4e4;stroke:#c8d4e4;}</style></defs><title>pigeon-svg-1</title><path class="cls-1" d="M238.13,130.7a69.5,69.5,0,0,1-7.27,30.58c-2.11,4.35-4.32,8.62-6.75,12.76a27.9,27.9,0,0,1-4.77,5.73c-1.25,1.22-4.32,2.84-5.08,4.3-2.21,1.17-4.32,3.26-6.41,4.74a111.42,111.42,0,0,1-10,6.49c-3.67,2-7.06,4.51-10.84,6.38-3.23,1.59-6.49,3-9.77,4.53a98.83,98.83,0,0,1-16.8,6.3,41.28,41.28,0,0,1-6.36,1.33,7,7,0,0,0-.78,1.09c-1.75,3.73-3.46,8.36-.86,12.19.36.57.73,1.22,1.17,1.8.31.42,1.15.91,1,1.54-.26,1.09-3.2,2.11-4.06,2.55s-3,2-4,1.46c-1.59-.89-2.47-3-3.67-4.3a36.23,36.23,0,0,1-3.65-4.85,11.31,11.31,0,0,0-3.46-3.65c-1.25-.78-3.33.08-4.64.55s-2.74.65-3.88,1.2h0c-3.33,4.22-5,10.5-6.12,15.6a42.25,42.25,0,0,0-.57,8.91c0,2.21.78,4.32.76,6.38-1.54-.73-5,0-5.34,2-4.95-1-8.6-6.69-10.34-11.36s-.65-9.77-.23-14.43c.34-4,1.88-8-1.07-11.1A48.27,48.27,0,0,0,94.89,212c-2.66-1.69-6.72-3.46-8.57-6.07-1.77,0-2.81-.86-4.58-.78s-3.75.52-5.63.63c-4.87.26-10-.91-14.72-1.85s-9.09-1.75-13.65-2.89c-3.23-.81-7.16-1.17-10.08-2.63C35,197,32.55,195,29.84,193.92c-.89,1.09-5.11,1.48-6.62,1.82-4,.89-9.43,2.6-13.49,1.54a40.84,40.84,0,0,0-4.79-.73C3.4,196.32,2.36,195.48,1,195c.16-1.33,2.37-2.68,3.41-3.36a65,65,0,0,1,8.41-4.92c1.43-.63,2.87-1.3,4.22-2.06,1-.52,2-1.62,3.2-1.64.86-1.46.52-3.07.78-4.69a11.46,11.46,0,0,1,1.8-4.72,13.43,13.43,0,0,1,3.36-2.92A7.35,7.35,0,0,0,28.85,168c2.32-3.83,5.58-5.78,9.64-7.53s8.18-3.13,12.22-4.43c1.82-.6,3.57-1.46,5.39-2.06,1.07-.36,4.4-.36,4.74-1.51,2.89-2.81,7.68-6.93,10.73-9.69a9.12,9.12,0,0,0,1.88-1.33c1.46-1.12,2.84-2.37,4.3-3.49,6.83-5.24,11.77-12.82,16.85-19.62a67.18,67.18,0,0,1,9.07-9.93c2.81-2.55,5.44-3.8,8.73-5.6,6.9-3.7,13.21-8.78,20.11-12.5,7.66-4.12,10-10.21,13.81-17.45a155.08,155.08,0,0,0,15.53-43.71,62.46,62.46,0,0,1,5.57-17c2.79-5.55,6.15-7.71,11.93-9.53,4.72-1.48,11.8-2.71,16.54-.26A12.56,12.56,0,0,1,201,6.46a12.24,12.24,0,0,1,2.27,5.26c0,.26-.08,1,.16,1.07,1.72.81,2.6,3.65,2.34,5.6a7.91,7.91,0,0,1-1.22,2.71c-.7,1.28-.76.52-.76,1.93,0,1.9,1.12,4.09,1.59,5.89,1.15,4.27.36,9,.18,13.34a11.47,11.47,0,0,0,.42,3.41,144.42,144.42,0,0,0,10.65,28.06c4.58,9.09,9.25,18.29,14,27.2A62.24,62.24,0,0,1,238.13,130.7Z" transform="translate(-0.72 -0.75)"/><path class="cls-2" d="M198.68,45.85c-.42-.36-.81-.76-1.12-1.07a14.15,14.15,0,0,0-2-1.8,16,16,0,0,1-2.71-1.85c.49-.36.05-1.09-.21-1.56a1.83,1.83,0,0,0-1.46-1.15.65.65,0,0,0-.21,0c-.08-.21-.21-.42-.31-.63a19.34,19.34,0,0,0-1.77-2.37c-.39-.49-.78-1.3-1.25-2a4.84,4.84,0,0,0,.6,0h0a16,16,0,0,1,2.45,2.34,43.44,43.44,0,0,0,3.33,3.23c.83.83,1.82.65,2.47,1.77.83,1.35,1.07,3,1.82,4.38A6.7,6.7,0,0,1,198.68,45.85Z" transform="translate(-0.72 -0.75)"/><path class="cls-3" d="M192.9,41.14a.57.57,0,0,1-.13.08c-.65.29-1.09-.44-1.54-.78s-1.25-.6-1.35-1.17v-.05a1.31,1.31,0,0,1,1.15-.76.65.65,0,0,1,.21,0,1.83,1.83,0,0,1,1.46,1.15C193,40,193.4,40.77,192.9,41.14Z" transform="translate(-0.72 -0.75)"/><path class="cls-4" d="M174.67,22.12c0,1.3-.34,2.55-1.69,2.42a5.12,5.12,0,0,1-3.49-2.24,5.56,5.56,0,0,1-.76-4.79c.29-1,1.3-3.07,2.47-3.1a9.62,9.62,0,0,1,1.72,2,3.68,3.68,0,0,1,.49.89,4.43,4.43,0,0,0-1.12-.39,1.83,1.83,0,0,0-2,1.62c-.29,1.46.78,4.56,2.53,4.64A2,2,0,0,0,174.67,22.12Z" transform="translate(-0.72 -0.75)"/><path class="cls-5" d="M203.24,20.19c-.08-1.54.47-2.94.39-4.48l-.08-1.48A5.3,5.3,0,0,1,203.24,20.19Z" transform="translate(-0.72 -0.75)"/><path class="cls-6" d="M174.67,22.09v0a2,2,0,0,1-1.8,1c-1.75-.08-2.81-3.18-2.53-4.64a1.83,1.83,0,0,1,2-1.62,4.43,4.43,0,0,1,1.12.39s.55,1.67.83,2.47A8.42,8.42,0,0,1,174.67,22.09Z" transform="translate(-0.72 -0.75)"/><path class="cls-7" d="M159.69,238.67c-.1.1-.23.18-.34.29a34.15,34.15,0,0,1-3.86,2.84c-.57.36-1.12.7-1.69,1a7.23,7.23,0,0,1-1.33.86,2.46,2.46,0,0,1-.73.1v0c-2-.08-3.1-3.46-4-4.77a7.64,7.64,0,0,1-1.38-2.71,2.13,2.13,0,0,1,.91-1.9h0a3.1,3.1,0,0,0,.94-.23c1.3-.55,2.63-1.15,3.88-1.8,1.07-.55,2.42-1.15,2.4-2.45a2.16,2.16,0,0,1,2.55.73,26.43,26.43,0,0,1,2.14,3.13C160.21,235.39,161.51,237.19,159.69,238.67Z" transform="translate(-0.72 -0.75)"/><path class="cls-8" d="M135.72,246.2c-.49-.05-1-.1-1.46-.13s-1.46.21-2,0c.26-1.12,2.29-1.77,3.86-2.08C135.41,244.56,135,245.4,135.72,246.2Z" transform="translate(-0.72 -0.75)"/><path class="cls-8" d="M185.19,243.57c.31,1.35-2.55,2.4-3.46,2.76s-1.75.6-2.63.91c.68-1,1.25-2.34.49-3.2.78-.13,1.56-.26,2.37-.47A9,9,0,0,1,185.19,243.57Z" transform="translate(-0.72 -0.75)"/><path class="cls-9" d="M193,257.82a2.37,2.37,0,0,0-.6-.08" transform="translate(-0.72 -0.75)"/><path class="cls-8" d="M200.85,265.84a16.15,16.15,0,0,0-2.6-2.06c-1.67-1-3.54-1.75-5.29-2.6l-.31-.16a1.56,1.56,0,0,1-.91-1.62c0-.83.23-1.69,1.25-1.59l.29.08a18.73,18.73,0,0,1,1.77.89,12.87,12.87,0,0,1,4.32,2.89C199.88,262.28,201.76,265.3,200.85,265.84Z" transform="translate(-0.72 -0.75)"/><path class="cls-8" d="M113,272.12c-.78-.18-1.82-.57-1.82-1.12a4,4,0,0,1,1.64-.42A1.75,1.75,0,0,0,113,272.12Z" transform="translate(-0.72 -0.75)"/><path class="cls-8" d="M123.74,304.58a.78.78,0,0,1-.1.21,5.34,5.34,0,0,1-1.48,2c-.91.7-1.07-.08-1.12-.94a4.41,4.41,0,0,1,.34-1.88,2,2,0,0,1,2.16-1.43C124.34,302.89,124,303.83,123.74,304.58Z" transform="translate(-0.72 -0.75)"/><path class="cls-8" d="M160.7,281.58c-.55.94-1.8,1.25-2.92,1.69a4.23,4.23,0,0,0-1.43-2.63c.55.05,1.09.13,1.67.18C158.83,280.9,160.13,280.9,160.7,281.58Z" transform="translate(-0.72 -0.75)"/><path class="cls-9" d="M158.75,301.35a2.17,2.17,0,0,0-.39-.1" transform="translate(-0.72 -0.75)"/><path class="cls-8" d="M161.2,308.75c-.57.34-.73-.63-1.07-1a10.72,10.72,0,0,0-1.54-1.54,12.31,12.31,0,0,0-1.17-.94c-.16-.1-.34-.18-.52-.29-.7-.34-1.15-.52-1-1.43a2.49,2.49,0,0,1,2.87-2.16h.05c1,.47,1.8,2.11,2.21,3a7.43,7.43,0,0,1,.63,2C161.69,306.87,161.74,308.44,161.2,308.75Z" transform="translate(-0.72 -0.75)"/><path class="cls-10" d="M179.09,247.25a5.12,5.12,0,0,1-.63.78,4,4,0,0,1-2.32,1,11.92,11.92,0,0,0-1.67.39c-.13.05-.39.16-.7.31l-1.64-.55a15.4,15.4,0,0,1-3.46-2.06,33.93,33.93,0,0,1-3.62-2.45c-1.07-.91-2.24-1.88-3.26-2.89l.57.18a25.07,25.07,0,0,0,3.67.86,21.6,21.6,0,0,0,3.67.6c1.48,0,2.94-.26,4.43-.26,1.72,0,4-.52,5.34.76a.46.46,0,0,1,.1.13C180.34,244.9,179.77,246.26,179.09,247.25Z" transform="translate(-0.72 -0.75)"/><path class="cls-10" d="M122.2,275.9c-1.35-.16-2.81-.89-4.14-1.12a10.89,10.89,0,0,1-3.15-.73,4.31,4.31,0,0,1-1.93-1.93h0a1.75,1.75,0,0,1-.18-1.54c.21-.47.81-.81,1.93-.76a16.54,16.54,0,0,1,4.58,1.07c.68.23,1.33.65,2,.86v0c.26,1.09.52,2.19.73,3.28C122.1,275.35,122.15,275.64,122.2,275.9Z" transform="translate(-0.72 -0.75)"/><path class="cls-8" d="M166.23,261.78c-.47,0-1.46-1-1.8-1.38a.57.57,0,0,1-.13-.21h-.05c-.39-.63-.34-1.69.47-1.8.31.16.76.21,1.12.39a1.12,1.12,0,0,1,.52.52A3.68,3.68,0,0,1,166.23,261.78Z" transform="translate(-0.72 -0.75)"/><path class="cls-10" d="M191.73,259.41a1.56,1.56,0,0,0,.91,1.62,3,3,0,0,1-2.74-.05c-1.9-.78-3.13-2.42-5.08-3-2.24-.73-4.56-.91-6.88-1.43-2.94-.68-5.89-1.43-8.83-2.06-2.08-.47-4-1.41-5.91-2,.1.13.29.52.42.73.76,1.38,2.66,3.93,2.21,5.65-.36-.18-.81-.23-1.12-.39-.81.1-.86,1.17-.47,1.8a3.22,3.22,0,0,1-.47.05c-1.07,0-1.64-.78-2.24-1.56a21.94,21.94,0,0,0-2.19-2.21,20.4,20.4,0,0,0-2.89-2.92,29.18,29.18,0,0,0-7.55-4.12,40.32,40.32,0,0,0-8.54-1.82c-1.33-.13-3.65-.36-4.61-1.38l0,0c-.7-.81-.31-1.64.42-2.24a3.42,3.42,0,0,1,1.12-.63c1.59-.49,3.59-.26,5.31-.26a25.11,25.11,0,0,1,6.2,1.2c1.22.31,2.76.49,3-.47a2.46,2.46,0,0,0,.73-.1,7.23,7.23,0,0,0,1.33-.86c.57-.34,1.12-.68,1.69-1a34.15,34.15,0,0,0,3.86-2.84c.57.65,1.2,1.43,1.64,2,.26.29.52.57.81.86,1,1,2.19,2,3.26,2.89a33.93,33.93,0,0,0,3.62,2.45,15.4,15.4,0,0,0,3.46,2.06l1.64.55a33.53,33.53,0,0,0,3.75,1,30.82,30.82,0,0,1,4.9,1c1.51.6,3,1,4.58,1.54a16.52,16.52,0,0,1,3.49,2,6.52,6.52,0,0,1,2.76,2.6l-.29-.08C192,257.72,191.73,258.58,191.73,259.41Z" transform="translate(-0.72 -0.75)"/><path class="cls-10" d="M155.88,303.54c-.13.91.31,1.09,1,1.43.18.1.36.18.52.29-1.56,1.41-3.57,1-5.42-.34-2.58-1.93-4.66-4.58-7-6.8A91.6,91.6,0,0,0,133.69,289c-1.43-1-3.31-2.29-5.05-1.69-2.08.73-1.72,3.8-1.93,5.57-.31,2.45-.29,5-.63,7.4-.26,1.88-.16,4.17-2.45,4.51a.78.78,0,0,0,.1-.21c.29-.76.6-1.69-.21-2.08a2,2,0,0,0-2.16,1.43,3.52,3.52,0,0,1-.47-2.11c.21-2.76.7-5.55,1-8.28.29-3.15.83-6.15.81-9.3a52.47,52.47,0,0,0-.47-8.34c-.05-.26-.1-.55-.16-.83-.21-1.09-.47-2.19-.73-3.28v0c-.83-3.36-1.9-6.69-3-10a39.53,39.53,0,0,0-2.16-6.1c.47-.44.76-1,1.43-1.38a4.68,4.68,0,0,1,2.74-.47c1.59.26,2.37,2.32,3,3.67,1.28,2.81,2.47,5.73,3.83,8.49s2.79,5.91,4.74,8.21c4.12,4.79,10.89,5.68,16.85,6a17.38,17.38,0,0,0,3.88-.26c1.17-.21,2.32-.49,3.31.34a5.3,5.3,0,0,1,.44.39l0,0a4.23,4.23,0,0,1,1.43,2.63,1.38,1.38,0,0,1-.86,1.28c-2,1-5.16.52-7.35.52-3.86,0-7.42.63-11.23-.47.94.94,1.85,1.88,2.87,2.76a86.52,86.52,0,0,0,8.39,7.06c2.45,1.69,5.42,2.81,7.68,4.74a4.64,4.64,0,0,1,1.46,2.19v0A2.49,2.49,0,0,0,155.88,303.54Z" transform="translate(-0.72 -0.75)"/><path class="cls-10" d="M129.52,274.6a48,48,0,0,0,3.39,4.56,28.76,28.76,0,0,0,3.86,3.91c.55.49,1.07,1,1.59,1.54" transform="translate(-0.72 -0.75)"/><path class="cls-11" d="M27,170c.43-1.11,4.51-1.68,5.77-2a110.06,110.06,0,0,0,10.82-3.82c5.1-2.09,9.63-4.3,13.48-8,1.48-1.42,3-3.82,4.75-4.77" transform="translate(-0.72 -0.75)"/><path class="cls-11" d="M138.9,85.08c.29.31.16,1.8.18,2.68a14.16,14.16,0,0,1,0,4.06c-.42,1.82-1.64,3.39-2.19,5.16-1.12,3.62.23,7.24,1.46,10.71,1.41,4,4.12,7.42,5,11.67.42,2,.86,4.32-.18,5.89-.76,1.12-1.64,1-1.67,2.58,0,3.13,2.89,7.95,4.64,10.47,2.4,3.49,6.41,5.89,8.34,9.64a10,10,0,0,1,.81,6.88,13.28,13.28,0,0,0-.42,5,39.89,39.89,0,0,1-1.17,11.64c-.73,3-.89,6.12-2,9-1.35,3.62-4.45,6.38-7.4,8.88-3.2,2.74-6.12,5.94-9.59,8.28a37.77,37.77,0,0,1-8.86,4.19c-2.37.81-4.85,1.35-7.11,2.08-3.52,1.17-6.77,3.13-10.45,3.88-3.18.63-7.11.1-10.24-.39s-6.51-.81-9.74-1.28a17.3,17.3,0,0,1-8.91-4.56c-1.82-1.54-3.52-3.31-5.39-4.92l-.18-.16c-2.4-2.08-5.37-3-7.55-5.42-1.2-1.35-3.07-3.7-3.41-5.73a3.78,3.78,0,0,1-.05-.94,16.34,16.34,0,0,1-6.33-3.52,14.83,14.83,0,0,1-2-2.06,22,22,0,0,1-4.66-9.93,17.37,17.37,0,0,1,.55-5.81,20.13,20.13,0,0,1,.78-2.63" transform="translate(-0.72 -0.75)"/><path class="cls-11" d="M19.82,183c-1.89,6.07,7.8,8.14,11.23,11.38" transform="translate(-0.72 -0.75)"/><path class="cls-11" d="M54.57,178.81c-1.07,1.62-1.88,3.54-3.36,4.45a10,10,0,0,1-2.71,1c-1.15.29-2.37.49-3.31.78a26.52,26.52,0,0,1-5.73,1,44.83,44.83,0,0,1-6.2,0,19,19,0,0,1-5.24-.86s0,0-.05,0a9.52,9.52,0,0,1-2.79-1.54c-1.48-1.2-4.3-2.28-4.25-4.42" transform="translate(-0.72 -0.75)"/><path class="cls-11" d="M2.92,195.9c2.92,1.07,7.35-.42,10.24-.89a37.77,37.77,0,0,0,10.26-3.41c.68-.34,1.33-.83,2-1.25" transform="translate(-0.72 -0.75)"/><path class="cls-11" d="M28,185.14s0,.05.05,0A94.21,94.21,0,0,0,41.5,194.6c8.21,4.9,17.61,5.78,26.81,6.72a99.17,99.17,0,0,0,11.15.23" transform="translate(-0.72 -0.75)"/><path class="cls-11" d="M39.47,186.05c2.47,1.15,5,2.16,7.58,3.18,6,2.37,12.37,3.2,18.26,5.55a26.34,26.34,0,0,0,4.48.94c1.48.29,2.84.65,4.27.91" transform="translate(-0.72 -0.75)"/><path class="cls-11" d="M48.51,184.26c1.64.16,3.36.1,4.9.29,3.1.39,6.33.6,9.51.78" transform="translate(-0.72 -0.75)"/><path class="cls-12" d="M202.75,47.49c-.26,1.35-1.33,2.42-2.55,1.2a9.29,9.29,0,0,1-1.51-2.84,6.7,6.7,0,0,0-.29-.63c-.76-1.41-1-3-1.82-4.38-.65-1.12-1.64-.94-2.47-1.77a43.44,43.44,0,0,1-3.33-3.23,16,16,0,0,0-2.45-2.34c1.22-.08,2.34-.86,3.52-1.28a11.61,11.61,0,0,1,2.55-.81c.52,0,.73.42,1.33.49,1.3.18,2.19-1.2,3.44-1.38s2.19.83,3.46.26a4.53,4.53,0,0,0,.91-.57c.1,1.22-.49,2.34-.7,3.59a35.17,35.17,0,0,0-.39,4.06C202.25,41.06,203.42,44.29,202.75,47.49Z" transform="translate(-0.72 -0.75)"/><path class="cls-3" d="M203.53,30.22a4.53,4.53,0,0,1-.91.57c-1.28.57-2.21-.44-3.46-.26s-2.14,1.56-3.44,1.38c-.6-.08-.81-.52-1.33-.49a11.61,11.61,0,0,0-2.55.81c-1.17.42-2.29,1.2-3.52,1.28h0a4.84,4.84,0,0,1-.6,0,3.55,3.55,0,0,1-.44-.1,8,8,0,0,1-1.72-1.09c-.55-.36-1.17-.68-1.69-1.07s-1.8-1.38-1-1.85h0a18.34,18.34,0,0,1,2-2.08c1.59-1.59,3.54-3.8,5.84-4.25a6.54,6.54,0,0,1,3,.39,12.4,12.4,0,0,1,1.82,1.22,2.53,2.53,0,0,1,.42-.73,3.16,3.16,0,0,1,2.89-1.35,5.1,5.1,0,0,1,3.13,2.55A31.44,31.44,0,0,1,204,27.93,1.74,1.74,0,0,1,203.53,30.22Z" transform="translate(-0.72 -0.75)"/><path class="cls-12" d="M59.48,153.38c-.85,1-1.66,2-2.46,2.77a30.63,30.63,0,0,1-5.8,4.32,60.22,60.22,0,0,1-7.69,3.67A110.65,110.65,0,0,1,32.72,168,38.28,38.28,0,0,0,28,169.22a7.77,7.77,0,0,0,.86-1.19c2.32-3.83,5.57-5.78,9.64-7.53s8.18-3.12,12.21-4.43c1.82-.6,3.57-1.46,5.39-2.06C56.77,153.78,58.33,153.7,59.48,153.38Z" transform="translate(-0.72 -0.75)"/><path class="cls-2" d="M54.58,178.81c-1.07,1.62-1.87,3.54-3.36,4.46a10.08,10.08,0,0,1-2.71,1c-1.15.29-2.37.49-3.31.78a26.56,26.56,0,0,1-5.73,1,45.42,45.42,0,0,1-6.2,0,19,19,0,0,1-5.23-.86s0,0-.05,0a9.53,9.53,0,0,1-2.79-1.54c-1.47-1.18-4.25-2.26-4.25-4.36v-.06a8.82,8.82,0,0,1,.1-.9,11.42,11.42,0,0,1,1.8-4.72,13.41,13.41,0,0,1,3.36-2.92A10.29,10.29,0,0,0,28,169.22,38.28,38.28,0,0,1,32.72,168a110.65,110.65,0,0,0,10.82-3.82,60.22,60.22,0,0,0,7.69-3.67,20.79,20.79,0,0,0-.77,2.6,17.32,17.32,0,0,0-.55,5.81A22,22,0,0,0,54.58,178.81Z" transform="translate(-0.72 -0.75)"/><path class="cls-12" d="M62.91,185.32c-3.18-.18-6.41-.39-9.51-.78-1.53-.19-3.25-.13-4.9-.29a10.08,10.08,0,0,0,2.71-1c1.49-.92,2.29-2.84,3.36-4.46a14.71,14.71,0,0,0,2,2.06,16.41,16.41,0,0,0,6.33,3.52A3.81,3.81,0,0,0,62.91,185.32Z" transform="translate(-0.72 -0.75)"/><path class="cls-2" d="M84.78,205.08c-1,0-2.08,0-3.05.07-1.82.1-3.75.52-5.63.62-4.87.26-10-.91-14.72-1.85S52.3,202.18,47.73,201c-3.23-.81-7.17-1.17-10.08-2.63C35,197,32.55,195,29.84,193.92c-.89,1.1-5.11,1.49-6.61,1.83-4,.89-9.43,2.6-13.5,1.53a40.08,40.08,0,0,0-4.79-.73A6,6,0,0,1,3.2,196c2.91.88,7.16-.53,10-1a37.63,37.63,0,0,0,10.26-3.41,15.58,15.58,0,0,0,1.5-.93c-3.29-1.86-6.22-4.05-5.11-7.64a2.54,2.54,0,0,1,.44-.06,7.83,7.83,0,0,0,.68-3.74c0,2.1,2.78,3.18,4.25,4.36A9.53,9.53,0,0,0,28,185.14s0,.05.05,0A94.49,94.49,0,0,0,41.5,194.6c8.21,4.9,17.61,5.78,26.81,6.72a100.35,100.35,0,0,0,11.15.23A20.79,20.79,0,0,0,84.78,205.08Z" transform="translate(-0.72 -0.75)"/><path class="cls-13" d="M87.31,205.08c.23.32.48.65.75,1a13.73,13.73,0,0,1-3.28-1C85.65,205.07,86.51,205.07,87.31,205.08Z" transform="translate(-0.72 -0.75)"/><path class="cls-2" d="M24.92,190.68a15.58,15.58,0,0,1-1.5.93A37.63,37.63,0,0,1,13.15,195c-2.8.45-7,1.86-10,1l-.09,0c-.7-.32-1.35-.71-2.11-1,.15-1.33,2.37-2.68,3.41-3.36a64.92,64.92,0,0,1,8.42-4.92c1.43-.63,2.86-1.31,4.22-2.06A12.43,12.43,0,0,1,19.81,183C18.7,186.62,21.63,188.81,24.92,190.68Z" transform="translate(-0.72 -0.75)"/><path class="cls-11" d="M61.78,151.38a9.21,9.21,0,0,0-2.3,2" transform="translate(-0.72 -0.75)"/><path class="cls-11" d="M28,169.22a1.83,1.83,0,0,0-1,.79" transform="translate(-0.72 -0.75)"/><path class="cls-14" d="M155.29,154.82a13.33,13.33,0,0,0-.42,5,40,40,0,0,1-1.17,11.64c-.73,3-.89,6.12-2,9-1.36,3.62-4.46,6.38-7.4,8.88-3.2,2.73-6.12,5.94-9.58,8.28a37.93,37.93,0,0,1-8.86,4.2c-2.37.81-4.84,1.35-7.11,2.08-3.52,1.17-6.77,3.12-10.45,3.88-3.18.62-7.11.1-10.24-.39s-6.51-.81-9.74-1.28a17.29,17.29,0,0,1-8.91-4.56c-1.82-1.53-3.52-3.31-5.39-4.92l-.18-.16c-2.4-2.08-5.37-3-7.56-5.42-1.19-1.35-3.07-3.7-3.41-5.73a3.81,3.81,0,0,1-.05-.94,16.41,16.41,0,0,1-6.33-3.52,14.71,14.71,0,0,1-2-2.06,22,22,0,0,1-4.66-9.92,17.32,17.32,0,0,1,.55-5.81,20.79,20.79,0,0,1,.77-2.6,30.63,30.63,0,0,0,5.8-4.32c.8-.77,1.61-1.82,2.46-2.77.69-.19,1.23-.45,1.36-.88,2.89-2.82,7.69-6.93,10.73-9.69a9,9,0,0,0,1.87-1.33c1.46-1.12,2.84-2.37,4.3-3.49,6.83-5.23,11.78-12.82,16.85-19.62a66.9,66.9,0,0,1,9.07-9.92c2.81-2.55,5.44-3.8,8.72-5.6,6.9-3.7,13.21-8.78,20.11-12.5A22.22,22.22,0,0,0,139,85.21a12.15,12.15,0,0,1,.11,2.56,14.12,14.12,0,0,1,0,4.06c-.42,1.83-1.64,3.39-2.19,5.16-1.12,3.62.23,7.24,1.46,10.71,1.41,4,4.12,7.43,5,11.67.42,2,.86,4.33-.18,5.89-.76,1.12-1.64,1-1.67,2.58,0,3.13,2.89,7.95,4.63,10.48,2.4,3.49,6.41,5.88,8.34,9.64A10,10,0,0,1,155.29,154.82Z" transform="translate(-0.72 -0.75)"/><path class="cls-11" d="M51.24,160.44v0" transform="translate(-0.72 -0.75)"/><path class="cls-11" d="M139,85.21a.35.35,0,0,0-.07-.12" transform="translate(-0.72 -0.75)"/><path class="cls-11" d="M31,194.41c-1.41-1.32-3.85-2.45-6.13-3.73" transform="translate(-0.72 -0.75)"/><line class="cls-11" x1="19.09" y1="182.29" x2="19.09" y2="182.28"/><path class="cls-11" d="M25.43,190.35l-.5.32" transform="translate(-0.72 -0.75)"/><path class="cls-11" d="M3.11,196l-.19-.06" transform="translate(-0.72 -0.75)"/><path class="cls-14" d="M79.45,201.55a100.35,100.35,0,0,1-11.15-.23c-9.2-.94-18.6-1.83-26.81-6.72A94.49,94.49,0,0,1,28,185.17a19,19,0,0,0,5.23.86,45.42,45.42,0,0,0,6.2,0c2.47,1.15,5,2.16,7.58,3.18,6,2.37,12.37,3.21,18.26,5.55a26.15,26.15,0,0,0,4.48.94c1.49.28,2.84.65,4.27.91C75.94,198.24,77.63,200,79.45,201.55Z" transform="translate(-0.72 -0.75)"/><path class="cls-1" d="M74.06,196.63c-1.43-.26-2.78-.63-4.27-.91a26.15,26.15,0,0,1-4.48-.94c-5.89-2.34-12.22-3.18-18.26-5.55-2.58-1-5.11-2-7.58-3.18a26.56,26.56,0,0,0,5.73-1c.94-.29,2.16-.49,3.31-.78,1.64.15,3.36.1,4.9.29,3.1.39,6.33.6,9.51.78.34,2,2.22,4.38,3.41,5.73,2.19,2.45,5.16,3.33,7.56,5.42Z" transform="translate(-0.72 -0.75)"/></svg>